<svg xmlns="http://www.w3.org/2000/svg" fill="none" viewBox="0 0 127 220">
  <g clip-path="url(#a)">
    <path fill="#177C1B" d="M41.9223 177.622c-.6725.336-.6725.896 0 1.343.6726.336 1.6814.336 2.2419 0 .6725-.335.6725-.895 0-1.343-.5605-.335-1.5693-.335-2.2419 0Zm7.0618-1.902c.8667 0 1.5693-.401 1.5693-.895 0-.495-.7026-.896-1.5693-.896-.8667 0-1.5693.401-1.5693.896 0 .494.7026.895 1.5693.895Zm28.359 8.729c-.672.336-.672.895 0 1.343.673.336 1.682.336 2.242 0 .673-.336.673-.895 0-1.343-.672-.448-1.681-.448-2.242 0Zm-4.8197-1.902c.8666 0 1.5696-.401 1.5696-.896 0-.494-.703-.895-1.5696-.895-.8667 0-1.5693.401-1.5693.895 0 .495.7026.896 1.5693.896ZM53.804 170.796c-.6726.335-.6726.895 0 1.343.6725.335 1.6813.335 2.2418 0 .6726-.336.6726-.896 0-1.343-.6725-.336-1.6814-.336-2.2418 0Zm35.3089 13.653c-.673.336-.673.895 0 1.343.673.336 1.681.336 2.242 0 .672-.336.672-.895 0-1.343-.673-.448-1.682-.448-2.242 0Zm-5.9409-3.469c-.672.336-.672.895 0 1.343.673.336 1.681.336 2.242 0 .672-.336.672-.896 0-1.343-.561-.336-1.569-.336-2.242 0Zm-5.8289-3.358c-.672.336-.672.896 0 1.343.673.336 1.682.336 2.242 0 .673-.335.673-.895 0-1.343-.672-.335-1.681-.335-2.242 0Zm-4.8197-1.902c.8666 0 1.5696-.401 1.5696-.895 0-.495-.703-.896-1.5696-.896-.8667 0-1.5693.401-1.5693.896 0 .494.7026.895 1.5693.895Zm-5.8289-3.357c.8667 0 1.5693-.401 1.5693-.896 0-.494-.7026-.895-1.5693-.895-.8667 0-1.5693.401-1.5693.895 0 .495.7026.896 1.5693.896Zm-5.9406-3.358c.8666 0 1.5692-.401 1.5692-.895 0-.495-.7026-.896-1.5692-.896-.8667 0-1.5693.401-1.5693.896 0 .494.7026.895 1.5693.895Zm35.309 13.542c.866 0 1.569-.401 1.569-.896 0-.494-.703-.895-1.569-.895-.867 0-1.57.401-1.57.895 0 .495.703.896 1.57.896Zm-6.95-4.925c-.673.336-.673.896 0 1.343.673.336 1.681.336 2.242 0 .672-.335.672-.895 0-1.343-.673-.335-1.682-.335-2.242 0Zm-5.9409-3.357c-.672.336-.672.895 0 1.343.673.336 1.681.336 2.242 0 .672-.336.672-.895 0-1.343-.561-.448-1.569-.448-2.242 0Zm-5.8289-3.469c-.672.335-.672.895 0 1.343.673.335 1.682.335 2.242 0 .673-.336.673-.896 0-1.343-.672-.336-1.681-.336-2.242 0Zm-5.9407-3.358c-.6726.336-.6726.896 0 1.343.6725.336 1.6815.336 2.2415 0 .673-.336.673-.895 0-1.343-.56-.336-1.569-.336-2.2415 0Zm-5.8287-3.357c-.6725.336-.6725.895 0 1.343.6726.336 1.6814.336 2.2418 0 .6726-.336.6726-.895 0-1.343-.6725-.448-1.6813-.448-2.2418 0Zm36.4303 14.996c.866 0 1.569-.401 1.569-.895 0-.495-.703-.895-1.569-.895-.867 0-1.57.4-1.57.895 0 .494.703.895 1.57.895Zm-5.829-3.357c.866 0 1.569-.401 1.569-.895 0-.495-.703-.896-1.569-.896-.867 0-1.57.401-1.57.896 0 .494.703.895 1.57.895Zm-12.891-8.282c-.672.336-.672.896 0 1.343.673.336 1.682.336 2.242 0 .673-.335.673-.895 0-1.343-.673-.447-1.681-.447-2.242 0Zm-5.9409-3.469c-.672.336-.672.895 0 1.343.673.336 1.682.336 2.242 0 .673-.336.673-.895 0-1.343-.56-.336-1.569-.336-2.242 0Zm-5.8284-3.357c-.6726.335-.6726.895 0 1.343.6725.335 1.6814.335 2.2414 0 .673-.336.673-.896 0-1.343-.672-.336-1.681-.336-2.2414 0Zm35.3083 13.541c-.672.336-.672.895 0 1.343.673.336 1.682.336 2.242 0 .673-.336.673-.895 0-1.343-.672-.336-1.681-.336-2.242 0Zm-4.819-1.79c.866 0 1.569-.401 1.569-.896 0-.494-.703-.895-1.569-.895-.867 0-1.57.401-1.57.895 0 .495.703.896 1.57.896Zm-23.54-13.654c.867 0 1.57-.401 1.57-.895 0-.495-.703-.896-1.57-.896-.866 0-1.569.401-1.569.896 0 .494.703.895 1.569.895Zm35.309 13.654c.867 0 1.569-.401 1.569-.896 0-.494-.702-.895-1.569-.895s-1.569.401-1.569.895c0 .495.702.896 1.569.896Zm-5.829-3.47c.867 0 1.57-.401 1.57-.895 0-.495-.703-.895-1.57-.895-.866 0-1.569.4-1.569.895 0 .494.703.895 1.569.895Zm10.649-1.455c-.672.336-.672.896 0 1.343.673.336 1.681.336 2.242 0 .673-.335.673-.895 0-1.343-.673-.447-1.681-.447-2.242 0Zm-4.82-1.902c.867 0 1.569-.401 1.569-.896 0-.494-.702-.895-1.569-.895s-1.569.401-1.569.895c0 .495.702.896 1.569.896Zm4.82-4.924c-.672.335-.672.895 0 1.343.673.335 1.681.335 2.242 0 .56-.336.673-.896 0-1.343-.673-.336-1.681-.336-2.242 0Zm-5.941-3.358c-.672.336-.672.896 0 1.343.673.336 1.682.336 2.242 0 .673-.336.673-.895 0-1.343-.56-.447-1.569-.447-2.242 0Zm-76.6705 17.011c-.6726.336-.6726.895 0 1.343.6725.336 1.6813.336 2.2418 0 .6726-.336.6726-.895 0-1.343-.5605-.336-1.5693-.336-2.2418 0Zm-4.7079-1.902c.8667 0 1.5693-.401 1.5693-.896 0-.494-.7026-.895-1.5693-.895-.8667 0-1.5693.401-1.5693.895 0 .495.7026.896 1.5693.896Zm-5.941-3.358c.8667 0 1.5693-.401 1.5693-.895 0-.495-.7026-.896-1.5693-.896-.8666 0-1.5692.401-1.5692.896 0 .494.7026.895 1.5692.895Zm-5.8285-3.357c.8667 0 1.5693-.401 1.5693-.896 0-.494-.7026-.895-1.5693-.895-.8667 0-1.5693.401-1.5693.895 0 .495.7026.896 1.5693.896Zm-5.9409-3.47c.8667 0 1.5693-.401 1.5693-.895s-.7026-.895-1.5693-.895c-.8667 0-1.5693.401-1.5693.895s.7026.895 1.5693.895Zm-6.9497-4.924c-.6725.336-.6725.895 0 1.343.6726.336 1.6814.336 2.2418 0 .6726-.336.6726-.895 0-1.343-.6725-.336-1.6813-.336-2.2418 0Zm-5.9408-3.357c-.6726.336-.6726.895 0 1.343.6725.336 1.6813.336 2.2418 0 .6725-.336.6725-.896 0-1.343-.5605-.336-1.5693-.336-2.2418 0Zm43.4915 17.011c-.6726-.336-1.6814-.336-2.2419 0-.6725.335-.6725.895 0 1.343.6726.447 1.6814.335 2.2419 0 .6725-.448.6725-1.008 0-1.343Zm-8.1827-3.47c-.6726.336-.6726.896 0 1.343.6725.336 1.6813.336 2.2418 0 .6726-.336.6726-.895 0-1.343-.5605-.336-1.5693-.336-2.2418 0Zm-10.6489-5.26c.8667 0 1.5693-.401 1.5693-.895s-.7026-.895-1.5693-.895c-.8666 0-1.5692.401-1.5692.895s.7026.895 1.5692.895Zm-5.8285-3.357c.8667 0 1.5693-.401 1.5693-.895 0-.495-.7026-.896-1.5693-.896-.8667 0-1.5693.401-1.5693.896 0 .494.7026.895 1.5693.895Zm-5.9409-3.357c.8667 0 1.5693-.401 1.5693-.896 0-.494-.7026-.895-1.5693-.895-.8667 0-1.5693.401-1.5693.895 0 .495.7026.896 1.5693.896Zm-5.8289-3.47c.8667 0 1.5693-.401 1.5693-.895 0-.495-.7026-.895-1.5693-.895-.8667 0-1.5693.4-1.5693.895 0 .494.7026.895 1.5693.895Zm42.3706 15.444c-.6725-.336-1.6813-.336-2.2418 0-.6726.336-.6726.896 0 1.343.6725.336 1.6814.336 2.2418 0 .5605-.336.5605-1.007 0-1.343ZM18.383 150.539c-.6725.336-.6725.896 0 1.343.6726.336 1.6814.336 2.2419 0 .5604-.447-1.6814-1.79-2.2419-1.343Zm-3.699-3.469c-.6725-.336-1.6814-.336-2.2418 0-.6726.336-.6726.895 0 1.343.6725.336 1.6814.336 2.2418 0 .6726-.336.6726-1.007 0-1.343.6726.336-.5604-.336 0 0Zm41.2497 17.011c-.6726-.336-1.6814-.336-2.2418 0-.6726.336-.6726.895 0 1.343.6725.336 1.6813.336 2.2418 0 .6726-.448.6726-1.007 0-1.343Zm5.941-3.358c-.6726-.335-1.6814-.335-2.2419 0-.6725.336-.6725.896 0 1.343.6726.336 1.6814.336 2.2419 0 .5604-.447.5604-1.007 0-1.343Zm4.8198-1.902c.8667 0 1.5693-.401 1.5693-.895 0-.495-.7026-.896-1.5693-.896-.8667 0-1.5693.401-1.5693.896 0 .494.7026.895 1.5693.895Zm6.9494-4.924c-.6723-.336-1.6811-.336-2.2415 0-.6726.336-.6726.895 0 1.343.6725.336 1.6815.336 2.2415 0 .673-.448.673-1.007 0-1.343Zm-8.0702-3.47c-.6725.336-.6725.896 0 1.343.6726.336 1.6814.336 2.2418 0 .6726-.335.6726-.895 0-1.343-.6725-.335-1.6813-.335-2.2418 0Zm-33.4035 26.636c-.6725-.336-1.6813-.336-2.2418 0-.6725.336-.6725.895 0 1.343.6726.336 1.6814.336 2.2418 0 .6726-.336.6726-.895 0-1.343Zm-8.1827-3.358c-.6725.336-.6725.896 0 1.343.6726.336 1.6814.336 2.2419 0 .6725-.335.6725-.895 0-1.343-.5605-.335-1.5693-.335-2.2419 0Zm-5.8285-3.357c-.6726.336-.6726.895 0 1.343.6725.336 1.6813.336 2.2418 0 .6726-.336.6726-.895 0-1.343-.6725-.336-1.6814-.336-2.2418 0Zm-5.9409-3.469c-.6726.336-.6726.895 0 1.343.6725.335 1.6814.335 2.2418 0 .6726-.336.6726-.896 0-1.343-.5604-.336-1.5693-.336-2.2418 0Zm-4.7079-1.791c.8666 0 1.5692-.401 1.5692-.895 0-.495-.7026-.896-1.5692-.896-.8667 0-1.5693.401-1.5693.896 0 .494.7026.895 1.5693.895Zm-5.9409-3.357c.8667 0 1.5693-.401 1.5693-.896 0-.494-.7026-.895-1.5693-.895-.8667 0-1.5693.401-1.5693.895 0 .495.7026.896 1.5693.896Z"/>
    <path fill="#F6A01D" d="M46.0696 76.6768c-.2242-.8953.1121-1.7906.8968-2.2382l14.3477-8.1697c.5605-.4477 1.2331-.7834 1.9057-1.1191l.4482-.2239.2243-.1119c6.6134-3.0216 15.4686-1.9025 25.6686 3.917 20.0651 11.5271 36.3181 37.491 36.3181 57.971 0 8.729-2.802 14.884-7.734 18.354l-.224.224-.337.223c-.672.448-1.121.784-1.905 1.119l-6.838 3.917v11.639c0 .784-.336 1.343-.785 1.455l-14.4591 8.17c-.561.336-1.345 0-1.458-.56l-4.595-13.317-.673-3.917 11.433-2.91-3.923-6.043c-1.457-.672-3.026-1.455-4.483-2.351-8.519-4.924-16.3659-12.422-22.5307-20.927l-10.761-7.946-10.5366-37.1552Z"/>
    <path fill="#FDEDCC" d="M45.5093 82.7199c-.2242-.8953.1121-1.7906.8967-2.2383l14.3478-8.1697c.5604-.4476 1.233-.7834 1.9055-1.1191l.4484-.2238.2242-.112c6.6134-3.0216 15.5811-1.9025 25.6691 3.917 20.064 11.5271 36.318 37.491 36.318 57.971 0 8.729-31.722 18.466-31.722 18.466-1.458-.672-3.027-1.455-4.484-2.35-8.519-4.924-16.3654-12.423-22.5305-20.928l-10.7608-7.946-10.3124-37.2671Z"/>
    <path fill="#177C1B" d="M92.0271 173.034c-.672-.224-1.121-.671-1.345-1.343l-4.596-13.541-.896-5.037 10.873-2.685-2.803-4.477c-1.457-.671-2.914-1.455-4.259-2.238-8.407-4.701-16.2534-12.087-22.8668-21.04l-10.873-8.058-10.3124-37.6025c-.3363-1.343.2242-2.9098 1.4572-3.5813l14.2357-8.1696c.5604-.3358 1.233-.7834 2.0176-1.1192l.7846-.4476c7.1739-3.2455 16.5901-1.7907 26.6781 4.0288C110.41 79.4745 127 105.886 127 126.702c0 8.841-2.802 15.556-8.183 19.249l-.672.56c-.673.447-1.233.783-2.018 1.119l-6.277 3.581v10.967c0 1.231-.56 2.239-1.345 2.463l-14.4599 8.169c-.336.224-.673.336-1.121.336-.336 0-.672 0-.897-.112ZM64.2287 65.8211l-.5605.3358c-.5604.3357-1.233.6714-1.7934 1.0072l-14.2357 8.2816c-.3363.2238-.4484.5595-.4484.8953L57.279 113.16l10.4245 7.722.2242.224c6.3894 8.841 14.0114 16.004 22.0824 20.704 1.457.784 2.914 1.567 4.371 2.238l.337.112 5.044 7.61-11.882 3.022.448 2.686 4.372 13.318 14.6839-8.282s.112-.112.112-.447v-12.311l7.51-4.365c.673-.335 1.121-.559 1.794-1.007l.56-.447c4.82-3.358 7.286-9.177 7.286-17.459 0-20.032-16.029-45.5486-35.7569-56.9637-6.165-3.3574-11.994-5.1481-17.1503-5.1481-2.6902 0-5.2683.4477-7.5101 1.4549Z"/>
    <path fill="#177C1B" d="m91.6911 151.435 9.0799 2.238 9.079-5.148v13.653c0 1.232-.561 2.239-1.345 2.463l-15.1329 8.617c-.224.112-.56.224-.784.224-.224 0-.336 0-.561-.112-.448-.112-.784-.56-.896-1.007l-4.82-14.325-.897-5.036 6.277-1.567Z"/>
    <path fill="#177C1B" d="m88.6651 171.467-10.873-16.675c-1.457-.671-2.915-1.455-4.26-2.238-20.4005-11.639-36.878-38.163-36.878-58.8665 0-9.5126 3.4749-16.6751 9.6399-20.2563 7.286-4.2527 17.5984-3.1336 28.3591 3.1336 20.289 11.7509 36.8779 38.1622 36.8779 58.9782 0 12.982-6.501 21.487-17.1499 22.606v12.871c0 1.342-.672 2.238-1.681 2.574-.224.111-.448.111-.673.111-1.233 0-2.466-.783-3.362-2.238ZM47.527 75.3337c-5.4925 3.1336-8.5191 9.6246-8.5191 18.2419 0 20.1444 15.9172 45.6604 35.6452 56.9634 1.457.784 2.915 1.567 4.372 2.239l.336.112 11.321 17.234c.561.896 1.233 1.119 1.345 1.119 0 0 .112-.112.112-.447v-14.885l1.121-.112c10.0889-.559 16.0289-8.169 16.0289-20.368 0-20.032-16.0289-45.5486-35.7569-56.9637-6.1648-3.4693-12.1057-5.2599-17.2619-5.2599-3.2507 0-6.2772.6714-8.7432 2.1263Z"/>
    <path fill="#F6A01D" d="M73.981 78.2434c19.616 11.3032 35.533 36.7076 35.533 56.7396 0 12.982-6.726 20.593-16.814 21.152v13.654c0 2.014-2.13 2.014-3.475-.112l-10.873-16.675c-1.457-.672-2.914-1.343-4.371-2.239-19.6165-11.191-35.5335-36.707-35.5335-56.7398 0-20.0325 15.917-27.0831 35.5335-15.7798Z"/>
    <path fill="#FDEDCC" d="M82.6121 123.68c0 3.134 2.129 6.827 4.932 8.394 2.802 1.566 4.932.335 4.932-2.798 0-3.134-2.13-6.827-4.932-8.394-2.691-1.566-4.932-.335-4.932 2.798Z"/>
    <path fill="#177C1B" d="M89.113 130.619c-3.027-1.679-5.268-5.708-5.268-9.177 0-1.791.672-3.246 1.905-3.917 1.233-.672 2.69-.56 4.26.336 3.026 1.678 5.268 5.707 5.268 9.177 0 1.79-.673 3.245-1.906 3.917-.56.335-1.12.447-1.681.447-.785 0-1.681-.224-2.578-.783Zm-2.578-11.527c-.673.335-1.009 1.231-1.009 2.462 0 2.798 2.018 6.267 4.484 7.722 1.009.559 1.905.671 2.578.336.672-.336 1.009-1.231 1.009-2.463 0-2.797-2.018-6.267-4.484-7.722-.673-.335-1.233-.559-1.793-.559-.337 0-.561 0-.785.224Z"/>
    <path fill="#FDEDCC" d="M66.4705 114.279c0 3.134 2.1298 6.827 4.9321 8.394 2.6905 1.567 4.9325.336 4.9325-2.798 0-3.133-2.13-6.827-4.9325-8.393-2.8023-1.567-4.9321-.224-4.9321 2.797Z"/>
    <path fill="#177C1B" d="M72.8596 121.33c-3.0265-1.679-5.2683-5.708-5.2683-9.177 0-1.791.6725-3.245 1.9055-3.917 1.233-.671 2.6902-.559 4.2591.336 3.027 1.679 5.269 5.707 5.269 9.177 0 1.79-.673 3.245-1.906 3.917-.56.335-1.121.447-1.681.447-.785 0-1.682-.335-2.5783-.783Zm-2.5781-11.639c-.6726.336-1.0089 1.231-1.0089 2.462 0 2.798 2.0177 6.267 4.4833 7.722 1.009.56 1.906.672 2.579.336.672-.336 1.008-1.231 1.008-2.462 0-2.798-2.017-6.267-4.4833-7.722-.6726-.336-1.233-.56-1.7935-.56-.2242 0-.5605.112-.7846.224Z"/>
    <path fill="#FDEDCC" d="M50.217 104.991c0 3.133 2.1298 6.826 4.9321 8.393 2.6902 1.567 4.932.336 4.932-2.798 0-3.133-2.1297-6.826-4.932-8.393-2.8023-1.567-4.9321-.336-4.9321 2.798Z"/>
    <path fill="#177C1B" d="M56.6063 111.929c-3.0265-1.678-5.2684-5.707-5.2684-9.177 0-1.79.6726-3.245 1.9056-3.9165s2.6902-.5596 4.2595.3357c3.0265 1.6788 5.2683 5.7078 5.2683 9.1768 0 1.791-.6725 3.246-1.9056 3.917-.5604.336-1.1209.448-1.6813.448-.7847 0-1.5693-.224-2.5781-.784Zm-2.5782-11.527c-.6725.336-1.0088 1.231-1.0088 2.462 0 2.798 2.0177 6.268 4.4837 7.722 1.0088.56 1.9056.672 2.5781.336.6726-.336 1.0088-1.231 1.0088-2.462 0-2.798-2.0176-6.267-4.4836-7.722-.6726-.336-1.2331-.56-1.7935-.56-.2242 0-.4484 0-.7847.224Z"/>
    <path fill="#F6A01D" d="m10.4246 111.146 11.2092-6.155c4.3716-2.462 10.6487-1.903 17.5984 2.126 13.1148 7.498 23.6514 24.397 23.6514 37.827 0 6.043-1.7935 10.072-5.3804 12.198l-.3363.336-11.4334 6.267-1.7934-5.931c-1.5693-.56-3.1386-1.343-4.82-2.238-.1121-.112-.3362-.224-.4483-.336l-6.6135 4.029c-1.0088.671-2.8022-1.231-2.8022-2.91v-8.617c-8.1828-8.506-13.8994-20.257-13.8994-29.993v-.672l-4.9321-5.931Z"/>
    <path fill="#FDEDCC" d="m10.0884 116.518 11.2091-6.155c4.3716-2.462 10.6488-1.903 17.5985 2.126 13.1147 7.498 23.6513 24.509 23.6513 37.827 0 6.043-33.6275 2.686-33.6275 2.686-8.1827-8.506-13.8994-20.257-13.8994-29.993v-.672l-4.932-5.819Z"/>
    <path fill="#177C1B" d="M43.0432 158.597c-1.4572-.559-2.9144-1.231-4.2595-2.014l-5.9408 3.581c-.6726.448-1.5693.336-2.3539-.112-1.3451-.671-2.2419-2.35-2.2419-3.917v-8.17c-8.4069-8.953-13.8994-20.815-13.8994-30.44v-.336l-5.8287-6.491 12.4422-6.938.5604-.336c4.82-2.35 11.4334-1.455 18.1589 2.462 13.451 7.722 24.3239 25.181 24.3239 38.834 0 6.379-2.0177 10.856-5.9409 13.206L44.9488 165.2l-1.9056-6.603Zm-20.849-52.711-.5605.336-9.4157 5.148 4.4837 5.036v1.119c0 9.177 5.2683 20.592 13.5631 29.209l.3363.336v9.177c0 .895.8967 1.903 1.0088 2.014l7.1738-4.364 1.0089.671c1.5693.896 3.1385 1.679 4.5957 2.239l.5605.223 1.4572 5.148 9.9762-5.483.4483-.336c3.2507-2.014 4.82-5.596 4.82-11.191 0-12.982-10.4246-29.545-23.0909-36.82-3.9232-2.238-7.7344-3.469-10.985-3.469-2.0177-.224-3.8111.224-5.3804 1.007Z"/>
    <path fill="#177C1B" d="M18.4952 166.655c-1.3451-.671-2.2418-2.35-2.2418-3.917v-8.17c-8.4069-8.953-13.8994-20.816-13.8994-30.44 0-6.379 2.354-11.191 6.5013-13.654 4.82-2.797 11.7697-2.014 18.9436 2.127 13.451 7.722 24.3239 25.18 24.3239 38.834 0 6.379-2.354 11.191-6.5013 13.653-4.82 2.798-11.6576 2.015-18.8315-2.014l-5.9408 3.581c-.3363.224-.6726.336-1.0089.336-.4483 0-.8967-.112-1.3451-.336Zm9.3037-5.596c6.3892 3.693 12.4421 4.477 16.5895 2.127 3.4749-2.015 5.3804-6.156 5.3804-11.639 0-12.982-10.4245-29.545-23.0909-36.82-6.3892-3.693-12.4421-4.476-16.5895-2.126-3.4749 2.014-5.3804 6.155-5.3804 11.639 0 9.177 5.2683 20.592 13.5631 29.209l.3362.336v9.177c0 .895.8968 1.902 1.0089 2.014l7.1738-4.364 1.0089.447Z"/>
    <path fill="#177C1B" d="m61.7627 136.774-11.6576 7.051.8968 9.848-2.1298 8.617 11.7697-7.386 2.2418-5.372-.2242-8.058-.8967-4.7Zm61.3143-25.852-15.245 9.401 2.578 12.87-1.345 11.415-2.578 7.162 13.227-7.722 4.484-7.162 1.569-8.729-.448-7.834-2.242-9.401Zm-21.858 46.892 7.062-4.141v-2.798l-5.044 3.022-2.018 3.917Z"/>
    <path fill="#F6A01D" d="M4.3716 124.575c0-12.87 10.3124-17.458 22.9788-10.184 12.6664 7.275 22.8667 23.726 22.8667 36.708 0 12.87-10.3124 17.458-22.9788 10.184-.1121-.112-.3363-.224-.4484-.224l-6.3892 3.917c-1.0088.56-2.6902-1.231-2.6902-2.798v-8.393c-7.8464-8.394-13.339-19.697-13.339-29.21Z"/>
    <path fill="#FDEDCC" d="M38.4837 150.057c1.2867-.742 1.3009-3.122.0318-5.317-1.2691-2.194-3.3409-3.372-4.6276-2.63-1.2866.741-1.3009 3.122-.0318 5.316 1.2691 2.195 3.3409 3.372 4.6276 2.631Z"/>
    <path fill="#177C1B" d="M37.1023 148.861c-2.0177-1.231-3.699-4.029-3.699-6.379 0-1.343.4483-2.35 1.3451-2.798.8967-.56 2.0176-.448 3.1385.224 2.0177 1.231 3.6991 4.029 3.6991 6.379 0 1.343-.4484 2.35-1.3451 2.798-.3363.223-.7847.335-1.2331.335-.6725 0-1.233-.224-1.9055-.559Zm-1.4572-7.722c-.3363.224-.5605.671-.5605 1.343 0 1.79 1.3451 4.029 2.8023 4.924.5605.336 1.1209.448 1.4572.224.3363-.224.5605-.672.5605-1.343 0-1.791-1.3451-4.029-2.8023-4.924-.3363-.224-.7847-.336-1.0088-.336-.2242 0-.3363 0-.4484.112Z"/>
    <path fill="#FDEDCC" d="M22.1941 138.005c0 2.126 1.4572 4.589 3.2506 5.596 1.7935 1.007 3.2507.224 3.2507-1.903 0-2.126-1.4572-4.588-3.2507-5.595-1.7934-1.008-3.2506-.224-3.2506 1.902Z"/>
    <path fill="#177C1B" d="M26.2295 142.594c-2.0177-1.232-3.699-4.029-3.699-6.38 0-1.342.4483-2.35 1.3451-2.797.8967-.56 2.0176-.448 3.1385.223 2.0177 1.232 3.6991 4.029 3.6991 6.38 0 1.342-.4484 2.35-1.3451 2.797-.3363.224-.7847.336-1.2331.336-.5604 0-1.233-.224-1.9055-.559Zm-1.4572-7.722c-.3363.223-.5605.671-.5605 1.342 0 1.791 1.3451 4.029 2.8023 4.925.5605.335 1.1209.447 1.4572.223.3363-.223.5605-.671.5605-1.342 0-1.791-1.3451-4.029-2.8023-4.925-.3363-.223-.7847-.335-1.0088-.335-.1121 0-.3363 0-.4484.112Z"/>
    <path fill="#FDEDCC" d="M16.8734 137.632c1.2867-.742 1.3009-3.122.0318-5.317-1.269-2.194-3.3409-3.372-4.6276-2.63-1.2866.741-1.3009 3.122-.0318 5.316 1.2691 2.195 3.3409 3.373 4.6276 2.631Z"/>
    <path fill="#177C1B" d="M15.4688 136.326c-2.0177-1.231-3.699-4.029-3.699-6.379 0-1.343.4483-2.35 1.3451-2.798.8967-.559 2.0176-.447 3.1385.224 2.0177 1.231 3.6991 4.029 3.6991 6.379 0 1.343-.4484 2.35-1.3451 2.798-.3363.224-.7847.336-1.2331.336-.6725 0-1.233-.112-1.9055-.56Zm-1.4572-7.722c-.3363.224-.5605.672-.5605 1.343 0 1.791 1.3451 4.029 2.8023 4.924.5605.336 1.1209.448 1.4572.224.3363-.224.5605-.671.5605-1.343 0-1.79-1.3451-4.029-2.8023-4.924-.3363-.224-.7847-.336-1.0088-.336-.2242 0-.3363.112-.4484.112Z"/>
  </g>
  <defs>
    <clipPath id="a">
      <path fill="#fff" d="M0 0h127v220H0z"/>
    </clipPath>
  </defs>
</svg>
