<svg xmlns="http://www.w3.org/2000/svg" fill="none" viewBox="0 0 200 220">
  <path fill="#177C1B" d="M128.4 195.248c-.6.3-.6.8 0 1.2.6.3 1.5.3 2 0 .6-.3.6-.8 0-1.2-.5-.3-1.4-.3-2 0Zm-10.6 0c-.6.3-.6.8 0 1.2.6.3 1.5.3 2 0 .6-.3.6-.8 0-1.2-.5-.3-1.4-.3-2 0Zm-21.2001 0c-.6.3-.6.8 0 1.2.6.3 1.5.3 2 0 .6-.3.6-.8 0-1.2-.5-.3-1.4-.3-2 0Zm-3.2998 3c.6.3.6.8 0 1.2-.6.3-1.5.3-2 0-.6-.3-.6-.8 0-1.2.6-.3 1.5-.3 2 0Zm-7.3001-3c-.6.3-.6.8 0 1.2.6.3 1.5.3 2 0 .6-.3.6-.8 0-1.2-.5-.3-1.4-.3-2 0Zm-3.3001 3c.6.3.6.8 0 1.2-.6.3-1.5.3-2 0-.6-.3-.6-.8 0-1.2.6-.3 1.5-.3 2 0Zm-7.2999-3c-.6.3-.6.8 0 1.2.6.3 1.5.3 2 0 .6-.3.6-.8 0-1.2-.5-.3-1.4-.3-2 0Zm63.6-6.1c-.6.3-.6.8 0 1.2.6.3 1.5.3 2 0 .6-.3.6-.8 0-1.2-.5-.3-1.4-.3-2 0Zm-3.3 3c.6.3.6.8 0 1.2-.6.3-1.5.3-2 0-.6-.3-.6-.8 0-1.2.6-.3 1.5-.3 2 0Zm-7.3-3c-.6.3-.6.8 0 1.2.6.3 1.5.3 2 0 .6-.3.6-.8 0-1.2-.5-.3-1.4-.3-2 0Zm-3.3 3c.6.3.6.8 0 1.2-.6.3-1.5.3-2 0-.6-.3-.6-.8 0-1.2.6-.3 1.5-.3 2 0Zm-7.3-3c-.6.3-.6.8 0 1.2.6.3 1.5.3 2 0 .6-.3.6-.8 0-1.2-.5-.3-1.4-.3-2 0Zm-3.3 3c.6.3.6.8 0 1.2-.6.3-1.5.3-2 0-.6-.3-.6-.8 0-1.2.6-.3 1.5-.3 2 0Zm-7.3-3c-.6.3-.6.8 0 1.2.6.3 1.5.3 2 0 .6-.3.6-.8 0-1.2-.5-.3-1.4-.3-2 0Zm-3.3 3c.6.3.6.8 0 1.2-.6.3-1.5.3-2 0-.6-.3-.6-.8 0-1.2.6-.3 1.5-.3 2 0Zm-7.3001-3c-.6.3-.6.8 0 1.2.6.3 1.5.3 2 0 .6-.3.6-.8 0-1.2-.5-.3-1.4-.3-2 0Zm-3.2998 3c.6.3.6.8 0 1.2-.6.3-1.5.3-2 0-.6-.3-.6-.8 0-1.2.6-.3 1.5-.3 2 0Zm-7.3001-3c-.6.3-.6.8 0 1.2.6.3 1.5.3 2 0 .6-.3.6-.8 0-1.2-.5-.3-1.4-.3-2 0Zm-3.3001 3c.6.3.6.8 0 1.2-.6.3-1.5.3-2 0-.6-.3-.6-.8 0-1.2.6-.3 1.5-.3 2 0Zm-7.2999-3c-.6.3-.6.8 0 1.2.6.3 1.5.3 2 0 .6-.3.6-.8 0-1.2-.5-.3-1.4-.3-2 0Zm-3.2999 3c.6.3.6.8 0 1.2-.6.3-1.5.3-2 0-.6-.3-.6-.8 0-1.2.6-.3 1.5-.3 2 0Zm-7.3-3c-.6.3-.6.8 0 1.2.6.3 1.5.3 2 0 .6-.3.6-.8 0-1.2-.5-.3-1.4-.3-2 0Zm84.7999-6.1c-.6.3-.6.8 0 1.2.6.3 1.5.3 2 0 .6-.3.6-.8 0-1.2-.5-.3-1.4-.3-2 0Zm-3.3 3c.6.3.6.8 0 1.2-.6.3-1.5.3-2 0-.6-.3-.6-.8 0-1.2.6-.3 1.5-.3 2 0Zm-7.3-3c-.6.3-.6.8 0 1.2.6.3 1.5.3 2 0 .6-.3.6-.8 0-1.2-.5-.3-1.4-.3-2 0Zm-3.3 3c.6.3.6.8 0 1.2-.6.3-1.5.3-2 0-.6-.3-.6-.8 0-1.2.6-.3 1.5-.3 2 0Zm-7.3-3c-.6.3-.6.8 0 1.2.6.3 1.5.3 2 0 .6-.3.6-.8 0-1.2-.5-.3-1.4-.3-2 0Zm-3.3 3c.6.3.6.8 0 1.2-.6.3-1.5.3-2 0-.6-.3-.6-.8 0-1.2.6-.3 1.5-.3 2 0Zm-7.3-3c-.6.3-.6.8 0 1.2.6.3 1.5.3 2 0 .6-.3.6-.8 0-1.2-.5-.3-1.4-.3-2 0Zm-3.3 3c.6.3.6.8 0 1.2-.6.3-1.5.3-2 0-.6-.3-.6-.8 0-1.2.6-.3 1.5-.3 2 0Zm-7.3-3c-.6.3-.6.8 0 1.2.6.3 1.5.3 2 0 .6-.3.6-.8 0-1.2-.5-.3-1.4-.3-2 0Zm-3.3 3c.6.3.6.8 0 1.2-.6.3-1.5.3-2 0-.6-.3-.6-.8 0-1.2.6-.3 1.5-.3 2 0Zm-7.3001-3c-.6.3-.6.8 0 1.2.6.3 1.5.3 2 0 .6-.3.6-.8 0-1.2-.5-.3-1.4-.3-2 0Zm-3.2998 3c.6.3.6.8 0 1.2-.6.3-1.5.3-2 0-.6-.3-.6-.8 0-1.2.6-.3 1.5-.3 2 0Zm-7.3001-3c-.6.3-.6.8 0 1.2.6.3 1.5.3 2 0 .6-.3.6-.8 0-1.2-.5-.3-1.4-.3-2 0Zm-3.3001 3c.6.3.6.8 0 1.2-.6.3-1.5.3-2 0-.6-.3-.6-.8 0-1.2.6-.3 1.5-.3 2 0Zm-7.2999-3c-.6.3-.6.8 0 1.2.6.3 1.5.3 2 0 .6-.3.6-.8 0-1.2-.5-.3-1.4-.3-2 0Zm-3.2999 3c.6.3.6.8 0 1.2-.6.3-1.5.3-2 0-.6-.3-.6-.8 0-1.2.6-.3 1.5-.3 2 0Zm-7.3-3c-.6.3-.6.8 0 1.2.6.3 1.5.3 2 0 .6-.3.6-.8 0-1.2-.5-.3-1.4-.3-2 0Zm-3.3001 3c.6.3.6.8 0 1.2-.6.3-1.5.3-2 0-.6-.3-.6-.8 0-1.2.6-.3 1.5-.3 2 0Zm-7.3-3c-.6.3-.6.8 0 1.2.6.3 1.5.3 2 0 .6-.3.6-.8 0-1.2-.5-.3-1.4-.3-2 0Zm106-6.1c-.6.3-.6.8 0 1.2.6.3 1.5.3 2 0 .6-.3.6-.8 0-1.2-.5-.3-1.4-.3-2 0Zm-3.3 3c.6.3.6.8 0 1.2-.6.3-1.5.3-2 0-.6-.3-.6-.8 0-1.2.6-.3 1.5-.3 2 0Zm-7.3-3c-.6.3-.6.8 0 1.2.6.3 1.5.3 2 0 .6-.3.6-.8 0-1.2-.5-.3-1.4-.3-2 0Zm-3.3 3c.6.3.6.8 0 1.2-.6.3-1.5.3-2 0-.6-.3-.6-.8 0-1.2.6-.3 1.5-.3 2 0Zm-7.3-3c-.6.3-.6.8 0 1.2.6.3 1.5.3 2 0 .6-.3.6-.8 0-1.2-.5-.3-1.4-.3-2 0Zm-3.3 3c.6.3.6.8 0 1.2-.6.3-1.5.3-2 0-.6-.3-.6-.8 0-1.2.6-.3 1.5-.3 2 0Zm-7.3-3c-.6.3-.6.8 0 1.2.6.3 1.5.3 2 0 .6-.3.6-.8 0-1.2-.5-.3-1.4-.3-2 0Zm-3.3 3c.6.3.6.8 0 1.2-.6.3-1.5.3-2 0-.6-.3-.6-.8 0-1.2.6-.3 1.5-.3 2 0Zm-7.3-3c-.6.3-.6.8 0 1.2.6.3 1.5.3 2 0 .6-.3.6-.8 0-1.2-.5-.3-1.4-.3-2 0Zm-3.3 3c.6.3.6.8 0 1.2-.6.3-1.5.3-2 0-.6-.3-.6-.8 0-1.2.6-.3 1.5-.3 2 0Zm-7.3-3c-.6.3-.6.8 0 1.2.6.3 1.5.3 2 0 .6-.3.6-.8 0-1.2-.5-.3-1.4-.3-2 0Zm-3.3 3c.6.3.6.8 0 1.2-.6.3-1.5.3-2 0-.6-.3-.6-.8 0-1.2.6-.3 1.5-.3 2 0Zm-7.3001-3c-.6.3-.6.8 0 1.2.6.3 1.5.3 2 0 .6-.3.6-.8 0-1.2-.5-.3-1.4-.3-2 0Zm-3.2998 3c.6.3.6.8 0 1.2-.6.3-1.5.3-2 0-.6-.3-.6-.8 0-1.2.6-.3 1.5-.3 2 0Zm-7.3001-3c-.6.3-.6.8 0 1.2.6.3 1.5.3 2 0 .6-.3.6-.8 0-1.2-.5-.3-1.4-.3-2 0Zm-3.3001 3c.6.3.6.8 0 1.2-.6.3-1.5.3-2 0-.6-.3-.6-.8 0-1.2.6-.3 1.5-.3 2 0Zm-7.2999-3c-.6.3-.6.8 0 1.2.6.3 1.5.3 2 0 .6-.3.6-.8 0-1.2-.5-.3-1.4-.3-2 0Zm-3.2999 3c.6.3.6.8 0 1.2-.6.3-1.5.3-2 0-.6-.3-.6-.8 0-1.2.6-.3 1.5-.3 2 0Zm-7.3-3c-.6.3-.6.8 0 1.2.6.3 1.5.3 2 0 .6-.3.6-.8 0-1.2-.5-.3-1.4-.3-2 0Zm-3.3001 3c.6.3.6.8 0 1.2-.6.3-1.5.3-2 0-.6-.3-.6-.8 0-1.2.6-.3 1.5-.3 2 0Zm-7.3-3c-.6.3-.6.8 0 1.2.6.3 1.5.3 2 0 .6-.3.6-.8 0-1.2-.5-.3-1.4-.3-2 0Zm-3.3001 3c.6.3.6.8 0 1.2-.6.3-1.5.3-2 0-.6-.3-.6-.8 0-1.2.6-.3 1.5-.3 2 0Zm-7.3-3c-.6.3-.6.8 0 1.2.6.3 1.5.3 2 0 .6-.3.6-.8 0-1.2-.5-.3-1.4-.3-2 0Zm127.2001-6.1c-.6.3-.6.8 0 1.2.6.3 1.5.3 2 0 .6-.3.6-.8 0-1.2-.5-.3-1.4-.3-2 0Zm-3.3 3c.6.3.6.8 0 1.2-.6.3-1.5.3-2 0-.6-.3-.6-.8 0-1.2.6-.3 1.5-.3 2 0Zm-7.3-3c-.6.3-.6.8 0 1.2.6.3 1.5.3 2 0 .6-.3.6-.8 0-1.2-.5-.3-1.4-.3-2 0Zm-3.3 3c.6.3.6.8 0 1.2-.6.3-1.5.3-2 0-.6-.3-.6-.8 0-1.2.6-.3 1.5-.3 2 0Zm-7.3-3c-.6.3-.6.8 0 1.2.6.3 1.5.3 2 0 .6-.3.6-.8 0-1.2-.5-.3-1.4-.3-2 0Zm-3.3 3c.6.3.6.8 0 1.2-.6.3-1.5.3-2 0-.6-.3-.6-.8 0-1.2.6-.3 1.5-.3 2 0Zm-7.3-3c-.6.3-.6.8 0 1.2.6.3 1.5.3 2 0 .6-.3.6-.8 0-1.2-.5-.3-1.4-.3-2 0Zm-3.3 3c.6.3.6.8 0 1.2-.6.3-1.5.3-2 0-.6-.3-.6-.8 0-1.2.6-.3 1.5-.3 2 0Zm-7.3-3c-.6.3-.6.8 0 1.2.6.3 1.5.3 2 0 .6-.3.6-.8 0-1.2-.5-.3-1.4-.3-2 0Zm-3.3 3c.6.3.6.8 0 1.2-.6.3-1.5.3-2 0-.6-.3-.6-.8 0-1.2.6-.3 1.5-.3 2 0Zm-7.3-3c-.6.3-.6.8 0 1.2.6.3 1.5.3 2 0 .6-.3.6-.8 0-1.2-.5-.3-1.4-.3-2 0Zm-3.3 3c.6.3.6.8 0 1.2-.6.3-1.5.3-2 0-.6-.3-.6-.8 0-1.2.6-.3 1.5-.3 2 0Zm-7.3-3c-.6.3-.6.8 0 1.2.6.3 1.5.3 2 0 .6-.3.6-.8 0-1.2-.5-.3-1.4-.3-2 0Zm-3.3 3c.6.3.6.8 0 1.2-.6.3-1.5.3-2 0-.6-.3-.6-.8 0-1.2.6-.3 1.5-.3 2 0Zm-7.3001-3c-.6.3-.6.8 0 1.2.6.3 1.5.3 2 0 .6-.3.6-.8 0-1.2-.5-.3-1.4-.3-2 0Zm-3.2998 3c.6.3.6.8 0 1.2-.6.3-1.5.3-2 0-.6-.3-.6-.8 0-1.2.6-.3 1.5-.3 2 0Zm-7.3001-3c-.6.3-.6.8 0 1.2.6.3 1.5.3 2 0 .6-.3.6-.8 0-1.2-.5-.3-1.4-.3-2 0Zm-3.3001 3c.6.3.6.8 0 1.2-.6.3-1.5.3-2 0-.6-.3-.6-.8 0-1.2.6-.3 1.5-.3 2 0Zm-7.2999-3c-.6.3-.6.8 0 1.2.6.3 1.5.3 2 0 .6-.3.6-.8 0-1.2-.5-.3-1.4-.3-2 0Zm-3.2999 3c.6.3.6.8 0 1.2-.6.3-1.5.3-2 0-.6-.3-.6-.8 0-1.2.6-.3 1.5-.3 2 0Zm-7.3-3c-.6.3-.6.8 0 1.2.6.3 1.5.3 2 0 .6-.3.6-.8 0-1.2-.5-.3-1.4-.3-2 0Zm-3.3001 3c.6.3.6.8 0 1.2-.6.3-1.5.3-2 0-.6-.3-.6-.8 0-1.2.6-.3 1.5-.3 2 0Zm-7.3-3c-.6.3-.6.8 0 1.2.6.3 1.5.3 2 0 .6-.3.6-.8 0-1.2-.5-.3-1.4-.3-2 0Zm-3.3001 3c.6.3.6.8 0 1.2-.6.3-1.5.3-2 0-.6-.3-.6-.8 0-1.2.6-.3 1.5-.3 2 0Zm-7.3-3c-.6.3-.6.8 0 1.2.6.3 1.5.3 2 0 .6-.3.6-.8 0-1.2-.5-.3-1.4-.3-2 0Zm-3.2999 3c.6.3.6.8 0 1.2-.6.3-1.5.3-2 0-.6-.3-.6-.8 0-1.2.6-.3 1.5-.3 2 0Zm-7.3-3c-.6.3-.6.8 0 1.2.6.3 1.5.3 2 0 .6-.3.6-.8 0-1.2-.5-.3-1.4-.3-2 0Zm148.4-6.1c-.6.3-.6.8 0 1.2.6.3 1.5.3 2 0 .6-.3.6-.8 0-1.2-.5-.3-1.4-.3-2 0Zm-3.3 3c.6.3.6.8 0 1.2-.6.3-1.5.3-2 0-.6-.3-.6-.8 0-1.2.6-.3 1.5-.3 2 0Zm-7.3-3c-.6.3-.6.8 0 1.2.6.3 1.5.3 2 0 .6-.3.6-.8 0-1.2-.5-.3-1.4-.3-2 0Zm-3.3 3c.6.3.6.8 0 1.2-.6.3-1.5.3-2 0-.6-.3-.6-.8 0-1.2.6-.3 1.5-.3 2 0Zm-7.3-3c-.6.3-.6.8 0 1.2.6.3 1.5.3 2 0 .6-.3.6-.8 0-1.2-.5-.3-1.4-.3-2 0Zm-3.3 3c.6.3.6.8 0 1.2-.6.3-1.5.3-2 0-.6-.3-.6-.8 0-1.2.6-.3 1.5-.3 2 0Zm-7.3-3c-.6.3-.6.8 0 1.2.6.3 1.5.3 2 0 .6-.3.6-.8 0-1.2-.5-.3-1.4-.3-2 0Zm-3.3 3c.6.3.6.8 0 1.2-.6.3-1.5.3-2 0-.6-.3-.6-.8 0-1.2.6-.3 1.5-.3 2 0Zm-7.3-3c-.6.3-.6.8 0 1.2.6.3 1.5.3 2 0 .6-.3.6-.8 0-1.2-.5-.3-1.4-.3-2 0Zm-3.3 3c.6.3.6.8 0 1.2-.6.3-1.5.3-2 0-.6-.3-.6-.8 0-1.2.6-.3 1.5-.3 2 0Zm-7.3-3c-.6.3-.6.8 0 1.2.6.3 1.5.3 2 0 .6-.3.6-.8 0-1.2-.5-.3-1.4-.3-2 0Zm-3.3 3c.6.3.6.8 0 1.2-.6.3-1.5.3-2 0-.6-.3-.6-.8 0-1.2.6-.3 1.5-.3 2 0Zm-7.3-3c-.6.3-.6.8 0 1.2.6.3 1.5.3 2 0 .6-.3.6-.8 0-1.2-.5-.3-1.4-.3-2 0Zm-3.3 3c.6.3.6.8 0 1.2-.6.3-1.5.3-2 0-.6-.3-.6-.8 0-1.2.6-.3 1.5-.3 2 0Zm-7.3-3c-.6.3-.6.8 0 1.2.6.3 1.5.3 2 0 .6-.3.6-.8 0-1.2-.5-.3-1.4-.3-2 0Zm-3.3 3c.6.3.6.8 0 1.2-.6.3-1.5.3-2 0-.6-.3-.6-.8 0-1.2.6-.3 1.5-.3 2 0Zm-7.3001-3c-.6.3-.6.8 0 1.2.6.3 1.5.3 2 0 .6-.3.6-.8 0-1.2-.5-.3-1.4-.3-2 0Zm-3.2998 3c.6.3.6.8 0 1.2-.6.3-1.5.3-2 0-.6-.3-.6-.8 0-1.2.6-.3 1.5-.3 2 0Zm-7.3001-3c-.6.3-.6.8 0 1.2.6.3 1.5.3 2 0 .6-.3.6-.8 0-1.2-.5-.3-1.4-.3-2 0Zm-3.3001 3c.6.3.6.8 0 1.2-.6.3-1.5.3-2 0-.6-.3-.6-.8 0-1.2.6-.3 1.5-.3 2 0Zm-7.2999-3c-.6.3-.6.8 0 1.2.6.3 1.5.3 2 0 .6-.3.6-.8 0-1.2-.5-.3-1.4-.3-2 0Zm-3.2999 3c.6.3.6.8 0 1.2-.6.3-1.5.3-2 0-.6-.3-.6-.8 0-1.2.6-.3 1.5-.3 2 0Zm-7.3-3c-.6.3-.6.8 0 1.2.6.3 1.5.3 2 0 .6-.3.6-.8 0-1.2-.5-.3-1.4-.3-2 0Zm-3.3001 3c.6.3.6.8 0 1.2-.6.3-1.5.3-2 0-.6-.3-.6-.8 0-1.2.6-.3 1.5-.3 2 0Zm-7.3-3c-.6.3-.6.8 0 1.2.6.3 1.5.3 2 0 .6-.3.6-.8 0-1.2-.5-.3-1.4-.3-2 0Zm-3.3001 3c.6.3.6.8 0 1.2-.6.3-1.5.3-2 0-.6-.3-.6-.8 0-1.2.6-.3 1.5-.3 2 0Zm-7.3-3c-.6.3-.6.8 0 1.2.6.3 1.5.3 2 0 .6-.3.6-.8 0-1.2-.5-.3-1.4-.3-2 0Zm-3.2999 3c.6.3.6.8 0 1.2-.6.3-1.5.3-2 0-.6-.3-.6-.8 0-1.2.6-.3 1.5-.3 2 0Zm-7.3-3c-.6.3-.6.8 0 1.2.6.3 1.5.3 2 0 .6-.3.6-.8 0-1.2-.5-.3-1.4-.3-2 0Zm-3.3 3c.6.3.6.8 0 1.2-.6.3-1.5.3-2 0-.6-.3-.6-.8 0-1.2.6-.3 1.5-.3 2 0Zm-7.3-3c-.6.3-.6.8 0 1.2.6.3 1.5.3 2 0 .6-.3.6-.8 0-1.2-.5-.3-1.4-.3-2 0Zm169.6-6.1c-.6.3-.6.8 0 1.2.6.3 1.5.3 2 0 .6-.3.6-.8 0-1.2-.5-.3-1.4-.3-2 0Zm-3.3 3c.6.3.6.8 0 1.2-.6.3-1.5.3-2 0-.6-.3-.6-.8 0-1.2.6-.3 1.5-.3 2 0Zm-7.3-3c-.6.3-.6.8 0 1.2.6.3 1.5.3 2 0 .6-.3.6-.8 0-1.2-.5-.3-1.4-.3-2 0Zm-3.3 3c.6.3.6.8 0 1.2-.6.3-1.5.3-2 0-.6-.3-.6-.8 0-1.2.6-.3 1.5-.3 2 0Zm-7.3-3c-.6.3-.6.8 0 1.2.6.3 1.5.3 2 0 .6-.3.6-.8 0-1.2-.5-.3-1.4-.3-2 0Zm-3.3 3c.6.3.6.8 0 1.2-.6.3-1.5.3-2 0-.6-.3-.6-.8 0-1.2.6-.3 1.5-.3 2 0Zm-7.3-3c-.6.3-.6.8 0 1.2.6.3 1.5.3 2 0 .6-.3.6-.8 0-1.2-.5-.3-1.4-.3-2 0Zm-3.3 3c.6.3.6.8 0 1.2-.6.3-1.5.3-2 0-.6-.3-.6-.8 0-1.2.6-.3 1.5-.3 2 0Zm-7.3-3c-.6.3-.6.8 0 1.2.6.3 1.5.3 2 0 .6-.3.6-.8 0-1.2-.5-.3-1.4-.3-2 0Zm-3.3 3c.6.3.6.8 0 1.2-.6.3-1.5.3-2 0-.6-.3-.6-.8 0-1.2.6-.3 1.5-.3 2 0Zm-7.3-3c-.6.3-.6.8 0 1.2.6.3 1.5.3 2 0 .6-.3.6-.8 0-1.2-.5-.3-1.4-.3-2 0Zm-3.3 3c.6.3.6.8 0 1.2-.6.3-1.5.3-2 0-.6-.3-.6-.8 0-1.2.6-.3 1.5-.3 2 0Zm-7.3-3c-.6.3-.6.8 0 1.2.6.3 1.5.3 2 0 .6-.3.6-.8 0-1.2-.5-.3-1.4-.3-2 0Zm-3.3 3c.6.3.6.8 0 1.2-.6.3-1.5.3-2 0-.6-.3-.6-.8 0-1.2.6-.3 1.5-.3 2 0Zm-7.3-3c-.6.3-.6.8 0 1.2.6.3 1.5.3 2 0 .6-.3.6-.8 0-1.2-.5-.3-1.4-.3-2 0Zm-3.3 3c.6.3.6.8 0 1.2-.6.3-1.5.3-2 0-.6-.3-.6-.8 0-1.2.6-.3 1.5-.3 2 0Zm-7.3-3c-.6.3-.6.8 0 1.2.6.3 1.5.3 2 0 .6-.3.6-.8 0-1.2-.5-.3-1.4-.3-2 0Zm-3.3 3c.6.3.6.8 0 1.2-.6.3-1.5.3-2 0-.6-.3-.6-.8 0-1.2.6-.3 1.5-.3 2 0Zm-7.3001-3c-.6.3-.6.8 0 1.2.6.3 1.5.3 2 0 .6-.3.6-.8 0-1.2-.5-.3-1.4-.3-2 0Zm-3.2998 3c.6.3.6.8 0 1.2-.6.3-1.5.3-2 0-.6-.3-.6-.8 0-1.2.6-.3 1.5-.3 2 0Zm-7.3001-3c-.6.3-.6.8 0 1.2.6.3 1.5.3 2 0 .6-.3.6-.8 0-1.2-.5-.3-1.4-.3-2 0Zm-3.3001 3c.6.3.6.8 0 1.2-.6.3-1.5.3-2 0-.6-.3-.6-.8 0-1.2.6-.3 1.5-.3 2 0Zm-7.2999-3c-.6.3-.6.8 0 1.2.6.3 1.5.3 2 0 .6-.3.6-.8 0-1.2-.5-.3-1.4-.3-2 0Zm-3.2999 3c.6.3.6.8 0 1.2-.6.3-1.5.3-2 0-.6-.3-.6-.8 0-1.2.6-.3 1.5-.3 2 0Zm-7.3-3c-.6.3-.6.8 0 1.2.6.3 1.5.3 2 0 .6-.3.6-.8 0-1.2-.5-.3-1.4-.3-2 0Zm-3.3001 3c.6.3.6.8 0 1.2-.6.3-1.5.3-2 0-.6-.3-.6-.8 0-1.2.6-.3 1.5-.3 2 0Zm-7.3-3c-.6.3-.6.8 0 1.2.6.3 1.5.3 2 0 .6-.3.6-.8 0-1.2-.5-.3-1.4-.3-2 0Zm-3.3001 3c.6.3.6.8 0 1.2-.6.3-1.5.3-2 0-.6-.3-.6-.8 0-1.2.6-.3 1.5-.3 2 0Zm-7.3-3c-.6.3-.6.8 0 1.2.6.3 1.5.3 2 0 .6-.3.6-.8 0-1.2-.5-.3-1.4-.3-2 0Zm-3.2999 3c.6.3.6.8 0 1.2-.6.3-1.5.3-2 0-.6-.3-.6-.8 0-1.2.6-.3 1.5-.3 2 0Zm-7.3-3c-.6.3-.6.8 0 1.2.6.3 1.5.3 2 0 .6-.3.6-.8 0-1.2-.5-.3-1.4-.3-2 0Zm-3.3 3c.6.3.6.8 0 1.2-.6.3-1.5.3-2 0-.6-.3-.6-.8 0-1.2.6-.3 1.5-.3 2 0Zm-7.3-3c-.6.3-.6.8 0 1.2.6.3 1.5.3 2 0 .6-.3.6-.8 0-1.2-.5-.3-1.4-.3-2 0Zm-3.2999 3c.6.3.6.8 0 1.2-.6.3-1.5.3-2 0-.6-.3-.6-.8 0-1.2.6-.3 1.5-.3 2 0Zm-7.3-3c-.6.3-.6.8 0 1.2.6.3 1.5.3 2 0 .6-.3.6-.8 0-1.2-.5-.3-1.4-.3-2 0Zm187.4999-3.1c.6.3.6.8 0 1.2-.6.3-1.5.3-2 0-.6-.3-.6-.8 0-1.2.6-.3 1.5-.3 2 0Zm-7.3-3c-.6.3-.6.8 0 1.2.6.3 1.5.3 2 0 .6-.3.6-.8 0-1.2-.5-.3-1.4-.3-2 0Zm-3.3 3c.6.3.6.8 0 1.2-.6.3-1.5.3-2 0-.6-.3-.6-.8 0-1.2.6-.3 1.5-.3 2 0Zm-7.3-3c-.6.3-.6.8 0 1.2.6.3 1.5.3 2 0 .6-.3.6-.8 0-1.2-.5-.3-1.4-.3-2 0Zm-3.3 3c.6.3.6.8 0 1.2-.6.3-1.5.3-2 0-.6-.3-.6-.8 0-1.2.6-.3 1.5-.3 2 0Zm-7.3-3c-.6.3-.6.8 0 1.2.6.3 1.5.3 2 0 .6-.3.6-.8 0-1.2-.5-.3-1.4-.3-2 0Zm-3.3 3c.6.3.6.8 0 1.2-.6.3-1.5.3-2 0-.6-.3-.6-.8 0-1.2.6-.3 1.5-.3 2 0Zm-7.3-3c-.6.3-.6.8 0 1.2.6.3 1.5.3 2 0 .6-.3.6-.8 0-1.2-.5-.3-1.4-.3-2 0Zm-3.3 3c.6.3.6.8 0 1.2-.6.3-1.5.3-2 0-.6-.3-.6-.8 0-1.2.6-.3 1.5-.3 2 0Zm-7.3-3c-.6.3-.6.8 0 1.2.6.3 1.5.3 2 0 .6-.3.6-.8 0-1.2-.5-.3-1.4-.3-2 0Zm-3.3 3c.6.3.6.8 0 1.2-.6.3-1.5.3-2 0-.6-.3-.6-.8 0-1.2.6-.3 1.5-.3 2 0Zm-7.3-3c-.6.3-.6.8 0 1.2.6.3 1.5.3 2 0 .6-.3.6-.8 0-1.2-.5-.3-1.4-.3-2 0Zm-3.3 3c.6.3.6.8 0 1.2-.6.3-1.5.3-2 0-.6-.3-.6-.8 0-1.2.6-.3 1.5-.3 2 0Zm-7.3-3c-.6.3-.6.8 0 1.2.6.3 1.5.3 2 0 .6-.3.6-.8 0-1.2-.5-.3-1.4-.3-2 0Zm-3.3 3c.6.3.6.8 0 1.2-.6.3-1.5.3-2 0-.6-.3-.6-.8 0-1.2.6-.3 1.5-.3 2 0Zm-7.3-3c-.6.3-.6.8 0 1.2.6.3 1.5.3 2 0 .6-.3.6-.8 0-1.2-.5-.3-1.4-.3-2 0Zm-3.3 3c.6.3.6.8 0 1.2-.6.3-1.5.3-2 0-.6-.3-.6-.8 0-1.2.6-.3 1.5-.3 2 0Zm-7.3-3c-.6.3-.6.8 0 1.2.6.3 1.5.3 2 0 .6-.3.6-.8 0-1.2-.5-.3-1.4-.3-2 0Zm-3.3 3c.6.3.6.8 0 1.2-.6.3-1.5.3-2 0-.6-.3-.6-.8 0-1.2.6-.3 1.5-.3 2 0Zm-7.3001-3c-.6.3-.6.8 0 1.2.6.3 1.5.3 2 0 .6-.3.6-.8 0-1.2-.5-.3-1.4-.3-2 0Zm-3.2998 3c.6.3.6.8 0 1.2-.6.3-1.5.3-2 0-.6-.3-.6-.8 0-1.2.6-.3 1.5-.3 2 0Zm-7.3001-3c-.6.3-.6.8 0 1.2.6.3 1.5.3 2 0 .6-.3.6-.8 0-1.2-.5-.3-1.4-.3-2 0Zm-3.3001 3c.6.3.6.8 0 1.2-.6.3-1.5.3-2 0-.6-.3-.6-.8 0-1.2.6-.3 1.5-.3 2 0Zm-7.2999-3c-.6.3-.6.8 0 1.2.6.3 1.5.3 2 0 .6-.3.6-.8 0-1.2-.5-.3-1.4-.3-2 0Zm-3.2999 3c.6.3.6.8 0 1.2-.6.3-1.5.3-2 0-.6-.3-.6-.8 0-1.2.6-.3 1.5-.3 2 0Zm-7.3-3c-.6.3-.6.8 0 1.2.6.3 1.5.3 2 0 .6-.3.6-.8 0-1.2-.5-.3-1.4-.3-2 0Zm-3.3001 3c.6.3.6.8 0 1.2-.6.3-1.5.3-2 0-.6-.3-.6-.8 0-1.2.6-.3 1.5-.3 2 0Zm-7.3-3c-.6.3-.6.8 0 1.2.6.3 1.5.3 2 0 .6-.3.6-.8 0-1.2-.5-.3-1.4-.3-2 0Zm-3.3001 3c.6.3.6.8 0 1.2-.6.3-1.5.3-2 0-.6-.3-.6-.8 0-1.2.6-.3 1.5-.3 2 0Zm-7.3-3c-.6.3-.6.8 0 1.2.6.3 1.5.3 2 0 .6-.3.6-.8 0-1.2-.5-.3-1.4-.3-2 0Zm-3.2999 3c.6.3.6.8 0 1.2-.6.3-1.5.3-2 0-.6-.3-.6-.8 0-1.2.6-.3 1.5-.3 2 0Zm-7.3-3c-.6.3-.6.8 0 1.2.6.3 1.5.3 2 0 .6-.3.6-.8 0-1.2-.5-.3-1.4-.3-2 0Zm-3.3 3c.6.3.6.8 0 1.2-.6.3-1.5.3-2 0-.6-.3-.6-.8 0-1.2.6-.3 1.5-.3 2 0Zm-7.3-3c-.6.3-.6.8 0 1.2.6.3 1.5.3 2 0 .6-.3.6-.8 0-1.2-.5-.3-1.4-.3-2 0Zm-3.2999 3c.6.3.6.8 0 1.2-.6.3-1.5.3-2 0-.6-.3-.6-.8 0-1.2.6-.3 1.5-.3 2 0Zm-7.3-3c-.6.3-.6.8 0 1.2.6.3 1.5.3 2 0 .6-.3.6-.8 0-1.2-.5-.3-1.4-.3-2 0Zm-3.3001 3c.6.3.6.8 0 1.2-.6.3-1.5.3-2 0-.6-.3-.6-.8 0-1.2.6-.3 1.5-.3 2 0Zm-7.3-3c-.6.3-.6.8 0 1.2.6.3 1.5.3 2 0 .6-.3.6-.8 0-1.2-.5-.3-1.4-.3-2 0Zm187.5-3.1c.6.3.6.8 0 1.2-.6.3-1.5.3-2 0-.6-.3-.6-.8 0-1.2.6-.3 1.5-.3 2 0Zm-7.3-3c-.6.3-.6.8 0 1.2.6.3 1.5.3 2 0 .6-.3.6-.8 0-1.2-.5-.3-1.4-.3-2 0Zm-3.3 3c.6.3.6.8 0 1.2-.6.3-1.5.3-2 0-.6-.3-.6-.8 0-1.2.6-.3 1.5-.3 2 0Zm-7.3-3c-.6.3-.6.8 0 1.2.6.3 1.5.3 2 0 .6-.3.6-.8 0-1.2-.5-.3-1.4-.3-2 0Zm-3.3 3c.6.3.6.8 0 1.2-.6.3-1.5.3-2 0-.6-.3-.6-.8 0-1.2.6-.3 1.5-.3 2 0Zm-7.3-3c-.6.3-.6.8 0 1.2.6.3 1.5.3 2 0 .6-.3.6-.8 0-1.2-.5-.3-1.4-.3-2 0Zm-3.3 3c.6.3.6.8 0 1.2-.6.3-1.5.3-2 0-.6-.3-.6-.8 0-1.2.6-.3 1.5-.3 2 0Zm-7.3-3c-.6.3-.6.8 0 1.2.6.3 1.5.3 2 0 .6-.3.6-.8 0-1.2-.5-.3-1.4-.3-2 0Zm-3.3 3c.6.3.6.8 0 1.2-.6.3-1.5.3-2 0-.6-.3-.6-.8 0-1.2.6-.3 1.5-.3 2 0Zm-7.3-3c-.6.3-.6.8 0 1.2.6.3 1.5.3 2 0 .6-.3.6-.8 0-1.2-.5-.3-1.4-.3-2 0Zm-3.3 3c.6.3.6.8 0 1.2-.6.3-1.5.3-2 0-.6-.3-.6-.8 0-1.2.6-.3 1.5-.3 2 0Zm-7.3-3c-.6.3-.6.8 0 1.2.6.3 1.5.3 2 0 .6-.3.6-.8 0-1.2-.5-.3-1.4-.3-2 0Zm-3.3 3c.6.3.6.8 0 1.2-.6.3-1.5.3-2 0-.6-.3-.6-.8 0-1.2.6-.3 1.5-.3 2 0Zm-7.3-3c-.6.3-.6.8 0 1.2.6.3 1.5.3 2 0 .6-.3.6-.8 0-1.2-.5-.3-1.4-.3-2 0Zm-3.3 3c.6.3.6.8 0 1.2-.6.3-1.5.3-2 0-.6-.3-.6-.8 0-1.2.6-.3 1.5-.3 2 0Zm-7.3-3c-.6.3-.6.8 0 1.2.6.3 1.5.3 2 0 .6-.3.6-.8 0-1.2-.5-.3-1.4-.3-2 0Zm-3.3 3c.6.3.6.8 0 1.2-.6.3-1.5.3-2 0-.6-.3-.6-.8 0-1.2.6-.3 1.5-.3 2 0Zm-7.3001-3c-.6.3-.6.8 0 1.2.6.3 1.5.3 2 0 .6-.3.6-.8 0-1.2-.5-.3-1.4-.3-2 0Zm-3.2998 3c.6.3.6.8 0 1.2-.6.3-1.5.3-2 0-.6-.3-.6-.8 0-1.2.6-.3 1.5-.3 2 0Zm-7.3001-3c-.6.3-.6.8 0 1.2.6.3 1.5.3 2 0 .6-.3.6-.8 0-1.2-.5-.3-1.4-.3-2 0Zm-3.3001 3c.6.3.6.8 0 1.2-.6.3-1.5.3-2 0-.6-.3-.6-.8 0-1.2.6-.3 1.5-.3 2 0Zm-7.2999-3c-.6.3-.6.8 0 1.2.6.3 1.5.3 2 0 .6-.3.6-.8 0-1.2-.5-.3-1.4-.3-2 0Zm-3.2999 3c.6.3.6.8 0 1.2-.6.3-1.5.3-2 0-.6-.3-.6-.8 0-1.2.6-.3 1.5-.3 2 0Zm-7.3-3c-.6.3-.6.8 0 1.2.6.3 1.5.3 2 0 .6-.3.6-.8 0-1.2-.5-.3-1.4-.3-2 0Zm-3.3001 3c.6.3.6.8 0 1.2-.6.3-1.5.3-2 0-.6-.3-.6-.8 0-1.2.6-.3 1.5-.3 2 0Zm-7.3-3c-.6.3-.6.8 0 1.2.6.3 1.5.3 2 0 .6-.3.6-.8 0-1.2-.5-.3-1.4-.3-2 0Zm-3.3001 3c.6.3.6.8 0 1.2-.6.3-1.5.3-2 0-.6-.3-.6-.8 0-1.2.6-.3 1.5-.3 2 0Zm-7.3-3c-.6.3-.6.8 0 1.2.6.3 1.5.3 2 0 .6-.3.6-.8 0-1.2-.5-.3-1.4-.3-2 0Zm-3.2999 3c.6.3.6.8 0 1.2-.6.3-1.5.3-2 0-.6-.3-.6-.8 0-1.2.6-.3 1.5-.3 2 0Zm-7.3-3c-.6.3-.6.8 0 1.2.6.3 1.5.3 2 0 .6-.3.6-.8 0-1.2-.5-.3-1.4-.3-2 0Zm-3.3 3c.6.3.6.8 0 1.2-.6.3-1.5.3-2 0-.6-.3-.6-.8 0-1.2.6-.3 1.5-.3 2 0Zm-7.3-3c-.6.3-.6.8 0 1.2.6.3 1.5.3 2 0 .6-.3.6-.8 0-1.2-.5-.3-1.4-.3-2 0Zm-3.2999 3c.6.3.6.8 0 1.2-.6.3-1.5.3-2 0-.6-.3-.6-.8 0-1.2.6-.3 1.5-.3 2 0Zm-7.3-3c-.6.3-.6.8 0 1.2.6.3 1.5.3 2 0 .6-.3.6-.8 0-1.2-.5-.3-1.4-.3-2 0Zm-3.3001 3c.6.3.6.8 0 1.2-.6.3-1.5.3-2 0-.6-.3-.6-.8 0-1.2.6-.3 1.5-.3 2 0Zm-7.3-3c-.6.3-.6.8 0 1.2.6.3 1.5.3 2 0 .6-.3.6-.8 0-1.2-.5-.3-1.4-.3-2 0Zm190.8-6.1c-.6.3-.6.8 0 1.2.6.3 1.5.3 2 0 .6-.3.6-.8 0-1.2-.5-.3-1.4-.3-2 0Zm-3.3 3c.6.3.6.8 0 1.2-.6.3-1.5.3-2 0-.6-.3-.6-.8 0-1.2.6-.3 1.5-.3 2 0Zm-7.3-3c-.6.3-.6.8 0 1.2.6.3 1.5.3 2 0 .6-.3.6-.8 0-1.2-.5-.3-1.4-.3-2 0Zm-3.3 3c.6.3.6.8 0 1.2-.6.3-1.5.3-2 0-.6-.3-.6-.8 0-1.2.6-.3 1.5-.3 2 0Zm-7.3-3c-.6.3-.6.8 0 1.2.6.3 1.5.3 2 0 .6-.3.6-.8 0-1.2-.5-.3-1.4-.3-2 0Zm-3.3 3c.6.3.6.8 0 1.2-.6.3-1.5.3-2 0-.6-.3-.6-.8 0-1.2.6-.3 1.5-.3 2 0Zm-7.3-3c-.6.3-.6.8 0 1.2.6.3 1.5.3 2 0 .6-.3.6-.8 0-1.2-.5-.3-1.4-.3-2 0Zm-3.3 3c.6.3.6.8 0 1.2-.6.3-1.5.3-2 0-.6-.3-.6-.8 0-1.2.6-.3 1.5-.3 2 0Zm-7.3-3c-.6.3-.6.8 0 1.2.6.3 1.5.3 2 0 .6-.3.6-.8 0-1.2-.5-.3-1.4-.3-2 0Zm-3.3 3c.6.3.6.8 0 1.2-.6.3-1.5.3-2 0-.6-.3-.6-.8 0-1.2.6-.3 1.5-.3 2 0Zm-7.3-3c-.6.3-.6.8 0 1.2.6.3 1.5.3 2 0 .6-.3.6-.8 0-1.2-.5-.3-1.4-.3-2 0Zm-3.3 3c.6.3.6.8 0 1.2-.6.3-1.5.3-2 0-.6-.3-.6-.8 0-1.2.6-.3 1.5-.3 2 0Zm-7.3-3c-.6.3-.6.8 0 1.2.6.3 1.5.3 2 0 .6-.3.6-.8 0-1.2-.5-.3-1.4-.3-2 0Zm-3.3 3c.6.3.6.8 0 1.2-.6.3-1.5.3-2 0-.6-.3-.6-.8 0-1.2.6-.3 1.5-.3 2 0Zm-7.3-3c-.6.3-.6.8 0 1.2.6.3 1.5.3 2 0 .6-.3.6-.8 0-1.2-.5-.3-1.4-.3-2 0Zm-3.3 3c.6.3.6.8 0 1.2-.6.3-1.5.3-2 0-.6-.3-.6-.8 0-1.2.6-.3 1.5-.3 2 0Zm-7.3-3c-.6.3-.6.8 0 1.2.6.3 1.5.3 2 0 .6-.3.6-.8 0-1.2-.5-.3-1.4-.3-2 0Zm-3.3 3c.6.3.6.8 0 1.2-.6.3-1.5.3-2 0-.6-.3-.6-.8 0-1.2.6-.3 1.5-.3 2 0Zm-7.3001-3c-.6.3-.6.8 0 1.2.6.3 1.5.3 2 0 .6-.3.6-.8 0-1.2-.5-.3-1.4-.3-2 0Zm-3.2998 3c.6.3.6.8 0 1.2-.6.3-1.5.3-2 0-.6-.3-.6-.8 0-1.2.6-.3 1.5-.3 2 0Zm-7.3001-3c-.6.3-.6.8 0 1.2.6.3 1.5.3 2 0 .6-.3.6-.8 0-1.2-.5-.3-1.4-.3-2 0Zm-3.3001 3c.6.3.6.8 0 1.2-.6.3-1.5.3-2 0-.6-.3-.6-.8 0-1.2.6-.3 1.5-.3 2 0Zm-7.2999-3c-.6.3-.6.8 0 1.2.6.3 1.5.3 2 0 .6-.3.6-.8 0-1.2-.5-.3-1.4-.3-2 0Zm-3.2999 3c.6.3.6.8 0 1.2-.6.3-1.5.3-2 0-.6-.3-.6-.8 0-1.2.6-.3 1.5-.3 2 0Zm-7.3-3c-.6.3-.6.8 0 1.2.6.3 1.5.3 2 0 .6-.3.6-.8 0-1.2-.5-.3-1.4-.3-2 0Zm-3.3001 3c.6.3.6.8 0 1.2-.6.3-1.5.3-2 0-.6-.3-.6-.8 0-1.2.6-.3 1.5-.3 2 0Zm-7.3-3c-.6.3-.6.8 0 1.2.6.3 1.5.3 2 0 .6-.3.6-.8 0-1.2-.5-.3-1.4-.3-2 0Zm-3.3001 3c.6.3.6.8 0 1.2-.6.3-1.5.3-2 0-.6-.3-.6-.8 0-1.2.6-.3 1.5-.3 2 0Zm-7.3-3c-.6.3-.6.8 0 1.2.6.3 1.5.3 2 0 .6-.3.6-.8 0-1.2-.5-.3-1.4-.3-2 0Zm-3.2999 3c.6.3.6.8 0 1.2-.6.3-1.5.3-2 0-.6-.3-.6-.8 0-1.2.6-.3 1.5-.3 2 0Zm-7.3-3c-.6.3-.6.8 0 1.2.6.3 1.5.3 2 0 .6-.3.6-.8 0-1.2-.5-.3-1.4-.3-2 0Zm-3.3 3c.6.3.6.8 0 1.2-.6.3-1.5.3-2 0-.6-.3-.6-.8 0-1.2.6-.3 1.5-.3 2 0Zm-7.3-3c-.6.3-.6.8 0 1.2.6.3 1.5.3 2 0 .6-.3.6-.8 0-1.2-.5-.3-1.4-.3-2 0Zm-3.2999 3c.6.3.6.8 0 1.2-.6.3-1.5.3-2 0-.6-.3-.6-.8 0-1.2.6-.3 1.5-.3 2 0Zm-7.3-3c-.6.3-.6.8 0 1.2.6.3 1.5.3 2 0 .6-.3.6-.8 0-1.2-.5-.3-1.4-.3-2 0Zm-3.3001 3c.6.3.6.8 0 1.2-.6.3-1.5.3-2 0-.6-.3-.6-.8 0-1.2.6-.3 1.5-.3 2 0Zm-7.3-3c-.6.3-.6.8 0 1.2.6.3 1.5.3 2 0 .6-.3.6-.8 0-1.2-.5-.3-1.4-.3-2 0Zm190.8-6.1c-.6.3-.6.8 0 1.2.6.3 1.5.3 2 0 .6-.3.6-.8 0-1.2-.5-.3-1.4-.3-2 0Zm-3.3 3c.6.3.6.8 0 1.2-.6.3-1.5.3-2 0-.6-.3-.6-.8 0-1.2.6-.3 1.5-.3 2 0Zm-7.3-3c-.6.3-.6.8 0 1.2.6.3 1.5.3 2 0 .6-.3.6-.8 0-1.2-.5-.3-1.4-.3-2 0Zm-3.3 3c.6.3.6.8 0 1.2-.6.3-1.5.3-2 0-.6-.3-.6-.8 0-1.2.6-.3 1.5-.3 2 0Zm-7.3-3c-.6.3-.6.8 0 1.2.6.3 1.5.3 2 0 .6-.3.6-.8 0-1.2-.5-.3-1.4-.3-2 0Zm-3.3 3c.6.3.6.8 0 1.2-.6.3-1.5.3-2 0-.6-.3-.6-.8 0-1.2.6-.3 1.5-.3 2 0Zm-7.3-3c-.6.3-.6.8 0 1.2.6.3 1.5.3 2 0 .6-.3.6-.8 0-1.2-.5-.3-1.4-.3-2 0Zm-3.3 3c.6.3.6.8 0 1.2-.6.3-1.5.3-2 0-.6-.3-.6-.8 0-1.2.6-.3 1.5-.3 2 0Zm-7.3-3c-.6.3-.6.8 0 1.2.6.3 1.5.3 2 0 .6-.3.6-.8 0-1.2-.5-.3-1.4-.3-2 0Zm-3.3 3c.6.3.6.8 0 1.2-.6.3-1.5.3-2 0-.6-.3-.6-.8 0-1.2.6-.3 1.5-.3 2 0Zm-7.3-3c-.6.3-.6.8 0 1.2.6.3 1.5.3 2 0 .6-.3.6-.8 0-1.2-.5-.3-1.4-.3-2 0Zm-3.3 3c.6.3.6.8 0 1.2-.6.3-1.5.3-2 0-.6-.3-.6-.8 0-1.2.6-.3 1.5-.3 2 0Zm-7.3-3c-.6.3-.6.8 0 1.2.6.3 1.5.3 2 0 .6-.3.6-.8 0-1.2-.5-.3-1.4-.3-2 0Zm-3.3 3c.6.3.6.8 0 1.2-.6.3-1.5.3-2 0-.6-.3-.6-.8 0-1.2.6-.3 1.5-.3 2 0Zm-7.3-3c-.6.3-.6.8 0 1.2.6.3 1.5.3 2 0 .6-.3.6-.8 0-1.2-.5-.3-1.4-.3-2 0Zm-3.3 3c.6.3.6.8 0 1.2-.6.3-1.5.3-2 0-.6-.3-.6-.8 0-1.2.6-.3 1.5-.3 2 0Zm-7.3-3c-.6.3-.6.8 0 1.2.6.3 1.5.3 2 0 .6-.3.6-.8 0-1.2-.5-.3-1.4-.3-2 0Zm-3.3 3c.6.3.6.8 0 1.2-.6.3-1.5.3-2 0-.6-.3-.6-.8 0-1.2.6-.3 1.5-.3 2 0Zm-7.3001-3c-.6.3-.6.8 0 1.2.6.3 1.5.3 2 0 .6-.3.6-.8 0-1.2-.5-.3-1.4-.3-2 0Zm-3.2998 3c.6.3.6.8 0 1.2-.6.3-1.5.3-2 0-.6-.3-.6-.8 0-1.2.6-.3 1.5-.3 2 0Zm-7.3001-3c-.6.3-.6.8 0 1.2.6.3 1.5.3 2 0 .6-.3.6-.8 0-1.2-.5-.3-1.4-.3-2 0Zm-3.3001 3c.6.3.6.8 0 1.2-.6.3-1.5.3-2 0-.6-.3-.6-.8 0-1.2.6-.3 1.5-.3 2 0Zm-7.2999-3c-.6.3-.6.8 0 1.2.6.3 1.5.3 2 0 .6-.3.6-.8 0-1.2-.5-.3-1.4-.3-2 0Zm-3.2999 3c.6.3.6.8 0 1.2-.6.3-1.5.3-2 0-.6-.3-.6-.8 0-1.2.6-.3 1.5-.3 2 0Zm-7.3-3c-.6.3-.6.8 0 1.2.6.3 1.5.3 2 0 .6-.3.6-.8 0-1.2-.5-.3-1.4-.3-2 0Zm-3.3001 3c.6.3.6.8 0 1.2-.6.3-1.5.3-2 0-.6-.3-.6-.8 0-1.2.6-.3 1.5-.3 2 0Zm-7.3-3c-.6.3-.6.8 0 1.2.6.3 1.5.3 2 0 .6-.3.6-.8 0-1.2-.5-.3-1.4-.3-2 0Zm-3.3001 3c.6.3.6.8 0 1.2-.6.3-1.5.3-2 0-.6-.3-.6-.8 0-1.2.6-.3 1.5-.3 2 0Zm-7.3-3c-.6.3-.6.8 0 1.2.6.3 1.5.3 2 0 .6-.3.6-.8 0-1.2-.5-.3-1.4-.3-2 0Zm-3.2999 3c.6.3.6.8 0 1.2-.6.3-1.5.3-2 0-.6-.3-.6-.8 0-1.2.6-.3 1.5-.3 2 0Zm-7.3-3c-.6.3-.6.8 0 1.2.6.3 1.5.3 2 0 .6-.3.6-.8 0-1.2-.5-.3-1.4-.3-2 0Zm-3.3 3c.6.3.6.8 0 1.2-.6.3-1.5.3-2 0-.6-.3-.6-.8 0-1.2.6-.3 1.5-.3 2 0Zm-7.3-3c-.6.3-.6.8 0 1.2.6.3 1.5.3 2 0 .6-.3.6-.8 0-1.2-.5-.3-1.4-.3-2 0Zm-3.2999 3c.6.3.6.8 0 1.2-.6.3-1.5.3-2 0-.6-.3-.6-.8 0-1.2.6-.3 1.5-.3 2 0Zm-7.3-3c-.6.3-.6.8 0 1.2.6.3 1.5.3 2 0 .6-.3.6-.8 0-1.2-.5-.3-1.4-.3-2 0Zm-3.3001 3c.6.3.6.8 0 1.2-.6.3-1.5.3-2 0-.6-.3-.6-.8 0-1.2.6-.3 1.5-.3 2 0Zm-7.3-3c-.6.3-.6.8 0 1.2.6.3 1.5.3 2 0 .6-.3.6-.8 0-1.2-.5-.3-1.4-.3-2 0Zm187.5-3.1c.6.3.6.8 0 1.2-.6.3-1.5.3-2 0-.6-.3-.6-.8 0-1.2.6-.3 1.5-.3 2 0Zm-7.3-3c-.6.3-.6.8 0 1.2.6.3 1.5.3 2 0 .6-.3.6-.8 0-1.2-.5-.3-1.4-.3-2 0Zm-3.3 3c.6.3.6.8 0 1.2-.6.3-1.5.3-2 0-.6-.3-.6-.8 0-1.2.6-.3 1.5-.3 2 0Zm-7.3-3c-.6.3-.6.8 0 1.2.6.3 1.5.3 2 0 .6-.3.6-.8 0-1.2-.5-.3-1.4-.3-2 0Zm-3.3 3c.6.3.6.8 0 1.2-.6.3-1.5.3-2 0-.6-.3-.6-.8 0-1.2.6-.3 1.5-.3 2 0Zm-7.3-3c-.6.3-.6.8 0 1.2.6.3 1.5.3 2 0 .6-.3.6-.8 0-1.2-.5-.3-1.4-.3-2 0Zm-3.3 3c.6.3.6.8 0 1.2-.6.3-1.5.3-2 0-.6-.3-.6-.8 0-1.2.6-.3 1.5-.3 2 0Zm-7.3-3c-.6.3-.6.8 0 1.2.6.3 1.5.3 2 0 .6-.3.6-.8 0-1.2-.5-.3-1.4-.3-2 0Zm-3.3 3c.6.3.6.8 0 1.2-.6.3-1.5.3-2 0-.6-.3-.6-.8 0-1.2.6-.3 1.5-.3 2 0Zm-7.3-3c-.6.3-.6.8 0 1.2.6.3 1.5.3 2 0 .6-.3.6-.8 0-1.2-.5-.3-1.4-.3-2 0Zm-3.3 3c.6.3.6.8 0 1.2-.6.3-1.5.3-2 0-.6-.3-.6-.8 0-1.2.6-.3 1.5-.3 2 0Zm-7.3-3c-.6.3-.6.8 0 1.2.6.3 1.5.3 2 0 .6-.3.6-.8 0-1.2-.5-.3-1.4-.3-2 0Zm-3.3 3c.6.3.6.8 0 1.2-.6.3-1.5.3-2 0-.6-.3-.6-.8 0-1.2.6-.3 1.5-.3 2 0Zm-7.3-3c-.6.3-.6.8 0 1.2.6.3 1.5.3 2 0 .6-.3.6-.8 0-1.2-.5-.3-1.4-.3-2 0Zm-3.3 3c.6.3.6.8 0 1.2-.6.3-1.5.3-2 0-.6-.3-.6-.8 0-1.2.6-.3 1.5-.3 2 0Zm-7.3-3c-.6.3-.6.8 0 1.2.6.3 1.5.3 2 0 .6-.3.6-.8 0-1.2-.5-.3-1.4-.3-2 0Zm-3.3 3c.6.3.6.8 0 1.2-.6.3-1.5.3-2 0-.6-.3-.6-.8 0-1.2.6-.3 1.5-.3 2 0Zm-7.3001-3c-.6.3-.6.8 0 1.2.6.3 1.5.3 2 0 .6-.3.6-.8 0-1.2-.5-.3-1.4-.3-2 0Zm-3.2998 3c.6.3.6.8 0 1.2-.6.3-1.5.3-2 0-.6-.3-.6-.8 0-1.2.6-.3 1.5-.3 2 0Zm-7.3001-3c-.6.3-.6.8 0 1.2.6.3 1.5.3 2 0 .6-.3.6-.8 0-1.2-.5-.3-1.4-.3-2 0Zm-3.3001 3c.6.3.6.8 0 1.2-.6.3-1.5.3-2 0-.6-.3-.6-.8 0-1.2.6-.3 1.5-.3 2 0Zm-7.2999-3c-.6.3-.6.8 0 1.2.6.3 1.5.3 2 0 .6-.3.6-.8 0-1.2-.5-.3-1.4-.3-2 0Zm-3.2999 3c.6.3.6.8 0 1.2-.6.3-1.5.3-2 0-.6-.3-.6-.8 0-1.2.6-.3 1.5-.3 2 0Zm-7.3-3c-.6.3-.6.8 0 1.2.6.3 1.5.3 2 0 .6-.3.6-.8 0-1.2-.5-.3-1.4-.3-2 0Zm-3.3001 3c.6.3.6.8 0 1.2-.6.3-1.5.3-2 0-.6-.3-.6-.8 0-1.2.6-.3 1.5-.3 2 0Zm-7.3-3c-.6.3-.6.8 0 1.2.6.3 1.5.3 2 0 .6-.3.6-.8 0-1.2-.5-.3-1.4-.3-2 0Zm-3.3001 3c.6.3.6.8 0 1.2-.6.3-1.5.3-2 0-.6-.3-.6-.8 0-1.2.6-.3 1.5-.3 2 0Zm-7.3-3c-.6.3-.6.8 0 1.2.6.3 1.5.3 2 0 .6-.3.6-.8 0-1.2-.5-.3-1.4-.3-2 0Zm-3.2999 3c.6.3.6.8 0 1.2-.6.3-1.5.3-2 0-.6-.3-.6-.8 0-1.2.6-.3 1.5-.3 2 0Zm-7.3-3c-.6.3-.6.8 0 1.2.6.3 1.5.3 2 0 .6-.3.6-.8 0-1.2-.5-.3-1.4-.3-2 0Zm-3.3 3c.6.3.6.8 0 1.2-.6.3-1.5.3-2 0-.6-.3-.6-.8 0-1.2.6-.3 1.5-.3 2 0Zm-7.3-3c-.6.3-.6.8 0 1.2.6.3 1.5.3 2 0 .6-.3.6-.8 0-1.2-.5-.3-1.4-.3-2 0Zm-3.2999 3c.6.3.6.8 0 1.2-.6.3-1.5.3-2 0-.6-.3-.6-.8 0-1.2.6-.3 1.5-.3 2 0Zm-7.3-3c-.6.3-.6.8 0 1.2.6.3 1.5.3 2 0 .6-.3.6-.8 0-1.2-.5-.3-1.4-.3-2 0Zm-3.3001 3c.6.3.6.8 0 1.2-.6.3-1.5.3-2 0-.6-.3-.6-.8 0-1.2.6-.3 1.5-.3 2 0Z"/>
  <path fill="#177C1B" d="M194.7 126.448v-8h-.2c-.4-1.2-1.3-2.2-2.6-2.9l-6.6-3.8c.8-.7 1.2-1.5 1.2-2.3 0-1-.6-1.8-1.6-2.4l-10.4-6c.5-.5.8-1.1002.7-1.7003v-6.3c0-.2-.1-.4-.2-.6-.2-.5-.6-1-1.2-1.3l-10.8-6.3-.8-.3-.6.4c-.1 0-.1.1-.2.1-1.2.7-3.1.9-4.7.6v-4.6l-12.5-7.2c-1.2-.7-2.9-.8-4.2-.3-1 .3-1.6.9-1.9 1.6l-1.6 3.9-11.6-6.7c-1.8-1-4.8-.9-6.8.2l-.3.2-2.3-1.3c-3.7-2.1-10-1.9-14.2.5L3.8 128.748c-1.8 1.1-3.1 2.5-3.6 4H0v7.8c0 1.7 1.1 3.1 2.8 4.2l76.4 44.1c1.6.9 3.8 1.4 6.3 1.4 2.9 0 5.8-.7 8-2l97.5-56.7c2.3-1.3 3.6-3.2 3.7-5.1Zm.9 21.8c-.6-1-1.5-1.7-2.6-2-1.1-.3-2.3-.1-3.2.4l-63.8 37.4c-.4.3-6.6 4.9-7.8 5.9-.5.5-.6 1.2-.3 1.8.2.3.4.5.7.6 0 .2.1.4.2.6.4.6 1 1 1.7 1 .2 0 .4 0 .5-.1l6.4-1.8c1 .2 2 0 2.9-.5l35-20.5c.3.2.6.4.9.5.6.2 1.2.1 1.8-.2l23.3-13.6c.5-.3.9-.8 1.1-1.4.1-.3.1-.7 0-1l1.7-1c1-.6 1.7-1.5 2-2.6.3-1.4.1-2.5-.5-3.5Z"/>
  <path fill="#FDEDCC" d="m180.7 117.748-5.3-3c-.4-.1-.8-.3-1.2-.5l-14.7-8.5-.6.4c-.6.3-1.3.5-1.9.5-.6 0-1.1-.1-1.6-.4l-1.2-.7-28.8-16.7005c-.5-.3-.8-.8-.8-1.3 0-.6.4-1.1 1-1.5l-11.4-6.6c-.3-.2-.6-.4-.8-.7l-6.3-3.6-93.2001 54.4005 3.8 2.2 68 39.3 1.8 1 88.2001-51.3 5-3Zm-33.8 2c1.1.6 1.1 2.2 0 2.8l-19.1 11.6-26.8 16.4c-1.3001.8-2.9001.8-4.2001 0l-7.2-4.1-11.4-6.6c-.5-.3-.5-1.1 0-1.4l1.7-1-.7-.4c-.7-.4-1.1-1.1-1.1-1.8 0-.8.4-1.4 1-1.8l8.6-5.2-21.2-12.4c-1.1-.6-1.1-2.2 0-2.8l.5-.3-.7-.4c-.7-.4-1.1-1.1-1.1-1.8 0-.8.4-1.4 1-1.8l31.1-18.9005c1.7-1 3.8001-1 5.5001-.1l25.6 14.9005 13.7 7.9 5 2.9c.7.4 1.1 1.1 1.1 1.8 0 .8-.4 1.4-1 1.8l-.7.5.4.2Z"/>
  <path fill="#FDEDCC" d="M102.3 90.5478c-.7-.4-1.4-.6-2.2-.6-.8 0-1.6.2-2.3.6L66.7 109.548c-.3.2-.5.6-.5 1s.2.8.6 1l1.2.7 30-18.3002c1.3-.8 2.9-.8 4.2 0l21.5 12.5002 2.8-1.7-24.2-14.2002ZM88.7001 128.748l-9.1 5.5c-.3.2-.5.6-.5 1s.2.8.6 1l1.2.7 9.5-5.8c.5-.3.5-1.1 0-1.4l-1.7-1Zm57.9999-12.5-5.5-3.2-13.7-7.9-2.8 1.7 2.8 1.6 10.8 6.3 7.2 4.2 1.2-.7c.3-.2.5-.6.5-1s-.2-.8-.5-1Zm-7.9-35.3004 14 8.1 4.8 2.8 5.8 3.4 8.5-1.1c.5-.1.9-.2 1.2-.4.2-.1.3-.3.4-.4 0-.1 0-.2-.1-.2-.1-.2-.3-.3-.4-.3l-.9-.5-9.5-5.5s-.1 0-.1.1c-1.7 1-4.1 1.2-6.2.8-.5-.1-.9-.2-1.3-.4h-.1c-.3-.1-.6-.3-.9-.4-.5-.3-.9-.6-1.2-1-.3-.3-.5-.6-.6-1-.1-.3-.2-.6-.2-.9 0-.5.1-.9.4-1.3.2-.3.4-.6.8-.9l.3-.3-.9-.5-.6-.4-8.6-5c-.4-.2-1-.4-1.6-.4-.4 0-.8.1-1.2.2-.4.1-.7.4-.8.6l-.5 1.2-1.4 3.3.3.2.6.2Zm-23.9-2.5 12.1 7 .2-.1.3-.2c.7-.4 1.5-.5 2.2-.5.5 0 .9.1 1.3.3l5.4 3.1.2.1.5.3L161 102.248s.1 0 .1.1c.3.2.5.4.6.7.1.2.1.3.1.5 0 .5-.3.9-.7 1.3-.1 0-.1.1-.2.1l14 8.1c.3.2.6.3 1 .4 1 .2 2.2.1 3.2-.3.2-.1.5-.2.7-.3l.6-.4 1.1-.6.7-.4.8-.4.6-.3c.7-.4 1-.8 1-1.3 0-.4-.3-.7-.6-.8l-12.2-7-1-.6-1-.6-6.9-4.0004-1.6-.9-23.7-13.7-.2-.1-.5-.3-.7-.4-12.2-7.1c-1.2-.7-3.4-.6-4.8.2 0 0-.1 0-.1.1l-.6.3-.7.4-1.1.6-.7.4-.7.4c-.7.4-1 .8-1 1.3 0 .1 0 .2.1.3 0 .2.3.4.5.5Zm75.8 72.3004-62.1 36.3c.1.1.2.3.2.4.4.8.3 1.7-.1 2.5l35.9-20.9-.3-.6c-.2-.4-.1-.8.3-1l24.3-14.2c.3-.2.8-.1 1 .2.4 0 .7 0 1.1.2l1.8-1c.7-.4 1.2-1.1 1.5-1.9-1.2-.6-2.5-.6-3.6 0Z"/>
  <path fill="#177C1B" d="M194.2 126.448v-7.5h-.1c-.3-1.2-1.1-2.2-2.5-3l-7.2-4.2c1-.6 1.6-1.5 1.6-2.3 0-.8-.5-1.5-1.3-2l-11.1-6.4c.8-.4 1.2-1.1 1.1-1.8001v-6.3c0-.1 0-.2-.1-.3-.2-.4-.5-.8-1-1.1l-10.8-6.3-.5-.1-.4.3c-.1.1-.2.1-.2.2-1.5.8-3.7 1-5.5.6v-4.7l-12.2-7.1c-1-.6-2.6-.7-3.8-.3-.8.3-1.4.8-1.6 1.4l-1.8 4.3-12.1-7c-1.7-1-4.4-.8-6.3.2l-.6.3-2.5-1.4c-3.5-2-9.7-1.8-13.7.5L4 129.148c-1.9 1.1-3.1 2.5-3.4 4H.5v7.3c0 1.5 1 2.8 2.6 3.8l76.4 44.1c1.6.9 3.8 1.4 6 1.4 2.7 0 5.5-.6 7.7-1.9l97.5-56.7c2.2-1.3 3.4-2.9 3.5-4.7ZM2 133.148c.3-1 1.3-2 2.7-2.9l97.5-56.7001c2-1.2 4.6-1.8 7-1.8 2 0 3.9.4 5.3 1.2l1.8 1.1-1.1.6-.7.4c-.2.1-.4.3-.6.4-.5.4-.9.9-1 1.5l-4.2-2.4-.9-.5-.3-.2-.3-.2-1 .6-2.4 1.4-92.6 53.9001 5.2 3-3.2 1.9 72.1 41.6 1.5.9.3.2 92.8-54-2.8-1.6 6.4-3.7-5.1-3c.8-.1 1.6-.4 2.3-.8l.7-.4.6-.4 1.1-.6 7.9 4.6c.9.5 1.5 1.1 1.7 1.8.1.2.1.4.2.6v.7c-.2 1.1-1.2 2.3-2.8 3.2l-97.5 56.7c-2.2 1.3-5.2 1.9-7.8 1.7-1.7-.1-3.3-.5-4.5-1.2l-76.5-44.1c-1-.6-1.7-1.3-1.9-2.2 0-.2-.1-.3-.1-.5v-.1c.1-.2.1-.4.2-.7Zm117.1-59.0001c1.5-.8 3.6-.9 4.8-.2l12.4 7.2.7.4.5.3.2.1 23.7 13.7 1.6.9 6.9 4.0001 1 .6 1 .6 12.2 7c.3.2.6.4.6.8s-.4.9-1 1.3l-.7.2-.7.4-.7.4-1.1.6-.6.4c-.2.1-.5.2-.7.3-1 .4-2.2.5-3.2.3-.4-.1-.7-.2-1-.4l-14-8.1c.1 0 .1-.1.2-.1.5-.4.7-.8.7-1.3 0-.2 0-.3-.1-.5-.1-.3-.3-.5-.6-.7l-.1-.1-23.9-13.8001-.5-.3-.2-.1-5.4-3.1c-.4-.2-.8-.3-1.3-.3-.8-.1-1.6.1-2.2.5l-.3.2-.2.1-12.1-7c-.2-.1-.5-.3-.6-.6 0-.1-.1-.2-.1-.3 0-.4.4-.9 1-1.3l.7-.4.7-.4 1.1-.6.7-.4.6-.3Zm21.5 1.3c.4-.1.8-.2 1.2-.2.6 0 1.1.1 1.6.4l8.6 5 .6.4.9.5-.3.3c-.3.3-.6.6-.8.9-.2.4-.4.9-.4 1.3 0 .3.1.6.2.9.1.3.3.7.6 1 .3.4.7.7 1.2 1 .3.2.6.3.9.4h.1c.4.2.9.3 1.3.4 2.1.4 4.5.2 6.2-.8 0 0 .1 0 .1-.1l9.5 5.5.9.5c.1 0 .3.2.4.3.1.1.1.2.1.2 0 .1-.1.3-.4.4-.2.2-.6.3-1.2.4l-8.5 1.1-5.8-3.4-4.8-2.8-14-8.1-.6-.3-.3-.2 1.4-3.3.5-1.2c0-.2.3-.4.8-.5ZM87.5 172.048l-1.8-1-68-39.3-3.8-2.2 93.3-54.2001 6.3 3.6c.2.3.5.5.8.7l11.4 6.6c-.6.4-1 .9-1 1.5 0 .5.3 1 .8 1.3l28.8 16.7001 1.2.7c.4.3 1 .4 1.6.4.7 0 1.4-.2 1.9-.5l.6-.4 14.7 8.5c.4.2.8.4 1.2.5l5.3 3-5.1 2.9-88.2 51.2Zm40.3-85.6001.3-.2s.1 0 .2-.1c.1 0 .2-.1.2-.1.3-.1.6-.2.9-.2.3 0 .7.1.9.2l29.6 17.1001.5.3c.1.1.1.1.2.1 0 0-.1.2-.4.3l-.4.2-.2.1-.5.3-.2.1-.5.3-.2.1c-.6.3-1.6.4-2.1.1l-.5-.3L126 87.6479c-.1-.1-.1-.1-.2-.1 0 0 .1-.2.4-.3l.6-.4.2-.1.5-.3h.3ZM1.8 136.948c.4.3.8.7 1.2.9l76.4 44.1c1.4.8 3.2 1.2 5.2 1.3v5.1c-1.7-.1-3.3-.5-4.5-1.2l-76.3-44c-1.2-.7-1.9-1.6-1.9-2.6v-3.6h-.1Zm193.4 11.5c-1.1-1.8-3.4-2.4-5.2-1.4l-63.8 37.3c-.6.3-1 .8-1.4 1.4-.1.1-.2.3-.2.5l-.2.1-4.9 4.5-.3.3c-.3.4-.3 1 0 1.5.3.6 1 .8 1.6.7l6.5-1.9c.9.2 1.8 0 2.6-.4l35.4-20.7c.2.3.6.5.9.6.5.1 1 .1 1.4-.2l23.4-13.7c.4-.2.7-.6.8-1.1.1-.4.1-.8-.1-1.1l2.1-1.2c.9-.5 1.5-1.3 1.7-2.3.4-1 .2-2-.3-2.9Zm-75 43.1 3.9-3.5.3-.3.5-.4.1-.1.4-.1.2-.1c.8-.3 1.7 0 2.2.7.1.1.1.2.2.3.3.7.2 1.6-.4 2.2l-.3.3-.1.1-.1.1-.4.1-.6.2-5.3 1.5c-.2.1-.4 0-.5-.2-.3-.4-.2-.6-.1-.8Zm44.9-21.6-.2-.2-.1-.2-35.2 20.6c-.4.2-.7.3-1.1.4.1-.2.3-.3.3-.5.4-.8.4-1.7.1-2.5-.1-.1-.1-.3-.2-.4l62.1-36.3c1.1-.6 2.3-.6 3.3 0 .2.1.4.3.6.4-.1.2-.1.4-.2.6-.2.4-.6.8-1 1l-2.1 1.2c-.1-.1-.3-.3-.5-.3-.3-.2-.7-.2-1.1-.2-.2 0-.5.1-.7.2l-23.3 13.6c-.3.2-.5.4-.7.7-.1.1-.1.3-.2.5 0 .1-.1.3-.1.4 0 .2 0 .4.1.6.1 0 .2.1.2.4 0 0 .1 0 0 0Zm25.8-14.2c0 .1 0 .1-.1.2l-.3.3-23.3 13.6c-.2.1-.4.1-.6.1-.1 0-.2-.1-.3-.2l-.2-.2-.1-.2v-.1c-.1-.1-.1-.3-.1-.4v-.2c.1-.2.2-.4.4-.5l23.3-13.6c.3-.2.6-.1.8 0l.3.3v.1l.1.2c.1.1.1.2.1.3v.3Z"/>
  <path fill="#177C1B" d="m147.2 115.348-5-2.9-13.7-7.9-25.6-14.9004c-1.7-1-3.8-1-5.5.1L66.2 108.648c-.6.4-1 1.1-1 1.8 0 .8.4 1.4 1.1 1.8l.7.4 23.6 13.7-2.8 1.7-8.6 5.2c-.6.4-1 1.1-1 1.8 0 .8.4 1.4 1.1 1.8l.7.4 12 7 4.2 2.4c.8.5 1.8.7 2.7.7 1 0 1.9-.3 2.8-.8l27.2-16.6 17.6-10.7.7-.5c.6-.4 1-1.1 1-1.8 0-.5-.4-1.2-1-1.6Zm-.5 2.8-1.2.7-17.6 10.7-6.5-3.7-1 .6 6.5 3.7-25.8 15.7c-1.4.8-3.1.9-4.5 0l-3.9-2.2-11.9-6.9-1.2-.7c-.3-.2-.6-.6-.6-1s.2-.8.5-1l9.1-5.5 2.8-1.7 4.2-2.5-1-.6h-.1l-3.2 1.9-23.4-13.5-1.2-.7c-.3-.2-.6-.6-.6-1s.2-.8.5-1l31.1-18.9004c.7-.4 1.5-.6 2.3-.6.8 0 1.5.2 2.2.6l24.2 14.0004-2.8 1.7-3.6 2.2 1 .6 1.8-1.1 1.9-1.1 2.8-1.7 13.7 7.9 5.5 3.2c.3.2.6.6.6 1-.1.4-.3.7-.6.9Z"/>
  <path fill="#177C1B" d="m113.5 113.648-1-.6-10.3 6.3 1 .5 2.8-1.7 6.5 3.8 1-.6-6.5-3.8 6.5-3.9Z"/>
  <path fill="#F6A01D" d="M3.0999 137.848c-.5-.3-.9-.6-1.2-.9v3.6c0 1 .7 1.9 1.9 2.6l76.4 44.1c1.2.7 2.8 1.1 4.5 1.2v-5.1c-1.9-.1-3.8-.5-5.2-1.3l-76.4-44.2Zm189.7001-17.5v-.7c0-.2-.1-.4-.2-.6-.3-.7-.9-1.3-1.7-1.8l-7.9-4.6-1.1.6-.6.4-.7.4c-.7.4-1.5.6-2.3.8l5.1 3-6.4 3.7 2.8 1.6-92.8001 54-.3-.2-1.5-.9-72.1-41.7 3.2-1.9-5.2-3L103.6 75.6477l2.4-1.4 1-.6.3.2.3.2 1.1.6 4.2 2.4c.1-.5.5-1 1-1.5.2-.2.4-.3.6-.4l.7-.4 1.1-.6-1.7-1.1c-1.4-.8-3.3-1.2-5.3-1.2-2.4 0-5 .6-7 1.8L4.6999 130.348c-1.4.8-2.4 1.8-2.7 2.9-.1.2-.1.4-.1.7v.1c0 .2 0 .4.1.5.2.8.8 1.6 1.9 2.2l76.4 44.1c1.2.7 2.8 1.1 4.5 1.2 2.7.1 5.6-.4 7.8-1.7L190 123.548c1.6-.9 2.6-2.1 2.8-3.2Z"/>
  <path fill="#F6A01D" d="m126.1 87.7478 29.6 17.1002.5.3c.5.3 1.5.2 2.1-.1l.2-.1.5-.3.2-.1.5-.3.2-.1.4-.2c.3-.2.4-.3.4-.3s0-.1-.2-.1l-.5-.3-29.6-17.1002c-.2-.1-.5-.2-.9-.2-.3 0-.6.1-.9.2-.1 0-.2.1-.2.1s-.1 0-.2.1l-.3.2-.2.1-.5.3-.2.1-.6.4c-.3.2-.4.3-.4.3 0-.1 0 0 .1 0Zm68 63.0002c-.2.8-.7 1.4-1.5 1.9l-1.8 1c.2.1.3.2.5.3l2.1-1.2c.4-.2.8-.6 1-1 .1-.2.2-.4.2-.6-.2-.1-.3-.2-.5-.4Zm-3.4 4.2c-.1-.2-.2-.3-.3-.3-.3-.1-.6-.2-.8 0l-23.3 13.6c-.2.1-.3.3-.4.5v.2c0 .2 0 .3.1.4v.1l.1.2c0 .1.1.2.2.2.1.1.2.1.3.2.2.1.4 0 .6-.1l23.3-13.6.3-.3c0-.1.1-.1.1-.2v-.4c0-.1 0-.2-.1-.3l-.1-.2Z"/>
  <path fill="#F6A01D" d="M189.8 153.448c-.2-.3-.7-.5-1-.2l-24.3 14.2c-.4.2-.5.7-.3 1l.3.6-35.7 20.9c-.1.2-.2.4-.3.5.4 0 .8-.2 1.1-.4l35.2-20.6.1.2c0 .1.1.1.2.2 0 0 .1 0 .1.1l-.1-.1v-.1c-.1-.1-.1-.3-.2-.4-.1-.2-.1-.4-.1-.6 0-.1 0-.3.1-.4 0-.2.1-.3.2-.5.2-.3.4-.5.7-.7l23.2-13.4c.3-.2.5-.2.8-.3Zm-62 34.1c-.5-.7-1.4-1-2.2-.7l-.2.1-.4.1-.1.1-.5.4-.3.3-3.9 3.5c-.2.1-.2.4-.1.6.1.2.3.3.5.2l5.3-1.5.6-.2.4-.1.1-.1.1-.1.3-.3c.6-.5.8-1.4.4-2.2.1.1.1 0 0-.1Zm-37.2-61.1-23.7-13.7-.5.3c-1.1.6-1 2.2 0 2.8l21.3 12.3 2.9-1.7Zm-1.0001 20 7.2 4.1c1.3.7 2.9.7 4.2001 0l26.9-16.4 19.1-11.6c1.1-.6 1-2.2 0-2.8l-.4-.3-17.6 10.7-27.2 16.6c-.9.5-1.8001.8-2.8001.8-.9 0-1.9-.2-2.7-.7l-4.2-2.4-12-7-1.7 1c-.5.3-.5 1.1 0 1.4l11.2 6.6Z"/>
  <path fill="#F6A01D" d="M102.1 93.8478c-1.3-.7-2.9001-.7-4.2001 0l-30 18.3002 23.6 13.7 3.2-1.9h.1l1 .6-4.2 2.5-2.8 1.7 1.6.9c.5.3.5 1.1 0 1.4l-9.5 5.8 11.9 6.9 3.9 2.2c1.4.8 3.1.8 4.5001 0l25.8-15.7-6.5-3.7 1-.6 6.5 3.7 17.6-10.7-7.2-4.2-10.8-6.3-2.8-1.6-1.9 1.1-1.9 1.1-1-.6 3.6-2.2-21.5-12.4002Zm10.4 19.2002 1 .6-6.5 3.9 6.5 3.7-1 .6-6.5-3.7-2.8 1.7-1-.6 10.3-6.2Z"/>
</svg>
