<svg xmlns="http://www.w3.org/2000/svg" fill="none" viewBox="0 0 209 220">
  <g clip-path="url(#a)">
    <path fill="#177C1B" d="M158.455 188.435c.561.337.561.9 0 1.237-.561.337-1.571.337-2.132 0-.562-.337-.562-.9 0-1.237.561-.338 1.571-.338 2.132 0Zm5.612-3.262c.561.338.561.9 0 1.237-.561.338-1.571.338-2.132 0-.562-.337-.562-.899 0-1.237.561-.337 1.571-.337 2.132 0Zm-16.724 3.149c.562.338.562.9 0 1.238-.561.337-1.571.337-2.132 0-.561-.338-.561-.9 0-1.238.561-.337 1.571-.337 2.132 0Zm5.612-3.149c.562.338.562.9 0 1.237-.561.338-1.571.338-2.132 0-.561-.337-.561-.899 0-1.237.561-.337 1.459-.337 2.132 0Zm5.5-3.149c.561.337.561.9 0 1.237-.561.338-1.571.338-2.132 0-.562-.337-.562-.9 0-1.237.673-.337 1.571-.337 2.132 0Zm5.612-3.149c.561.337.561.9 0 1.237-.561.337-1.571.337-2.132 0-.562-.337-.562-.9 0-1.237.673-.45 1.571-.45 2.132 0Z"/>
    <path fill="#177C1B" d="M145.211 188.322c.561-.337 1.571-.337 2.132 0 .562.338.562.9 0 1.238-.561.337-1.571.337-2.132 0-.561-.338-.561-.9 0-1.238Zm-3.48-3.149c.562.338.562.9 0 1.237-.561.338-1.571.338-2.132 0-.561-.337-.561-.899 0-1.237.673-.337 1.571-.337 2.132 0Zm5.612-3.149c.562.337.562.9 0 1.237-.561.338-1.571.338-2.132 0-.561-.337-.561-.9 0-1.237.673-.337 1.571-.337 2.132 0Zm5.612-3.262c.562.338.562.9 0 1.238-.561.337-1.571.337-2.132 0-.561-.338-.561-.9 0-1.238.561-.337 1.571-.337 2.132 0Zm5.612-3.149c.562.338.562.9 0 1.237-.561.338-1.571.338-2.132 0-.561-.337-.561-.899 0-1.237.561-.337 1.571-.337 2.132 0Zm5.612-3.15c.562.337.562.9 0 1.237-.561.337-1.571.337-2.132 0-.561-.337-.561-.9 0-1.237.561-.338 1.459-.338 2.132 0Z"/>
    <path fill="#177C1B" d="M139.599 185.173c.561-.337 1.571-.337 2.132 0 .562.338.562.9 0 1.237-.561.338-1.571.338-2.132 0-.561-.337-.561-.899 0-1.237Zm-3.367-3.261c.561.337.561.899 0 1.237-.562.337-1.572.337-2.133 0-.561-.338-.561-.9 0-1.237.561-.338 1.571-.338 2.133 0Zm5.612-3.15c.561.338.561.9 0 1.238-.562.337-1.572.337-2.133 0-.561-.338-.561-.9 0-1.238.561-.337 1.571-.337 2.133 0Zm5.612-3.149c.561.338.561.9 0 1.237-.562.338-1.572.338-2.133 0-.561-.337-.561-.899 0-1.237.561-.337 1.459-.337 2.133 0Zm5.499-3.263c.562.338.562.9 0 1.238-.561.337-1.571.337-2.132 0-.561-.338-.561-.9 0-1.238.673-.337 1.571-.337 2.132 0Zm5.612-3.149c.562.338.562.9 0 1.237-.561.338-1.571.338-2.132 0-.561-.337-.561-.899 0-1.237.673-.337 1.571-.337 2.132 0Zm5.612-3.148c.562.338.562.9 0 1.237-.561.338-1.571.338-2.132 0-.561-.337-.561-.899 0-1.237.561-.337 1.571-.337 2.132 0Z"/>
    <path fill="#177C1B" d="M134.099 181.912c.561-.338 1.571-.338 2.133 0 .561.337.561.899 0 1.237-.562.337-1.572.337-2.133 0-.561-.338-.561-.9 0-1.237Zm-3.479-3.15c.561.338.561.9 0 1.238-.562.337-1.572.337-2.133 0-.561-.338-.561-.9 0-1.238.673-.337 1.571-.337 2.133 0Zm5.612-3.261c.561.337.561.899 0 1.237-.562.337-1.572.337-2.133 0-.561-.338-.561-.9 0-1.237.673-.338 1.571-.338 2.133 0Zm5.612-3.151c.561.338.561.9 0 1.238-.562.337-1.572.337-2.133 0-.561-.338-.561-.9 0-1.238.561-.337 1.571-.337 2.133 0Zm5.612-3.149c.561.338.561.9 0 1.237-.562.338-1.572.338-2.133 0-.561-.337-.561-.899 0-1.237.561-.337 1.571-.337 2.133 0Zm5.612-3.148c.561.338.561.9 0 1.237-.562.338-1.572.338-2.133 0-.561-.337-.561-.899 0-1.237.561-.337 1.571-.337 2.133 0Zm5.612-3.262c.561.338.561.9 0 1.238-.562.337-1.572.337-2.133 0-.561-.338-.561-.9 0-1.238.561-.337 1.459-.337 2.133 0Z"/>
    <path fill="#177C1B" d="M128.599 178.762c.561-.337 1.572-.337 2.133 0 .561.338.561.9 0 1.238-.561.337-1.572.337-2.133 0-.673-.338-.673-.9 0-1.238Zm-3.479-3.261c.561.337.561.899 0 1.237-.561.337-1.572.337-2.133 0-.561-.338-.561-.9 0-1.237.561-.338 1.572-.338 2.133 0Zm5.612-3.151c.561.338.561.9 0 1.238-.561.337-1.572.337-2.133 0-.561-.338-.561-.9 0-1.238.561-.337 1.572-.337 2.133 0Zm5.612-3.149c.561.338.561.9 0 1.237-.561.338-1.572.338-2.133 0-.561-.337-.561-.899 0-1.237.561-.337 1.459-.337 2.133 0Zm5.5-3.26c.561.337.561.899 0 1.237-.562.337-1.572.337-2.133 0-.561-.338-.561-.9 0-1.237.673-.338 1.571-.338 2.133 0Zm5.612-3.15c.561.338.561.9 0 1.238-.562.337-1.572.337-2.133 0-.561-.338-.561-.9 0-1.238.674-.337 1.571-.337 2.133 0Zm5.612-3.15c.561.338.561.9 0 1.237-.562.338-1.572.338-2.133 0-.561-.337-.561-.899 0-1.237.561-.337 1.571-.337 2.133 0Zm5.612-3.261c.561.337.561.899 0 1.237-.562.337-1.572.337-2.133 0-.561-.338-.561-.9 0-1.237.561-.338 1.571-.338 2.133 0Z"/>
    <path fill="#177C1B" d="M122.987 175.501c.561-.338 1.572-.338 2.133 0 .561.337.561.899 0 1.237-.561.337-1.572.337-2.133 0-.561-.338-.561-.9 0-1.237Zm-3.367-3.151c.561.338.561.9 0 1.238-.561.337-1.571.337-2.133 0-.561-.338-.561-.9 0-1.238.562-.337 1.46-.337 2.133 0Zm5.5-3.261c.561.337.561.9 0 1.237-.561.337-1.572.337-2.133 0-.561-.337-.561-.9 0-1.237.674-.338 1.572-.338 2.133 0Zm5.612-3.148c.561.337.561.899 0 1.237-.561.337-1.572.337-2.133 0-.561-.338-.561-.9 0-1.237.561-.338 1.572-.338 2.133 0Zm5.612-3.15c.561.338.561.9 0 1.238-.561.337-1.572.337-2.133 0-.561-.338-.561-.9 0-1.238.561-.337 1.572-.337 2.133 0Zm5.612-3.261c.561.337.561.899 0 1.237-.561.337-1.572.337-2.133 0-.561-.338-.561-.9 0-1.237.561-.338 1.572-.338 2.133 0Zm5.612-3.15c.561.337.561.899 0 1.237-.561.337-1.571.337-2.133 0-.561-.338-.561-.9 0-1.237.562-.338 1.459-.338 2.133 0Zm5.5-3.149c.561.338.561.9 0 1.238-.562.337-1.572.337-2.133 0-.561-.338-.561-.9 0-1.238.674-.337 1.571-.337 2.133 0Zm5.612-3.149c.561.338.561.9 0 1.237-.562.338-1.572.338-2.133 0-.561-.337-.561-.899 0-1.237.674-.337 1.571-.337 2.133 0Zm5.612-3.262c.561.338.561.9 0 1.238-.562.337-1.572.337-2.133 0-.561-.338-.561-.9 0-1.238.561-.337 1.571-.337 2.133 0Zm5.612-3.149c.561.338.561.9 0 1.237-.561.338-1.572.338-2.133 0-.561-.337-.561-.899 0-1.237.561-.337 1.572-.337 2.133 0Zm5.612-3.149c.561.338.561.9 0 1.237-.561.338-1.572.338-2.133 0-.561-.337-.561-.899 0-1.237.561-.337 1.459-.337 2.133 0Zm5.612-3.262c.561.338.561.9 0 1.238-.561.337-1.572.337-2.133 0-.561-.338-.561-.9 0-1.238.561-.337 1.459-.337 2.133 0Zm5.5-3.149c.561.338.561.9 0 1.237-.562.338-1.572.338-2.133 0-.561-.337-.561-.899 0-1.237.673-.337 1.571-.337 2.133 0Zm5.612-3.149c.561.337.561.9 0 1.237-.562.338-1.572.338-2.133 0-.561-.337-.561-.9 0-1.237.561-.337 1.571-.337 2.133 0Zm5.612-3.149c.561.337.561.9 0 1.237-.562.337-1.572.337-2.133 0-.561-.337-.561-.9 0-1.237.561-.338 1.571-.338 2.133 0Zm5.612-3.262c.561.338.561.9 0 1.237-.562.338-1.572.338-2.133 0-.561-.337-.561-.899 0-1.237.561-.337 1.571-.337 2.133 0Zm5.612-3.149c.561.337.561.9 0 1.237-.562.338-1.572.338-2.133 0-.561-.337-.561-.9 0-1.237.561-.337 1.459-.337 2.133 0Z"/>
    <path fill="#177C1B" d="M117.487 172.35c.562-.337 1.572-.337 2.133 0 .561.338.561.9 0 1.238-.561.337-1.571.337-2.133 0-.673-.338-.673-.9 0-1.238Zm-3.479-3.261c.561.337.561.9 0 1.237-.561.337-1.571.337-2.133 0-.561-.337-.561-.9 0-1.237.562-.338 1.572-.338 2.133 0Zm5.612-3.148c.561.337.561.899 0 1.237-.561.337-1.571.337-2.133 0-.561-.338-.561-.9 0-1.237.562-.338 1.572-.338 2.133 0Zm5.612-3.262c.561.337.561.9 0 1.237-.561.338-1.571.338-2.133 0-.561-.337-.561-.9 0-1.237.562-.337 1.572-.337 2.133 0Zm5.612-3.149c.561.337.561.899 0 1.237-.561.337-1.571.337-2.133 0-.561-.338-.561-.9 0-1.237.562-.338 1.46-.338 2.133 0Zm5.5-3.15c.561.337.561.899 0 1.237-.561.337-1.572.337-2.133 0-.561-.338-.561-.9 0-1.237.674-.338 1.572-.338 2.133 0Zm5.612-3.149c.561.338.561.9 0 1.238-.561.337-1.572.337-2.133 0-.561-.338-.561-.9 0-1.238.561-.337 1.572-.337 2.133 0Zm5.612-3.261c.561.337.561.899 0 1.237-.561.337-1.571.337-2.133 0-.561-.338-.561-.9 0-1.237.562-.338 1.572-.338 2.133 0Zm5.612-3.15c.561.338.561.9 0 1.238-.561.337-1.571.337-2.133 0-.561-.338-.561-.9 0-1.238.562-.337 1.572-.337 2.133 0Zm5.612-3.149c.561.338.561.9 0 1.237-.561.338-1.571.338-2.133 0-.561-.337-.561-.899 0-1.237.562-.337 1.459-.337 2.133 0Zm5.5-3.261c.561.337.561.899 0 1.237-.562.337-1.572.337-2.133 0-.561-.338-.561-.9 0-1.237.674-.338 1.571-.338 2.133 0Zm5.612-3.15c.561.338.561.9 0 1.238-.561.337-1.572.337-2.133 0-.561-.338-.561-.9 0-1.238.674-.337 1.572-.337 2.133 0Zm5.612-3.149c.561.338.561.9 0 1.237-.561.338-1.572.338-2.133 0-.561-.337-.561-.899 0-1.237.561-.337 1.572-.337 2.133 0Zm5.612-3.149c.561.337.561.9 0 1.237-.561.338-1.572.338-2.133 0-.561-.337-.561-.9 0-1.237.561-.337 1.572-.337 2.133 0Zm5.612-3.262c.561.338.561.9 0 1.238-.561.337-1.572.337-2.133 0-.561-.338-.561-.9 0-1.238.561-.337 1.459-.337 2.133 0Zm5.5-3.149c.561.338.561.9 0 1.237-.562.338-1.572.338-2.133 0-.561-.337-.561-.899 0-1.237.673-.337 1.571-.337 2.133 0Zm5.612-3.149c.561.337.561.9 0 1.237-.562.338-1.572.338-2.133 0-.561-.337-.561-.9 0-1.237.673-.337 1.571-.337 2.133 0Zm5.612-3.263c.561.338.561.9 0 1.237-.562.338-1.572.338-2.133 0-.561-.337-.561-.899 0-1.237.561-.337 1.571-.337 2.133 0Zm5.612-3.148c.561.338.561.9 0 1.237-.562.338-1.572.338-2.133 0-.561-.337-.561-.899 0-1.237.561-.337 1.571-.337 2.133 0Z"/>
    <path fill="#177C1B" d="M111.875 169.089c.562-.338 1.572-.338 2.133 0 .561.337.561.9 0 1.237-.561.337-1.571.337-2.133 0-.561-.337-.561-.9 0-1.237Zm-3.367-3.262c.561.338.561.9 0 1.237-.561.338-1.571.338-2.132 0-.562-.337-.562-.899 0-1.237.561-.337 1.459-.337 2.132 0Zm5.5-3.148c.561.337.561.9 0 1.237-.561.338-1.571.338-2.133 0-.561-.337-.561-.9 0-1.237.674-.337 1.572-.337 2.133 0Zm5.612-3.149c.561.337.561.899 0 1.237-.561.337-1.571.337-2.133 0-.561-.338-.561-.9 0-1.237.674-.338 1.572-.338 2.133 0Zm5.612-3.15c.561.337.561.899 0 1.237-.561.337-1.571.337-2.133 0-.561-.338-.561-.9 0-1.237.562-.338 1.572-.338 2.133 0Zm5.612-3.262c.561.337.561.9 0 1.237-.561.338-1.571.338-2.133 0-.561-.337-.561-.9 0-1.237.562-.337 1.572-.337 2.133 0Zm5.612-3.148c.561.337.561.899 0 1.237-.561.337-1.571.337-2.132 0-.562-.338-.562-.9 0-1.237.561-.338 1.459-.338 2.132 0Zm5.612-3.15c.561.338.561.9 0 1.238-.561.337-1.571.337-2.132 0-.562-.338-.562-.9 0-1.238.561-.337 1.459-.337 2.132 0Zm5.5-3.261c.561.337.561.9 0 1.237-.561.337-1.571.337-2.133 0-.561-.337-.561-.9 0-1.237.674-.338 1.572-.338 2.133 0Zm5.612-3.149c.561.337.561.899 0 1.237-.561.337-1.571.337-2.133 0-.561-.338-.561-.9 0-1.237.562-.338 1.572-.338 2.133 0Zm5.612-3.15c.561.338.561.9 0 1.238-.561.337-1.571.337-2.133 0-.561-.338-.561-.9 0-1.238.562-.337 1.572-.337 2.133 0Zm5.612-3.149c.561.338.561.9 0 1.237-.561.338-1.571.338-2.133 0-.561-.337-.561-.899 0-1.237.562-.337 1.572-.337 2.133 0Zm5.612-3.261c.561.337.561.899 0 1.237-.561.337-1.571.337-2.133 0-.561-.338-.561-.9 0-1.237.562-.338 1.46-.338 2.133 0Zm5.5-3.15c.561.338.561.9 0 1.238-.561.337-1.572.337-2.133 0-.561-.338-.561-.9 0-1.238.674-.337 1.572-.337 2.133 0Zm5.612-3.149c.561.338.561.9 0 1.237-.561.338-1.572.338-2.133 0-.561-.337-.561-.899 0-1.237.674-.337 1.572-.337 2.133 0Zm5.612-3.263c.561.338.561.9 0 1.238-.561.337-1.572.337-2.133 0-.561-.338-.561-.9 0-1.238.561-.337 1.572-.337 2.133 0Zm5.612-3.149c.561.338.561.9 0 1.237-.561.338-1.572.338-2.133 0-.561-.337-.561-.899 0-1.237.561-.337 1.572-.337 2.133 0Zm5.612-3.148c.561.338.561.9 0 1.237-.561.338-1.572.338-2.133 0-.561-.337-.561-.899 0-1.237.561-.337 1.459-.337 2.133 0Zm5.5-3.149c.561.337.561.9 0 1.237-.562.338-1.572.338-2.133 0-.561-.337-.561-.9 0-1.237.673-.337 1.571-.337 2.133 0Z"/>
    <path fill="#177C1B" d="M106.376 165.827c.561-.337 1.571-.337 2.132 0 .561.338.561.9 0 1.237-.561.338-1.571.338-2.132 0-.562-.337-.674-.787 0-1.237Zm-3.48-3.148c.561.337.561.9 0 1.237-.561.338-1.571.338-2.132 0-.562-.337-.562-.9 0-1.237.561-.337 1.571-.337 2.132 0Zm5.612-3.149c.561.337.561.899 0 1.237-.561.337-1.571.337-2.132 0-.562-.338-.562-.9 0-1.237.561-.338 1.571-.338 2.132 0Zm5.612-3.263c.561.338.561.9 0 1.237-.561.338-1.571.338-2.132 0-.562-.337-.562-.899 0-1.237.561-.337 1.571-.337 2.132 0Zm5.612-3.149c.561.337.561.9 0 1.237-.561.338-1.571.338-2.132 0-.562-.337-.562-.9 0-1.237.561-.337 1.459-.337 2.132 0Zm5.5-3.148c.561.337.561.899 0 1.237-.561.337-1.571.337-2.133 0-.561-.338-.561-.9 0-1.237.674-.338 1.572-.338 2.133 0Zm5.612-3.262c.561.337.561.9 0 1.237-.561.338-1.571.338-2.133 0-.561-.337-.561-.9 0-1.237.674-.337 1.572-.337 2.133 0Zm5.612-3.149c.561.337.561.9 0 1.237-.561.337-1.571.337-2.132 0-.562-.337-.562-.9 0-1.237.561-.338 1.571-.338 2.132 0Zm5.612-3.149c.561.337.561.899 0 1.237-.561.337-1.571.337-2.132 0-.562-.338-.562-.9 0-1.237.561-.338 1.571-.338 2.132 0Zm5.612-3.15c.561.338.561.9 0 1.238-.561.337-1.571.337-2.132 0-.562-.338-.562-.9 0-1.238.561-.337 1.459-.337 2.132 0Zm5.612-3.261c.561.337.561.9 0 1.237-.561.337-1.571.337-2.132 0-.562-.337-.562-.9 0-1.237.561-.338 1.459-.338 2.132 0Zm5.5-3.149c.561.337.561.899 0 1.237-.561.337-1.571.337-2.133 0-.561-.338-.561-.9 0-1.237.674-.338 1.572-.338 2.133 0Zm5.612-3.15c.561.338.561.9 0 1.238-.561.337-1.571.337-2.133 0-.561-.338-.561-.9 0-1.238.562-.337 1.572-.337 2.133 0Zm5.612-3.261c.561.337.561.9 0 1.237-.561.337-1.571.337-2.133 0-.561-.337-.561-.9 0-1.237.562-.338 1.572-.338 2.133 0Zm5.612-3.151c.561.338.561.9 0 1.238-.561.337-1.571.337-2.133 0-.561-.338-.561-.9 0-1.238.562-.337 1.572-.337 2.133 0Zm5.612-3.149c.561.338.561.9 0 1.237-.561.338-1.571.338-2.133 0-.561-.337-.561-.899 0-1.237.562-.337 1.46-.337 2.133 0Zm5.5-3.148c.561.338.561.9 0 1.237-.561.338-1.572.338-2.133 0-.561-.337-.561-.899 0-1.237.674-.337 1.572-.337 2.133 0Zm5.612-3.262c.561.338.561.9 0 1.238-.561.337-1.572.337-2.133 0-.561-.338-.561-.9 0-1.238.674-.337 1.572-.337 2.133 0Zm5.612-3.15c.561.338.561.9 0 1.237-.561.338-1.572.338-2.133 0-.561-.337-.561-.899 0-1.237.561-.337 1.572-.337 2.133 0Z"/>
    <path fill="#177C1B" d="M100.764 162.679c.561-.337 1.571-.337 2.132 0 .561.337.561.9 0 1.237-.561.338-1.571.338-2.132 0-.562-.337-.562-.9 0-1.237Zm-3.3676-3.262c.562.338.562.9 0 1.237-.5608.338-1.571.338-2.1322 0-.5612-.337-.5612-.899 0-1.237.5612-.337 1.4592-.337 2.1322 0Zm5.6116-3.15c.562.338.562.9 0 1.237-.561.338-1.571.338-2.132 0-.561-.337-.561-.899 0-1.237.561-.337 1.459-.337 2.132 0Zm5.5-3.149c.561.337.561.9 0 1.237-.561.338-1.571.338-2.132 0-.562-.337-.562-.9 0-1.237.673-.337 1.571-.337 2.132 0Zm5.612-3.148c.561.337.561.899 0 1.237-.561.337-1.571.337-2.132 0-.562-.338-.562-.9 0-1.237.561-.45 1.571-.45 2.132 0Zm5.612-3.262c.561.337.561.9 0 1.237-.561.338-1.571.338-2.132 0-.562-.337-.562-.9 0-1.237.561-.337 1.571-.337 2.132 0Zm5.612-3.149c.561.337.561.9 0 1.237-.561.337-1.571.337-2.132 0-.561-.337-.561-.9 0-1.237.561-.338 1.571-.338 2.132 0Zm5.612-3.149c.562.337.562.899 0 1.237-.561.337-1.571.337-2.132 0-.561-.338-.561-.9 0-1.237.561-.338 1.459-.338 2.132 0Zm5.5-3.262c.561.337.561.9 0 1.237-.561.338-1.571.338-2.132 0-.562-.337-.562-.9 0-1.237.673-.337 1.571-.337 2.132 0Zm5.612-3.149c.561.337.561.9 0 1.237-.561.337-1.571.337-2.132 0-.562-.337-.562-.9 0-1.237.673-.338 1.571-.338 2.132 0Zm5.612-3.149c.561.337.561.899 0 1.237-.561.337-1.571.337-2.132 0-.562-.338-.562-.9 0-1.237.561-.338 1.571-.338 2.132 0Zm5.612-3.262c.561.337.561.9 0 1.237-.561.338-1.571.338-2.132 0-.562-.337-.562-.9 0-1.237.561-.337 1.571-.337 2.132 0Zm5.612-3.149c.561.337.561.9 0 1.237-.561.337-1.571.337-2.132 0-.562-.337-.562-.9 0-1.237.561-.338 1.459-.338 2.132 0Zm5.5-3.151c.561.338.561.9 0 1.238-.561.337-1.571.337-2.133 0-.561-.338-.561-.9 0-1.238.674-.337 1.572-.337 2.133 0Zm5.612-3.149c.561.338.561.9 0 1.237-.561.338-1.571.338-2.133 0-.561-.337-.561-.899 0-1.237.674-.337 1.572-.337 2.133 0Zm5.612-3.261c.561.337.561.899 0 1.237-.561.337-1.571.337-2.133 0-.561-.338-.561-.9 0-1.237.562-.338 1.572-.338 2.133 0Zm5.612-3.149c.561.338.561.9 0 1.238-.561.337-1.571.337-2.133 0-.561-.338-.561-.9 0-1.238.562-.337 1.572-.337 2.133 0Zm5.612-3.15c.561.338.561.9 0 1.237-.561.338-1.571.338-2.133 0-.561-.337-.561-.899 0-1.237.562-.337 1.572-.337 2.133 0Zm5.612-3.261c.561.337.561.899 0 1.237-.561.337-1.571.337-2.133 0-.561-.338-.561-.9 0-1.237.562-.338 1.46-.338 2.133 0Z"/>
    <path fill="#177C1B" d="M95.2642 159.417c.5612-.337 1.5714-.337 2.1322 0 .562.338.562.9 0 1.237-.5608.338-1.571.338-2.1322 0-.5612-.337-.5612-.899 0-1.237Zm-3.4795-3.15c.5612.338.5612.9 0 1.237-.5612.338-1.5714.338-2.1326 0-.5612-.337-.5612-.899 0-1.237.6735-.337 1.5714-.337 2.1326 0Zm5.6117-3.149c.562.337.562.9 0 1.237-.5608.338-1.571.338-2.1322 0-.5612-.337-.5612-.9 0-1.237.5612-.337 1.5714-.337 2.1322 0Zm5.6116-3.261c.562.338.562.9 0 1.237-.561.338-1.571.338-2.132 0-.561-.337-.561-.899 0-1.237.561-.337 1.571-.337 2.132 0Zm5.612-3.149c.562.337.562.9 0 1.237-.561.338-1.571.338-2.132 0-.561-.337-.561-.9 0-1.237.561-.337 1.459-.337 2.132 0Zm5.612-3.149c.562.337.562.9 0 1.237-.561.337-1.571.337-2.132 0-.561-.337-.561-.9 0-1.237.561-.338 1.459-.338 2.132 0Zm5.5-3.262c.561.338.561.9 0 1.237-.561.338-1.571.338-2.132 0-.562-.337-.562-.899 0-1.237.673-.337 1.571-.337 2.132 0Zm5.612-3.149c.561.337.561.9 0 1.237-.561.338-1.571.338-2.132 0-.561-.337-.561-.9 0-1.237.561-.337 1.571-.337 2.132 0Zm5.612-3.149c.562.337.562.9 0 1.237-.561.337-1.571.337-2.132 0-.561-.337-.561-.9 0-1.237.561-.338 1.571-.338 2.132 0Zm16.724-9.56c.561.337.561.9 0 1.237-.561.337-1.571.337-2.132 0-.562-.337-.562-.9 0-1.237.673-.338 1.571-.338 2.132 0Zm5.612-3.151c.561.338.561.9 0 1.238-.561.337-1.571.337-2.132 0-.562-.338-.562-.9 0-1.238.673-.337 1.571-.337 2.132 0Zm5.612-3.261c.561.337.561.9 0 1.237-.561.337-1.571.337-2.132 0-.562-.337-.562-.9 0-1.237.561-.338 1.571-.338 2.132 0Zm5.612-3.149c.561.337.561.899 0 1.237-.561.337-1.571.337-2.132 0-.562-.338-.562-.9 0-1.237.561-.338 1.571-.338 2.132 0Zm5.612-3.149c.561.338.561.9 0 1.238-.561.337-1.571.337-2.132 0-.562-.338-.562-.9 0-1.238.561-.337 1.459-.337 2.132 0Zm5.5-3.149c.561.338.561.9 0 1.237-.561.338-1.571.338-2.133 0-.561-.337-.561-.899 0-1.237.674-.45 1.572-.45 2.133 0Zm5.612-3.262c.561.337.561.899 0 1.237-.561.337-1.571.337-2.133 0-.561-.338-.561-.9 0-1.237.674-.338 1.572-.338 2.133 0Zm5.612-3.149c.561.338.561.9 0 1.238-.561.337-1.571.337-2.133 0-.561-.338-.561-.9 0-1.238.562-.337 1.572-.337 2.133 0Z"/>
    <path fill="#177C1B" d="M89.6521 156.267c.5612-.337 1.5714-.337 2.1326 0 .5612.338.5612.9 0 1.237-.5612.338-1.5714.338-2.1326 0-.5612-.337-.5612-.899 0-1.237Zm-3.3671-3.261c.5612.338.5612.9 0 1.238-.5612.337-1.5713.337-2.1325 0-.5612-.338-.5612-.9 0-1.238.5612-.337 1.5713-.337 2.1325 0Zm5.6119-3.149c.5613.338.5613.9 0 1.237-.5612.338-1.5713.338-2.1325 0-.5612-.337-.5612-.899 0-1.237.5612-.337 1.4591-.337 2.1325 0Zm5.4995-3.149c.562.337.562.9 0 1.237-.5608.338-1.571.338-2.1322 0-.5612-.337-.5612-.9 0-1.237.6735-.337 1.5714-.337 2.1322 0Zm5.6116-3.262c.562.338.562.9 0 1.238-.561.337-1.571.337-2.132 0-.561-.338-.561-.9 0-1.238.673-.337 1.571-.337 2.132 0Zm5.612-3.149c.562.338.562.9 0 1.237-.561.338-1.571.338-2.132 0-.561-.337-.561-.899 0-1.237.561-.337 1.571-.337 2.132 0Zm5.612-3.149c.562.337.562.9 0 1.237-.561.338-1.571.338-2.132 0-.561-.337-.561-.9 0-1.237.561-.337 1.571-.337 2.132 0Zm5.612-3.149c.562.337.562.9 0 1.237-.561.337-1.571.337-2.132 0-.561-.337-.561-.9 0-1.237.561-.338 1.459-.338 2.132 0Zm5.613-3.262c.561.338.561.9 0 1.237-.562.338-1.572.338-2.133 0-.561-.337-.561-.899 0-1.237.561-.337 1.459-.337 2.133 0Zm11.111-6.298c.562.337.562.9 0 1.237-.561.337-1.571.337-2.132 0-.561-.337-.561-.9 0-1.237.561-.338 1.571-.338 2.132 0Zm5.612-3.262c.562.337.562.9 0 1.237-.561.338-1.571.338-2.132 0-.561-.337-.561-.9 0-1.237.561-.337 1.571-.337 2.132 0Zm5.612-3.15c.562.337.562.9 0 1.237-.561.337-1.571.337-2.132 0-.561-.337-.561-.9 0-1.237.561-.338 1.571-.338 2.132 0Zm5.612-3.149c.562.337.562.899 0 1.237-.561.337-1.571.337-2.132 0-.561-.338-.561-.9 0-1.237.561-.338 1.459-.338 2.132 0Zm5.5-3.149c.561.338.561.9 0 1.238-.561.337-1.571.337-2.132 0-.562-.338-.562-.9 0-1.238.673-.337 1.571-.337 2.132 0Zm5.612-3.261c.561.337.561.899 0 1.237-.561.337-1.571.337-2.132 0-.562-.338-.562-.9 0-1.237.673-.338 1.571-.338 2.132 0Zm5.612-3.15c.561.337.561.899 0 1.237-.561.337-1.571.337-2.132 0-.562-.338-.562-.9 0-1.237.561-.338 1.571-.338 2.132 0Zm5.612-3.149c.561.338.561.9 0 1.238-.561.337-1.571.337-2.132 0-.562-.338-.562-.9 0-1.238.561-.337 1.571-.337 2.132 0Zm5.612-3.2616c.561.3374.561.8997 0 1.2376-.561.337-1.571.337-2.132 0-.562-.3379-.562-.9002 0-1.2376.561-.3375 1.459-.3375 2.132 0Z"/>
    <path fill="#177C1B" d="M84.1525 153.006c.5612-.337 1.5713-.337 2.1325 0 .5612.338.5612.9 0 1.238-.5612.337-1.5713.337-2.1325 0-.5612-.338-.5612-.9 0-1.238Zm-3.4796-3.149c.5612.338.5612.9 0 1.237-.5612.338-1.5713.338-2.1325 0-.5612-.337-.5612-.899 0-1.237.6734-.337 1.5713-.337 2.1325 0Zm5.6121-3.261c.5612.337.5612.899 0 1.237-.5612.337-1.5713.337-2.1325 0-.5612-.338-.5612-.9 0-1.237.5612-.338 1.5713-.338 2.1325 0Zm5.6119-3.15c.5613.338.5613.9 0 1.238-.5612.337-1.5713.337-2.1325 0-.5612-.338-.5612-.9 0-1.238.5612-.337 1.5713-.337 2.1325 0Zm5.6125-3.149c.561.338.561.9 0 1.237-.5615.338-1.5717.338-2.1329 0-.5612-.337-.5612-.899 0-1.237.5612-.337 1.5714-.337 2.1329 0Zm5.6116-3.149c.561.337.561.9 0 1.237-.562.338-1.572.338-2.133 0-.561-.337-.561-.9 0-1.237.561-.337 1.459-.337 2.133 0Zm5.499-3.262c.562.338.562.9 0 1.237-.561.338-1.571.338-2.132 0-.561-.337-.561-.899 0-1.237.673-.337 1.571-.337 2.132 0Zm5.612-3.149c.562.338.562.9 0 1.237-.561.338-1.571.338-2.132 0-.561-.337-.561-.899 0-1.237.673-.337 1.571-.337 2.132 0Zm5.612-3.149c.562.337.562.9 0 1.237-.561.338-1.571.338-2.132 0-.561-.337-.561-.9 0-1.237.561-.337 1.571-.337 2.132 0Zm5.613-3.262c.561.338.561.9 0 1.237-.562.338-1.572.338-2.133 0-.561-.337-.561-.899 0-1.237.561-.337 1.571-.337 2.133 0Zm5.612-3.149c.561.337.561.9 0 1.237-.562.338-1.572.338-2.133 0-.561-.337-.561-.9 0-1.237.561-.337 1.459-.337 2.133 0Zm5.499-3.15c.562.337.562.9 0 1.237-.561.337-1.571.337-2.132 0-.561-.337-.561-.9 0-1.237.673-.338 1.571-.338 2.132 0Zm5.612-3.149c.562.337.562.899 0 1.237-.561.337-1.571.337-2.132 0-.561-.338-.561-.9 0-1.237.673-.338 1.571-.338 2.132 0Zm5.612-3.261c.562.337.562.9 0 1.237-.561.338-1.571.338-2.132 0-.561-.337-.561-.9 0-1.237.561-.337 1.571-.337 2.132 0Zm5.612-3.149c.562.337.562.899 0 1.237-.561.337-1.571.337-2.132 0-.561-.338-.561-.9 0-1.237.561-.338 1.571-.338 2.132 0Zm5.612-3.15c.562.337.562.899 0 1.237-.561.337-1.571.337-2.132 0-.561-.338-.561-.9 0-1.237.561-.338 1.571-.338 2.132 0Zm5.612-3.262c.562.337.562.9 0 1.237-.561.338-1.571.338-2.132 0-.561-.337-.561-.9 0-1.237.561-.337 1.459-.337 2.132 0Zm5.5-3.1486c.561.3374.561.8997 0 1.2376-.561.337-1.571.337-2.132 0-.562-.3379-.562-.9002 0-1.2376.673-.3375 1.571-.3375 2.132 0Zm5.612-3.149c.561.3374.561.8997 0 1.2372-.561.3374-1.571.3374-2.132 0-.562-.3375-.562-.8998 0-1.2372.561-.3374 1.571-.3374 2.132 0Z"/>
    <path fill="#177C1B" d="M78.5404 149.857c.5612-.337 1.5713-.337 2.1325 0 .5612.338.5612.9 0 1.237-.5612.338-1.5713.338-2.1325 0-.5612-.337-.5612-.899 0-1.237Zm-3.3673-3.261c.5612.337.5612.899 0 1.237-.5612.337-1.5714.337-2.1326 0-.5612-.338-.5612-.9 0-1.237.5612-.338 1.5714-.338 2.1326 0Zm5.612-3.15c.5612.338.5612.9 0 1.238-.5612.337-1.5713.337-2.1325 0-.5612-.338-.5612-.9 0-1.238.5612-.337 1.4591-.337 2.1325 0Zm5.6122-3.149c.5612.338.5612.9 0 1.237-.5612.338-1.5714.338-2.1326 0-.5613-.337-.5613-.899 0-1.237.5612-.337 1.4591-.337 2.1326 0Zm5.4996-3.263c.5613.338.5613.9 0 1.238-.5612.337-1.5713.337-2.1325 0-.5612-.338-.5612-.9 0-1.238.6734-.337 1.5713-.337 2.1325 0Zm5.6125-3.148c.561.338.561.9 0 1.237-.5615.338-1.5717.338-2.1329 0-.5612-.337-.5612-.899 0-1.237.5612-.337 1.5714-.337 2.1329 0Zm5.6116-3.149c.561.338.561.9 0 1.237-.562.338-1.572.338-2.133 0-.561-.337-.561-.899 0-1.237.561-.337 1.571-.337 2.133 0Zm5.612-3.263c.561.338.561.9 0 1.238-.562.337-1.572.337-2.133 0-.561-.338-.561-.9 0-1.238.561-.337 1.571-.337 2.133 0Zm5.612-3.148c.561.338.561.9 0 1.237-.561.338-1.572.338-2.133 0-.561-.337-.561-.899 0-1.237.561-.337 1.459-.337 2.133 0Zm5.499-3.149c.562.337.562.9 0 1.237-.561.338-1.571.338-2.132 0-.561-.337-.561-.9 0-1.237.673-.337 1.571-.337 2.132 0Zm5.613-3.15c.561.337.561.9 0 1.237-.562.337-1.572.337-2.133 0-.561-.337-.561-.9 0-1.237.673-.338 1.571-.338 2.133 0Zm5.612-3.262c.561.338.561.9 0 1.237-.562.338-1.572.338-2.133 0-.561-.337-.561-.899 0-1.237.561-.337 1.571-.337 2.133 0Zm5.612-3.148c.561.337.561.9 0 1.237-.562.338-1.572.338-2.133 0-.561-.337-.561-.9 0-1.237.561-.337 1.571-.337 2.133 0Zm5.612-3.149c.561.337.561.899 0 1.237-.562.337-1.572.337-2.133 0-.561-.338-.561-.9 0-1.237.561-.338 1.459-.338 2.133 0Zm5.499-3.262c.562.338.562.9 0 1.237-.561.338-1.571.338-2.132 0-.561-.337-.561-.899 0-1.237.673-.337 1.571-.337 2.132 0Zm5.612-3.15c.562.337.562.9 0 1.237-.561.338-1.571.338-2.132 0-.561-.337-.561-.9 0-1.237.673-.337 1.571-.337 2.132 0Zm5.612-3.1486c.562.3374.562.8997 0 1.2376-.561.337-1.571.337-2.132 0-.561-.3379-.561-.9002 0-1.2376.561-.3375 1.571-.3375 2.132 0Zm5.612-3.149c.562.3374.562.8997 0 1.2372-.561.3374-1.571.3374-2.132 0-.561-.3375-.561-.8998 0-1.2372.561-.3374 1.571-.3374 2.132 0Zm5.612-3.2621c.562.3374.562.8997 0 1.2372-.561.3374-1.571.3374-2.132 0-.561-.3375-.561-.8998 0-1.2372.561-.3375 1.571-.3375 2.132 0Z"/>
    <path fill="#177C1B" d="M73.0405 146.596c.5612-.338 1.5714-.338 2.1326 0 .5612.337.5612.899 0 1.237-.5612.337-1.5714.337-2.1326 0-.5612-.338-.5612-.9 0-1.237Zm-3.4793-3.15c.5612.338.5612.9 0 1.238-.5612.337-1.5714.337-2.1326 0-.5612-.338-.5612-.9 0-1.238.6735-.337 1.5714-.337 2.1326 0Zm5.6119-3.261c.5612.337.5612.9 0 1.237-.5612.337-1.5714.337-2.1326 0-.5612-.337-.5612-.9 0-1.237.6735-.338 1.5714-.338 2.1326 0Zm5.612-3.151c.5612.338.5612.9 0 1.238-.5612.337-1.5713.337-2.1325 0-.5612-.338-.5612-.9 0-1.238.5612-.337 1.5713-.337 2.1325 0Zm5.6122-3.148c.5612.338.5612.9 0 1.237-.5612.338-1.5714.338-2.1326 0-.5613-.337-.5613-.899 0-1.237.5612-.337 1.5714-.337 2.1326 0Zm5.612-3.261c.5612.337.5612.899 0 1.237-.5612.337-1.5714.337-2.1326 0-.5612-.338-.5612-.9 0-1.237.5612-.338 1.4591-.338 2.1326 0Zm5.5001-3.151c.561.338.561.9 0 1.238-.5615.337-1.5717.337-2.1329 0-.5612-.338-.5612-.9 0-1.238.6734-.337 1.5714-.337 2.1329 0Zm5.6116-3.148c.561.338.561.9 0 1.237-.562.338-1.572.338-2.133 0-.561-.337-.561-.899 0-1.237.674-.337 1.571-.337 2.133 0Zm5.612-3.149c.561.337.561.9 0 1.237-.562.338-1.572.338-2.133 0-.561-.337-.561-.9 0-1.237.561-.337 1.571-.337 2.133 0Zm5.612-3.262c.561.338.561.9 0 1.238-.561.337-1.572.337-2.133 0-.561-.338-.561-.9 0-1.238.561-.337 1.572-.337 2.133 0Zm5.612-3.15c.561.338.561.9 0 1.237-.561.338-1.572.338-2.133 0-.561-.337-.561-.899 0-1.237.561-.337 1.572-.337 2.133 0Zm5.612-3.148c.561.337.561.9 0 1.237-.561.338-1.572.338-2.133 0-.561-.337-.561-.9 0-1.237.561-.337 1.459-.337 2.133 0Zm5.5-3.262c.561.338.561.9 0 1.237-.562.338-1.572.338-2.133 0-.561-.337-.561-.899 0-1.237.673-.337 1.571-.337 2.133 0Zm5.612-3.149c.561.338.561.9 0 1.237-.562.338-1.572.338-2.133 0-.561-.337-.561-.899 0-1.237.561-.337 1.571-.337 2.133 0Zm5.612-3.15c.561.337.561.9 0 1.237-.562.338-1.572.338-2.133 0-.561-.337-.561-.9 0-1.237.561-.337 1.571-.337 2.133 0Zm5.612-3.1486c.561.3374.561.8997 0 1.2376-.562.337-1.572.337-2.133 0-.561-.3379-.561-.9002 0-1.2376.561-.3375 1.571-.3375 2.133 0Zm5.612-3.2618c.561.3374.561.8998 0 1.2372-.562.3374-1.572.3374-2.133 0-.561-.3374-.561-.8998 0-1.2372.561-.3374 1.459-.3374 2.133 0Zm5.499-3.1493c.562.3374.562.8997 0 1.2372-.561.3374-1.571.3374-2.132 0-.561-.3375-.561-.8998 0-1.2372.673-.3375 1.571-.3375 2.132 0Zm5.612-3.149c.562.3374.562.8997 0 1.2372-.561.3374-1.571.3374-2.132 0-.561-.3375-.561-.8998 0-1.2372.673-.3374 1.571-.3374 2.132 0Z"/>
    <path fill="#177C1B" d="M67.4286 143.446c.5612-.337 1.5714-.337 2.1326 0 .5612.338.5612.9 0 1.238-.5612.337-1.5714.337-2.1326 0-.5612-.338-.5612-.9 0-1.238Zm-3.3673-3.261c.5612.337.5612.9 0 1.237-.5612.337-1.5713.337-2.1325 0-.5612-.337-.5612-.9 0-1.237.5612-.338 1.5713-.338 2.1325 0Zm5.6122-3.151c.5612.338.5612.9 0 1.238-.5612.337-1.5714.337-2.1326 0-.5612-.338-.5612-.9 0-1.238.5612-.337 1.5714-.337 2.1326 0Zm5.6119-3.26c.5612.337.5612.9 0 1.237-.5612.337-1.5714.337-2.1326 0-.5612-.337-.5612-.9 0-1.237.5612-.338 1.4591-.338 2.1326 0Zm5.4997-3.149c.5612.337.5612.899 0 1.237-.5612.337-1.5713.337-2.1325 0-.5612-.338-.5612-.9 0-1.237.6734-.338 1.5713-.338 2.1325 0Zm5.6122-3.151c.5612.338.5612.9 0 1.238-.5612.337-1.5714.337-2.1326 0-.5613-.338-.5613-.9 0-1.238.6734-.337 1.5714-.337 2.1326 0Zm5.612-3.148c.5612.338.5612.9 0 1.237-.5612.338-1.5714.338-2.1326 0-.5612-.337-.5612-.899 0-1.237.5612-.337 1.5714-.337 2.1326 0Zm5.612-3.261c.561.337.561.899 0 1.237-.5613.337-1.5715.337-2.1327 0-.5612-.338-.5612-.9 0-1.237.5612-.338 1.5714-.338 2.1327 0Zm5.6117-3.15c.561.338.561.9 0 1.238-.561.337-1.571.337-2.133 0-.561-.338-.561-.9 0-1.238.562-.337 1.459-.337 2.133 0Zm5.5-3.15c.561.338.561.9 0 1.237-.562.338-1.572.338-2.133 0-.561-.337-.561-.899 0-1.237.674-.337 1.571-.337 2.133 0Zm5.612-3.261c.561.337.561.899 0 1.237-.561.337-1.572.337-2.133 0-.561-.338-.561-.9 0-1.237.674-.338 1.572-.338 2.133 0Zm5.612-3.149c.561.338.561.9 0 1.237-.561.338-1.572.338-2.133 0-.561-.337-.561-.899 0-1.237.561-.337 1.572-.337 2.133 0Zm5.612-3.149c.561.338.561.9 0 1.237-.561.338-1.572.338-2.133 0-.561-.337-.561-.899 0-1.237.561-.337 1.572-.337 2.133 0Zm5.612-3.15c.561.337.561.9 0 1.237-.561.338-1.572.338-2.133 0-.561-.337-.561-.9 0-1.237.561-.337 1.572-.337 2.133 0Zm5.612-3.261c.561.3374.561.8998 0 1.237-.561.338-1.572.338-2.133 0-.561-.3372-.561-.8996 0-1.237.561-.3374 1.459-.3374 2.133 0Zm5.5-3.1494c.561.3374.561.8998 0 1.2372-.562.3374-1.572.3374-2.133 0-.561-.3374-.561-.8998 0-1.2372.673-.3374 1.571-.3374 2.133 0Zm5.612-3.1493c.561.3374.561.8997 0 1.2372-.562.3374-1.572.3374-2.133 0-.561-.3375-.561-.8998 0-1.2372.561-.3375 1.571-.3375 2.133 0Zm5.612-3.2618c.561.3375.561.8998 0 1.2372-.562.3374-1.572.3374-2.133 0-.561-.3374-.561-.8997 0-1.2372.561-.3374 1.571-.3374 2.133 0Zm5.612-3.1489c.561.3374.561.8997 0 1.2372-.562.3374-1.572.3374-2.133 0-.561-.3375-.561-.8998 0-1.2372.561-.3374 1.571-.3374 2.133 0Z"/>
    <path fill="#177C1B" d="M61.9288 140.185c.5612-.338 1.5713-.338 2.1325 0 .5612.337.5612.9 0 1.237-.5612.337-1.5713.337-2.1325 0-.5612-.337-.5612-.9 0-1.237Zm-3.3672-3.262c.5612.337.5612.9 0 1.237-.5612.338-1.5713.338-2.1325 0-.5612-.337-.5612-.9 0-1.237.5612-.337 1.4591-.337 2.1325 0Zm5.4997-3.149c.5612.337.5612.9 0 1.237-.5612.337-1.5713.337-2.1325 0-.5612-.337-.5612-.9 0-1.237.6734-.338 1.5713-.338 2.1325 0Zm5.6122-3.149c.5612.337.5612.899 0 1.237-.5612.337-1.5714.337-2.1326 0-.5612-.338-.5612-.9 0-1.237.5612-.338 1.5714-.338 2.1326 0Zm5.6119-3.151c.5612.338.5612.9 0 1.238-.5612.337-1.5714.337-2.1326 0-.5612-.338-.5612-.9 0-1.238.5612-.337 1.5714-.337 2.1326 0Zm5.6121-3.261c.5612.337.5612.9 0 1.237-.5612.337-1.5714.337-2.1326 0-.5612-.337-.5612-.9 0-1.237.5612-.338 1.5714-.338 2.1326 0Zm5.6119-3.148c.5612.337.5612.899 0 1.237-.5612.337-1.5714.337-2.1326 0-.5612-.338-.5612-.9 0-1.237.5612-.338 1.4592-.338 2.1326 0Zm5.4999-3.15c.5612.338.5612.9 0 1.238-.5612.337-1.5714.337-2.1326 0-.5612-.338-.5612-.9 0-1.238.6734-.337 1.5714-.337 2.1326 0Zm5.612-3.262c.561.337.561.899 0 1.237-.5613.337-1.5715.337-2.1327 0-.5612-.338-.5612-.9 0-1.237.6735-.338 1.5714-.338 2.1327 0Zm5.6117-3.149c.561.337.561.899 0 1.237-.561.337-1.571.337-2.133 0-.561-.338-.561-.9 0-1.237.562-.338 1.572-.338 2.133 0Zm5.612-3.149c.561.338.561.9 0 1.237-.561.338-1.571.338-2.133 0-.561-.337-.561-.899 0-1.237.562-.337 1.572-.337 2.133 0Zm5.612-3.149c.561.338.561.9 0 1.237-.561.338-1.571.338-2.133 0-.561-.337-.561-.899 0-1.237.562-.337 1.46-.337 2.133 0Zm5.5-3.262c.561.338.561.9 0 1.238-.561.337-1.572.337-2.133 0-.561-.338-.561-.9 0-1.238.674-.337 1.572-.337 2.133 0Zm5.612-3.149c.561.3374.561.8998 0 1.237-.561.338-1.572.338-2.133 0-.561-.3372-.561-.8996 0-1.237.674-.3374 1.572-.3374 2.133 0Zm5.612-3.1494c.561.3374.561.8998 0 1.2372-.561.3374-1.572.3374-2.133 0-.561-.3374-.561-.8998 0-1.2372.561-.3374 1.572-.3374 2.133 0Zm5.612-3.2617c.561.3374.561.8998 0 1.2372-.561.3374-1.572.3374-2.133 0-.561-.3374-.561-.8998 0-1.2372.561-.3374 1.572-.3374 2.133 0Zm5.612-3.1494c.561.3375.561.8998 0 1.2372-.561.3374-1.572.3374-2.133 0-.561-.3374-.561-.8997 0-1.2372.561-.3374 1.459-.3374 2.133 0Zm5.612-3.1489c.561.3374.561.8997 0 1.2372-.561.3374-1.572.3374-2.133 0-.561-.3375-.561-.8998 0-1.2372.561-.3374 1.459-.3374 2.133 0Zm5.5-3.149c.561.3374.561.8998 0 1.2372-.562.3374-1.572.3374-2.133 0-.561-.3374-.561-.8998 0-1.2372.673-.3374 1.571-.3374 2.133 0Z"/>
    <path fill="#177C1B" d="M56.4291 136.923c.5612-.337 1.5713-.337 2.1326 0 .5612.337.5612.9 0 1.237-.5613.338-1.5714.338-2.1326 0-.6735-.337-.6735-.787 0-1.237Zm2.1325-6.298c.5612.337.5612.899 0 1.237-.5612.337-1.5713.337-2.1325 0-.5612-.338-.5612-.9 0-1.237.5612-.338 1.5713-.338 2.1325 0Zm5.612-3.262c.5612.337.5612.9 0 1.237-.5612.338-1.5714.338-2.1326 0-.5612-.337-.5612-.9 0-1.237.5612-.337 1.4591-.337 2.1326 0Zm5.4999-3.15c.5612.337.5612.9 0 1.237-.5612.337-1.5714.337-2.1326 0-.5612-.337-.5612-.9 0-1.237.6734-.338 1.5714-.338 2.1326 0Zm5.6119-3.148c.5612.337.5612.899 0 1.237-.5612.337-1.5714.337-2.1326 0-.5612-.338-.5612-.9 0-1.237.6734-.338 1.5714-.338 2.1326 0Zm5.6121-3.262c.5612.337.5612.9 0 1.237-.5612.337-1.5714.337-2.1326 0-.5612-.337-.5612-.9 0-1.237.5612-.338 1.5714-.338 2.1326 0Zm5.6119-3.15c.5612.337.5612.899 0 1.237-.5612.337-1.5714.337-2.1326 0-.5612-.338-.5612-.9 0-1.237.5612-.338 1.5714-.338 2.1326 0Zm5.6121-3.149c.5612.337.5612.899 0 1.237-.5612.337-1.5714.337-2.1326 0-.5612-.338-.5612-.9 0-1.237.5612-.338 1.5714-.338 2.1326 0Zm5.6119-3.149c.561.338.561.9 0 1.237-.5611.338-1.5712.338-2.1324 0-.5612-.337-.5612-.899 0-1.237.5612-.337 1.4591-.337 2.1324 0Zm5.4996-3.261c.561.337.561.899 0 1.237-.561.337-1.571.337-2.133 0-.561-.338-.561-.9 0-1.237.674-.338 1.572-.338 2.133 0Zm5.612-3.15c.561.338.561.9 0 1.238-.561.337-1.571.337-2.133 0-.561-.338-.561-.9 0-1.238.562-.337 1.572-.337 2.133 0Zm5.612-3.149c.561.3374.561.8998 0 1.237-.561.338-1.571.338-2.133 0-.561-.3372-.561-.8996 0-1.237.562-.3374 1.572-.3374 2.133 0Zm5.612-3.2617c.561.3374.561.8998 0 1.2372-.561.3374-1.571.3374-2.133 0-.561-.3374-.561-.8998 0-1.2372.562-.3374 1.572-.3374 2.133 0Zm5.612-3.1494c.561.3374.561.8998 0 1.2372-.561.3374-1.571.3374-2.133 0-.561-.3374-.561-.8998 0-1.2372.562-.3374 1.46-.3374 2.133 0Zm5.5-3.1494c.561.3375.561.8998 0 1.2372-.561.3374-1.572.3374-2.133 0-.561-.3374-.561-.8997 0-1.2372.674-.3374 1.572-.3374 2.133 0Zm5.612-3.1489c.561.3374.561.8997 0 1.2372-.561.3374-1.572.3374-2.133 0-.561-.3375-.561-.8998 0-1.2372.674-.3374 1.572-.3374 2.133 0Zm5.612-3.2617c.561.3374.561.8996 0 1.2371-.561.3374-1.572.3374-2.133 0-.561-.3375-.561-.8997 0-1.2371.561-.3374 1.572-.3374 2.133 0Zm5.612-3.149c.561.3374.561.8998 0 1.2372-.561.3374-1.572.3374-2.133 0-.561-.3374-.561-.8998 0-1.2372.561-.3374 1.572-.3374 2.133 0ZM58.5616 124.213c.5612.337.5612.9 0 1.237-.5612.337-1.5713.337-2.1325 0-.5612-.337-.5612-.9 0-1.237.6734-.338 1.5713-.338 2.1325 0Zm5.612-3.149c.5612.338.5612.9 0 1.238-.5612.337-1.5714.337-2.1326 0-.5612-.338-.5612-.9 0-1.238.5612-.449 1.5714-.449 2.1326 0Zm5.6121-3.261c.5612.337.5612.9 0 1.237-.5612.337-1.5714.337-2.1326 0-.5612-.337-.5612-.9 0-1.237.5612-.338 1.5714-.338 2.1326 0Zm5.6119-3.15c.5612.337.5612.899 0 1.237-.5612.337-1.5714.337-2.1326 0-.5612-.338-.5612-.9 0-1.237.5612-.338 1.4592-.338 2.1326 0Zm5.4999-3.149c.5612.337.5612.899 0 1.237-.5612.337-1.5714.337-2.1326 0-.5612-.338-.5612-.9 0-1.237.6735-.338 1.5714-.338 2.1326 0Zm5.6119-3.261c.5612.337.5612.9 0 1.237-.5612.337-1.5714.337-2.1326 0-.5612-.337-.5612-.9 0-1.237.6735-.338 1.5714-.338 2.1326 0Zm5.6121-3.149c.5612.337.5612.899 0 1.237-.5612.337-1.5714.337-2.1326 0-.5612-.338-.5612-.9 0-1.237.5612-.338 1.5714-.338 2.1326 0Zm5.6119-3.15c.561.338.561.9 0 1.238-.5611.337-1.5712.337-2.1324 0-.5612-.338-.5612-.9 0-1.238.5612-.337 1.5713-.337 2.1324 0Zm5.6116-3.1491c.561.3374.561.8998 0 1.2371-.561.338-1.571.338-2.132 0-.562-.3373-.562-.8997 0-1.2371.561-.4499 1.571-.4499 2.132 0Zm5.612-3.2616c.561.3374.561.8998 0 1.2372-.561.3374-1.571.3374-2.132 0-.562-.3374-.562-.8998 0-1.2372.561-.3374 1.459-.3374 2.132 0Zm5.5-3.1494c.561.3374.561.8998 0 1.2372-.561.3374-1.571.3374-2.133 0-.561-.3374-.561-.8998 0-1.2372.674-.3374 1.572-.3374 2.133 0Zm5.612-3.1494c.561.3375.561.8998 0 1.2372-.561.3374-1.571.3374-2.133 0-.561-.3374-.561-.8997 0-1.2372.562-.3374 1.572-.3374 2.133 0Zm5.612-3.2612c.561.3375.561.8998 0 1.2372-.561.3374-1.571.3374-2.133 0-.561-.3374-.561-.8997 0-1.2372.562-.3374 1.572-.3374 2.133 0Zm5.612-3.1494c.561.3374.561.8996 0 1.2371-.561.3374-1.571.3374-2.133 0-.561-.3375-.561-.8997 0-1.2371.562-.3374 1.572-.3374 2.133 0Zm5.612-3.149c.561.3374.561.8998 0 1.2372-.561.3374-1.571.3374-2.133 0-.561-.3374-.561-.8998 0-1.2372.562-.3374 1.46-.3374 2.133 0Zm5.5-3.2617c.561.3374.561.8998 0 1.2372-.561.3374-1.572.3374-2.133 0-.561-.3374-.561-.8998 0-1.2372.674-.3374 1.572-.3374 2.133 0ZM58.6739 117.803c.5612.337.5612.9 0 1.237-.5612.337-1.5714.337-2.1326 0-.5612-.337-.5612-.9 0-1.237.5612-.338 1.4591-.338 2.1326 0Zm5.4997-3.15c.5612.337.5612.899 0 1.237-.5612.337-1.5714.337-2.1326 0-.5612-.338-.5612-.9 0-1.237.6734-.338 1.5714-.338 2.1326 0Zm5.6121-3.262c.5612.337.5612.9 0 1.237-.5612.338-1.5714.338-2.1326 0-.5612-.337-.5612-.9 0-1.237.5612-.337 1.5714-.337 2.1326 0Zm5.6119-3.148c.5612.337.5612.9 0 1.237-.5612.337-1.5714.337-2.1326 0-.5612-.337-.5612-.9 0-1.237.5612-.338 1.5714-.338 2.1326 0Zm5.6121-3.149c.5612.337.5612.899 0 1.237-.5612.337-1.5713.337-2.1325 0-.5612-.338-.5612-.9 0-1.237.5612-.338 1.5713-.338 2.1325 0Zm5.6119-3.15c.5612.338.5612.9 0 1.238-.5612.337-1.5713.337-2.1325 0-.5612-.338-.5612-.9 0-1.238.5612-.337 1.4591-.337 2.1325 0Zm5.4999-3.2618c.5612.3374.5612.8999 0 1.2373-.5612.3375-1.5714.3375-2.1326 0-.5612-.3374-.5612-.8999 0-1.2373.6735-.3374 1.5714-.3374 2.1326 0Zm5.6119-3.1489c.561.3374.561.8998 0 1.2372-.5611.3374-1.5712.3374-2.1324 0-.5612-.3374-.5612-.8998 0-1.2372.6734-.3374 1.5713-.3374 2.1324 0Zm5.6116-3.1494c.561.3374.561.8998 0 1.2372-.561.3374-1.571.3374-2.132 0-.562-.3374-.562-.8998 0-1.2372.561-.3374 1.571-.3374 2.132 0Zm5.612-3.2617c.561.3374.561.8998 0 1.2372-.561.3374-1.571.3374-2.132 0-.562-.3374-.562-.8998 0-1.2372.561-.3374 1.571-.3374 2.132 0Zm5.612-3.1489c.561.3375.561.8998 0 1.2372-.561.3374-1.571.3374-2.132 0-.562-.3374-.562-.8997 0-1.2372.561-.3374 1.459-.3374 2.132 0Zm5.612-3.1494c.561.3374.561.8996 0 1.2371-.561.3374-1.571.3374-2.132 0-.562-.3375-.562-.8997 0-1.2371.561-.3374 1.459-.3374 2.132 0Zm5.5-3.1491c.561.3374.561.8998 0 1.2372-.561.3374-1.571.3374-2.133 0-.561-.3374-.561-.8998 0-1.2372.674-.4499 1.572-.4499 2.133 0Zm5.612-3.2616c.561.3374.561.8998 0 1.2372-.561.3374-1.571.3374-2.133 0-.561-.3374-.561-.8998 0-1.2372.562-.3374 1.572-.3374 2.133 0Zm5.612-3.1494c.561.3374.561.8998 0 1.2372-.561.3374-1.571.3374-2.133 0-.561-.3374-.561-.8998 0-1.2372.562-.3374 1.572-.3374 2.133 0ZM58.6739 111.391c.5612.337.5612.9 0 1.237-.5612.338-1.5714.338-2.1326 0-.5612-.337-.5612-.9 0-1.237.5612-.337 1.5714-.337 2.1326 0Zm5.6119-3.148c.5612.337.5612.9 0 1.237-.5612.337-1.5714.337-2.1326 0-.5612-.337-.5612-.9 0-1.237.5612-.338 1.5714-.338 2.1326 0Zm5.6121-3.149c.5612.337.5612.899 0 1.237-.5612.337-1.5713.337-2.1325 0-.5612-.338-.5612-.9 0-1.237.5612-.338 1.4591-.338 2.1325 0Zm5.4997-3.262c.5612.337.5612.9 0 1.237-.5612.338-1.5714.338-2.1326 0-.5612-.337-.5612-.9 0-1.237.6735-.337 1.5714-.337 2.1326 0Zm5.6121-3.1498c.5612.3374.5612.8999 0 1.2373-.5612.3375-1.5713.3375-2.1325 0-.5612-.3374-.5612-.8999 0-1.2373.5612-.3374 1.5713-.3374 2.1325 0Zm5.6119-3.1489c.5612.3374.5612.8998 0 1.2372-.5612.3374-1.5713.3374-2.1325 0-.5612-.3374-.5612-.8998 0-1.2372.5612-.3374 1.5713-.3374 2.1325 0Zm5.6121-3.2617c.5613.3374.5613.8998 0 1.2372-.5612.3374-1.5713.3374-2.1325 0-.5612-.3374-.5612-.8998 0-1.2372.5612-.3374 1.5713-.3374 2.1325 0Zm5.6116-3.1494c.562.3374.562.8998 0 1.2372-.5608.3374-1.571.3374-2.1322 0-.5612-.3374-.5612-.8998 0-1.2372.5612-.3374 1.4591-.3374 2.1322 0Zm5.4997-3.1489c.561.3375.561.8998 0 1.2372-.561.3374-1.571.3374-2.132 0-.562-.3374-.562-.8997 0-1.2372.673-.3374 1.571-.3374 2.132 0Zm5.612-3.1494c.561.3374.561.8996 0 1.2371-.561.3374-1.571.3374-2.132 0-.562-.3375-.562-.8997 0-1.2371.673-.3374 1.571-.3374 2.132 0Zm5.612-3.2617c.561.3374.561.8997 0 1.2371-.561.3375-1.571.3375-2.132 0-.562-.3374-.562-.8997 0-1.2371.561-.3375 1.571-.3375 2.132 0Zm5.612-3.149c.561.3374.561.8998 0 1.2372-.561.3374-1.571.3374-2.132 0-.562-.3374-.562-.8998 0-1.2372.561-.3374 1.571-.3374 2.132 0Zm5.612-3.1494c.561.3374.561.8998 0 1.2372-.561.3374-1.571.3374-2.132 0-.562-.3374-.562-.8998 0-1.2372.561-.3374 1.459-.3374 2.132 0Zm5.612-3.2617c.561.3374.561.8998 0 1.2372-.561.3374-1.571.3374-2.132 0-.562-.3374-.562-.8998 0-1.2372.561-.3374 1.459-.3374 2.132 0ZM58.6739 104.981c.5612.338.5612.9 0 1.237-.5612.338-1.5714.338-2.1326 0-.5612-.337-.5612-.899 0-1.237.6735-.337 1.5714-.337 2.1326 0Zm5.6119-3.149c.5612.337.5612.9 0 1.237-.5612.338-1.5714.338-2.1326 0-.5612-.337-.5612-.9 0-1.237.5612-.337 1.5714-.337 2.1326 0Zm5.6121-3.1498c.5612.3374.5612.8999 0 1.2373-.5612.3375-1.5713.3375-2.1325 0-.5612-.3374-.5612-.8999 0-1.2373.5612-.3374 1.5713-.3374 2.1325 0Zm5.6119-3.2616c.5612.3374.5612.8997 0 1.2371-.5612.3375-1.5713.3375-2.1325 0-.5612-.3374-.5612-.8997 0-1.2371.5612-.3375 1.4591-.3375 2.1325 0Zm5.6122-3.149c.5612.3374.5612.8998 0 1.2372-.5612.3374-1.5714.3374-2.1326 0-.5612-.3374-.5612-.8998 0-1.2372.5612-.3374 1.4591-.3374 2.1326 0Zm5.4996-3.1494c.5612.3374.5612.8998 0 1.2372-.5612.3374-1.5713.3374-2.1325 0-.5612-.3374-.5612-.8998 0-1.2372.6734-.3374 1.5713-.3374 2.1325 0Zm5.6121-3.1489c.5613.3375.5613.8998 0 1.2372-.5612.3374-1.5713.3374-2.1325 0-.5612-.3374-.5612-.8997 0-1.2372.5612-.3374 1.5713-.3374 2.1325 0Zm5.6116-3.2618c.562.3374.562.8999 0 1.2373-.5608.3374-1.571.3374-2.1322 0-.5612-.3374-.5612-.8999 0-1.2373.5612-.3374 1.5714-.3374 2.1322 0Zm5.6117-3.1493c.562.3374.562.8997 0 1.2371-.561.3375-1.571.3375-2.132 0-.561-.3374-.561-.8997 0-1.2371.561-.3375 1.571-.3375 2.132 0Zm5.612-3.149c.562.3374.562.8998 0 1.2372-.561.3374-1.571.3374-2.132 0-.561-.3374-.561-.8998 0-1.2372.561-.3374 1.459-.3374 2.132 0Zm5.5-3.2617c.561.3374.561.8997 0 1.2372-.561.3374-1.571.3374-2.132 0-.562-.3375-.562-.8998 0-1.2372.673-.3374 1.571-.3374 2.132 0Zm5.612-3.1494c.561.3374.561.8998 0 1.2372-.561.3374-1.571.3374-2.132 0-.562-.3374-.562-.8998 0-1.2372.673-.3374 1.571-.3374 2.132 0Zm5.612-3.149c.561.3374.561.8998 0 1.2372-.561.3374-1.571.3374-2.132 0-.562-.3374-.562-.8998 0-1.2372.561-.3374 1.571-.3374 2.132 0ZM53.174 101.832c.5612.337.5612.9 0 1.237-.5612.338-1.5713.338-2.1325 0-.5612-.337-.5612-.9 0-1.237.5612-.337 1.5713-.337 2.1325 0Zm5.6121-3.2621c.5612.3375.5612.8998 0 1.2372-.5612.3379-1.5713.3379-2.1325 0-.5612-.3374-.5612-.8997 0-1.2372.5612-.3374 1.4591-.3374 2.1325 0Zm5.4997-3.1493c.5612.3374.5612.8997 0 1.2371-.5612.3375-1.5714.3375-2.1326 0-.5612-.3374-.5612-.8997 0-1.2371.6735-.3375 1.5714-.3375 2.1326 0Zm44.7832-25.4185c.562.3374.562.8998 0 1.2372-.561.3374-1.571.3374-2.132 0-.561-.3374-.561-.8998 0-1.2372.561-.3374 1.571-.3374 2.132 0Zm5.612-3.149c.562.3374.562.8998 0 1.2372-.561.3374-1.571.3374-2.132 0-.561-.3374-.561-.8998 0-1.2372.561-.3374 1.571-.3374 2.132 0Zm5.612-3.2617c.562.3374.562.8998 0 1.2372-.561.3374-1.571.3374-2.132 0-.561-.3374-.561-.8998 0-1.2372.561-.3374 1.459-.3374 2.132 0ZM42.0623 101.72c.5612.337.5612.899 0 1.237-.5612.337-1.5714.337-2.1326 0-.5612-.338-.5612-.9 0-1.237.5612-.338 1.4592-.338 2.1326 0Zm5.4997-3.1501c.5612.3375.5612.8998 0 1.2372-.5612.3379-1.5714.3379-2.1326 0-.5612-.3374-.5612-.8997 0-1.2372.6735-.3374 1.5714-.3374 2.1326 0Zm5.612-3.1493c.5612.3374.5612.8997 0 1.2371-.5612.3375-1.5713.3375-2.1325 0-.5612-.3374-.5612-.8997 0-1.2371.5612-.3375 1.5713-.3375 2.1325 0Zm92.037 92.9014c.561-.337 1.571-.337 2.132 0 .562.338.562.9 0 1.238-.561.337-1.571.337-2.132 0-.561-.338-.561-.9 0-1.238Zm-5.612-3.149c.561-.337 1.571-.337 2.132 0 .562.338.562.9 0 1.237-.561.338-1.571.338-2.132 0-.561-.337-.561-.899 0-1.237Zm-5.5-3.261c.561-.338 1.571-.338 2.133 0 .561.337.561.899 0 1.237-.562.337-1.572.337-2.133 0-.561-.338-.561-.9 0-1.237Zm-5.5-3.15c.561-.337 1.572-.337 2.133 0 .561.338.561.9 0 1.238-.561.337-1.572.337-2.133 0-.673-.338-.673-.9 0-1.238Zm-5.612-3.261c.561-.338 1.572-.338 2.133 0 .561.337.561.899 0 1.237-.561.337-1.572.337-2.133 0-.673-.338-.673-.9 0-1.237Zm-5.612-3.262c.561-.337 1.572-.337 2.133 0 .561.337.561.9 0 1.237-.561.338-1.572.338-2.133 0-.561-.337-.561-.9 0-1.237Zm-5.5-3.15c.562-.338 1.572-.338 2.133 0 .561.337.561.9 0 1.237-.561.337-1.571.337-2.133 0-.561-.337-.561-.9 0-1.237Zm-5.612-3.262c.562-.337 1.572-.337 2.133 0 .561.338.561.9 0 1.237-.561.338-1.571.338-2.133 0-.561-.337-.561-.899 0-1.237Z"/>
    <path fill="#177C1B" d="M147.343 188.322c.561.338.561.9 0 1.238-.561.337-1.571.337-2.132 0-.562-.338-.562-.9 0-1.238.561-.337 1.571-.337 2.132 0Zm-11.112 0c.562.338.562.9 0 1.238-.561.337-1.571.337-2.132 0-.561-.338-.561-.9 0-1.238.561-.337 1.459-.337 2.132 0Zm5.5-3.149c.561.338.561.9 0 1.237-.561.338-1.571.338-2.132 0-.562-.337-.562-.899 0-1.237.673-.337 1.571-.337 2.132 0Zm-11.112 0c.562.338.562.9 0 1.237-.561.338-1.571.338-2.132 0-.561-.337-.561-.899 0-1.237.561-.337 1.571-.337 2.132 0Zm5.612-3.261c.562.337.562.899 0 1.237-.561.337-1.571.337-2.132 0-.561-.338-.561-.9 0-1.237.561-.338 1.571-.338 2.132 0Zm-16.723 3.149c.561.337.561.899 0 1.237-.562.337-1.572.337-2.133 0-.561-.338-.561-.9 0-1.237.561-.338 1.571-.338 2.133 0Zm5.612-3.149c.561.337.561.899 0 1.237-.562.337-1.572.337-2.133 0-.561-.338-.561-.9 0-1.237.561-.338 1.459-.338 2.133 0Zm5.499-3.15c.562.338.562.9 0 1.238-.561.337-1.571.337-2.132 0-.561-.338-.561-.9 0-1.238.673-.337 1.571-.337 2.132 0Zm-22.223 6.299c.561.337.561.899 0 1.237-.561.337-1.572.337-2.133 0-.561-.338-.561-.9 0-1.237.561-.338 1.459-.338 2.133 0Zm5.5-3.149c.561.337.561.899 0 1.237-.562.337-1.572.337-2.133 0-.561-.338-.561-.9 0-1.237.673-.338 1.571-.338 2.133 0Zm5.612-3.263c.561.337.561.9 0 1.237-.562.337-1.572.337-2.133 0-.561-.337-.561-.9 0-1.237.673-.338 1.571-.338 2.133 0Zm5.612-3.148c.561.337.561.899 0 1.237-.562.337-1.572.337-2.133 0-.561-.338-.561-.9 0-1.237.561-.338 1.571-.338 2.133 0Zm-22.336 6.298c.561.337.561.9 0 1.237-.561.338-1.572.338-2.133 0-.561-.337-.561-.9 0-1.237.561-.337 1.572-.337 2.133 0Zm5.612-3.15c.561.337.561.9 0 1.237-.561.337-1.572.337-2.133 0-.561-.337-.561-.9 0-1.237.561-.338 1.572-.338 2.133 0Zm5.612-3.148c.561.337.561.899 0 1.237-.561.337-1.572.337-2.133 0-.561-.338-.561-.9 0-1.237.561-.338 1.572-.338 2.133 0Zm5.612-3.151c.561.338.561.9 0 1.238-.561.337-1.572.337-2.133 0-.561-.338-.561-.9 0-1.238.561-.337 1.459-.337 2.133 0Zm-27.9476 9.449c.5612.337.5612.9 0 1.237-.5612.338-1.5714.338-2.1326 0-.5612-.337-.5612-.9 0-1.237.5612-.337 1.5714-.337 2.1326 0Zm5.6119-3.15c.561.337.561.9 0 1.237-.5612.337-1.5714.337-2.1326 0-.5612-.337-.5612-.9 0-1.237.5612-.338 1.4592-.338 2.1326 0Zm5.4997-3.148c.561.337.561.899 0 1.237-.561.337-1.572.337-2.133 0-.561-.338-.561-.9 0-1.237.674-.338 1.572-.338 2.133 0Zm5.612-3.262c.561.337.561.9 0 1.237-.561.338-1.572.338-2.133 0-.561-.337-.561-.9 0-1.237.674-.337 1.572-.337 2.133 0Zm5.612-3.15c.561.337.561.9 0 1.237-.561.337-1.572.337-2.133 0-.561-.337-.561-.9 0-1.237.561-.338 1.572-.338 2.133 0Zm-33.4474 12.71c.5612.337.5612.9 0 1.237-.5612.338-1.5714.338-2.1326 0-.5612-.337-.5612-.9 0-1.237.5612-.337 1.4592-.337 2.1326 0Zm5.4997-3.15c.5612.337.5612.9 0 1.237-.5612.337-1.5714.337-2.1326 0-.5612-.337-.5612-.9 0-1.237.6735-.338 1.5714-.338 2.1326 0Zm5.6121-3.261c.5612.338.5612.9 0 1.237-.5612.338-1.5714.338-2.1326 0-.5612-.337-.5612-.899 0-1.237.6735-.337 1.5714-.337 2.1326 0Zm5.6119-3.149c.561.337.561.9 0 1.237-.5612.338-1.5714.338-2.1326 0-.5612-.337-.5612-.9 0-1.237.5612-.337 1.5714-.337 2.1326 0Zm5.6117-3.15c.561.337.561.9 0 1.237-.561.337-1.571.337-2.133 0-.561-.337-.561-.9 0-1.237.562-.338 1.572-.338 2.133 0Zm5.612-3.262c.561.338.561.9 0 1.237-.561.338-1.571.338-2.133 0-.561-.337-.561-.899 0-1.237.562-.337 1.46-.337 2.133 0Zm-33.5595 12.709c.5612.338.5612.9 0 1.238-.5612.337-1.5714.337-2.1326 0-.5612-.338-.5612-.9 0-1.238.5612-.337 1.5714-.337 2.1326 0Zm5.6121-3.148c.5612.338.5612.9 0 1.237-.5612.338-1.5714.338-2.1326 0-.5612-.337-.5612-.899 0-1.237.5612-.337 1.5714-.337 2.1326 0Zm5.6119-3.149c.5612.337.5612.9 0 1.237-.5612.338-1.5714.338-2.1326 0-.5612-.337-.5612-.9 0-1.237.5612-.337 1.5714-.337 2.1326 0Zm5.6121-3.15c.5612.337.5612.9 0 1.237-.5612.337-1.5713.337-2.1325 0-.5612-.337-.5612-.9 0-1.237.5612-.45 1.4591-.45 2.1325 0Zm5.4997-3.262c.561.338.561.9 0 1.237-.5612.338-1.5714.338-2.1326 0-.5612-.337-.5612-.899 0-1.237.6735-.337 1.5714-.337 2.1326 0Zm5.6117-3.148c.561.337.561.9 0 1.237-.561.337-1.571.337-2.133 0-.561-.337-.561-.9 0-1.237.562-.338 1.572-.338 2.133 0Zm-39.0593 15.857c.5612.338.5612.9 0 1.238-.5612.337-1.5714.337-2.1326 0-.5612-.338-.5612-.9 0-1.238.5612-.337 1.5714-.337 2.1326 0Zm5.6121-3.148c.5612.338.5612.9 0 1.237-.5612.338-1.5714.338-2.1326 0-.5612-.337-.5612-.899 0-1.237.5612-.337 1.4591-.337 2.1326 0Zm5.4997-3.149c.5612.337.5612.9 0 1.237-.5612.338-1.5714.338-2.1326 0-.5612-.337-.5612-.9 0-1.237.6734-.337 1.5714-.337 2.1326 0Zm5.6121-3.263c.5612.338.5612.9 0 1.238-.5612.337-1.5714.337-2.1326 0-.5612-.338-.5612-.9 0-1.238.6735-.337 1.5714-.337 2.1326 0Zm5.6119-3.149c.5612.338.5612.9 0 1.237-.5612.338-1.5714.338-2.1326 0-.5612-.337-.5612-.899 0-1.237.5612-.337 1.5714-.337 2.1326 0Zm5.6121-3.148c.5612.337.5612.9 0 1.237-.5612.337-1.5713.337-2.1325 0-.5612-.337-.5612-.9 0-1.237.5612-.338 1.5713-.338 2.1325 0Zm5.6117-3.262c.561.338.561.9 0 1.237-.5609.338-1.5711.338-2.1323 0-.5612-.337-.5612-.899 0-1.237.5612-.337 1.4591-.337 2.1323 0ZM52.725 178.536c.5612.338.5612.9 0 1.238-.5612.337-1.5714.337-2.1326 0-.5612-.338-.5612-.9 0-1.238.5612-.337 1.4591-.337 2.1326 0Zm5.4998-3.148c.5612.338.5612.9 0 1.237-.5613.338-1.5714.338-2.1326 0-.5612-.337-.5612-.899 0-1.237.6734-.337 1.5713-.337 2.1326 0Zm5.6119-3.261c.5612.337.5612.899 0 1.237-.5612.337-1.5714.337-2.1326 0-.5612-.338-.5612-.9 0-1.237.5612-.338 1.5714-.338 2.1326 0Zm5.6121-3.151c.5612.338.5612.9 0 1.238-.5612.337-1.5714.337-2.1326 0-.5612-.338-.5612-.9 0-1.238.5612-.337 1.5714-.337 2.1326 0Zm5.6119-3.149c.5612.338.5612.9 0 1.237-.5612.338-1.5714.338-2.1326 0-.5612-.337-.5612-.899 0-1.237.5612-.337 1.5714-.337 2.1326 0Zm5.6121-3.261c.5612.338.5612.9 0 1.238-.5612.337-1.5713.337-2.1325 0-.5612-.338-.5612-.9 0-1.238.5612-.337 1.4591-.337 2.1325 0Zm5.4997-3.149c.5612.338.5612.9 0 1.237-.5612.338-1.5714.338-2.1326 0-.5612-.337-.5612-.899 0-1.237.6735-.337 1.5714-.337 2.1326 0Zm5.6121-3.15c.5612.338.5612.9 0 1.237-.5612.338-1.5713.338-2.1325 0-.5612-.337-.5612-.899 0-1.237.6734-.337 1.5713-.337 2.1325 0ZM47.113 175.275c.5612.337.5612.899 0 1.237-.5612.337-1.5715.337-2.1327 0-.5612-.338-.5612-.9 0-1.237.5612-.338 1.5715-.338 2.1327 0Zm5.612-3.148c.5612.337.5612.899 0 1.237-.5612.337-1.5714.337-2.1326 0-.5612-.338-.5612-.9 0-1.237.5612-.338 1.5714-.338 2.1326 0Zm5.6119-3.151c.5612.338.5612.9 0 1.238-.5612.337-1.5714.337-2.1326 0-.5612-.338-.5612-.9 0-1.238.5612-.337 1.5714-.337 2.1326 0Zm5.612-3.261c.5612.337.5612.9 0 1.237-.5612.337-1.5713.337-2.1325 0-.5612-.337-.5612-.9 0-1.237.5612-.338 1.4591-.338 2.1325 0Zm5.4999-3.149c.5612.338.5612.9 0 1.238-.5612.337-1.5714.337-2.1326 0-.5612-.338-.5612-.9 0-1.238.6735-.337 1.5714-.337 2.1326 0Zm5.6119-3.149c.5612.338.5612.9 0 1.237-.5612.338-1.5714.338-2.1326 0-.5612-.337-.5612-.899 0-1.237.5612-.337 1.5714-.337 2.1326 0Zm5.6121-3.15c.5612.338.5612.9 0 1.237-.5612.338-1.5713.338-2.1325 0-.5612-.337-.5612-.899 0-1.237.5612-.337 1.5713-.337 2.1325 0Zm5.6119-3.261c.5612.338.5612.9 0 1.238-.5612.337-1.5713.337-2.1325 0-.5612-.338-.5612-.9 0-1.238.5612-.337 1.5713-.337 2.1325 0ZM36.001 175.275c.5612.337.5612.899 0 1.237-.5612.337-1.5713.337-2.1325 0-.5612-.338-.5612-.9 0-1.237.5612-.338 1.5713-.338 2.1325 0Zm5.6122-3.148c.5612.337.5612.899 0 1.237-.5612.337-1.5714.337-2.1326 0-.5612-.338-.5612-.9 0-1.237.5612-.338 1.4591-.338 2.1326 0Zm5.4998-3.262c.5612.337.5612.9 0 1.237-.5612.337-1.5715.337-2.1327 0-.5612-.337-.5612-.9 0-1.237.6734-.338 1.5715-.338 2.1327 0Zm5.612-3.15c.5612.337.5612.9 0 1.237-.5612.337-1.5714.337-2.1326 0-.5612-.337-.5612-.9 0-1.237.6734-.338 1.5714-.338 2.1326 0Zm5.6119-3.149c.5612.338.5612.9 0 1.238-.5612.337-1.5714.337-2.1326 0-.5612-.338-.5612-.9 0-1.238.5612-.337 1.5714-.337 2.1326 0Zm5.612-3.149c.5612.338.5612.9 0 1.237-.5612.338-1.5713.338-2.1325 0-.5612-.337-.5612-.899 0-1.237.5612-.337 1.5713-.337 2.1325 0Zm5.6121-3.261c.5612.337.5612.899 0 1.237-.5612.337-1.5713.337-2.1325 0-.5612-.338-.5612-.9 0-1.237.5612-.338 1.4591-.338 2.1325 0Zm5.612-3.15c.5612.338.5612.9 0 1.238-.5612.337-1.5714.337-2.1326 0-.5612-.338-.5612-.9 0-1.238.5612-.337 1.4591-.337 2.1326 0Zm5.4998-3.149c.5612.338.5612.9 0 1.237-.5612.338-1.5713.338-2.1325 0-.5612-.337-.5612-.899 0-1.237.6734-.337 1.5713-.337 2.1325 0Zm-55.7835 25.418c.5612.337.5612.899 0 1.237-.5612.337-1.5714.337-2.1326 0-.5612-.338-.5612-.9 0-1.237.5612-.338 1.4591-.338 2.1326 0Zm5.4998-3.262c.5612.337.5612.9 0 1.237-.5612.338-1.5713.338-2.1325 0-.5612-.337-.5612-.9 0-1.237.6734-.337 1.5713-.337 2.1325 0Zm5.6119-3.148c.5612.337.5612.9 0 1.237-.5612.337-1.5713.337-2.1325 0-.5612-.337-.5612-.9 0-1.237.5612-.338 1.5713-.338 2.1325 0Zm5.6122-3.15c.5612.337.5612.9 0 1.237-.5612.337-1.5714.337-2.1326 0-.5612-.337-.5612-.9 0-1.237.5612-.338 1.5714-.338 2.1326 0Zm5.6119-3.149c.5612.338.5612.9 0 1.238-.5612.337-1.5714.337-2.1326 0-.5612-.338-.5612-.9 0-1.238.5612-.337 1.5714-.337 2.1326 0Zm11.1118-6.41c.5612.337.5612.899 0 1.237-.5612.337-1.5714.337-2.1326 0-.5612-.338-.5612-.9 0-1.237.6735-.338 1.5714-.338 2.1326 0Zm5.612-3.15c.5612.338.5612.9 0 1.238-.5612.337-1.5713.337-2.1325 0-.5612-.338-.5612-.9 0-1.238.6734-.337 1.5713-.337 2.1325 0Zm5.6121-3.261c.5612.337.5612.9 0 1.237-.5612.337-1.5713.337-2.1325 0-.5612-.337-.5612-.9 0-1.237.5612-.338 1.5713-.338 2.1325 0Zm5.612-3.149c.5612.337.5612.899 0 1.237-.5612.337-1.5714.337-2.1326 0-.5612-.338-.5612-.9 0-1.237.5612-.338 1.5714-.338 2.1326 0Zm-55.8957 25.417c.5612.337.5612.9 0 1.237-.5612.338-1.5713.338-2.1325 0-.5612-.337-.5612-.9 0-1.237.5612-.337 1.5713-.337 2.1325 0Zm5.612-3.148c.5612.337.5612.9 0 1.237-.5612.337-1.5714.337-2.1326 0-.5612-.337-.5612-.9 0-1.237.5612-.338 1.5714-.338 2.1326 0Zm5.6121-3.15c.5612.337.5612.9 0 1.237-.5612.337-1.5714.337-2.1326 0-.5612-.337-.5612-.9 0-1.237.5612-.338 1.4591-.338 2.1326 0Zm5.6119-3.262c.5612.337.5612.9 0 1.237-.5612.338-1.5714.338-2.1326 0-.5612-.337-.5612-.9 0-1.237.5612-.337 1.4592-.337 2.1326 0Zm22.3359-12.708c.5612.337.5612.9 0 1.237-.5612.337-1.5713.337-2.1325 0-.5612-.337-.5612-.9 0-1.237.5612-.338 1.5713-.338 2.1325 0Zm5.612-3.149c.5612.337.5612.899 0 1.237-.5612.337-1.5713.337-2.1325 0-.5612-.338-.5612-.9 0-1.237.5612-.338 1.4591-.338 2.1325 0Zm5.4998-3.15c.5612.338.5612.9 0 1.238-.5612.337-1.5713.337-2.1325 0-.5612-.338-.5612-.9 0-1.238.6734-.337 1.5713-.337 2.1325 0ZM8.1655 172.013c.5612.337.5612.9 0 1.237-.5612.338-1.5713.338-2.1325 0-.5612-.337-.5612-.9 0-1.237.5612-.337 1.5713-.337 2.1325 0Zm5.6119-3.148c.5612.337.5612.9 0 1.237-.5612.337-1.5713.337-2.1325 0-.5612-.337-.5612-.9 0-1.237.5612-.338 1.4591-.338 2.1325 0Zm5.4999-3.262c.5612.338.5612.9 0 1.237-.5612.338-1.5713.338-2.1325 0-.5612-.337-.5612-.899 0-1.237.6734-.337 1.5713-.337 2.1325 0Zm5.612-3.15c.5612.337.5612.9 0 1.237-.5612.338-1.5714.338-2.1326 0-.5612-.337-.5612-.9 0-1.237.6734-.337 1.5714-.337 2.1326 0Zm33.5599-19.119c.5612.337.5612.9 0 1.237-.5612.337-1.5713.337-2.1325 0-.5612-.337-.5612-.9 0-1.237.5612-.338 1.5713-.338 2.1325 0Zm5.612-3.149c.5612.337.5612.899 0 1.237-.5612.337-1.5713.337-2.1325 0-.5612-.338-.5612-.9 0-1.237.5612-.338 1.5713-.338 2.1325 0ZM2.5535 168.752c.5612.338.5612.9 0 1.238-.5612.337-1.5714.337-2.1326 0-.5612-.338-.5612-.9 0-1.238.6734-.337 1.5714-.337 2.1326 0Zm5.612-3.149c.5612.338.5612.9 0 1.237-.5612.338-1.5713.338-2.1325 0-.5612-.337-.5612-.899 0-1.237.5612-.337 1.5713-.337 2.1325 0Zm5.6119-3.15c.5612.337.5612.9 0 1.237-.5612.338-1.5713.338-2.1325 0-.5612-.337-.5612-.9 0-1.237.5612-.337 1.5713-.337 2.1325 0Zm44.784-25.53c.5612.337.5612.9 0 1.237-.5612.338-1.5714.338-2.1326 0-.5612-.337-.5612-.9 0-1.237.5612-.337 1.4591-.337 2.1326 0Zm-55.8958 25.53c.5613.337.5613.9 0 1.237-.5612.338-1.5713.338-2.1325 0-.5612-.337-.5612-.9 0-1.237.5612-.337 1.4591-.337 2.1325 0Z"/>
    <path fill="#177C1B" d="M176.526 158.742c-.449-.562-1.01-1.012-1.796-1.462l-13.918-7.985-97.4239-56.5736c-.898-.5624-1.9082-.8998-2.9184-1.1247-2.0203-.4499-4.0406-.4499-6.061 0-1.0101.2249-2.0203.5623-2.9182 1.1247L31.9607 104.081c-.7857.45-1.3469.9-1.7959 1.463-.5612.787-.8979 1.574-.8979 2.361 0 .788.3367 1.687.8979 2.362.449.563 1.0102 1.013 1.7959 1.462h-.7857c-1.3469.113-2.5816.45-3.704.9-1.0101.45-1.7958.9-2.4692 1.575L11.1962 128.15c-.5612.563-.8979 1.125-1.1224 1.8-.1122.675-.1122 1.237 0 1.799.1122.563.3367 1.013.7857 1.575.3367.45.8979.9 1.4591 1.35.5612.337 1.2346.674 2.0203 1.012h-.2245c-1.4591.225-2.5815.675-3.5917 1.349-1.01.675-1.6836 1.35-2.1325 2.25l-7.1834 15.408c-.2244.45-.3367.9-.3367 1.35 0 .675.1123 1.237.449 1.8.3367.562.7857 1.124 1.4591 1.687.6734.45 1.3469.9 2.2448 1.124.7857.225 1.5714.45 2.357.563l20.54 3.149 7.5201 1.125 20.54 3.149 7.5201 1.125 28.1723 4.386 67.6805 10.46c.674.112 1.347.112 2.133.112.898 0 1.796-.112 2.581-.225 1.459-.225 2.582-.674 3.592-1.349 1.01-.675 1.684-1.35 2.133-2.25l7.183-15.408c.112-.225.112-.45.224-.563.113-.449.113-.899.113-1.349 0-.113 0-.225-.113-.45.113-.225.113-.563.113-.787 0-.338 0-.563-.113-.9.113-.225.113-.563.113-.788.112-.337-.225-1.237-.786-1.912Z"/>
    <path fill="#177C1B" d="M54.3544 91.3527c2.0561-.4579 4.1135-.4579 6.1697 0 1.0246.2281 2.0633.5731 2.993 1.1546l.0036.0022 97.4163 56.5685.001.001 13.916 7.984c.804.461 1.392.929 1.866 1.522.297.358.534.774.684 1.147.074.188.129.37.158.534.024.141.033.291 0 .423 0 .107-.002.245-.016.384-.012.12-.034.255-.081.382.097.328.097.571.097.879v.011c0 .111 0 .262-.016.415-.011.114-.032.242-.074.363.035.082.057.155.071.224.019.095.019.171.019.228v.017c0 .441 0 .917-.12 1.397l-.017.067-.048.049s-.006.006-.015.027a.8443.8443 0 0 0-.034.104c-.025.088-.06.226-.128.363l-.001.003-7.181 15.403-.003.006c-.474.951-1.184 1.655-2.217 2.346-1.042.696-2.2 1.158-3.693 1.388l-.002.001c-.788.113-1.7.227-2.617.227h-.013c-.776 0-1.466 0-2.159-.115l-.002-.001-67.6776-10.459-28.1712-4.386h-.0014l-7.5187-1.125-20.54-3.149-7.5201-1.125-20.5384-3.149h-.001c-.8022-.115-1.6012-.344-2.3806-.567l-.005-.001c-.938-.236-1.6409-.706-2.307-1.151l-.0228-.015-.0102-.008c-.696-.581-1.163-1.166-1.5134-1.751-.366-.611-.4845-1.221-.4845-1.928 0-.492.1228-.979.3615-1.458l7.1848-15.412c.4745-.95 1.1844-1.655 2.2175-2.345.8898-.595 1.8634-1.019 3.0583-1.273-.4636-.222-.8812-.444-1.2524-.667l-.0145-.009-.0319-.025-.0001-.001c-.5458-.437-1.1256-.902-1.4816-1.376-.4661-.585-.7114-1.07-.833-1.679-.1192-.597-.1177-1.19-.0015-1.889l.0033-.02.0061-.018c.2367-.712.594-1.307 1.1821-1.897l13.8054-13.946.0007-.001c.7048-.706 1.5224-1.171 2.5445-1.626l.0087-.004c1.1284-.452 2.3721-.794 3.73-.913-.4507-.32-.8196-.662-1.137-1.059-.5941-.715-.9541-1.669-.9541-2.52 0-.859.3672-1.697.9443-2.507l.0079-.011c.4738-.593 1.0625-1.062 1.8666-1.522l19.5256-11.3577c.9297-.5815 1.9684-.9265 2.9931-1.1546Zm152.0276-41.258c-.112-.1125-.225-.1125-.337-.1125-.112-.1124-.224-.1124-.224-.2249l-9.653-5.8485c-.112-.1125-.224-.225-.449-.225-1.347-.6748-3.03-.5623-4.602.3374l-33.223 19.3451-24.468-14.1714c-5.276-3.0367-13.132-3.3741-17.734-.6748L76.5201 71.2393c-1.9081 1.1247-3.0305 2.6993-3.255 4.3864l.1123 12.5968.1122.8997c.449 1.9121 2.0203 3.7116 4.3774 5.1737l37.6 21.7061c2.806 1.687 6.51 2.475 9.99 2.475 2.918 0 5.724-.563 7.744-1.8l8.979-5.173v15.746c0 2.699 1.011 4.723 2.694 5.623l10.214 6.186s.112 0 .112.112l.786.45.112-.112c.337.112.674.112 1.123.112.898 0 1.795-.225 2.806-.787l42.875-24.969c3.368-2.024 6.061-7.085 6.061-11.584V55.6058c0-2.5868-.897-4.6113-2.581-5.5111Z"/>
    <path fill="#177C1B" fill-rule="evenodd" d="M195.782 43.4361c.275.0198.434.1675.542.2746l9.747 5.9058v.0711c.009.0059.02.0126.031.02.011.0079.024.0167.037.0264.11.0062.253.0338.39.1562 1.779.9687 2.684 3.0964 2.684 5.7156v46.6762c0 2.296-.686 4.726-1.796 6.836-1.109 2.109-2.652 3.921-4.386 4.963l-.003.001-42.876 24.969-.004.002c-1.043.581-1.983.819-2.927.819h-.024c-.372 0-.701 0-1.026-.081l-.143.143-1.078-.617v-.048l-10.2-6.178c-1.789-.959-2.82-3.089-2.82-5.841v-15.313l-8.598 4.954c-.001.001-.002.002-.003.002-2.074 1.269-4.93 1.835-7.872 1.835-3.511 0-7.262-.794-10.117-2.509 0-.001-.001-.001-.002-.001L77.7351 94.5085c-2.3853-1.4796-4.0186-3.3263-4.4889-5.3291l-.003-.0129-.1157-.9273-.1125-12.6289.0023-.0175c.2368-1.7801 1.4177-3.4146 3.3758-4.5688l.0015-.0009 39.1704-22.7186c0-.0001 0 .0001 0 0 2.354-1.3806 5.521-1.9755 8.751-1.8478 3.233.1279 6.556.98 9.234 2.5216l24.344 14.099 33.097-19.272.002-.001c1.611-.9222 3.362-1.0603 4.789-.3682Zm-4.541.8021c0 .0002.001-.0001 0 0l-33.347 19.4173-24.593-14.2439s0 .0001 0 0c-2.597-1.495-5.84-2.3301-9.005-2.4552-3.167-.1253-6.23.461-8.478 1.7794l-.001.0006-39.17 22.7183c-.0002.0002.0003-.0001 0 0-1.8509 1.0913-2.9143 2.5992-3.1317 4.1867l.1119 12.5645.1088.8721c.4315 1.8158 1.938 3.5627 4.2595 5.0035l37.5965 21.7055.004.002c2.757 1.658 6.413 2.439 9.861 2.439 2.892 0 5.647-.559 7.614-1.763l.005-.004 9.354-5.389v16.178c0 2.645.988 4.562 2.562 5.404l.012.006 10.173 6.161c.023.006.05.015.079.029.044.022.095.059.135.119.008.012.015.024.021.037l.532.304.087-.086.146.049c.292.097.586.099 1.044.099.85 0 1.706-.211 2.682-.754.001-.001.001-.001.002-.001l42.869-24.965s.001 0 .001-.001c1.633-.982 3.12-2.713 4.199-4.765 1.079-2.051 1.739-4.402 1.739-6.604V55.6058c0-2.5399-.88-4.4522-2.449-5.2906l-.033-.0175-.026-.0264c-.023-.0234-.039-.0292-.052-.0325-.022-.0053-.047-.0065-.108-.0065h-.103l-.074-.0734c-.021-.0215-.035-.0297-.061-.0458-.013-.0085-.031-.0193-.055-.0354-.028-.019-.077-.0539-.117-.1104a.328.328 0 0 1-.028-.0469l-9.594-5.8135-.022-.0215c-.059-.0595-.095-.0932-.134-.117-.032-.0193-.072-.0345-.138-.0345h-.059l-.053-.0265c-1.258-.6301-2.852-.5354-4.366.3308Z" clip-rule="evenodd"/>
    <path fill="#FDEDCC" d="M176.863 164.029c0 .337 0 .674-.112 1.012 0 .225-.112.337-.112.45l-7.184 15.408c-.336.788-1.01 1.462-1.796 1.912-1.01.675-2.132 1.013-3.367 1.238-1.459.224-3.03.337-4.489.112l-18.969-2.924 1.684-3.599 8.754 2.924c1.46.45 3.031.675 4.602.562 1.235-.112 2.47-.337 3.704-.787.898-.337 1.684-.787 2.357-1.462l13.806-13.834c.224-.225.337-.45.561-.675.112-.225.337-.562.337-.787.224.112.224.337.224.45Z"/>
    <path fill="#177C1B" d="m142.63 177.638-1.684 3.599-20.652-3.149 3.255-6.861 10.775 3.599 8.306 2.812Z"/>
    <path fill="#FDEDCC" d="m123.549 171.227-3.255 6.861-7.52-1.238 3.704-7.985 7.071 2.362Z"/>
    <path fill="#177C1B" d="m116.478 168.865-3.704 7.985-20.6519-3.149 5.2753-11.247 11.6726 3.937 6.847 2.249.561.225Z"/>
    <path fill="#FDEDCC" d="m97.3973 162.454-5.2753 11.247-7.5201-1.125 5.7242-12.484.3368.113 6.7344 2.249Z"/>
    <path fill="#177C1B" d="m90.3263 160.091-5.7243 12.484-20.54-3.261 7.1834-15.521 12.5709 4.161 6.51 2.137Z"/>
    <path fill="#FDEDCC" d="m71.2454 153.794-7.1834 15.521-7.6324-1.125 7.7446-16.758 1.2347.337 5.8365 2.025Z"/>
    <path fill="#177C1B" d="m64.1741 151.432-7.7445 16.758-20.54-3.262 9.2037-19.907 13.4688 4.499 5.612 1.912Z"/>
    <path fill="#FDEDCC" d="m45.0933 145.021-9.2037 19.907-7.5201-1.124 9.7649-21.145 2.0203.675 4.9386 1.687Z"/>
    <path fill="#177C1B" d="m38.1345 142.659-9.7649 21.145-20.6523-3.15 11.2241-24.293.6734.112 13.8056 4.611 4.7141 1.575Z"/>
    <path fill="#FDEDCC" d="m19.1658 136.361-11.224 24.181c-.7857-.112-1.4591-.337-2.1326-.562-.6734-.225-1.3469-.563-2.0203-1.013-.449-.337-1.0102-.787-1.2346-1.349-.2245-.45-.3368-.9-.3368-1.462 0-.338.1123-.788.2245-1.125l7.0712-15.409c.3367-.787 1.1224-1.462 1.7958-1.912 1.0102-.674 2.1326-1.012 3.3672-1.237 1.4592-.225 3.0305-.337 4.4896-.112Z"/>
    <path fill="#177C1B" fill-rule="evenodd" d="m21.9836 134.629-.007.035-.0086.034c-.0527.212-.0527.412 0 .624.0607.243.0941.367.1342.468.0188.047.0317.068.0366.076l.0721.072.0638.085c.1823.244.4428.454.9002.798.505.333.9232.504 1.5169.703l.008.002 11.9079 4.053 6.6128 2.359 17.9348 5.84 6.6261 2.139 17.9546 5.847.0038.001 6.6222 2.137 17.958 5.849 6.622 2.136 17.958 5.849 16.67 5.417.056.024c1.04.434 2.342.553 3.79.451 1.126-.103 2.178-.302 3.099-.662.81-.409 1.39-.757 1.866-1.221l13.311-15.917 2.302 1.925-13.399 16.021-.047.047c-.851.853-1.817 1.39-2.747 1.856l-.056.028-.058.023c-1.307.524-2.699.769-4.013.889l-.015.001-.014.001c-1.669.12-3.481.017-5.116-.649l-16.556-5.381-17.96-5.849-6.618-2.136-.004-.001-17.9541-5.847-.0039-.001-6.6183-2.136-.0039-.001-17.9546-5.848-6.6222-2.137-.0038-.001-17.9783-5.855-6.6315-2.365-11.8832-4.044c-.7387-.247-1.4366-.523-2.262-1.074l-.0346-.023-.0333-.025c-.0167-.013-.0337-.025-.051-.038-.4002-.301-.9664-.726-1.4241-1.31-.5755-.626-.7624-1.39-.8578-1.78-.006-.025-.0118-.048-.0172-.07-.169-.678-.1716-1.366-.0078-2.044.2132-1.001.9231-1.813 1.2994-2.191l2.1235 2.12c-.1154.115-.2441.264-.346.418-.0499.075-.0863.14-.1109.193a.7784.7784 0 0 0-.0252.062c-.0025.008-.0041.013-.0052.017l-.0014.006Z" clip-rule="evenodd"/>
    <path fill="#FDEDCC" d="M176.751 161.892c.112.225.112.562.112.787 0 .225 0 .562-.112.787-.112.225-.225.563-.337.788-.112.224-.336.449-.561.674l-13.806 13.834c-.673.675-1.459 1.125-2.357 1.462-1.122.45-2.357.675-3.704.788-1.571.112-3.142-.113-4.601-.563l-8.755-2.924-8.306-2.812 3.031-3.036 6.622 3.824c.785.45 1.683.787 2.694 1.012 1.908.45 3.816.45 5.724 0 1.01-.225 1.908-.562 2.694-1.012l19.529-11.247c.562-.338 1.123-.788 1.572-1.35.224-.225.449-.562.561-1.012Z"/>
    <path fill="#F6A01D" d="m123.549 171.227-7.071-2.362-.561-.225 5.836-5.849 8.306 4.837 7.296 4.161-3.031 3.037-10.775-3.599Z"/>
    <path fill="#FDEDCC" d="m121.753 162.79-5.836 5.849-6.847-2.25 6.959-6.972 5.724 3.373Z"/>
    <path fill="#F6A01D" d="m115.019 158.854 1.01.562-6.959 6.974-11.6726-3.937-6.7344-2.249 9.764-9.785 9.092 5.286 5.5 3.149Z"/>
    <path fill="#FDEDCC" d="m94.7036 147.044 5.7234 3.375-9.764 9.785-.3368-.113-6.5099-2.137 10.8873-10.91Z"/>
    <path fill="#F6A01D" d="m71.2453 153.794-5.8365-2.025 13.6933-13.721 9.7649 5.736 5.4998 3.149.3367.112-10.8873 10.91-12.5709-4.161Z"/>
    <path fill="#FDEDCC" d="m73.8268 135.011 5.2753 3.037-13.6933 13.721-1.2346-.337-5.6121-1.912 14.8158-14.734.4489.225Z"/>
    <path fill="#F6A01D" d="M73.378 134.786 58.5622 149.52l-13.4688-4.499-4.9386-1.687 17.6217-17.658 10.5506 6.186 5.0509 2.924Z"/>
    <path fill="#FDEDCC" d="m57.7765 125.676-17.6217 17.658-2.0203-.675-4.7141-1.575 18.6319-18.67 1.1224.675 4.6018 2.587Z"/>
    <path fill="#F6A01D" d="m19.6147 136.922-4.7141-1.575 21.5502-21.594 11.224 6.523 4.3774 2.475-18.6319 18.782-13.8056-4.611Z"/>
    <path fill="#FDEDCC" d="m35.7773 113.079.6735.338-21.5502 21.482c-.6734-.225-1.3469-.563-1.9081-.9-.4489-.338-1.0101-.675-1.3469-1.125-.3367-.337-.5612-.787-.5612-1.237-.1122-.45-.1122-.9 0-1.35.1123-.562.5612-1.012.898-1.462l13.9178-13.946c.6734-.675 1.4591-1.125 2.2448-1.462 1.1224-.45 2.2448-.675 3.3672-.788 1.4591-.112 2.9182 0 4.2651.45Z"/>
    <path fill="#177C1B" fill-rule="evenodd" d="M36.5616 110.117c.3072-.364.6971-.677 1.111-.926l-1.5458-2.571c-.6806.409-1.3885.97-1.9707 1.699l-.0629.079-.0518.087c-.3468.579-.8865 1.563-.8865 2.682 0 1.009.3364 2.015 1.0012 2.848l.0518.065.0587.059c.5278.529 1.1847 1.057 1.8602 1.463l.0196.012 13.2525 7.427 5.3758 3.143 14.7035 8.435.0105.006 5.377 3.143 14.7035 8.435.0105.007 5.377 3.143 14.7033 8.435.01.006 5.377 3.143.011.006 14.703 8.436 13.583 7.761c.926.53 1.957.914 2.962 1.165l.051.013.052.009c2.058.364 4.04.373 6.144-.112 1.186-.169 2.276-.741 3.056-1.188l.059-.033 20.033-13.985-1.717-2.46-19.922 13.907c-.749.425-1.403.723-1.966.794l-.08.009-.078.019c-1.667.393-3.24.402-4.954.104-.772-.197-1.518-.484-2.15-.846h-.001l-13.579-7.759-14.693-8.43-.01-.006-5.377-3.143-14.7033-8.435-.0106-.006-5.377-3.143-14.7035-8.436-.0105-.006-5.377-3.143-14.7035-8.435-5.3993-3.156-13.235-7.418c-.4153-.252-.8452-.592-1.1987-.936a1.5524 1.5524 0 0 1-.3007-.917c0-.217.119-.555.4067-1.05Z" clip-rule="evenodd"/>
    <path fill="#F6A01D" d="M176.863 161.103c0 .225-.112.563-.112.788-.112.337-.337.787-.561 1.124-.449.563-1.01.9-1.572 1.35l-19.529 11.247c-.786.45-1.684.787-2.694 1.012-1.908.45-3.816.45-5.724 0-.898-.225-1.796-.562-2.694-1.012l-6.622-3.824-7.296-4.161 30.642-17.771 13.917 8.098c.562.338 1.123.787 1.572 1.35.449.45.673 1.125.673 1.799Zm-4.938.563c.112-.225.224-.675.112-.9-.112-.337-.337-.562-.561-.787-.337-.225-.786-.45-1.123-.563-.449-.112-1.01-.225-1.571-.112-.561 0-1.01.112-1.459.337-.449.113-.786.338-1.01.788-.113.224-.225.674-.113.899.113.338.337.563.562.675.336.225.673.45 1.122.562.449.113 1.01.225 1.571.113.562 0 1.01-.113 1.572-.337.112 0 .224-.113.336-.113.113 0 .337-.225.562-.562Z"/>
    <path fill="#FDEDCC" d="M172.037 160.766c.112.337 0 .676-.112.901-.113.225-.449.45-.674.675-.112 0-.224.112-.337.112-.449.225-1.01.336-1.571.336-.561 0-1.01 0-1.571-.112-.449-.113-.786-.224-1.123-.561-.224-.225-.449-.451-.561-.676-.112-.338 0-.674.112-.899.225-.337.562-.562 1.011-.787.448-.225 1.01-.338 1.459-.338.561 0 1.01-.001 1.571.112.449.112.786.226 1.122.563.337.113.562.449.674.674Z"/>
    <path fill="#F6A01D" d="m115.804 159.641-1.01-.562 30.642-17.658 15.04 8.66-30.642 17.771-8.305-4.837-5.725-3.374Z"/>
    <path fill="#F6A01D" d="m145.66 141.422-30.641 17.658-5.5-3.149 30.642-17.771 5.499 3.262Zm-5.836-3.262-30.642 17.771-8.979-5.286-5.7239-3.262-.3368-.225L124.784 129.5l15.04 8.66Z"/>
    <path fill="#F6A01D" d="m125.008 129.5-30.6411 17.658-5.4998-3.149 30.6409-17.771 5.5 3.262Z"/>
    <path fill="#F6A01D" d="m78.8776 138.61-5.2753-3.149 30.5287-17.658 15.153 8.66-30.6415 17.771-9.7649-5.624Zm25.5904-21.033-30.6412 17.658-.4489-.225-5.0509-2.924 30.5293-17.771 5.6117 3.262Z"/>
    <path fill="#F6A01D" d="m98.6324 114.541-30.642 17.771-10.4383-6.074-4.6019-2.699 30.6416-17.658 15.0406 8.66Zm-46.5802 8.098-4.3774-2.474 30.6416-17.771 5.4998 3.262-30.6416 17.658-1.1224-.675Z"/>
    <path fill="#F6A01D" d="m35.5529 113.529-3.2549-1.912 30.6416-17.6585 15.0402 8.6595-30.5294 17.771-11.3363-6.523-.5612-.337Zm27.3867-20.0202L32.298 111.167c-.5612-.337-1.1224-.787-1.5714-1.35-.449-.562-.6735-1.237-.6735-1.912 0-.674.3368-1.349.6735-1.912.449-.562 1.0102-.899 1.5714-1.012l19.5298-11.2472c.7857-.6749 1.6836-1.1248 2.6938-1.2372 1.908-.4499 3.8161-.4499 5.7242 0 1.0102.1124 1.9081.4499 2.6938 1.0122Z"/>
    <path fill="#FDEDCC" d="m144.313 143.446-28.06 16.196 15.041 8.661 28.06-16.196-15.041-8.661Zm-20.652-11.472L95.6014 148.17l15.0396 8.773 28.06-16.308-15.04-8.661Zm-5.275-3.486-15.04-8.661-28.0601 16.196 15.1525 8.661 27.9476-16.196Zm-20.6516-11.922-15.0405-8.661-28.0601 16.196 15.1525 8.661 27.9481-16.196Zm-20.5403-11.922-15.1524-8.6611-28.0601 16.1961 15.1524 8.773 28.0601-16.308Z"/>
    <path fill="#177C1B" fill-rule="evenodd" d="M170.008 158.701c.049.01.098.02.146.03l.016.003.017.004c.567.142.99.425 1.316.643.008.005.017.011.025.017l.057.038.049.049c.008.008.017.016.025.025.208.208.523.523.692.997.132.307.099.637.068.825-.036.213-.103.43-.184.604-.218.587-.758.907-1.007 1.031l-.148.074h-.008a1.012 1.012 0 0 1-.152.063c-.061.019-.123.032-.185.04-.554.214-1.054.338-1.661.347-.629.111-1.162.001-1.63-.096-.05-.01-.098-.02-.147-.03l-.016-.003-.016-.004c-.568-.142-.991-.425-1.316-.643-.009-.005-.017-.011-.025-.016l-.058-.039-.049-.049-.025-.025c-.207-.207-.523-.523-.692-.997-.131-.307-.098-.637-.067-.825.038-.231.114-.467.204-.647l.02-.039.024-.036c.166-.249.394-.472.618-.645.217-.167.474-.322.731-.411.59-.235 1.11-.372 1.748-.381.628-.111 1.161-.001 1.63.096Zm1.211 4.25c.001-.001.001-.001-.001 0h.001Zm-1.453-2.87c-.528-.107-.813-.164-1.183-.09l-.068.014h-.07c-.447 0-.805.084-1.311.287l-.019.008-.019.006c-.073.024-.2.091-.342.2-.121.093-.218.191-.28.273-.007.018-.016.04-.024.066-.015.049-.028.101-.036.149a.734.734 0 0 0-.009.082l.011.032c.049.148.141.26.344.465.309.206.54.348.83.423.033.007.064.013.095.019.529.107.814.164 1.184.09l.068-.014h.069c.447 0 .806-.084 1.311-.287l.126-.05h.051c.005-.003.011-.006.016-.009a.7816.7816 0 0 1 .162-.068c.054-.032.109-.07.156-.111.069-.062.091-.105.096-.12l.015-.047.023-.045c.008-.018.024-.053.039-.103.016-.049.029-.101.037-.149a.5213.5213 0 0 0 .008-.082l-.01-.032c-.049-.148-.141-.26-.344-.465-.309-.206-.54-.347-.831-.423-.032-.007-.064-.013-.095-.019Zm1.28.915V161v-.004Zm-4.64.104s-.001-.001-.001-.004l.001.004Zm-93.1558-26.694 30.5288-17.77.705 1.209-30.5295 17.771-.7043-1.21Z" clip-rule="evenodd"/>
    <path fill="#177C1B" fill-rule="evenodd" d="m88.2899 144.388-15.0403-8.772.7054-1.21 15.0402 8.773-.7053 1.209Z" clip-rule="evenodd"/>
    <path fill="#177C1B" fill-rule="evenodd" d="m119.635 126.619-30.6412 17.77-.7023-1.211 30.6415-17.77.702 1.211Z" clip-rule="evenodd"/>
    <path fill="#177C1B" fill-rule="evenodd" d="m104.482 116.635 15.153 8.772-.702 1.212-15.152-8.773.701-1.211ZM31.9475 104.15l19.6421-11.3595.7009 1.2119-19.6421 11.3596-.7009-1.212Z" clip-rule="evenodd"/>
    <path fill="#177C1B" fill-rule="evenodd" d="M30.1795 105.669c.5111-.64 1.1409-1.142 1.7578-1.513l.7214 1.2c-.5055.304-.9984.702-1.3851 1.187-.3483.436-.5205.956-.5205 1.475 0 .456.2301.971.5494 1.511.3823.468.8632.854 1.3562 1.151l-.7214 1.199c-.6169-.37-1.2467-.872-1.7578-1.512l-.0294-.037-.0242-.041c-.3414-.57-.7728-1.389-.7728-2.271 0-.831.2767-1.66.8264-2.349Z" clip-rule="evenodd"/>
    <path fill="#177C1B" fill-rule="evenodd" d="m47.0997 120.546-15.1524-8.773.7014-1.212 15.1525 8.773-.7015 1.212Z" clip-rule="evenodd"/>
    <path fill="#177C1B" fill-rule="evenodd" d="m52.6023 123.697-5.4998-3.15.6957-1.215 5.4997 3.15-.6956 1.215Z" clip-rule="evenodd"/>
    <path fill="#177C1B" fill-rule="evenodd" d="m67.6376 132.465-15.0402-8.772.7054-1.21 15.0402 8.773-.7054 1.209Z" clip-rule="evenodd"/>
    <path fill="#177C1B" fill-rule="evenodd" d="m73.2598 135.62-5.612-3.149.6851-1.221 5.612 3.15-.6851 1.22Zm20.5348 11.92-5.4998-3.149.6957-1.215 5.4998 3.149-.6957 1.215Z" clip-rule="evenodd"/>
    <path fill="#177C1B" fill-rule="evenodd" d="m108.944 156.312-15.1524-8.773.7015-1.212 15.1519 8.773-.701 1.212Z" clip-rule="evenodd"/>
    <path fill="#177C1B" fill-rule="evenodd" d="m114.446 159.462-5.499-3.149.695-1.215 5.5 3.149-.696 1.215Z" clip-rule="evenodd"/>
    <path fill="#177C1B" fill-rule="evenodd" d="m129.482 168.232-15.04-8.772.705-1.21 15.04 8.773-.705 1.209Z" clip-rule="evenodd"/>
    <path fill="#177C1B" fill-rule="evenodd" d="m143.404 176.22-13.918-7.985.697-1.214 13.918 7.985-.697 1.214Z" clip-rule="evenodd"/>
    <path fill="#177C1B" fill-rule="evenodd" d="M152.327 177.308c1.087-.243 1.929-.607 2.851-1.069l-.627-1.252c-.874.438-1.602.748-2.533.955l-.008.002c-1.803.425-3.601.425-5.403 0l-.009-.002c-.951-.212-1.781-.526-2.498-.936l-.696 1.215c.854.488 1.818.849 2.886 1.087 2.011.473 4.026.473 6.037 0Z" clip-rule="evenodd"/>
    <path fill="#177C1B" fill-rule="evenodd" d="m174.746 164.858-19.53 11.359-.704-1.21 19.53-11.36.704 1.211Z" clip-rule="evenodd"/>
    <path fill="#177C1B" fill-rule="evenodd" d="M174.755 157.129c.616.371 1.246.873 1.757 1.513l.03.037.024.04c.341.57.773 1.39.773 2.272 0 .831-.277 1.66-.827 2.349-.511.64-1.141 1.142-1.757 1.512l-.722-1.199c.506-.304.998-.702 1.385-1.187.348-.436.521-.956.521-1.475 0-.456-.23-.972-.55-1.511-.382-.469-.863-.854-1.356-1.151l.722-1.2Z" clip-rule="evenodd"/>
    <path fill="#177C1B" fill-rule="evenodd" d="m160.828 149.251 13.918 8.098-.704 1.21-13.918-8.098.704-1.21Z" clip-rule="evenodd"/>
    <path fill="#177C1B" fill-rule="evenodd" d="m145.789 140.479 15.04 8.774-.706 1.209-15.04-8.773.706-1.21Z" clip-rule="evenodd"/>
    <path fill="#177C1B" fill-rule="evenodd" d="m140.166 137.325 5.612 3.149-.685 1.221-5.612-3.149.685-1.221Z" clip-rule="evenodd"/>
    <path fill="#177C1B" fill-rule="evenodd" d="m125.136 128.558 15.041 8.773-.706 1.209-15.04-8.773.705-1.209Z" clip-rule="evenodd"/>
    <path fill="#177C1B" fill-rule="evenodd" d="m119.632 125.406 5.499 3.149-.695 1.215-5.5-3.149.696-1.215Zm-20.6527-11.923 5.4997 3.149-.695 1.215-5.4997-3.149.695-1.215Z" clip-rule="evenodd"/>
    <path fill="#177C1B" fill-rule="evenodd" d="m83.9444 104.714 15.0399 8.773-.705 1.209-15.0402-8.773.7053-1.209Z" clip-rule="evenodd"/>
    <path fill="#177C1B" fill-rule="evenodd" d="m78.4398 101.562 5.4998 3.149-.6957 1.215-5.4998-3.149.6957-1.215Z" clip-rule="evenodd"/>
    <path fill="#177C1B" fill-rule="evenodd" d="m63.2903 92.7905 15.1525 8.7735-.7015 1.211-15.1524-8.7729.7014-1.2116Z" clip-rule="evenodd"/>
    <path fill="#177C1B" fill-rule="evenodd" d="M60.4022 91.7017c1.0675.2381 2.0316.5984 2.8852 1.0871l-.6956 1.215c-.7167-.4104-1.547-.7247-2.4981-.9365l-.0085-.0019c-1.8025-.425-3.6006-.425-5.403 0l-.0085.002v-.0001c-.9312.2074-1.6592.5174-2.5323.9548l-.6272-1.2516c.9215-.4617 1.7639-.8262 2.851-1.0688 2.0109-.4734 4.0261-.4734 6.037 0Zm54.0408 66.5473 30.642-17.77.702 1.211-30.642 17.77-.702-1.211Zm46.384-7.787-30.641 17.77-.703-1.211 30.642-17.77.702 1.211Zm-67.0359-4.135 30.6409-17.77.703 1.211-30.6415 17.77-.7024-1.211Zm46.3849-7.787-30.529 17.771-.705-1.21 30.53-17.771.704 1.21Zm-87.577-16.057 30.6416-17.771.7024 1.211-30.6416 17.771-.7024-1.211Zm46.3844-7.786-30.6418 17.77-.7024-1.211 30.6412-17.77.703 1.211Z" clip-rule="evenodd"/>
    <path fill="#177C1B" fill-rule="evenodd" d="m31.9468 110.562 30.6416-17.7715.7024 1.2111-30.6416 17.7714-.7024-1.211Zm46.4963-7.788-30.6416 17.77-.7023-1.211 30.6416-17.77.7023 1.211ZM14.182 134.402l21.5501-21.482.9884.991-21.5502 21.482-.9883-.991Z" clip-rule="evenodd"/>
    <path fill="#177C1B" fill-rule="evenodd" d="m32.8606 141.747-18.4074-6.186.4459-1.327 18.4075 6.186-.446 1.327Z" clip-rule="evenodd"/>
    <path fill="#177C1B" fill-rule="evenodd" d="m52.3217 122.909-18.7441 18.67-.988-.992 18.7441-18.67.988.992Zm-41.0592 5.309 13.8056-13.834.9909.989-13.8055 13.834-.991-.989Zm-1.0856 1.803c.1561-.757.6072-1.324 1.0855-1.803l.991.989c-.4161.417-.6354.746-.707 1.105l-.0032.016-.0041.016c-.0844.339-.0844.672 0 1.011.0878.352.2591.681.4898.912l.0351.035.0298.04c.3019.404.6567.738 1.0469.895l.0522.02.0481.029c.5303.319 1.1567.632 1.7691.836l-.4435 1.328c-.7157-.239-1.4181-.589-2.0014-.937-.6862-.291-1.2024-.819-1.5634-1.294-.4218-.438-.6881-.992-.821-1.525-.1387-.556-.14-1.117-.0039-1.673Z" clip-rule="evenodd"/>
    <path fill="#177C1B" fill-rule="evenodd" d="m39.7117 143.998-6.8466-2.249.4369-1.331 6.8467 2.25-.437 1.33Z" clip-rule="evenodd"/>
    <path fill="#177C1B" fill-rule="evenodd" d="m58.1147 150.182-18.4074-6.186.446-1.327 18.4074 6.186-.446 1.327Z" clip-rule="evenodd"/>
    <path fill="#177C1B" fill-rule="evenodd" d="m64.9659 152.434-6.8466-2.25.4369-1.33 6.8467 2.25-.437 1.33Z" clip-rule="evenodd"/>
    <path fill="#177C1B" fill-rule="evenodd" d="m83.3687 158.618-18.4074-6.186.446-1.327 18.4074 6.186-.446 1.327Z" clip-rule="evenodd"/>
    <path fill="#177C1B" fill-rule="evenodd" d="m90.1044 160.868-6.7344-2.249.4435-1.328 6.7344 2.25-.4435 1.327Zm18.5196 6.186-18.5195-6.185.4435-1.328 18.519 6.186-.443 1.327Zm6.734 2.25-6.734-2.25.443-1.327 6.735 2.249-.444 1.328Z" clip-rule="evenodd"/>
    <path fill="#177C1B" fill-rule="evenodd" d="m133.878 175.49-18.52-6.186.444-1.328 18.519 6.186-.443 1.328Z" clip-rule="evenodd"/>
    <path fill="#177C1B" fill-rule="evenodd" d="m150.823 181.225-16.948-5.736.449-1.326 16.948 5.736-.449 1.326Z" clip-rule="evenodd"/>
    <path fill="#177C1B" fill-rule="evenodd" d="M162.206 179.368c-.761.763-1.64 1.26-2.606 1.623l-.007.003c-1.306.476-2.603.71-3.88.826l-.013.002v-.001c-1.67.12-3.329-.12-4.858-.591l.412-1.338c1.387.427 2.868.638 4.339.533 1.189-.108 2.358-.323 3.518-.746.828-.311 1.519-.713 2.104-1.3l.991.989Zm13.918-13.834-13.806 13.834-.991-.989 13.806-13.834.991.989Zm1.215-2.796v.052c0 .644-.127 1.378-.589 1.994l-.03.04-.035.035c-.072.073-.129.147-.215.263-.003.003-.005.006-.008.009-.081.109-.19.255-.338.403l-.991-.989c.072-.072.129-.147.216-.262.002-.003.004-.006.007-.01.073-.098.17-.227.297-.36.195-.28.286-.66.286-1.123 0-.179-.001-.278-.01-.358-.007-.066-.018-.094-.029-.116l1.253-.625c.187.376.187.753.186 1.047ZM31.2339 112.044c1.5317-.118 3.0621 0 4.5889.353l-.3154 1.364c-1.3888-.321-2.774-.428-4.1579-.322-1.0819.109-2.2389.323-3.2729.737-.7324.315-1.4296.72-2.0177 1.31l-.9909-.989c.7567-.759 1.6279-1.252 2.464-1.611l.0079-.004.0079-.003c1.2063-.483 2.5123-.718 3.6701-.834l.008-.001h.008Zm83.8551 56.097 5.949-5.849.981.998-5.948 5.849-.982-.998Zm22.537 4.142-3.031 3.036-.991-.989 3.031-3.036.991.989Zm-47.7925-12.577 9.8768-9.785.9857.995-9.8772 9.785-.9853-.995Zm26.4665.206-6.959 6.973-.991-.989 6.959-6.973.991.989Zm-51.6112-8.637 13.6934-13.722.9909.989-13.6933 13.722-.991-.989Zm30.2857-3.735-10.8873 10.91-.9909-.989 10.8873-10.91.9909.989Zm-55.5397-4.701 17.6218-17.658.9909.989-17.6217 17.658-.991-.989Zm34.2122-7.557-14.8157 14.734-.9872-.993 14.8157-14.733.9872.992Zm-38.6172 29.353 9.2037-19.908 1.2708.588-9.2037 19.907-1.2708-.587Z" clip-rule="evenodd"/>
    <path fill="#177C1B" fill-rule="evenodd" d="m56.0953 168.881-20.54-3.261.2196-1.383 20.54 3.262-.2196 1.382Z" clip-rule="evenodd"/>
    <path fill="#177C1B" fill-rule="evenodd" d="m64.5851 151.726-7.7446 16.758-1.2708-.588 7.7445-16.758 1.2709.588Zm-63.2283 3.013L8.428 139.33l1.2725.584-7.0712 15.409-1.2724-.584Z" clip-rule="evenodd"/>
    <path fill="#177C1B" fill-rule="evenodd" d="M1.3224 154.829c.0021-.006.0042-.013.0064-.019l1.3284.442c-.1122.337-.1887.578-.1887.904 0 .346.0884.787.2516 1.126.2799.459.655.836 1.0403 1.126l.0087.006.0086.007c.4795.385 1.0667.683 1.7751.886l.0147.004.0144.005c.6583.22 1.4047.432 2.0262.536l-.2307 1.38c-.7204-.12-1.539-.355-2.2248-.584-.8529-.246-1.6046-.619-2.242-1.128-.5032-.379-1.016-.891-1.406-1.543l-.0138-.023-.012-.024c-.2783-.558-.4103-1.229-.4103-1.774 0-.564.1424-.992.2539-1.327Zm26.6043 9.666-20.54-3.15.2121-1.383 20.54 3.149-.2121 1.384Z" clip-rule="evenodd"/>
    <path fill="#177C1B" fill-rule="evenodd" d="m35.5631 165.621-7.6323-1.125.2041-1.385 7.6323 1.125-.2041 1.385Zm28.0586 4.386-7.5201-1.125.2071-1.384 7.5201 1.124-.2071 1.385Z" clip-rule="evenodd"/>
    <path fill="#177C1B" fill-rule="evenodd" d="m84.2683 173.268-20.6522-3.262.2184-1.383 20.6522 3.262-.2184 1.383Z" clip-rule="evenodd"/>
    <path fill="#177C1B" fill-rule="evenodd" d="m91.794 174.393-7.5201-1.124.2071-1.385 7.5201 1.125-.2071 1.384Z" clip-rule="evenodd"/>
    <path fill="#177C1B" fill-rule="evenodd" d="m112.444 177.542-20.652-3.149.211-1.384 20.652 3.149-.211 1.384Z" clip-rule="evenodd"/>
    <path fill="#177C1B" fill-rule="evenodd" d="m119.956 178.778-7.52-1.237.227-1.381 7.52 1.237-.227 1.381Z" clip-rule="evenodd"/>
    <path fill="#177C1B" fill-rule="evenodd" d="m140.503 181.929-20.54-3.15.213-1.383 20.54 3.149-.213 1.384Z" clip-rule="evenodd"/>
    <path fill="#177C1B" fill-rule="evenodd" d="m159.584 184.852-19.081-2.924.213-1.384 19.08 2.924-.212 1.384Zm8.318-1.437c.884-.508 1.676-1.286 2.085-2.24l-1.288-.551c-.264.618-.815 1.188-1.5 1.58l-.006.004-.006.003c-1.03.62-2.068.935-3.145 1.151l-.01.002-.01.003c-1.356.313-2.835.316-4.225.102l-.213 1.384c1.525.235 3.184.239 4.744-.12 1.163-.234 2.364-.592 3.574-1.318Z" clip-rule="evenodd"/>
    <path fill="#177C1B" fill-rule="evenodd" d="m177.049 165.785-7.183 15.521-1.27-.588 7.183-15.521 1.27.588Z" clip-rule="evenodd"/>
    <path fill="#177C1B" fill-rule="evenodd" d="M177.345 163.502c.043.108.106.287.106.527v.032c0 .319 0 .755-.148 1.201l-.052.156-.056.057a.0337.0337 0 0 0-.004.012c-.001.002-.002.004-.003.007-.012.038-.036.111-.07.184-.036.081-.099.198-.208.307l-.991-.989c-.053.053-.074.099-.076.104.001-.002.005-.011.019-.055.001-.002.002-.005.003-.007.012-.038.036-.111.07-.184.016-.036.037-.08.066-.126.045-.186.05-.392.05-.691-.001-.003-.003-.008-.006-.016-.004-.008-.006-.014-.009-.022a.1647.1647 0 0 1-.009-.022c-.008-.019-.02-.047-.031-.08a.9504.9504 0 0 1-.057-.318h1.4c0-.085-.021-.142-.022-.146 0-.001-.001-.001-.001-.001v-.001s.002.004.006.015c.001.002.002.004.003.008.005.012.013.032.02.048Zm-158.458-27.82.8979.225-.3402 1.358-.8979-.225.3402-1.358Z" clip-rule="evenodd"/>
    <path fill="#177C1B" fill-rule="evenodd" d="M14.0796 135.789c1.5593-.359 3.2184-.355 4.7438-.12l-.2133 1.383c-1.3894-.214-2.8692-.211-4.2252.103l-.0101.002-.0101.002c-1.0763.216-2.1142.532-3.144 1.151l-.0064.004-.0065.004c-.6848.392-1.2359.962-1.5 1.58l-1.2873-.551c.4083-.955 1.2011-1.733 2.0851-2.24 1.2094-.726 2.4107-1.084 3.574-1.318Zm105.3534 42.007 3.143-6.861 1.273.583-3.143 6.861-1.273-.583Zm23.599.154-1.796 3.599-1.253-.625 1.796-3.599 1.253.625Zm-51.7705-4.541 5.163-11.247 1.2719.584-5.1626 11.247-1.2723-.584Zm25.6265-4.25-3.704 7.986-1.27-.589 3.704-7.986 1.27.589Zm-53.7962-.142 7.2956-15.521 1.267.595-7.2956 15.521-1.267-.595Zm27.6463-8.633-5.7243 12.484-1.2726-.583 5.7243-12.485 1.2726.584Z" clip-rule="evenodd"/>
    <path fill="#177C1B" fill-rule="evenodd" d="m6.8573 160.36 11.224-24.294 1.2709.587-11.224 24.294-1.2709-.587Zm31.5759-17.408-9.7649 21.145-1.271-.587 9.7649-21.144 1.271.586Zm131.5748 15.749c.049.01.098.02.146.03l.016.003.017.004c.567.142.99.425 1.316.643.008.005.017.011.025.017l.057.038.049.049c.008.008.017.016.025.025.208.208.523.523.692.997.132.307.099.637.068.825-.036.213-.103.43-.184.604-.218.587-.758.907-1.007 1.031l-.148.074h-.008a1.012 1.012 0 0 1-.152.063c-.061.019-.123.032-.185.04-.554.214-1.054.338-1.661.347-.629.111-1.162.001-1.63-.096-.05-.01-.098-.02-.147-.03l-.016-.003-.016-.004c-.568-.142-.991-.425-1.316-.643-.009-.005-.017-.011-.025-.016l-.058-.039-.049-.049-.025-.025c-.207-.207-.523-.523-.692-.997-.131-.307-.098-.637-.067-.825.038-.231.114-.467.204-.647l.02-.039.024-.036c.166-.249.394-.472.618-.645.217-.167.474-.322.731-.411.59-.235 1.11-.372 1.748-.381.628-.111 1.161-.001 1.63.096Zm1.211 4.25c.001-.001.001-.001-.001 0h.001Zm-1.453-2.87c-.528-.107-.813-.164-1.183-.09l-.068.014h-.07c-.447 0-.805.084-1.311.287l-.019.008-.019.006c-.073.024-.2.091-.342.2-.121.093-.218.191-.28.273-.007.018-.016.04-.024.066-.015.049-.028.101-.036.149a.734.734 0 0 0-.009.082l.011.032c.049.148.141.26.344.465.309.206.54.348.83.423.033.007.064.013.095.019.529.107.814.164 1.184.09l.068-.014h.069c.447 0 .806-.084 1.311-.287l.126-.05h.051c.005-.003.011-.006.016-.009a.7816.7816 0 0 1 .162-.068c.054-.032.109-.07.156-.111.069-.062.091-.105.096-.12l.015-.047.023-.045c.008-.018.024-.053.039-.103.016-.049.029-.101.037-.149a.5213.5213 0 0 0 .008-.082l-.01-.032c-.049-.148-.141-.26-.344-.465-.309-.206-.54-.347-.831-.423-.032-.007-.064-.013-.095-.019Zm1.28.915V161v-.004Zm-4.64.104s-.001-.001-.001-.004l.001.004Z" clip-rule="evenodd"/>
    <path fill="#177C1B" d="m175.628 88.5597-.112-11.3596c0 .8998-.337 1.7995-.785 2.6993v2.2494c.112.4499.112.8998 0 1.3497l.112 5.1737c.224 1.7995-.674 3.4866-2.918 4.8362l-39.172 22.7186c-4.378 2.475-11.898 2.25-16.949-.675L78.3163 93.6209c-2.4693-1.4621-3.9284-3.2617-4.1529-5.0612 0-.3374-.1122 0 0-.3374l-.1122-9.3351c-.449-.8998-.7857-1.6871-.7857-2.5869l.1123 11.922.1122.8998c.449 1.912 2.0203 3.7115 4.3774 5.1736l37.6006 21.7063c2.806 1.687 6.51 2.475 9.989 2.475 2.918 0 5.724-.563 7.745-1.8l39.171-22.7187c2.358-1.2372 3.592-3.2616 3.255-5.3986Z"/>
    <path fill="#177C1B" d="M174.169 88.5599c.225 1.5746-.673 3.0367-2.469 4.049l-39.284 22.8321c-4.153 2.362-11.336 2.024-16.163-.675L78.6531 92.9463c-2.2448-1.2372-3.4794-2.8118-3.7039-4.4989v-8.5478c-.3367-.3374-.5612-.6748-.7857-1.1247l.1122 9.3351v.3374c.2245 1.7996 1.5713 3.5991 4.1529 5.0612l37.6004 21.7074c5.051 2.924 12.571 3.262 16.948.675l39.172-22.7198c2.133-1.2372 3.143-3.0367 2.918-4.8362l-.112-5.1737c-.112.5623-.337 1.2372-.786 1.7995v3.5991Zm.674-6.4106v-2.2494c-.112.2249-.337.4498-.561.6748.224.4499.449 1.0122.561 1.5746Z"/>
    <path fill="#F6A01D" d="m174.169 88.6725-.112-3.4866c-.449.6748-1.235 1.3496-2.133 1.912l-39.171 22.7191c-4.378 2.475-11.898 2.25-16.949-.674L78.2041 87.3228c-1.5714-.8997-2.6938-1.912-3.3672-3.0367v4.1614c.2244 1.5746 1.5713 3.1492 3.7039 4.4989l37.6002 21.7076c4.826 2.811 12.01 3.036 16.163.674l39.172-22.719c2.02-.8998 2.806-2.3619 2.693-3.9365ZM75.6226 78.5501c.3367-.3374.7856-.6748 1.3468-1.0122l.7857-.4499 1.3469-.7873 1.1224-.6748 36.0286-20.8072c4.378-2.4744 11.898-2.2494 16.949.6748l35.916 20.8072 1.347.7873.337.225c1.01.5623 1.908 1.2371 2.469 1.912.337-.4499.562-.8998.674-1.4622 0-.2249.112-.4498.112-.6748 0-.2249 0-.5623-.112-.7873-.337-1.4621-1.684-2.9242-3.592-4.049L132.64 50.5448c-2.581-1.5746-6.061-2.2494-9.203-2.2494-2.582 0-5.163.5623-6.959 1.5746L77.3062 72.5892c-1.4592.7873-2.2449 1.912-2.4693 3.0367v.7873c0 .2249.1122.5623.1122.7873.1123.4499.3367.8998.6735 1.3496Z"/>
    <path fill="#FDEDCC" d="M174.843 82.1491c-.112-.5623-.337-1.0122-.561-1.5746-.113.1125-.113.1125-.225.225-.449.4499-1.01.8997-1.796 1.3496l-39.172 22.6069c-2.02 1.237-4.826 1.8-7.744 1.8-3.48 0-7.184-.788-9.99-2.475L77.7551 82.3741c-1.2346-.6749-2.1326-1.4622-2.9182-2.3619v4.2739c.6734 1.1247 1.7958 2.1369 3.3672 3.0367L115.804 109.03c5.051 2.924 12.571 3.262 16.949.675l39.171-22.7196c.898-.5624 1.684-1.2372 2.133-1.912.449-.5624.674-1.1247.786-1.7996v-1.1247Z"/>
    <path fill="#FDEDCC" d="m78.5409 81.0243 37.6001 21.7067c4.826 2.811 12.01 3.036 16.163.675l39.172-22.7192c.785-.4498 1.346-.8997 1.795-1.4621-.673-.6748-1.459-1.3496-2.469-1.912l-.337-.2249-1.347-.7873-35.916-20.8072c-5.051-2.9243-12.571-3.2617-16.949-.6749L80.2245 75.7381l-1.1224.6748-1.3469.7873-.7857.4499c-.5612.3374-1.0101.6748-1.3469 1.0123.6735.7873 1.6836 1.687 2.9183 2.3619Z"/>
    <path fill="#177C1B" d="M73.1533 76.1879v.1125-.1125c0-.1125.1122-.1125 0 0Zm3.8161-4.2736 39.1716-22.7192c4.377-2.4744 11.898-2.2495 16.948.6748l37.601 21.7069c2.694 1.5746 4.153 3.5991 4.153 5.5111h.785c0-2.2494-1.683-4.4987-4.489-6.1858l-37.713-21.707c-5.275-3.0368-13.132-3.3742-17.734-.6749L76.5205 71.2394c-1.9081 1.1247-3.0305 2.6994-3.255 4.3865h.7857c.2245-1.4621 1.1224-2.6994 2.9182-3.7116Zm-2.1325 7.5356c.1122-.1125.2245-.225.2245-.3374-.1123-.1125-.2245-.3375-.3368-.4499v1.2372l.1123-.4499Zm99.1081.7872v-.5623c-.112.1124-.112.2249-.225.3374.113 0 .225.1125.225.2249Z"/>
    <path fill="#177C1B" d="M73.939 76.4133v-.7873h-.7857v.6749c0 .8997.3367 1.7995.7857 2.5868v-2.4744Zm100.792 1.4619v1.912c.561-.7873.785-1.6871.785-2.6993h-.785v.7873Zm-99.894.787c-.449-.7873-.7857-1.5746-.7857-2.3619v2.4744c.2245.3374.4489.7873.7857 1.1247v-1.2372Zm99.108.8999v.5623c.112.1125.112.225.224.3375.225-.225.337-.4499.562-.6749v-1.912c-.113.6748-.337 1.2372-.786 1.6871Zm-96.6387-6.9732 39.1717-22.7192c1.908-1.1247 4.377-1.5746 6.959-1.5746 3.142 0 6.622.7873 9.203 2.2495l37.601 21.7069c2.02 1.1247 3.255 2.5869 3.592 4.049h.785v.7873h.113c0-1.912-1.347-3.9365-4.153-5.5111l-37.489-21.707c-5.05-2.9242-12.571-3.2616-16.948-.6748L76.9695 71.9141c-1.7958 1.0122-2.6937 2.3619-2.9182 3.7116h.7857c.2244-1.1248 1.0101-2.2495 2.4693-3.0368Z"/>
    <path fill="#177C1B" d="M174.731 77.2004v-.7873h-.786c.112.2249.112.5623.112.7873h.674Zm-1.46 2.1369c.225.2249.337.4499.562.5623.112-.1124.112-.2249.224-.3374v-1.7995c-.224.5623-.449 1.0122-.786 1.5746ZM75.6225 78.55c-.3367-.4499-.5612-.8998-.6734-1.4621h-.1122v1.5746c.1122.1125.2244.3374.3367.4499.1122-.1125.2245-.3374.4489-.5624Zm99.1085-.675c0-.2249.112-.4498.112-.6748h-.112v.6748ZM74.7248 76.1884v-.5624h-.7857v.7873h.7857v-.2249Z"/>
    <path fill="#177C1B" d="M174.057 77.2002c0 .225 0 .4499-.112.6748v1.7996c.337-.5624.673-1.1247.786-1.6871v-.6748l-.674-.1125Zm-99.3323.0002h.1123c-.1123-.225-.1123-.5624-.1123-.7873h-.6734c0 .7873.3367 1.5746.7857 2.3619l-.1123-1.5746Zm97.0873 4.2738L132.64 104.194c-4.377 2.474-11.897 2.249-16.948-.675L78.0918 81.6991c-1.3468-.7873-2.357-1.687-3.0305-2.5868-.1122.1125-.2244.2249-.2244.3374v.5624c.7856.8997 1.6836 1.687 2.9182 2.3619l37.5999 21.707c2.806 1.687 6.51 2.475 9.99 2.475 2.918 0 5.724-.563 7.744-1.8l39.172-22.7194c.674-.4499 1.235-.8998 1.796-1.3497v-.5624c-.112-.1124-.112-.2249-.224-.3374-.562.6749-1.123 1.2372-2.021 1.6871Z"/>
    <path fill="#177C1B" d="M174.169 80.5747c-.112-.1125-.112-.225-.224-.3374v.5623c.112-.1125.224-.1125.224-.2249Zm-2.693.2245-39.172 22.7198c-4.153 2.362-11.337 2.024-16.163-.675L78.5409 81.0242c-1.2346-.7873-2.2448-1.5746-2.9182-2.4744l-.5613.5624c.6735.8997 1.6837 1.7995 3.0305 2.5868l37.6001 21.707c5.051 2.925 12.571 3.262 16.948.675l39.172-22.7194c.786-.4499 1.459-1.0122 1.908-1.5746-.112-.2249-.336-.4499-.561-.5624-.337.5624-.898 1.1248-1.683 1.5746Z"/>
    <path fill="#177C1B" d="M124.447 106.217v11.585h5.163l43.549-25.3057 1.796-2.9243v-10.01l-42.876 25.531-5.163 1.124h-2.469Z"/>
    <path fill="#FDEDCC" d="M195.607 48.6326c-.898-.4499-2.133-.4499-3.48.3374l-42.876 25.0811c-1.01.5624-1.908 1.4621-2.693 2.4744l7.408 4.4988c1.122-2.4743 2.806-4.6113 4.714-5.736l41.192-24.0689-4.041-2.3619-.224-.2249Z"/>
    <path fill="#F6A01D" d="M195.607 48.6326c.112.1125.224.1125.336.225l4.041 2.3619 1.347-.7873c.561-.225 1.235-.5624 1.796-.5624l-8.194-5.0612c-.112 0-.112-.1125-.224-.1125-.786-.4499-1.796 0-2.469.3374l-42.315 24.5188c-2.582 1.3496-4.153 3.4866-5.051 5.8485l.674.4499.224.1124.786.4499c.785-1.0122 1.683-1.912 2.693-2.4743L192.127 48.97c1.347-.6748 2.47-.7873 3.48-.3374Zm6.397 3.5991-42.426 24.7437c-2.694 1.5746-5.051 6.0734-5.051 9.785v37.5656l.224 11.922c.112.338.225.675.449 1.012.225.338.449.675.786.788h.112c.449.225 1.01.225 1.571 0 .337-.113.562-.225.786-.338l43.886-25.531c2.694-1.574 5.051-6.073 5.051-9.785V55.8308c-.224-3.7116-2.582-5.0612-5.388-3.5991Z"/>
    <path fill="#177C1B" d="M206.382 50.0947c-.112-.1125-.225-.1125-.337-.1125-.112-.1124-.224-.1124-.224-.2249l-9.653-5.8485c-.112-.1125-.225-.225-.449-.225-1.347-.6748-3.031-.5623-4.602.3374l-42.876 24.9687c-3.367 2.0245-6.061 7.0857-6.061 11.5845V127.25c0 2.699 1.01 4.723 2.694 5.623l10.214 6.186s.112 0 .112.112l.786.45.112-.112c.337.112.674.112 1.123.112.897 0 1.795-.225 2.806-.787l42.875-24.969c3.368-2.024 6.061-7.085 6.061-11.584V55.6058c0-2.5868-.898-4.6113-2.581-5.5111Zm-56.457 19.57L192.24 45.146c.673-.3375 1.571-.7873 2.469-.3375.112 0 .112.1125.224.1125l8.194 5.0612c-.561 0-1.347.225-1.796.5624l-1.347.7873-41.192 24.0688c-1.908 1.1248-3.704 3.2617-4.714 5.7361l-7.408-4.4989-.786-.4499-.224-.1124-.674-.4499c.786-2.3619 2.357-4.4989 4.939-5.961Zm57.243 32.7283c0 3.712-2.358 8.211-5.051 9.785l-43.886 25.531c-.225.113-.562.338-.786.338-.449.112-1.01.225-1.571 0h-.113c-.336-.113-.561-.45-.785-.788-.113-.337-.337-.674-.449-1.012l-.225-11.922V86.7603c0-3.7115 2.357-8.2104 5.051-9.785l42.427-24.7436c2.806-1.4622 5.163-.1125 5.163 3.599v46.5623h.225Z"/>
  </g>
  <defs>
    <clipPath id="a">
      <path fill="#fff" d="M0 0h209v220H0z"/>
    </clipPath>
  </defs>
</svg>
