<svg xmlns="http://www.w3.org/2000/svg" fill="none" viewBox="0 0 157 220">
  <g clip-path="url(#a)">
    <path fill="#177C1B" d="M66.7687 171.39c.624.375.624.999 0 1.374-.624.375-1.7472.375-2.496 0-.624-.375-.624-.999 0-1.374.7488-.375 1.872-.375 2.496 0Zm-7.6128-1.998c.965 0 1.7472-.448 1.7472-1s-.7822-.999-1.7472-.999c-.9649 0-1.7472.447-1.7472.999s.7823 1 1.7472 1Zm-11.4817-1.624c.624.374.624.999 0 1.374-.624.374-1.7472.374-2.496 0-.624-.375-.624-1 0-1.374.7488-.375 1.872-.375 2.496 0Zm6.3648-3.747c.6241.374.6241.999 0 1.374-.624.374-1.7472.374-2.496 0-.624-.375-.624-1 0-1.374.7488-.375 1.872-.375 2.496 0Zm-20.3426 5.371c.965 0 1.7473-.448 1.7473-1s-.7823-.999-1.7473-.999c-.9649 0-1.7472.447-1.7472.999s.7823 1 1.7472 1Zm6.3648-3.623c.9649 0 1.7472-.447 1.7472-.999s-.7823-.999-1.7472-.999c-.965 0-1.7472.447-1.7472.999s.7822.999 1.7472.999Zm6.365-3.747c.965 0 1.7472-.447 1.7472-.999s-.7822-.999-1.7472-.999c-.965 0-1.7472.447-1.7472.999s.7822.999 1.7472.999Zm-24.3365 5.746c.624.374.624.999 0 1.374-.624.374-1.7472.374-2.496 0-.624-.375-.624-1 0-1.374.7488-.375 1.872-.375 2.496 0Zm6.4899-3.747c.624.374.624.999 0 1.374-.624.374-1.7472.374-2.496 0-.6241-.375-.6241-1 0-1.374.624-.375 1.7472-.375 2.496 0Zm6.3646-3.623c.624.375.624 1 0 1.374-.624.375-1.7472.375-2.496 0-.624-.374-.624-.999 0-1.374.7488-.499 1.7472-.499 2.496 0Zm6.365-3.747c.624.375.624.999 0 1.374-.624.375-1.7472.375-2.496 0-.624-.375-.624-.999 0-1.374.7488-.375 1.7472-.375 2.496 0Zm-26.8323 8.993c.965 0 1.7472-.447 1.7472-.999s-.7822-.999-1.7472-.999c-.9649 0-1.7472.447-1.7472.999s.7823.999 1.7472.999Zm7.6128-5.371c.624.375.624 1 0 1.374-.624.375-1.7472.375-2.496 0-.624-.374-.624-.999 0-1.374.7488-.374 1.872-.374 2.496 0Zm6.365-3.622c.624.375.624.999 0 1.374-.624.375-1.7472.375-2.496 0-.624-.375-.624-.999 0-1.374.7488-.375 1.872-.375 2.496 0Zm6.3649-3.747c.624.375.624.999 0 1.374-.624.375-1.7473.375-2.4961 0-.624-.375-.624-.999 0-1.374.7488-.375 1.8721-.375 2.4961 0ZM9.36 160.273c.624.375.624 1 0 1.374-.624.375-1.7472.375-2.496 0-.624-.374-.624-.999 0-1.374.7488-.374 1.7472-.374 2.496 0Zm6.3651-3.622c.624.375.624.999 0 1.374-.6241.375-1.7473.375-2.4961 0-.624-.375-.624-.999 0-1.374.624-.375 1.7472-.375 2.4961 0Zm5.1166-1.998c.965 0 1.7472-.448 1.7472-.999 0-.552-.7822-1-1.7472-1-.9649 0-1.7472.448-1.7472 1 0 .551.7823.999 1.7472.999Zm6.365-3.747c.965 0 1.7472-.448 1.7472-1s-.7822-.999-1.7472-.999c-.965 0-1.7472.447-1.7472.999s.7822 1 1.7472 1Zm-25.4595 7.369c.965 0 1.7472-.447 1.7472-.999s-.7822-1-1.7472-1c-.9649 0-1.7472.448-1.7472 1s.7823.999 1.7472.999Zm7.6128-5.371c.624.375.624.999 0 1.374-.624.375-1.7472.375-2.496 0-.624-.375-.624-.999 0-1.374.7488-.375 1.7472-.375 2.496 0Zm6.3651-3.622c.624.374.624.999 0 1.374-.6241.374-1.7473.374-2.4961 0-.624-.375-.624-1 0-1.374.7488-.375 1.7472-.375 2.4961 0Zm6.3646-3.747c.624.374.624.999 0 1.374-.624.374-1.7472.374-2.496 0-.624-.375-.624-1 0-1.374.624-.375 1.872-.375 2.496 0Zm-20.3425 5.371c.965 0 1.7472-.448 1.7472-1s-.7822-.999-1.7472-.999c-.9649 0-1.7472.447-1.7472.999s.7823 1 1.7472 1Zm6.365-3.623c.9649 0 1.7472-.447 1.7472-.999s-.7823-.999-1.7472-.999c-.965 0-1.7472.447-1.7472.999s.7822.999 1.7472.999Zm6.3647-3.747c.965 0 1.7472-.447 1.7472-.999s-.7822-.999-1.7472-.999c-.9649 0-1.7472.447-1.7472.999s.7823.999 1.7472.999Zm58.7813 24.232c.6241.374.6241.999 0 1.374-.624.374-1.7472.374-2.496 0-.624-.375-.624-1 0-1.374.7488-.375 1.7472-.375 2.496 0Zm5.1169-1.999c.965 0 1.7472-.447 1.7472-.999s-.7822-.999-1.7472-.999c-.965 0-1.7472.447-1.7472.999s.7822.999 1.7472.999Zm6.365-3.747c.9649 0 1.7472-.447 1.7472-.999s-.7823-.999-1.7472-.999c-.965 0-1.7472.447-1.7472.999s.7822.999 1.7472.999Zm6.3648-3.622c.965 0 1.747-.448 1.747-.999 0-.552-.782-1-1.747-1-.965 0-1.747.448-1.747 1 0 .551.782.999 1.747.999Zm6.49-3.747c.965 0 1.747-.448 1.747-.999 0-.552-.782-1-1.747-1-.965 0-1.748.448-1.748 1 0 .551.783.999 1.748.999Zm7.6131-5.371c.624.374.624.999 0 1.374-.625.374-1.748.374-2.497 0-.624-.375-.624-1 0-1.374.624-.375 1.748-.375 2.497 0Zm6.364-2.248c-.624.374-1.747.374-2.496 0-.624-.375-.624-1 0-1.374.624-.375 1.748-.375 2.496 0 .624.374.624.999 0 1.374Zm-47.1746 16.987c.6241-.375 1.7473-.375 2.4961 0 .624.374.624.999 0 1.374-.624.374-1.7472.374-2.4961 0-.624-.25-.624-.875 0-1.374Zm8.8608-3.623c.6241.375.6241 1 0 1.374-.624.375-1.7472.375-2.496 0-.624-.374-.624-.999 0-1.374.7488-.374 1.7472-.374 2.496 0Zm6.365-3.747c.624.375.624.999 0 1.374-.624.375-1.7472.375-2.496 0-.624-.375-.624-.999 0-1.374.7488-.375 1.872-.375 2.496 0Zm5.1169-1.998c.9649 0 1.7472-.448 1.7472-.999 0-.552-.7823-1-1.7472-1-.965 0-1.7472.448-1.7472 1 0 .551.7822.999 1.7472.999Zm6.3648-3.623c.965 0 1.747-.447 1.747-.999s-.782-.999-1.747-.999c-.965 0-1.747.447-1.747.999s.782.999 1.747.999Zm6.49-3.747c.965 0 1.747-.447 1.747-.999s-.782-.999-1.747-.999c-.965 0-1.748.447-1.748.999s.783.999 1.748.999Zm6.3641-3.622c.965 0 1.748-.447 1.748-.999s-.783-.999-1.748-.999-1.747.447-1.747.999.782.999 1.747.999Zm6.365-3.747c.965 0 1.748-.447 1.748-.999s-.783-.999-1.748-.999-1.747.447-1.747.999.782.999 1.747.999Zm-52.2913 20.484c.624-.374 1.7472-.374 2.496 0 .624.375.624 1 0 1.374-.624.375-1.7472.375-2.496 0-.624-.374-.624-.999 0-1.374Zm8.8608-3.747c.624.375.624.999 0 1.374-.624.375-1.7472.375-2.4961 0-.624-.375-.624-.999 0-1.374.7489-.375 1.7473-.375 2.4961 0Zm5.1169-1.998c.965 0 1.7473-.448 1.7473-.999 0-.552-.7823-1-1.7473-1-.9649 0-1.7472.448-1.7472 1 0 .551.7823.999 1.7472.999Zm7.6128-5.371c.624.374.624.999 0 1.374-.624.374-1.7472.374-2.496 0-.624-.375-.624-1 0-1.374.7488-.375 1.872-.375 2.496 0Zm6.3648-3.622c.624.374.624.999 0 1.374-.624.374-1.7472.374-2.496 0-.6241-.375-.6241-1 0-1.374.7488-.375 1.872-.375 2.496 0Zm6.3649-3.747c.624.374.624.999 0 1.373-.624.375-1.747.375-2.496 0-.624-.374-.624-.999 0-1.373.749-.375 1.872-.375 2.496 0Zm6.365-3.623c.624.375.624.999 0 1.374-.624.375-1.747.375-2.496 0-.624-.375-.624-.999 0-1.374.749-.375 1.872-.375 2.496 0Zm6.4901-3.747c.624.375.624.999 0 1.374-.625.375-1.748.375-2.497 0-.624-.375-.624-.999 0-1.374.624-.375 1.748-.375 2.497 0Zm6.364-3.622c.624.375.624.999 0 1.374-.624.374-1.747.374-2.496 0-.624-.375-.624-.999 0-1.374.749-.375 1.748-.375 2.496 0Zm5.117-1.999c.965 0 1.747-.447 1.747-.999s-.782-.999-1.747-.999c-.965 0-1.747.447-1.747.999s.782.999 1.747.999Zm6.365-3.747c.965 0 1.747-.447 1.747-.999s-.782-.999-1.747-.999c-.965 0-1.747.447-1.747.999s.782.999 1.747.999Zm6.365-3.622c.965 0 1.747-.447 1.747-.999s-.782-1-1.747-1c-.965 0-1.747.448-1.747 1s.782.999 1.747.999Zm6.365-3.747c.965 0 1.747-.448 1.747-.999 0-.552-.782-1-1.747-1-.965 0-1.747.448-1.747 1 0 .551.782.999 1.747.999Zm6.489-3.622c.965 0 1.748-.448 1.748-1s-.783-.999-1.748-.999c-.964 0-1.747.447-1.747.999s.783 1 1.747 1Zm-90.6053 42.467c.6241-.375 1.7473-.375 2.4961 0 .624.375.624.999 0 1.374-.624.375-1.7472.375-2.4961 0-.624-.25-.7488-.999 0-1.374Zm8.861-3.622c.624.375.624.999 0 1.374-.624.375-1.7472.375-2.496 0-.624-.375-.624-.999 0-1.374.624-.375 1.7472-.375 2.496 0Zm6.3648-3.747c.624.374.624.999 0 1.374-.624.374-1.7472.374-2.4961 0-.624-.375-.624-1 0-1.374.7489-.375 1.7473-.375 2.4961 0Zm6.3647-3.622c.6241.374.6241.999 0 1.374-.624.374-1.7472.374-2.496 0-.624-.375-.624-1 0-1.374.7488-.375 1.7472-.375 2.496 0Zm5.1169-1.999c.965 0 1.7472-.447 1.7472-.999s-.7822-.999-1.7472-.999c-.965 0-1.7472.447-1.7472.999s.7822.999 1.7472.999Zm6.365-3.747c.9649 0 1.7472-.447 1.7472-.999s-.7823-.999-1.7472-.999c-.965 0-1.7472.447-1.7472.999s.7822.999 1.7472.999Zm6.3648-3.622c.965 0 1.747-.448 1.747-1 0-.551-.782-.999-1.747-.999-.965 0-1.747.448-1.747.999 0 .552.782 1 1.747 1Zm6.49-3.747c.965 0 1.747-.448 1.747-1 0-.551-.782-.999-1.747-.999-.965 0-1.748.448-1.748.999 0 .552.783 1 1.748 1Zm6.3641-3.623c.965 0 1.748-.447 1.748-.999s-.783-.999-1.748-.999-1.747.447-1.747.999.782.999 1.747.999Zm7.613-5.371c.624.375.624 1 0 1.374-.624.375-1.747.375-2.496 0-.624-.374-.624-.999 0-1.374.749-.374 1.748-.374 2.496 0Zm6.365-3.747c.624.375.624.999 0 1.374-.624.375-1.747.375-2.496 0-.624-.375-.624-.999 0-1.374.749-.374 1.747-.374 2.496 0Zm6.365-3.622c.624.375.624.999 0 1.374-.624.375-1.747.375-2.496 0-.624-.375-.624-.999 0-1.374.749-.5 1.872-.5 2.496 0Zm5.117-1.998c.965 0 1.747-.448 1.747-1s-.782-.999-1.747-.999c-.965 0-1.747.447-1.747.999s.782 1 1.747 1Zm6.365-3.748c.965 0 1.747-.447 1.747-.999s-.782-.999-1.747-.999c-.965 0-1.747.447-1.747.999s.782.999 1.747.999Zm6.489-3.622c.965 0 1.748-.447 1.748-.999s-.783-.999-1.748-.999c-.964 0-1.747.447-1.747.999s.783.999 1.747.999Zm-96.9702 46.215c.6241-.375 1.7473-.375 2.4961 0 .624.375.624.999 0 1.374-.624.375-1.7472.375-2.4961 0-.7488-.375-.7488-.999 0-1.374Zm7.6129-1.999c.965 0 1.7473-.447 1.7473-.999s-.7823-.999-1.7473-.999c-.9649 0-1.7472.447-1.7472.999s.7823.999 1.7472.999Zm6.3649-3.747c.965 0 1.7472-.447 1.7472-.999s-.7822-.999-1.7472-.999c-.965 0-1.7472.447-1.7472.999s.7822.999 1.7472.999Zm6.3648-3.622c.9649 0 1.7472-.447 1.7472-.999s-.7823-.999-1.7472-.999c-.965 0-1.7472.447-1.7472.999s.7822.999 1.7472.999Zm7.6128-5.371c.6241.375.6241.999 0 1.374-.624.375-1.7472.375-2.496 0-.624-.375-.624-.999 0-1.374.7488-.375 1.7472-.375 2.496 0Zm6.365-3.747c.624.375.624.999 0 1.374-.624.375-1.7472.375-2.496 0-.624-.375-.624-.999 0-1.374.7488-.375 1.872-.375 2.496 0Zm6.3648-3.622c.624.375.624.999 0 1.374-.624.374-1.7472.374-2.496 0-.6241-.375-.6241-.999 0-1.374.7488-.375 1.872-.375 2.496 0Zm5.1169-1.999c.965 0 1.747-.447 1.747-.999s-.782-.999-1.747-.999c-.965 0-1.747.447-1.747.999s.782.999 1.747.999Zm6.49-3.747c.965 0 1.747-.447 1.747-.999s-.782-.999-1.747-.999c-.965 0-1.748.447-1.748.999s.783.999 1.748.999Zm6.3641-3.622c.965 0 1.748-.447 1.748-.999s-.783-1-1.748-1-1.747.448-1.747 1 .782.999 1.747.999Zm6.365-3.747c.965 0 1.748-.448 1.748-.999 0-.552-.783-1-1.748-1s-1.747.448-1.747 1c0 .551.782.999 1.747.999Zm7.613-5.371c.624.375.624.999 0 1.374-.624.375-1.747.375-2.496 0-.624-.375-.624-.999 0-1.374.749-.375 1.747-.375 2.496 0Zm6.365-3.622c.624.374.624.999 0 1.374-.624.374-1.747.374-2.496 0-.624-.375-.624-1 0-1.374.749-.5 1.872-.5 2.496 0Zm5.117-1.999c.965 0 1.747-.447 1.747-.999s-.782-.999-1.747-.999c-.965 0-1.747.447-1.747.999s.782.999 1.747.999Zm7.613-5.371c.624.375.624 1 0 1.374-.624.375-1.747.375-2.496 0-.624-.374-.624-.999 0-1.374.749-.499 1.872-.499 2.496 0ZM40.0612 151.03c.9649 0 1.7472-.447 1.7472-.999s-.7823-.999-1.7472-.999c-.965 0-1.7472.447-1.7472.999s.7822.999 1.7472.999Zm6.365-3.747c.965 0 1.7472-.447 1.7472-.999s-.7822-.999-1.7472-.999c-.965 0-1.7472.447-1.7472.999s.7822.999 1.7472.999Zm6.3647-3.622c.965 0 1.7473-.447 1.7473-.999s-.7823-.999-1.7473-.999c-.9649 0-1.7472.447-1.7472.999s.7823.999 1.7472.999Zm6.365-3.747c.965 0 1.7472-.447 1.7472-.999s-.7822-.999-1.7472-.999c-.9649 0-1.7472.447-1.7472.999s.7823.999 1.7472.999Zm7.6128-5.371c.624.375.624.999 0 1.374-.624.375-1.7472.375-2.496 0-.624-.375-.624-.999 0-1.374.7488-.375 1.872-.375 2.496 0Zm6.3647-3.747c.624.375.624.999 0 1.374-.624.375-1.7472.375-2.496 0-.624-.375-.624-.999 0-1.374.7488-.375 1.872-.375 2.496 0Zm6.4898-3.622c.624.374.624.999 0 1.374-.624.374-1.7472.374-2.496 0-.624-.375-.624-1 0-1.374.624-.375 1.7472-.375 2.496 0Zm5.1169-1.999c.9649 0 1.7472-.447 1.7472-.999s-.7823-.999-1.7472-.999c-.965 0-1.7472.447-1.7472.999s.7822.999 1.7472.999Zm6.3648-3.747c.965 0 1.747-.447 1.747-.999s-.782-.999-1.747-.999c-.965 0-1.747.447-1.747.999s.782.999 1.747.999Zm6.365-3.622c.965 0 1.747-.448 1.747-.999 0-.552-.782-1-1.747-1-.965 0-1.747.448-1.747 1 0 .551.782.999 1.747.999Zm6.3651-3.747c.965 0 1.747-.448 1.747-1 0-.551-.782-.999-1.747-.999-.965 0-1.748.448-1.748.999 0 .552.783 1 1.748 1Zm6.365-3.623c.965 0 1.747-.447 1.747-.999s-.782-.999-1.747-.999c-.965 0-1.748.447-1.748.999s.783.999 1.748.999Zm7.612-5.37c.624.374.624.999 0 1.374-.624.374-1.747.374-2.496 0-.624-.375-.624-1 0-1.374.749-.375 1.872-.375 2.496 0Zm6.365-3.748c.624.375.624 1 0 1.374-.624.375-1.747.375-2.496 0-.624-.374-.624-.999 0-1.374.624-.374 1.872-.374 2.496 0Zm6.49-3.6219c.624.3747.624.9993 0 1.374-.624.3747-1.747.3747-2.496 0-.624-.3747-.624-.9993 0-1.374.624-.3747 1.747-.3747 2.496 0ZM32.4482 145.535c.624-.375 1.7472-.375 2.496 0 .624.374.624.999 0 1.374-.624.374-1.7472.374-2.496 0-.624-.25-.624-.875 0-1.374Zm8.861-3.622c.624.374.624.999 0 1.373-.624.375-1.7472.375-2.496 0-.624-.374-.624-.999 0-1.373.7488-.375 1.7472-.375 2.496 0Zm5.117-1.999c.965 0 1.7472-.447 1.7472-.999s-.7822-.999-1.7472-.999c-.965 0-1.7472.447-1.7472.999s.7822.999 1.7472.999Zm7.6128-5.371c.6241.375.6241.999 0 1.374-.624.375-1.7472.375-2.496 0-.624-.375-.624-.999 0-1.374.7488-.375 1.872-.375 2.496 0Zm5.1169-1.998c.965 0 1.7472-.448 1.7472-1 0-.551-.7822-.999-1.7472-.999-.9649 0-1.7472.448-1.7472.999 0 .552.7823 1 1.7472 1Zm7.6128-5.371c.624.374.624.999 0 1.374-.624.374-1.7472.374-2.496 0-.624-.375-.624-1 0-1.374.7488-.375 1.872-.375 2.496 0Zm3.9936-3.747c.624-.375 1.7472-.375 2.496 0 .6241.374.6241.999 0 1.374-.624.374-1.7472.374-2.496 0-.7488-.25-.7488-1 0-1.374-.7488.374.624-.375 0 0Zm7.6128-1.999c.965 0 1.7472-.447 1.7472-.999s-.7822-.999-1.7472-.999c-.965 0-1.7472.447-1.7472.999s.7822.999 1.7472.999Zm6.365-3.622c.9649 0 1.7472-.448 1.7472-.999 0-.552-.7823-1-1.7472-1-.965 0-1.7472.448-1.7472 1 0 .551.7822.999 1.7472.999Zm7.6128-5.371c.624.375.624.999 0 1.374-.624.375-1.747.375-2.496 0-.624-.375-.624-.999 0-1.374.749-.375 1.747-.375 2.496 0Zm6.365-3.747c.624.374.624.999 0 1.374-.624.374-1.747.374-2.496 0-.624-.375-.624-1 0-1.374.749-.375 1.872-.375 2.496 0Zm6.3651-3.622c.624.374.624.999 0 1.374-.624.374-1.748.374-2.496 0-.624-.375-.624-1 0-1.374.748-.375 1.872-.375 2.496 0Zm6.365-3.748c.624.375.624 1 0 1.374-.624.375-1.748.375-2.496 0-.624-.374-.624-.999 0-1.374.748-.374 1.872-.374 2.496 0Zm5.241-1.9982c.965 0 1.747-.4474 1.747-.9993 0-.5518-.782-.9992-1.747-.9992-.965 0-1.747.4474-1.747.9992 0 .5519.782.9993 1.747.9993ZM26.0836 141.913c.624-.375 1.7472-.375 2.496 0 .624.374.624.999 0 1.373-.624.375-1.7472.375-2.496 0-.6241-.374-.6241-.999 0-1.373Zm7.6128-1.999c.965 0 1.7473-.447 1.7473-.999s-.7823-.999-1.7473-.999c-.9649 0-1.7472.447-1.7472.999s.7823.999 1.7472.999Zm6.3648-3.622c.9649 0 1.7472-.448 1.7472-1 0-.551-.7823-.999-1.7472-.999-.965 0-1.7472.448-1.7472.999 0 .552.7822 1 1.7472 1Zm6.365-3.747c.965 0 1.7472-.448 1.7472-1 0-.551-.7822-.999-1.7472-.999-.965 0-1.7472.448-1.7472.999 0 .552.7822 1 1.7472 1Zm-26.7076 5.62c.624-.374 1.7472-.374 2.496 0 .624.375.624 1 0 1.374-.624.375-1.7472.375-2.496 0-.7488-.25-.7488-.874 0-1.374Zm8.861-3.622c.624.375.624.999 0 1.374-.624.375-1.7472.375-2.496 0-.6241-.375-.6241-.999 0-1.374.624-.375 1.7472-.375 2.496 0ZM148.888 191c.965 0 1.747-.447 1.747-.999s-.782-1-1.747-1c-.965 0-1.747.448-1.747 1s.782.999 1.747.999Zm6.365-3.622c.965 0 1.747-.448 1.747-1 0-.551-.782-.999-1.747-.999-.965 0-1.747.448-1.747.999 0 .552.782 1 1.747 1Zm-17.847 1.998c.624.375.624.999 0 1.374-.624.375-1.747.375-2.496 0-.624-.375-.624-.999 0-1.374.624-.499 1.747-.499 2.496 0Zm6.365-3.747c.624.375.624.999 0 1.374-.624.375-1.747.375-2.496 0-.624-.375-.624-.999 0-1.374.624-.375 1.747-.375 2.496 0Zm5.117-1.998c.965 0 1.747-.448 1.747-1 0-.551-.782-.999-1.747-.999-.965 0-1.747.448-1.747.999 0 .552.782 1 1.747 1Zm6.365-3.623c.965 0 1.747-.447 1.747-.999s-.782-.999-1.747-.999c-.965 0-1.747.447-1.747.999s.782.999 1.747.999Zm-25.46 7.37c.965 0 1.748-.448 1.748-1 0-.551-.783-.999-1.748-.999s-1.747.448-1.747.999c0 .552.782 1 1.747 1Zm6.365-3.747c.965 0 1.747-.448 1.747-1 0-.551-.782-.999-1.747-.999-.965 0-1.747.448-1.747.999 0 .552.782 1 1.747 1Zm7.613-5.371c.624.374.624.999 0 1.374-.624.374-1.747.374-2.496 0-.749-.375-.624-1 0-1.374.749-.375 1.747-.375 2.496 0Zm6.365-3.622c.624.374.624.999 0 1.373-.624.375-1.747.375-2.496 0-.624-.374-.624-.999 0-1.373.749-.5 1.747-.5 2.496 0Zm-25.584 7.369c.624.375.624.999 0 1.374-.624.375-1.748.375-2.496 0-.624-.375-.624-.999 0-1.374.748-.5 1.872-.5 2.496 0Zm6.365-3.747c.624.374.624.999 0 1.374-.624.374-1.748.374-2.496 0-.624-.375-.624-1 0-1.374.748-.375 1.872-.375 2.496 0Zm6.489-3.622c.624.374.624.999 0 1.373-.624.375-1.747.375-2.496 0-.624-.374-.624-.999 0-1.373.624-.5 1.747-.5 2.496 0Zm6.365-2.374c-.624.375-1.747.375-2.496 0-.624-.374-.624-.999 0-1.374.749-.374 3.12 1 2.496 1.374Zm-26.832 7.744c.965 0 1.747-.447 1.747-.999s-.782-.999-1.747-.999c-.965 0-1.747.447-1.747.999s.782.999 1.747.999Zm6.489-3.747c.965 0 1.748-.447 1.748-.999s-.783-.999-1.748-.999c-.964 0-1.747.447-1.747.999s.783.999 1.747.999Zm6.365-3.622c.965 0 1.748-.447 1.748-.999s-.783-.999-1.748-.999-1.747.447-1.747.999.782.999 1.747.999Zm7.613-3.997c-.624.375-1.747.375-2.496 0-.624-.375-.624-.999 0-1.374.624-.499 3.12.999 2.496 1.374Zm-26.832 7.619c.965 0 1.747-.447 1.747-.999s-.782-.999-1.747-.999c-.965 0-1.747.447-1.747.999s.782.999 1.747.999Zm6.365-3.747c.965 0 1.747-.447 1.747-.999s-.782-.999-1.747-.999c-.965 0-1.747.447-1.747.999s.782.999 1.747.999Zm6.365-3.622c.965 0 1.747-.448 1.747-.999 0-.552-.782-1-1.747-1-.965 0-1.748.448-1.748 1 0 .551.783.999 1.748.999Zm7.613-3.997c-.624.375-1.748.375-2.496 0-.624-.375-.624-.999 0-1.374.748-.375 3.12.999 2.496 1.374Zm-25.46 5.995c.624.375.624 1 0 1.374-.624.375-1.747.375-2.496 0-.624-.374-.624-.999 0-1.374.624-.374 1.747-.374 2.496 0Zm5.117-1.998c.965 0 1.747-.448 1.747-.999 0-.552-.782-1-1.747-1-.965 0-1.747.448-1.747 1 0 .551.782.999 1.747.999Zm6.365-3.747c.965 0 1.747-.448 1.747-1 0-.551-.782-.999-1.747-.999-.965 0-1.747.448-1.747.999 0 .552.782 1 1.747 1Zm6.365-3.622c.965 0 1.747-.448 1.747-1s-.782-.999-1.747-.999c-.965 0-1.748.447-1.748.999s.783 1 1.748 1Zm-30.7011 9.367c.624.375.624 1 0 1.374-.624.375-1.748.375-2.497 0-.624-.374-.624-.999 0-1.374.749-.374 1.873-.374 2.497 0Zm5.241-1.998c.965 0 1.747-.448 1.747-.999 0-.552-.782-1-1.747-1-.965 0-1.747.448-1.747 1 0 .551.782.999 1.747.999Zm7.6131-5.371c.624.375.624.999 0 1.374-.624.375-1.747.375-2.496 0-.624-.375-.624-.999 0-1.374.624-.375 1.747-.375 2.496 0Zm5.117-1.998c.965 0 1.747-.448 1.747-1s-.782-.999-1.747-.999c-.965 0-1.747.447-1.747.999s.782 1 1.747 1Zm7.613-5.371c.624.374.624.999 0 1.374-.624.374-1.747.374-2.496 0-.624-.375-.624-1 0-1.374.749-.5 1.747-.5 2.496 0ZM77.3767 170.89c.624-.374 1.7472-.374 2.496 0 .624.375.624 1 0 1.374-.624.375-1.7472.375-2.496 0-.624-.374-.624-.999 0-1.374Zm8.861-3.747c.6241.375.6241.999 0 1.374-.624.375-1.7472.375-2.496 0-.624-.375-.624-.999 0-1.374.7488-.374 1.872-.374 2.496 0Zm6.3652-3.622c.624.375.624.999 0 1.374-.624.375-1.748.375-2.497 0-.624-.375-.624-.999 0-1.374.749-.375 1.873-.375 2.497 0Zm6.364-3.747c.624.375.624.999 0 1.374-.624.374-1.747.374-2.496 0-.624-.375-.624-.999 0-1.374.749-.375 1.872-.375 2.496 0Zm5.2421-1.999c.965 0 1.747-.447 1.747-.999s-.782-.999-1.747-.999c-.965 0-1.747.447-1.747.999s.782.999 1.747.999Zm6.365-3.622c.965 0 1.747-.447 1.747-.999s-.782-.999-1.747-.999c-.965 0-1.747.447-1.747.999s.782.999 1.747.999Z"/>
    <path fill="#F6A01D" d="M80.6216 95.0732V43.7373l29.2034 16.9871V112.06L80.6216 95.0732Z"/>
    <path fill="#F6A01D" d="M80.6216 43.7373 107.329 28.374l29.204 16.987-26.708 15.3633-29.2034-16.987Z"/>
    <path fill="#FDEDCC" d="m80.9961 50.9817 26.3329-15.1135 29.204 16.8621-26.957 14.7388-28.5799-16.4874Z"/>
    <path fill="#177C1B" d="M107.329 27 79.3735 43.1127v52.7098l30.4515 17.6115 27.956-16.1126V44.6116L107.329 27Zm1.248 82.937L81.8695 94.4486V45.9855l26.7075 15.4882v48.4633ZM83.1175 43.8621l24.2115-13.9893 26.832 15.4882-24.336 13.8644-26.7075-15.3633Z"/>
    <path fill="#F6A01D" d="M42.3076 116.432V85.9551l29.2035 16.8619v30.602l-29.2035-16.987Zm0-30.4769 26.7075-15.3633L98.343 87.454l-26.7071 15.363-29.3283-16.8619Z"/>
    <path fill="#FDEDCC" d="m42.8069 93.0749 26.2083-15.1135 29.3279 16.987-26.9567 14.6136-28.5795-16.4871Z"/>
    <path fill="#177C1B" d="M69.1399 69.0928 41.0596 85.2055v31.9755l30.4515 17.612L99.467 118.68V86.7044L69.1399 69.0928Zm1.248 62.2022-26.8323-15.488V88.0783l26.8323 15.4887v27.728ZM44.8036 85.9549l24.2115-13.9893L95.847 87.4538 71.6359 101.443 44.8036 85.9549Z"/>
    <path fill="#F6A01D" d="M3.7439 138.29v-13.614l29.2035 16.862v13.614L3.7439 138.29Z"/>
    <path fill="#F6A01D" d="m3.7439 124.676 26.8323-15.364 29.2035 16.862-26.7075 15.364-29.3283-16.862Z"/>
    <path fill="#FDEDCC" d="m4.2434 131.795 26.333-15.113 29.2035 16.987-26.9571 14.614-28.5794-16.488Z"/>
    <path fill="#177C1B" d="M30.5764 107.813 2.6209 123.926v14.989l30.4514 17.611 27.9556-16.112v-14.989l-30.4515-17.612Zm1.2479 45.216L4.992 137.541v-10.742l26.8323 15.488v10.742ZM6.2401 124.676l24.3363-13.99 26.8322 15.488-24.3363 13.99-26.8321-15.488Z"/>
    <path fill="#F6A01D" d="m119.684 133.544.125-9.118h-3.993l-.125-.125-3.37 9.493h-1.373l-3.369 4.621-14.9759 5.995-20.9671 1.999-15.2257-2.498-14.1026-11.991c.1248-.375.1248-.749.2496-1.124l-4.1184-7.744-.1248.125h-4.1185l-.1248 10.367v1.624c.4992 5.87 4.6177 11.616 12.2306 16.237 16.5985 9.868 43.6807 10.242 60.5286.874 7.738-4.371 11.981-9.992 12.73-15.862v-.25c.124-1.249.124-1.624.124-2.623Z"/>
    <path fill="#177C1B" d="M77.6264 160.273c-11.4817 0-23.0883-2.623-31.8243-7.869-7.7377-4.621-12.2306-10.617-12.7298-17.112v-.749l.1248-12.49 4.6177.124.7488-.874.9984 1.249 4.368 8.119-.2496.5c0 .124-.1248.249-.1248.374l13.229 11.242 14.7265 2.498 20.5919-1.999 14.602-5.745 3.619-4.872h1.124l3.744-10.741 1.123 1.249 4.617.125-.124 10.242c.124.999.124 1.499 0 2.748v.249c-.749 6.496-5.492 12.366-13.354 16.738-8.237 4.621-19.0947 6.994-29.8276 6.994Zm-42.3077-35.972-.1248 10.117v.625c.4993 5.745 4.6177 11.116 11.7314 15.363 16.2241 9.742 42.9317 10.117 59.4057.874 7.113-3.997 11.481-9.368 12.105-14.988v-2.748l.125-7.994h-2.246l-3.245 9.493h-1.622l-3.245 4.371-15.6 6.121-21.0919 1.998-15.7249-2.623-14.8514-12.49.1248-.625c0-.25.1248-.5.1248-.874l-3.3696-6.495-2.4961-.125Z"/>
    <path fill="#177C1B" d="M37.4402 124.301c1.6225 2.248 3.4945 4.746 4.9921 6.87.9984-4.247 4.368-8.244 9.9841-11.492 13.7281-7.619 35.6932-7.369 49.1716.75 5.491 3.247 8.736 7.369 9.735 11.616l4.617-7.369c-.499-.625-.998-1.125-1.497-1.749.998.5 1.747.749 1.997.874-1.373-1.374-12.231-16.987-12.231-16.987l-24.7107-6.12-23.0883 2.998-15.1009 12.24-.9984 4.747-1.6224.624c-1.4977 1.124-.2497 1.749-1.2481 2.998Z"/>
    <path fill="#177C1B" d="m110.824 135.043-.625-2.748c-.873-4.122-4.118-7.869-9.11-10.867-13.1042-7.869-34.6949-8.119-48.0486-.749-5.2416 2.872-8.4865 6.62-9.4849 10.741l-.624 2.374-1.3728-1.874c-1.6224-2.123-3.3696-4.746-4.9921-6.995l-.4992-.624.4992-.625c.2496-.249.2496-.374.2496-.749 0-.75.1248-1.624 1.1233-2.498l.3744-.25 1.1232-.375.9984-4.496 15.6001-12.616 23.5875-3.1222 25.4599 6.3702.249.375c4.119 5.995 11.108 15.862 12.106 16.862l.749.749-.624.874-6.739 10.243Zm-34.5706-21.859c9.3601 0 18.8455 2.124 25.9586 6.37 4.618 2.748 7.863 6.121 9.485 9.868l2.995-4.622c-.249-.374-.624-.749-.873-.999l-3.994-4.122 2.995 1.374c-3.245-4.371-7.987-11.241-9.235-13.115l-24.2115-5.995-22.5891 2.873-14.3521 11.741-1.1232 4.996-1.9968.749c-.2496.25-.2496.25-.1248.625 0 .375 0 .874-.2496 1.374 1.1232 1.499 2.2464 2.998 3.2448 4.496 1.6224-3.872 4.9921-7.244 9.8593-9.992 6.6145-3.747 15.4754-5.621 24.2114-5.621Z"/>
    <path fill="#F6A01D" d="m113.32 157.9 6.489-11.241-7.488-4.871s-.125 0-.125-.125c-.873-.5-1.996-.375-3.245.249-2.496 1.374-4.617 4.997-4.742 7.869 0 1.25.374 2.249.998 2.748.125.125.25.125.375.25l7.738 5.121Zm-3.02-27.68c.155-10.691-14.7481-19.576-33.2877-19.846-18.5392-.269-33.6937 8.18-33.8487 18.871-.155 10.692 14.7483 19.577 33.2875 19.846 18.5389.269 33.6939-8.179 33.8489-18.871Z"/>
    <path fill="#FDEDCC" d="M47.05 105.69c-16.8481 9.368-17.0977 25.106-.4992 34.973 16.5986 9.868 43.6802 10.243 60.5282.875 16.849-9.368 17.098-25.106.5-34.974-16.599-9.9922-43.6808-10.367-60.529-.874Zm54.289 32.475c-13.7286 7.619-35.6936 7.37-49.1721-.749-13.4785-8.119-13.2289-20.734.3744-28.354 13.7281-7.619 35.6932-7.369 49.1717.75 13.479 8.119 13.354 20.734-.374 28.353Z"/>
    <path fill="#177C1B" d="M77.7512 149.407c-11.4817 0-23.0883-2.623-31.8244-7.869-8.3616-4.996-12.9793-11.616-12.8545-18.736.1248-6.995 4.8673-13.49 13.3538-18.236 17.0977-9.6179 44.8039-9.1183 61.6519.874 8.362 4.996 12.979 11.616 12.854 18.736-.124 6.995-4.867 13.49-13.353 18.236-8.237 4.746-18.9701 6.995-29.8278 6.995Zm-1.4976-49.4627c-10.3586 0-20.7171 2.2487-28.7043 6.6197-7.7377 4.372-12.1058 10.118-12.2306 16.363-.1248 6.12 4.1185 12.116 11.7314 16.737 16.2241 9.743 42.9319 10.117 59.4049.874 7.738-4.371 12.106-10.117 12.231-16.362.125-6.12-4.118-12.116-11.731-16.737-8.362-4.872-19.5941-7.4947-30.7014-7.4947Zm1.3728 44.8407c-9.3601 0-18.845-2.123-25.9587-6.37-6.8641-4.122-10.6081-9.493-10.4833-15.363.1248-5.746 3.9936-11.117 10.9825-14.989 13.9777-7.869 36.442-7.494 50.1701.75 6.864 4.122 10.608 9.492 10.483 15.363-.124 5.746-3.993 11.116-10.982 14.989-6.615 3.747-15.3507 5.62-24.2116 5.62Zm-1.1232-40.094c-8.3617 0-16.7234 1.748-23.2131 5.371-6.24 3.497-9.7345 8.119-9.7345 13.115-.1248 4.996 3.2449 9.617 9.3601 13.365 13.1042 7.869 34.6948 8.118 48.0483.749 6.24-3.497 9.735-8.119 9.86-13.115.124-4.996-3.245-9.618-9.361-13.365-6.988-4.122-16.099-6.12-24.9598-6.12Z"/>
    <path fill="#FDEDCC" d="M77.5016 122.677c4.6176 2.748 4.6176 7.12-.1248 9.743-4.7425 2.623-12.3553 2.498-16.973-.25-4.6176-2.748-4.6176-7.12.1248-9.743 4.7425-2.623 12.3553-2.498 16.973.25Z"/>
    <path fill="#177C1B" d="M69.1398 129.797c-3.3696 0-6.7393-.75-9.3601-2.373-2.6208-1.499-3.9936-3.623-3.9936-5.996 0-2.248 1.4976-4.372 4.1184-5.87 5.1169-2.873 13.1041-2.748 18.0962.249 2.6208 1.499 3.9936 3.623 3.9936 5.996 0 2.248-1.4976 4.371-4.1184 5.87-2.3712 1.374-5.6161 2.124-8.7361 2.124Zm-.3744-13.865c-2.7456 0-5.4913.625-7.6129 1.749-1.872 1.124-2.9952 2.498-2.9952 3.872 0 1.374.9984 2.873 2.8704 3.997 4.2433 2.498 11.3569 2.623 15.8498.125 1.872-1.124 2.9952-2.498 2.9952-3.872 0-1.374-.9984-2.873-2.8704-3.997-2.2464-1.249-5.2417-1.874-8.2369-1.874Z"/>
    <path fill="#FDEDCC" d="m105.707 145.285 7.363 4.621 5.616-3.872-7.862-4.871-5.117 4.122Z"/>
    <path fill="#177C1B" d="m113.694 159.524-8.611-5.621c-.125-.125-.375-.25-.5-.374-.998-.75-1.497-2.124-1.497-3.748 0-3.372 2.371-7.244 5.241-8.868 1.623-.874 3.121-.999 4.369-.25l.249.125 8.362 5.496-7.613 13.24Zm-2.87-16.987c-.375 0-.874.125-1.373.5-2.247 1.249-4.119 4.371-4.119 6.869 0 .875.25 1.499.624 1.874l.25.125 6.614 4.371 5.367-9.242-6.615-4.247c-.124-.125-.374-.25-.748-.25Z"/>
    <path fill="#F6A01D" d="M119.809 146.659c-.873-.375-1.872-.375-3.12.375-2.496 1.374-4.617 4.996-4.742 7.869 0 1.498.499 2.498 1.373 2.997l7.737 8.494 9.984-15.738-11.232-3.997Z"/>
    <path fill="#FDEDCC" d="m113.694 149.906 9.485 5.121 6.614-4.996-11.606-3.747-4.493 3.622Z"/>
    <path fill="#177C1B" d="m121.307 168.142-8.736-9.367c-1.123-.625-1.747-1.999-1.747-3.872 0-3.373 2.371-7.245 5.241-8.869 1.498-.874 2.995-.999 4.243-.374l12.356 4.496-11.357 17.986Zm-2.621-20.609c-.374 0-.874.125-1.498.5-2.246 1.249-4.118 4.371-4.118 6.87 0 .999.25 1.748.749 1.998l6.989 7.744 8.486-13.49-10.109-3.497c-.125 0-.374-.125-.499-.125Z"/>
    <path fill="#F6A01D" d="M138.155 157.9c-.125-.125-.25-.125-.499-.25l-5.741-6.495c-1.248-.749-2.871-.749-4.867.375-3.744 2.123-6.864 7.245-6.864 11.491 0 1.999.624 3.498 1.747 4.247.249.125.499.25.749.375l7.862 2.373s.25.125.499.25l8.736 4.371 6.365-11.241-7.987-5.496Z"/>
    <path fill="#FDEDCC" d="m123.179 155.027 16.723 11.117 4.992-3.747-13.977-11.616-6.615 2.748-1.123 1.498Z"/>
    <path fill="#177C1B" d="m140.277 176.136-18.097-7.494c-.249-.125-.499-.25-.873-.5-1.498-.999-2.247-2.872-2.247-5.246.125-4.746 3.37-10.242 7.488-12.49 2.247-1.249 4.368-1.374 5.991-.25l15.226 12.74-7.488 13.24Zm-10.234-24.356c-.749 0-1.498.25-2.371.749-3.37 1.874-6.24 6.745-6.24 10.492 0 1.624.374 2.748 1.248 3.248.124.125.249.125.499.25l16.349 6.62 5.366-9.368-13.478-11.616c-.5-.25-.874-.375-1.373-.375Z"/>
    <path fill="#F6A01D" d="m153.63 168.267-7.363-4.746-.125-.125c-.873-.5-1.997-.375-3.245.25-2.496 1.374-4.617 4.996-4.742 7.869 0 1.624.624 2.748 1.498 3.122l7.488 4.872 6.489-11.242Z"/>
    <path fill="#FDEDCC" d="m140.277 166.394 7.862 5.246 4.368-4.247-7.738-4.372-4.492 3.373Z"/>
    <path fill="#177C1B" d="m147.016 180.633-7.738-5.121c-1.248-.5-2.121-2.124-2.121-4.122 0-3.373 2.371-7.245 5.241-8.868 1.623-.875 3.12-1 4.368-.25l.25.125 8.237 5.371-8.237 12.865Zm-1.997-16.363c-.374 0-.874.125-1.373.5-2.246 1.249-4.118 4.372-4.118 6.87 0 .999.249 1.748.873 1.998l6.615 4.372 5.117-9.368-6.365-4.247c-.25-.125-.499-.125-.749-.125Z"/>
    <path fill="#177C1B" d="M154.629 167.393c-1.248-.749-2.746-.625-4.368.25-2.871 1.624-5.242 5.496-5.242 8.868 0 1.874.624 3.248 1.872 3.997.499.375 1.123.5 1.872.5.874 0 1.747-.25 2.621-.75 2.87-1.624 5.242-5.496 5.242-8.868-.125-1.874-.874-3.248-1.997-3.997Z"/>
  </g>
  <defs>
    <clipPath id="a">
      <path fill="#fff" d="M0 0h157v220H0z"/>
    </clipPath>
  </defs>
</svg>
