<svg xmlns="http://www.w3.org/2000/svg" fill="none" viewBox="0 0 152 220">
  <path fill="#177C1B" d="M84.3239 195.34c.5604.335.5604.894 0 1.23-.5604.336-1.5692.336-2.1296 0s-.5604-.895 0-1.23c.5604-.336 1.4571-.336 2.1296 0Zm55.8161-31.657c.56.336.56.895 0 1.23-.56.336-1.569.336-2.129 0-.561-.335-.561-.894 0-1.23.56-.336 1.569-.336 2.129 0Zm5.604-3.243c.561.335.561.895 0 1.231-.56.335-1.569.335-2.129 0-.561-.336-.561-.896 0-1.231.56-.336 1.457-.336 2.129 0Zm5.493-3.133c.561.336.561.895 0 1.23-.56.336-1.569.336-2.129 0-.561-.335-.561-.894 0-1.23.672-.336 1.569-.336 2.129 0Zm-72.5172 34.789c.5604.335.5604.894 0 1.23-.5604.336-1.5692.336-2.1296 0s-.5604-.895 0-1.23c.6725-.336 1.5692-.336 2.1296 0Zm50.3242-28.524c.56.336.56.895 0 1.231-.56.335-1.568.335-2.129 0-.56-.336-.56-.895 0-1.231.561-.335 1.457-.335 2.129 0Zm5.492-3.132c.56.335.56.895 0 1.231-.56.335-1.569.335-2.13 0-.56-.336-.56-.896 0-1.231.673-.336 1.57-.336 2.13 0Zm5.604-3.133c.56.336.56.895 0 1.23-.56.336-1.569.336-2.129 0-.561-.335-.561-.894 0-1.23.56-.336 1.569-.336 2.129 0Zm5.604-3.132c.561.335.561.895 0 1.23-.56.336-1.569.336-2.129 0-.561-.335-.561-.895 0-1.23.56-.336 1.569-.336 2.129 0Zm-72.5161 34.678c.5604.335.5604.895 0 1.23-.5604.336-1.5692.336-2.1296 0-.5604-.335-.5604-.895 0-1.23.5604-.336 1.5692-.336 2.1296 0Zm11.096-6.265c.5604.335.5604.894 0 1.23-.5604.336-1.5692.336-2.1296 0s-.5604-.895 0-1.23c.6725-.336 1.5692-.336 2.1296 0Zm39.1171-22.148c.56.335.56.895 0 1.231-.56.335-1.569.335-2.13 0-.56-.336-.56-.896 0-1.231.561-.336 1.57-.336 2.13 0Zm5.603-3.133c.56.336.56.895 0 1.23-.56.336-1.568.336-2.129 0-.56-.335-.56-.894 0-1.23.561-.336 1.569-.336 2.129 0Zm5.605-3.243c.56.336.56.895 0 1.23-.56.336-1.569.336-2.129 0-.561-.335-.561-.894 0-1.23.56-.336 1.457-.336 2.129 0Zm5.604-3.133c.561.335.561.895 0 1.23-.56.336-1.569.336-2.129 0-.561-.335-.561-.895 0-1.23.56-.336 1.457-.336 2.129 0ZM67.6238 185.72c.5604.335.5604.894 0 1.23-.5604.336-1.5691.336-2.1295 0-.5604-.336-.5604-.895 0-1.23.6725-.336 1.5691-.336 2.1295 0Zm50.3242-28.524c.56.336.56.895 0 1.231-.56.335-1.569.335-2.13 0-.56-.336-.56-.895 0-1.231.561-.335 1.457-.335 2.13 0Zm5.493-3.132c.56.336.56.895 0 1.23-.56.336-1.569.336-2.13 0-.56-.335-.56-.894 0-1.23.673-.336 1.57-.336 2.13 0Zm5.603-3.133c.56.335.56.895 0 1.23-.56.336-1.568.336-2.129 0-.56-.335-.56-.895 0-1.23.673-.336 1.569-.336 2.129 0Zm5.605-3.243c.56.336.56.895 0 1.23-.56.336-1.569.336-2.129 0-.561-.335-.561-.894 0-1.23.56-.336 1.569-.336 2.129 0Zm-72.5172 34.789c.5604.335.5604.894 0 1.23-.5604.336-1.5691.336-2.1295 0-.5604-.336-.5604-.895 0-1.23.5604-.336 1.5691-.336 2.1295 0Zm50.2122-28.413c.56.336.56.895 0 1.23-.561.336-1.569.336-2.13 0-.56-.335-.56-.894 0-1.23.561-.336 1.569-.336 2.13 0Zm5.604-3.133c.56.336.56.895 0 1.23-.56.336-1.569.336-2.13 0-.56-.335-.56-.894 0-1.23.561-.448 1.57-.448 2.13 0Zm5.604-3.243c.56.336.56.895 0 1.23-.56.336-1.569.336-2.13 0-.56-.335-.56-.894 0-1.23.561-.336 1.57-.336 2.13 0Zm5.604-3.133c.56.335.56.895 0 1.23-.56.336-1.569.336-2.129 0-.561-.335-.561-.895 0-1.23.56-.336 1.457-.336 2.129 0Zm5.493-3.132c.56.335.56.895 0 1.23-.56.336-1.569.336-2.129 0-.561-.335-.561-.895 0-1.23.672-.336 1.569-.336 2.129 0Zm-78.1214 37.921c.5604.336.5604.895 0 1.231-.5604.336-1.5691.336-2.1295 0-.5604-.336-.5604-.895 0-1.231.6725-.335 1.5691-.335 2.1295 0Zm11.2083-6.376c.5604.335.5604.894 0 1.23-.5604.336-1.5691.336-2.1296 0-.5604-.336-.5604-.895 0-1.23.5605-.336 1.5692-.336 2.1296 0Zm5.604-3.133c.5604.336.5604.895 0 1.231-.5604.335-1.5692.335-2.1296 0-.5604-.336-.5604-.895 0-1.231.5604-.335 1.5692-.335 2.1296 0Zm5.6041-3.132c.5604.336.5604.895 0 1.231-.5604.335-1.5691.335-2.1295 0-.5604-.336-.5604-.895 0-1.231.5604-.335 1.457-.335 2.1295 0Zm5.492-3.244c.5604.336.5604.895 0 1.231-.5604.335-1.5691.335-2.1295 0-.5604-.336-.5604-.895 0-1.231.6725-.335 1.5691-.335 2.1295 0Zm5.604-3.132c.5604.336.5604.895 0 1.231-.5604.335-1.5691.335-2.1295 0-.5604-.336-.5604-.895 0-1.231.6725-.335 1.5691-.335 2.1295 0Zm5.6045-3.131c.56.336.56.895 0 1.231-.561.335-1.569.335-2.13 0-.56-.336-.56-.895 0-1.231.561-.335 1.569-.335 2.13 0Zm5.6035-3.132c.56.336.56.895 0 1.23-.561.336-1.5685.336-2.1295 0-.56-.335-.56-.894 0-1.23.561-.336 1.5685-.336 2.1295 0Zm5.604-3.245c.56.336.56.895 0 1.231-.561.335-1.569.335-2.13 0-.56-.336-.56-.895 0-1.231.561-.336 1.457-.336 2.13 0Zm5.604-3.131c.56.336.56.895 0 1.23-.56.336-1.569.336-2.13 0-.56-.335-.56-.894 0-1.23.561-.336 1.457-.336 2.13 0Zm5.492-3.133c.56.335.56.895 0 1.23-.56.336-1.569.336-2.13 0-.56-.335-.56-.895 0-1.23.673-.336 1.57-.336 2.13 0Zm5.604-3.243c.56.335.56.895 0 1.23-.56.336-1.569.336-2.13 0-.56-.335-.56-.895 0-1.23.561-.336 1.57-.336 2.13 0Zm5.604-3.133c.56.335.56.895 0 1.23-.56.336-1.569.336-2.129 0-.561-.335-.561-.895 0-1.23.56-.336 1.569-.336 2.129 0Zm5.604-3.132c.561.335.561.895 0 1.23-.56.336-1.569.336-2.129 0-.561-.335-.561-.895 0-1.23.56-.336 1.569-.336 2.129 0Zm5.604-3.131c.561.335.561.895 0 1.23-.56.336-1.569.336-2.129 0-.561-.335-.561-.895 0-1.23.56-.336 1.457-.336 2.129 0Zm-94.9323 47.428c.5604.336.5604.895 0 1.231-.5604.336-1.5692.336-2.1296 0s-.5604-.895 0-1.231c.5604-.335 1.5692-.335 2.1296 0Zm5.6039-3.244c.5605.335.5605.894 0 1.23-.5604.336-1.5691.336-2.1295 0-.5604-.336-.5604-.895 0-1.23.5604-.336 1.5691-.336 2.1295 0Zm11.2083-6.265c.5604.336.5604.895 0 1.231-.5604.335-1.5692.335-2.1296 0-.5604-.336-.5604-.895 0-1.231.5604-.335 1.4571-.335 2.1296 0Zm5.492-3.243c.5604.336.5604.895 0 1.231-.5604.335-1.5691.335-2.1296 0-.5604-.336-.5604-.895 0-1.231.6725-.335 1.5692-.335 2.1296 0Zm5.604-3.133c.5604.336.5604.895 0 1.231-.5604.335-1.5692.335-2.1296 0-.5604-.336-.5604-.895 0-1.231.5604-.335 1.5692-.335 2.1296 0Zm5.6041-3.132c.5604.336.5604.895 0 1.231-.5604.335-1.5691.335-2.1295 0-.5604-.336-.5604-.895 0-1.231.5604-.335 1.5691-.335 2.1295 0Zm5.604-3.131c.5604.336.5604.895 0 1.231-.5604.335-1.5691.335-2.1295 0-.5604-.336-.5604-.895 0-1.231.5604-.335 1.5691-.335 2.1295 0Zm5.6041-3.245c.5604.336.5604.895 0 1.231-.5604.335-1.5692.335-2.1296 0-.5604-.336-.5604-.895 0-1.231.5604-.335 1.4571-.335 2.1296 0Zm5.4924-3.132c.56.336.56.895 0 1.231-.561.335-1.569.335-2.13 0-.56-.336-.56-.895 0-1.231.673-.336 1.569-.336 2.13 0Zm5.6035-3.131c.56.336.56.895 0 1.23-.561.336-1.5685.336-2.1295 0-.56-.335-.56-.894 0-1.23.673-.336 1.5685-.336 2.1295 0Zm5.604-3.245c.56.336.56.895 0 1.23-.561.336-1.569.336-2.13 0-.56-.335-.56-.894 0-1.23.561-.336 1.569-.336 2.13 0Zm5.604-3.131c.56.335.56.895 0 1.23-.56.336-1.569.336-2.13 0-.56-.335-.56-.895 0-1.23.561-.336 1.57-.336 2.13 0Zm5.605-3.133c.56.335.56.895 0 1.23-.56.336-1.57.336-2.131 0-.56-.335-.56-.895 0-1.23.561-.336 1.459-.336 2.131 0Zm5.491-3.132c.56.335.56.895 0 1.23-.56.336-1.569.336-2.13 0-.56-.335-.56-.895 0-1.23.673-.336 1.57-.336 2.13 0Zm5.604-3.244c.56.335.56.895 0 1.23-.56.336-1.569.336-2.129 0-.561-.335-.561-.895 0-1.23.672-.336 1.569-.336 2.129 0Zm5.604-3.132c.561.335.561.895 0 1.23-.56.336-1.569.336-2.129 0-.561-.335-.561-.895 0-1.23.56-.336 1.569-.336 2.129 0ZM39.9397 176.1c.5604.335.5604.894 0 1.23-.5604.336-1.5692.336-2.1296 0s-.5604-.895 0-1.23c.5604-.336 1.4571-.336 2.1296 0Zm5.492-3.132c.5604.335.5604.894 0 1.23-.5604.336-1.5692.336-2.1296 0s-.5604-.895 0-1.23c.6725-.336 1.5692-.336 2.1296 0Zm5.6039-3.245c.5605.336.5605.895 0 1.231-.5604.336-1.5691.336-2.1295 0-.5604-.336-.5604-.895 0-1.231.6725-.335 1.5691-.335 2.1295 0Zm5.6042-3.131c.5604.336.5604.895 0 1.231-.5604.335-1.5691.335-2.1295 0-.5604-.336-.5604-.895 0-1.231.5604-.335 1.5691-.335 2.1295 0Zm5.6041-3.133c.5604.336.5604.895 0 1.231-.5604.335-1.5692.335-2.1296 0-.5604-.336-.5604-.895 0-1.231.5604-.335 1.5692-.335 2.1296 0Zm5.604-3.132c.5604.336.5604.895 0 1.231-.5604.335-1.5692.335-2.1296 0-.5604-.336-.5604-.895 0-1.231.5604-.335 1.4571-.335 2.1296 0Zm5.6041-3.244c.5604.336.5604.895 0 1.231-.5604.335-1.5691.335-2.1295 0-.5604-.336-.5604-.895 0-1.231.5604-.335 1.457-.335 2.1295 0Zm5.492-3.132c.5604.336.5604.895 0 1.231-.5604.335-1.5691.335-2.1295 0-.5604-.336-.5604-.895 0-1.231.6725-.335 1.5691-.335 2.1295 0Zm5.604-3.132c.5604.336.5604.895 0 1.231-.5604.335-1.5691.335-2.1295 0-.5604-.336-.5604-.895 0-1.231.5604-.336 1.5691-.336 2.1295 0Zm5.6041-3.244c.5604.336.5604.895 0 1.231-.5604.335-1.5692.335-2.1296 0-.5604-.336-.5604-.895 0-1.231.5604-.336 1.5692-.336 2.1296 0Zm5.6043-3.132c.56.336.56.895 0 1.23-.561.336-1.569.336-2.13 0-.56-.335-.56-.894 0-1.23.561-.336 1.569-.336 2.13 0Zm5.6036-3.131c.56.335.56.895 0 1.23-.561.336-1.5686.336-2.1296 0-.56-.335-.56-.895 0-1.23.561-.336 1.4566-.336 2.1296 0Zm5.492-3.133c.56.335.56.895 0 1.23-.561.336-1.569.336-2.13 0-.56-.335-.56-.895 0-1.23.673-.336 1.569-.336 2.13 0Zm5.604-3.243c.56.335.56.895 0 1.23-.56.336-1.569.336-2.13 0-.56-.335-.56-.895 0-1.23.673-.336 1.57-.336 2.13 0Zm5.605-3.133c.56.335.56.895 0 1.23-.56.336-1.57.336-2.131 0-.56-.335-.56-.895 0-1.23.561-.336 1.571-.336 2.131 0Zm5.604-3.132c.56.335.56.895 0 1.23-.56.336-1.57.336-2.13 0-.561-.335-.561-.895 0-1.23.56-.336 1.57-.336 2.13 0Zm5.603-3.244c.561.335.561.895 0 1.23-.56.336-1.569.336-2.129 0-.56-.335-.56-.895 0-1.23.56-.336 1.457-.336 2.129 0Zm-94.9325 47.429c.5604.335.5604.894 0 1.23-.5604.336-1.5692.336-2.1296 0s-.5604-.895 0-1.23c.5604-.336 1.5692-.336 2.1296 0Zm5.6042-3.133c.5604.336.5604.895 0 1.231-.5604.336-1.5692.336-2.1296 0s-.5604-.895 0-1.231c.5604-.335 1.5692-.335 2.1296 0Zm5.6039-3.131c.5604.336.5604.895 0 1.231-.5604.335-1.5691.335-2.1295 0-.5604-.336-.5604-.895 0-1.231.5604-.335 1.5691-.335 2.1295 0Zm5.6042-3.133c.5604.336.5604.895 0 1.231-.5604.335-1.5691.335-2.1295 0-.5604-.336-.5604-.895 0-1.231.5604-.335 1.457-.335 2.1295 0Zm5.492-3.244c.5604.336.5604.895 0 1.231-.5604.335-1.5691.335-2.1295 0-.5604-.336-.5604-.895 0-1.231.6725-.335 1.5691-.335 2.1295 0Zm5.6041-3.132c.5604.336.5604.895 0 1.231-.5604.335-1.5692.335-2.1296 0-.5604-.336-.5604-.895 0-1.231.6725-.335 1.5692-.335 2.1296 0Zm5.604-3.132c.5604.336.5604.895 0 1.231-.5604.335-1.5692.335-2.1296 0-.5604-.336-.5604-.895 0-1.231.5604-.335 1.5692-.335 2.1296 0Zm5.6041-3.244c.5604.336.5604.895 0 1.231-.5604.335-1.5691.335-2.1295 0-.5604-.336-.5604-.895 0-1.231.5604-.335 1.5691-.335 2.1295 0Zm5.604-3.132c.5604.336.5604.895 0 1.231-.5604.335-1.5691.335-2.1295 0-.5604-.336-.5604-.895 0-1.231.5604-.336 1.457-.336 2.1295 0Zm5.492-3.132c.5604.336.5604.895 0 1.23-.5604.336-1.5691.336-2.1295 0-.5604-.335-.5604-.894 0-1.23.6725-.336 1.5691-.336 2.1295 0Zm5.6041-3.131c.5604.335.5604.895 0 1.23-.5604.336-1.5692.336-2.1296 0-.5604-.335-.5604-.895 0-1.23.6725-.336 1.5692-.336 2.1296 0Zm5.6043-3.245c.56.336.56.895 0 1.23-.561.336-1.569.336-2.13 0-.56-.335-.56-.894 0-1.23.561-.336 1.569-.336 2.13 0Zm5.6036-3.131c.56.335.56.895 0 1.23-.561.336-1.5686.336-2.1296 0-.56-.335-.56-.895 0-1.23.561-.336 1.5686-.336 2.1296 0Zm5.604-3.133c.56.335.56.895 0 1.23-.56.336-1.569.336-2.13 0-.56-.335-.56-.895 0-1.23.561-.336 1.57-.336 2.13 0Zm5.604-3.243c.56.335.56.895 0 1.23-.56.336-1.569.336-2.13 0-.56-.335-.56-.895 0-1.23.561-.336 1.458-.336 2.13 0Zm5.493-3.133c.56.335.56.895 0 1.23-.56.336-1.57.336-2.131 0-.56-.335-.56-.895 0-1.23.673-.336 1.571-.336 2.131 0Zm5.604-3.132c.56.335.56.895 0 1.23-.56.336-1.57.336-2.13 0-.561-.335-.561-.895 0-1.23.672-.336 1.57-.336 2.13 0Zm-94.8214 47.428c.5604.336.5604.895 0 1.231-.5604.336-1.5691.336-2.1295 0-.5604-.336-.5604-.895 0-1.231.5604-.335 1.457-.335 2.1295 0Zm5.6041-3.131c.5604.336.5604.895 0 1.231-.5604.335-1.5692.335-2.1296 0-.5604-.336-.5604-.895 0-1.231.5604-.335 1.4571-.335 2.1296 0Zm5.492-3.245c.5604.336.5604.895 0 1.231-.5604.335-1.5692.335-2.1296 0-.5604-.336-.5604-.895 0-1.231.6725-.335 1.5692-.335 2.1296 0Zm5.6039-3.132c.5604.336.5604.895 0 1.231-.5604.335-1.5691.335-2.1295 0-.5604-.336-.5604-.895 0-1.231.5604-.335 1.5691-.335 2.1295 0Zm5.6042-3.132c.5604.336.5604.895 0 1.231-.5604.335-1.5691.335-2.1295 0-.5604-.336-.5604-.895 0-1.231.5604-.335 1.5691-.335 2.1295 0Zm5.6041-3.244c.5604.336.5604.895 0 1.231-.5604.335-1.5691.335-2.1296 0-.5604-.336-.5604-.895 0-1.231.5605-.335 1.5692-.335 2.1296 0Zm5.604-3.132c.5604.336.5604.895 0 1.231-.5604.335-1.5692.335-2.1296 0-.5604-.336-.5604-.895 0-1.231.5604-.335 1.4571-.335 2.1296 0Zm5.492-3.132c.5604.336.5604.895 0 1.231-.5604.335-1.5692.335-2.1296 0-.5604-.336-.5604-.895 0-1.231.6725-.336 1.5692-.336 2.1296 0Zm5.6041-3.132c.5604.336.5604.895 0 1.23-.5604.336-1.5691.336-2.1295 0-.5604-.335-.5604-.894 0-1.23.6725-.336 1.5691-.336 2.1295 0Zm5.604-3.244c.5604.336.5604.895 0 1.231-.5604.335-1.5691.335-2.1295 0-.5604-.336-.5604-.895 0-1.231.5604-.336 1.5691-.336 2.1295 0Zm5.6041-3.132c.5604.336.5604.895 0 1.23-.5604.336-1.5691.336-2.1296 0-.5604-.335-.5604-.894 0-1.23.5605-.336 1.5692-.336 2.1296 0Zm5.6042-3.131c.5604.335.5604.895 0 1.23-.5604.336-1.5692.336-2.1296 0-.5604-.335-.5604-.895 0-1.23.5604-.336 1.4571-.336 2.1296 0Zm5.4921-3.245c.56.335.56.895 0 1.23-.561.336-1.569.336-2.13 0-.56-.335-.56-.895 0-1.23.673-.336 1.569-.336 2.13 0Zm5.6036-3.131c.56.335.56.895 0 1.23-.561.336-1.5686.336-2.1296 0-.56-.335-.56-.895 0-1.23.673-.336 1.5686-.336 2.1296 0Zm5.604-3.133c.56.335.56.895 0 1.23-.56.336-1.569.336-2.13 0-.56-.335-.56-.895 0-1.23.561-.336 1.57-.336 2.13 0Zm5.604-3.132c.56.335.56.895 0 1.23-.56.336-1.569.336-2.13 0-.56-.335-.56-.895 0-1.23.561-.336 1.57-.336 2.13 0Zm5.604-3.244c.56.335.56.895 0 1.23-.56.336-1.569.336-2.129 0-.561-.335-.561-.895 0-1.23.56-.336 1.569-.336 2.129 0Zm-94.9326 47.43c.5604.335.5604.894 0 1.23-.5604.336-1.5691.336-2.1295 0-.5604-.336-.5604-.895 0-1.23.6725-.336 1.5691-.336 2.1295 0Zm5.6042-3.134c.5604.336.5604.895 0 1.231-.5604.335-1.5691.335-2.1295 0-.5604-.336-.5604-.895 0-1.231.5604-.335 1.5691-.335 2.1295 0Zm5.6041-3.132c.5604.336.5604.895 0 1.231-.5604.335-1.5692.335-2.1296 0-.5604-.336-.5604-.895 0-1.231.5604-.335 1.5692-.335 2.1296 0Zm5.6039-3.244c.5605.336.5605.895 0 1.231-.5604.335-1.5691.335-2.1295 0-.5604-.336-.5604-.895 0-1.231.5604-.335 1.4571-.335 2.1295 0Zm5.6042-3.132c.5604.336.5604.895 0 1.231-.5604.335-1.5691.335-2.1295 0-.5604-.336-.5604-.895 0-1.231.5604-.335 1.457-.335 2.1295 0Zm5.492-3.132c.5604.336.5604.895 0 1.231-.5604.335-1.5691.335-2.1295 0-.5604-.336-.5604-.895 0-1.231.6725-.335 1.5691-.335 2.1295 0Zm5.6041-3.132c.5604.336.5604.895 0 1.231-.5604.335-1.5691.335-2.1296 0-.5604-.336-.5604-.895 0-1.231.5605-.336 1.5692-.336 2.1296 0Zm5.604-3.244c.5604.336.5604.895 0 1.231-.5604.335-1.5692.335-2.1296 0-.5604-.336-.5604-.895 0-1.231.5604-.335 1.5692-.335 2.1296 0Zm5.6042-3.132c.5604.336.5604.895 0 1.231-.5605.335-1.5692.335-2.1296 0-.5604-.336-.5604-.895 0-1.231.5604-.336 1.5691-.336 2.1296 0Zm5.604-3.132c.5604.336.5604.895 0 1.23-.5604.336-1.5691.336-2.1295 0-.5604-.335-.5604-.894 0-1.23.5604-.336 1.457-.336 2.1295 0Zm5.4919-3.244c.5604.336.5604.895 0 1.23-.5604.336-1.5691.336-2.1295 0-.5604-.335-.5604-.894 0-1.23.6725-.336 1.5691-.336 2.1295 0Zm5.6041-3.132c.5604.335.5604.895 0 1.23-.5604.336-1.5691.336-2.1296 0-.5604-.335-.5604-.895 0-1.23.6725-.336 1.5692-.336 2.1296 0Zm5.6042-3.131c.5604.335.5604.895 0 1.23-.5604.336-1.5692.336-2.1296 0-.5604-.335-.5604-.895 0-1.23.5604-.336 1.5692-.336 2.1296 0Zm5.6042-3.133c.56.335.56.895 0 1.23-.561.336-1.569.336-2.13 0-.56-.335-.56-.895 0-1.23.561-.336 1.569-.336 2.13 0Zm5.6035-3.244c.56.335.56.895 0 1.23-.56.336-1.5685.336-2.1295 0-.56-.335-.56-.895 0-1.23.561-.336 1.4565-.336 2.1295 0Zm5.492-3.132c.56.335.56.895 0 1.23-.56.336-1.569.336-2.13 0-.56-.335-.56-.895 0-1.23.673-.336 1.57-.336 2.13 0Zm5.604-3.132c.56.335.56.894 0 1.23-.56.336-1.569.336-2.13 0-.56-.336-.56-.895 0-1.23.673-.336 1.57-.336 2.13 0Zm-94.8206 47.428c.5604.336.5604.895 0 1.231-.5604.335-1.5691.335-2.1295 0-.5604-.336-.5604-.895 0-1.231.5604-.335 1.5691-.335 2.1295 0Zm5.6042-3.132c.5604.336.5604.895 0 1.231-.5604.335-1.5691.335-2.1295 0-.5604-.336-.5604-.895 0-1.231.5604-.447 1.457-.447 2.1295 0Zm5.492-3.244c.5604.336.5604.895 0 1.231-.5604.335-1.5691.335-2.1295 0-.5604-.336-.5604-.895 0-1.231.6725-.335 1.5691-.335 2.1295 0Zm5.6041-3.132c.5604.336.5604.895 0 1.231-.5604.335-1.5692.335-2.1296 0-.5604-.336-.5604-.895 0-1.231.6725-.335 1.5692-.335 2.1296 0Zm5.6039-3.132c.5605.336.5605.895 0 1.231-.5604.335-1.5691.335-2.1295 0-.5604-.336-.5604-.895 0-1.231.5604-.335 1.5691-.335 2.1295 0Zm5.6042-3.244c.5604.336.5604.895 0 1.231-.5604.335-1.5691.335-2.1295 0-.5604-.336-.5604-.895 0-1.231.5604-.335 1.5691-.335 2.1295 0Zm5.604-3.132c.5604.336.5604.895 0 1.231-.5604.335-1.5691.335-2.1295 0-.5604-.336-.5604-.895 0-1.231.5604-.335 1.457-.335 2.1295 0Zm5.4921-3.132c.5604.336.5604.895 0 1.231-.5604.335-1.5691.335-2.1296 0-.5604-.336-.5604-.895 0-1.231.6725-.336 1.5692-.336 2.1296 0Zm5.604-3.244c.5604.336.5604.895 0 1.231-.5604.335-1.5692.335-2.1296 0-.5604-.336-.5604-.895 0-1.231.6725-.336 1.5692-.336 2.1296 0Zm5.6042-3.132c.5604.336.5604.895 0 1.23-.5605.336-1.5692.336-2.1296 0-.5604-.335-.5604-.894 0-1.23.5604-.336 1.5691-.336 2.1296 0Zm5.604-3.132c.5604.335.5604.895 0 1.23-.5604.336-1.5691.336-2.1295 0-.5604-.335-.5604-.895 0-1.23.5604-.336 1.5691-.336 2.1295 0Zm5.604-3.131c.5604.335.5604.895 0 1.23-.5604.336-1.5692.336-2.1296 0-.5604-.335-.5604-.895 0-1.23.5604-.336 1.5692-.336 2.1296 0Zm5.6042-3.245c.5604.335.5604.895 0 1.23-.5604.336-1.5692.336-2.1296 0-.5604-.335-.5604-.895 0-1.23.5604-.336 1.4571-.336 2.1296 0Zm5.492-3.132c.5604.335.5604.895 0 1.23-.5604.336-1.5692.336-2.1296 0-.5604-.335-.5604-.895 0-1.23.6725-.336 1.5692-.336 2.1296 0Zm5.6042-3.132c.56.335.56.895 0 1.23-.561.336-1.569.336-2.13 0-.56-.335-.56-.895 0-1.23.561-.336 1.569-.336 2.13 0Zm5.6035-3.244c.56.335.56.895 0 1.23-.56.336-1.5685.336-2.1295 0-.56-.335-.56-.895 0-1.23.561-.336 1.5695-.336 2.1295 0Zm5.604-3.132c.56.335.56.894 0 1.23-.56.336-1.569.336-2.13 0-.56-.336-.56-.895 0-1.23.561-.336 1.57-.336 2.13 0Zm-94.9325 47.428c.5604.336.5604.895 0 1.231-.5604.336-1.5692.336-2.1296 0s-.5604-.895 0-1.231c.6725-.335 1.5692-.335 2.1296 0Zm5.6039-3.132c.5604.336.5604.895 0 1.231-.5604.335-1.5691.335-2.1295 0-.5604-.336-.5604-.895 0-1.231.5604-.335 1.5691-.335 2.1295 0Zm5.6042-3.132c.5604.336.5604.895 0 1.231-.5604.335-1.5691.335-2.1295 0-.5604-.336-.5604-.895 0-1.231.5604-.335 1.5691-.335 2.1295 0Zm5.6041-3.244c.5604.336.5604.895 0 1.231-.5604.335-1.5691.335-2.1296 0-.5604-.336-.5604-.895 0-1.231.5605-.335 1.5692-.335 2.1296 0Zm5.604-3.132c.5604.336.5604.895 0 1.231-.5604.335-1.5692.335-2.1296 0-.5604-.336-.5604-.895 0-1.231.5604-.335 1.4571-.335 2.1296 0Zm5.4919-3.132c.5605.336.5605.895 0 1.231-.5604.335-1.5691.335-2.1295 0-.5604-.336-.5604-.895 0-1.231.6725-.335 1.5691-.335 2.1295 0Zm5.6042-3.131c.5604.336.5604.895 0 1.23-.5604.336-1.5691.336-2.1295 0-.5604-.335-.5604-.894 0-1.23.6725-.447 1.5691-.447 2.1295 0Zm5.604-3.245c.5604.336.5604.895 0 1.231-.5604.335-1.5691.335-2.1295 0-.5604-.336-.5604-.895 0-1.231.5604-.336 1.5691-.336 2.1295 0Zm5.6041-3.132c.5604.336.5604.895 0 1.23-.5604.336-1.5692.336-2.1296 0-.5604-.335-.5604-.894 0-1.23.5604-.336 1.5692-.336 2.1296 0Zm5.6042-3.132c.5604.335.5604.895 0 1.23-.5604.336-1.5692.336-2.1296 0-.5604-.335-.5604-.895 0-1.23.5604-.336 1.4571-.336 2.1296 0Zm5.492-3.244c.5604.336.5604.895 0 1.23-.5605.336-1.5692.336-2.1296 0-.5604-.335-.5604-.894 0-1.23.6725-.336 1.5691-.336 2.1296 0Zm5.604-3.132c.5604.335.5604.895 0 1.23-.5604.336-1.5691.336-2.1295 0-.5604-.335-.5604-.895 0-1.23.6725-.336 1.5691-.336 2.1295 0Zm5.604-3.132c.5604.335.5604.895 0 1.23-.5604.336-1.5692.336-2.1296 0-.5604-.335-.5604-.895 0-1.23.5604-.336 1.5692-.336 2.1296 0Zm5.6042-3.243c.5604.335.5604.895 0 1.23-.5604.336-1.5692.336-2.1296 0-.5604-.335-.5604-.895 0-1.23.5604-.336 1.5692-.336 2.1296 0Zm5.6039-3.133c.5604.335.5604.895 0 1.23-.5604.336-1.5691.336-2.1295 0-.5604-.335-.5604-.895 0-1.23.5604-.336 1.5691-.336 2.1295 0Zm5.6042-3.132c.56.335.56.894 0 1.23-.56.336-1.569.336-2.13 0-.56-.336-.56-.895 0-1.23.561-.336 1.457-.336 2.13 0Zm5.4916-3.133c.56.336.56.895 0 1.231-.56.336-1.5685.336-2.1295 0-.56-.336-.56-.895 0-1.231.6725-.335 1.5695-.335 2.1295 0ZM6.6515 156.971c.5604.336.5604.895 0 1.231-.5604.335-1.5692.335-2.1296 0-.5604-.336-.5604-.895 0-1.231.5604-.335 1.5692-.335 2.1296 0Zm5.6039-3.244c.5604.336.5604.895 0 1.231-.5604.335-1.5691.335-2.1295 0-.5604-.336-.5604-.895 0-1.231.5604-.335 1.4571-.335 2.1295 0Zm5.492-3.132c.5604.336.5604.895 0 1.231-.5604.335-1.5691.335-2.1295 0-.5604-.336-.5604-.895 0-1.231.6725-.335 1.5691-.335 2.1295 0Zm5.6042-3.132c.5604.336.5604.895 0 1.231-.5604.335-1.5691.335-2.1295 0-.5604-.336-.5604-.895 0-1.231.6725-.335 1.5691-.335 2.1295 0Zm5.6041-3.132c.5604.336.5604.895 0 1.231-.5604.335-1.5691.335-2.1296 0-.5604-.336-.5604-.895 0-1.231.5605-.335 1.5692-.335 2.1296 0Zm5.604-3.244c.5604.336.5604.895 0 1.231-.5604.335-1.5692.335-2.1296 0-.5604-.336-.5604-.895 0-1.231.5604-.335 1.5692-.335 2.1296 0Zm5.6041-3.132c.5604.336.5604.895 0 1.231-.5604.335-1.5691.335-2.1295 0-.5604-.336-.5604-.895 0-1.231.5604-.336 1.5691-.336 2.1295 0Zm5.604-3.132c.5604.336.5604.895 0 1.23-.5604.336-1.5691.336-2.1295 0-.5604-.335-.5604-.894 0-1.23.5604-.336 1.457-.336 2.1295 0Zm5.492-3.244c.5604.336.5604.895 0 1.231-.5604.335-1.5691.335-2.1295 0-.5604-.336-.5604-.895 0-1.231.6725-.335 1.5691-.335 2.1295 0Zm5.6041-3.132c.5604.336.5604.895 0 1.23-.5604.336-1.5692.336-2.1296 0-.5604-.335-.5604-.894 0-1.23.6725-.336 1.5692-.336 2.1296 0Zm5.6042-3.132c.5604.335.5604.895 0 1.23-.5604.336-1.5692.336-2.1296 0-.5604-.335-.5604-.895 0-1.23.5604-.336 1.5692-.336 2.1296 0Zm5.6039-3.132c.5604.335.5604.895 0 1.23-.5604.336-1.5691.336-2.1295 0-.5604-.335-.5604-.895 0-1.23.5604-.336 1.5691-.336 2.1295 0Zm5.6041-3.243c.5604.335.5604.895 0 1.23-.5604.336-1.5691.336-2.1295 0-.5604-.335-.5604-.895 0-1.23.5604-.336 1.457-.336 2.1295 0Zm5.492-3.133c.5604.335.5604.895 0 1.23-.5604.336-1.5692.336-2.1296 0-.5604-.335-.5604-.895 0-1.23.6725-.336 1.5692-.336 2.1296 0Zm5.6042-3.132c.5604.335.5604.894 0 1.23-.5604.336-1.5692.336-2.1296 0s-.5604-.895 0-1.23c.6725-.336 1.5692-.336 2.1296 0Zm5.6039-3.244c.5604.335.5604.895 0 1.23-.5604.336-1.5691.336-2.1295 0-.5604-.335-.5604-.895 0-1.23.5604-.336 1.5691-.336 2.1295 0Zm5.6042-3.132c.56.335.56.894 0 1.23-.56.336-1.569.336-2.13 0-.56-.336-.56-.895 0-1.23.561-.336 1.57-.336 2.13 0Zm-83.725 41.164c.5604.336.5604.895 0 1.231-.5604.335-1.5691.335-2.1295 0-.5604-.336-.5604-.895 0-1.231.5604-.335 1.5691-.335 2.1295 0Zm5.6042-3.243c.5604.336.5604.895 0 1.231-.5604.335-1.5691.335-2.1295 0-.5604-.336-.5604-.895 0-1.231.5604-.335 1.5691-.335 2.1295 0Zm5.6041-3.133c.5604.336.5604.895 0 1.231-.5604.335-1.5691.335-2.1296 0-.5604-.336-.5604-.895 0-1.231.5605-.335 1.4571-.335 2.1296 0Zm5.492-3.132c.5604.336.5604.895 0 1.231-.5604.335-1.5691.335-2.1296 0-.5604-.336-.5604-.895 0-1.231.6725-.336 1.5692-.336 2.1296 0Zm5.604-3.244c.5604.336.5604.895 0 1.231-.5604.335-1.5692.335-2.1296 0-.5604-.336-.5604-.895 0-1.231.6725-.335 1.5692-.335 2.1296 0Zm5.6041-3.132c.5604.336.5604.895 0 1.231-.5604.335-1.5691.335-2.1295 0-.5604-.336-.5604-.895 0-1.231.5604-.335 1.5691-.335 2.1295 0Zm5.604-3.132c.5604.336.5604.895 0 1.23-.5604.336-1.5691.336-2.1295 0-.5604-.335-.5604-.894 0-1.23.5604-.336 1.5691-.336 2.1295 0Zm5.6041-3.132c.5604.335.5604.895 0 1.23-.5604.336-1.5692.336-2.1296 0-.5604-.335-.5604-.895 0-1.23.5604-.336 1.5692-.336 2.1296 0Zm5.6041-3.244c.5604.335.5604.895 0 1.23-.5604.336-1.5692.336-2.1296 0-.5604-.335-.5604-.895 0-1.23.5604-.336 1.4571-.336 2.1296 0Zm5.4921-3.131c.5604.335.5604.895 0 1.23-.5604.336-1.5692.336-2.1296 0-.5604-.335-.5604-.895 0-1.23.6725-.336 1.5692-.336 2.1296 0Zm5.6039-3.133c.5604.335.5604.895 0 1.23-.5604.336-1.5691.336-2.1295 0-.5604-.335-.5604-.895 0-1.23.5604-.336 1.5691-.336 2.1295 0Zm5.6041-3.243c.5604.335.5604.895 0 1.23-.5604.336-1.5691.336-2.1295 0-.5604-.335-.5604-.895 0-1.23.5604-.336 1.5691-.336 2.1295 0Zm5.6041-3.133c.5604.335.5604.895 0 1.23-.5604.336-1.5691.336-2.1296 0-.5604-.335-.5604-.895 0-1.23.5605-.336 1.5692-.336 2.1296 0Zm5.6042-3.132c.5604.335.5604.894 0 1.23-.5604.336-1.5692.336-2.1296 0s-.5604-.895 0-1.23c.5604-.336 1.4571-.336 2.1296 0Zm5.4918-3.133c.5604.336.5604.895 0 1.231-.5604.336-1.5691.336-2.1295 0-.5604-.336-.5604-.895 0-1.231.6725-.335 1.5691-.335 2.1295 0ZM6.7634 144.22c.5605.336.5605.895 0 1.231-.5604.335-1.569.335-2.1295 0-.5604-.336-.5604-.895 0-1.231.5604-.335 1.4571-.335 2.1295 0Zm5.492-3.133c.5604.336.5604.895 0 1.231-.5604.335-1.5691.335-2.1295 0-.5604-.336-.5604-.895 0-1.231.6725-.335 1.5691-.335 2.1295 0Zm5.6042-3.243c.5604.336.5604.895 0 1.231-.5604.335-1.5691.335-2.1295 0-.5604-.336-.5604-.895 0-1.231.6725-.335 1.5691-.335 2.1295 0Zm5.6041-3.133c.5604.336.5604.895 0 1.231-.5604.335-1.5691.335-2.1296 0-.5604-.336-.5604-.895 0-1.231.5605-.335 1.5692-.335 2.1296 0Zm5.604-3.132c.5604.336.5604.895 0 1.231-.5604.335-1.5692.335-2.1296 0-.5604-.336-.5604-.895 0-1.231.5604-.335 1.5692-.335 2.1296 0Zm5.6041-3.132c.5604.336.5604.895 0 1.23-.5605.336-1.5692.336-2.1296 0-.5604-.335-.5604-.894 0-1.23.5604-.336 1.4571-.336 2.1296 0Zm5.492-3.244c.5604.336.5604.895 0 1.23-.5604.336-1.5691.336-2.1295 0-.5604-.335-.5604-.894 0-1.23.6725-.336 1.5691-.336 2.1295 0Zm5.604-3.132c.5604.335.5604.895 0 1.23-.5604.336-1.5691.336-2.1295 0-.5604-.335-.5604-.895 0-1.23.6725-.336 1.5691-.336 2.1295 0Zm5.6041-3.131c.5604.335.5604.895 0 1.23-.5604.336-1.5692.336-2.1296 0-.5604-.335-.5604-.895 0-1.23.5604-.336 1.5692-.336 2.1296 0Zm5.6041-3.245c.5604.335.5604.895 0 1.23-.5604.336-1.5692.336-2.1296 0-.5604-.335-.5604-.895 0-1.23.5604-.336 1.5692-.336 2.1296 0Zm5.6041-3.131c.5604.335.5604.895 0 1.23-.5604.336-1.5691.336-2.1295 0-.5604-.335-.5604-.895 0-1.23.5604-.336 1.4571-.336 2.1295 0Zm5.604-3.133c.5604.335.5604.895 0 1.23-.5604.336-1.5691.336-2.1295 0-.5604-.335-.5604-.895 0-1.23.5604-.336 1.457-.336 2.1295 0Zm5.492-3.132c.5604.335.5604.894 0 1.23-.5604.336-1.5691.336-2.1295 0-.5604-.336-.5604-.895 0-1.23.6725-.336 1.5691-.336 2.1295 0ZM6.7634 137.844c.5605.336.5605.895 0 1.231-.5604.335-1.569.335-2.1295 0-.5604-.336-.5604-.895 0-1.231.5604-.335 1.5691-.335 2.1295 0Zm5.6042-3.133c.5604.336.5604.895 0 1.231-.5604.335-1.5692.335-2.1296 0-.5603-.336-.5603-.895 0-1.231.5604-.335 1.5692-.335 2.1296 0Zm5.6041-3.132c.5604.336.5604.895 0 1.231-.5604.335-1.5691.335-2.1296 0-.5604-.336-.5604-.895 0-1.231.5605-.335 1.4571-.335 2.1296 0Zm5.492-3.244c.5604.336.5604.895 0 1.231-.5604.335-1.5691.335-2.1296 0-.5604-.336-.5604-.895 0-1.231.6725-.336 1.5692-.336 2.1296 0Zm5.604-3.132c.5604.336.5604.895 0 1.23-.5604.336-1.5692.336-2.1296 0-.5604-.335-.5604-.894 0-1.23.5604-.336 1.5692-.336 2.1296 0Zm5.6041-3.132c.5604.335.5604.895 0 1.23-.5605.336-1.5692.336-2.1296 0-.5604-.335-.5604-.895 0-1.23.5604-.336 1.5691-.336 2.1296 0Zm5.6041-3.244c.5604.335.5604.895 0 1.23-.5604.336-1.5691.336-2.1295 0-.5604-.335-.5604-.895 0-1.23.5604-.336 1.5691-.336 2.1295 0Zm5.6041-3.132c.5604.335.5604.895 0 1.23-.5604.336-1.5691.336-2.1296 0-.5604-.335-.5604-.895 0-1.23.5605-.336 1.4571-.336 2.1296 0Zm5.4919-3.131c.5604.335.5604.895 0 1.23-.5604.336-1.5692.336-2.1296 0-.5604-.335-.5604-.895 0-1.23.6725-.336 1.5692-.336 2.1296 0Zm5.6041-3.133c.5604.335.5604.895 0 1.23-.5604.336-1.5692.336-2.1296 0-.5604-.335-.5604-.895 0-1.23.6725-.336 1.5692-.336 2.1296 0Zm5.6041-3.243c.5604.335.5604.895 0 1.23-.5604.336-1.5691.336-2.1295 0-.5604-.335-.5604-.895 0-1.23.5604-.336 1.5691-.336 2.1295 0Zm-55.8167 25.28c.5605.336.5605.895 0 1.231-.5604.335-1.569.335-2.1295 0-.5604-.336-.5604-.895 0-1.231.6725-.335 1.5691-.335 2.1295 0Zm5.6042-3.133c.5604.336.5604.895 0 1.231-.5604.335-1.5692.335-2.1296 0-.5603-.336-.5603-.895 0-1.231.5604-.336 1.5692-.336 2.1296 0Zm5.6041-3.132c.5604.336.5604.895 0 1.23-.5604.336-1.5691.336-2.1296 0-.5604-.335-.5604-.894 0-1.23.5605-.336 1.5692-.336 2.1296 0Zm5.6041-3.244c.5604.336.5604.895 0 1.231-.5604.335-1.5692.335-2.1296 0-.5604-.336-.5604-.895 0-1.231.5604-.335 1.5692-.335 2.1296 0Zm5.6039-3.132c.5605.335.5605.895 0 1.23-.5604.336-1.5691.336-2.1295 0-.5604-.335-.5604-.895 0-1.23.5604-.336 1.4571-.336 2.1295 0Zm5.4921-3.132c.5604.335.5604.895 0 1.23-.5605.336-1.5692.336-2.1296 0-.5604-.335-.5604-.895 0-1.23.6725-.336 1.5691-.336 2.1296 0Zm5.6041-3.131c.5604.335.5604.895 0 1.23-.5604.336-1.5691.336-2.1295 0-.5604-.335-.5604-.895 0-1.23.5604-.336 1.5691-.336 2.1295 0Zm5.6041-3.245c.5604.335.5604.895 0 1.23-.5604.336-1.5691.336-2.1296 0-.5604-.335-.5604-.895 0-1.23.5605-.336 1.5692-.336 2.1296 0Zm5.604-3.131c.5604.335.5604.895 0 1.23-.5604.336-1.5692.336-2.1296 0-.5604-.335-.5604-.895 0-1.23.5604-.336 1.5692-.336 2.1296 0ZM6.8755 125.092c.5605.336.5605.895 0 1.231-.5603.335-1.569.335-2.1295 0-.5604-.336-.5604-.895 0-1.231.5604-.335 1.457-.335 2.1295 0Zm5.4921-3.133c.5604.336.5604.895 0 1.231-.5604.335-1.5692.335-2.1296 0-.5603-.336-.5603-.895 0-1.231.6725-.335 1.5692-.335 2.1296 0Zm5.6041-3.132c.5604.335.5604.895 0 1.23-.5604.336-1.5691.336-2.1296 0-.5604-.335-.5604-.895 0-1.23.6725-.336 1.5692-.336 2.1296 0Zm5.6041-3.132c.5604.335.5604.895 0 1.23-.5604.336-1.5692.336-2.1296 0-.5604-.335-.5604-.895 0-1.23.5604-.336 1.5692-.336 2.1296 0Zm5.6039-3.244c.5605.335.5605.895 0 1.23-.5604.336-1.5691.336-2.1295 0-.5604-.335-.5604-.895 0-1.23.5604-.336 1.5691-.336 2.1295 0Zm5.6042-3.132c.5604.335.5604.895 0 1.23-.5604.336-1.5691.336-2.1295 0-.5604-.335-.5604-.895 0-1.23.5604-.336 1.457-.336 2.1295 0Zm5.6041-3.131c.5604.335.5604.895 0 1.23-.5604.336-1.5691.336-2.1296 0-.5604-.335-.5604-.895 0-1.23.5605-.336 1.4571-.336 2.1296 0ZM6.8755 118.827c.5605.335.5605.895 0 1.23-.5603.336-1.569.336-2.1295 0-.5604-.335-.5604-.895 0-1.23.5604-.336 1.5691-.336 2.1295 0Zm5.6041-3.243c.5604.336.5604.895 0 1.23-.5604.336-1.5691.336-2.1295 0-.5605-.335-.5605-.894 0-1.23.5604-.336 1.5691-.336 2.1295 0Zm5.6042-3.133c.5604.335.5604.895 0 1.23-.5604.336-1.5692.336-2.1296 0-.5604-.335-.5604-.895 0-1.23.5604-.336 1.4571-.336 2.1296 0Zm5.492-3.132c.5604.335.5604.895 0 1.23-.5604.336-1.5692.336-2.1296 0-.5604-.335-.5604-.895 0-1.23.6725-.336 1.5692-.336 2.1296 0Zm5.6039-3.244c.5605.335.5605.895 0 1.23-.5604.336-1.5691.336-2.1295 0-.5604-.335-.5604-.895 0-1.23.6725-.336 1.5691-.336 2.1295 0Zm-22.3042 6.376c.5605.335.5605.895 0 1.23-.5603.336-1.569.336-2.1295 0-.5604-.335-.5604-.895 0-1.23.6725-.336 1.5691-.336 2.1295 0Zm5.6041-3.243c.5604.335.5604.895 0 1.23-.5604.336-1.5691.336-2.1295 0-.5605-.335-.5605-.895 0-1.23.5604-.336 1.5691-.336 2.1295 0Zm5.6042-3.133c.5604.335.5604.895 0 1.23-.5604.336-1.5692.336-2.1296 0-.5604-.335-.5604-.895 0-1.23.5604-.336 1.5692-.336 2.1296 0Zm5.6039-3.132c.5605.335.5605.895 0 1.23-.5604.336-1.5691.336-2.1295 0-.5604-.335-.5604-.895 0-1.23.5604-.336 1.5691-.336 2.1295 0Z"/>
  <path fill="#F6A01D" d="M143.054 52.1585 85.2203 18.824c-1.5691-.8949-2.5778-1.1186-3.6987-.4474l-.4483.2237-6.0524 3.8033.6725 3.6914 3.3625 6.5997v75.3933c0 4.475 2.6899 9.732 6.1644 11.634l51.7807 29.867 4.035 7.494 5.717-3.579.448-.336c1.121-.783 1.793-2.461 1.793-4.698V63.9038c.224-4.5863-2.578-9.7318-5.94-11.7453Z"/>
  <path fill="#FDEDCC" d="M143.166 54.9549 85.3323 21.6204c-1.5691-.8949-2.5779-1.1186-3.6987-.4474l-.4483.2237L75.1329 25.2l.6725 3.6914 3.3624 6.5997v75.3939c0 4.474 2.69 9.732 6.1645 11.633l51.7817 29.867 4.595 1.79 3.699.671 1.457-2.125c1.12-.783 2.353.783 2.353-1.454V66.5884c0-4.4744-2.69-9.7319-6.052-11.6335Z"/>
  <path fill="#177C1B" d="m140.7 158.649-4.483-8.277-51.5571-29.755c-3.6987-2.126-6.6128-7.719-6.6128-12.64V33.0304l-3.3624-6.7116-.8967-4.3626 7.2853-4.4744c1.4571-.8949 2.9141-.4475 4.5954.5593l57.8333 33.3344c3.699 2.1254 6.613 7.7184 6.613 12.6403v84.5662c0 2.573-.785 4.474-2.242 5.593l-7.173 4.474ZM76.8142 25.7595l3.3625 6.7116v75.6169c0 4.139 2.5778 9.061 5.604 10.739l52.1173 29.979 3.699 6.823 5.268-3.356c.784-.559 1.345-2.013 1.345-3.803V63.9039c0-4.1388-2.578-9.0607-5.604-10.7386L84.6599 19.719c-1.5691-.8949-2.0174-.783-2.5778-.4474l-.5605.2237-5.3799 3.3558.6725 2.9084Z"/>
  <path fill="#F6A01D" d="m136.665 157.083-57.8333-33.334c-3.3624-1.902-6.1645-7.159-6.1645-11.634V27.4374c0-4.4744 2.69-6.5998 6.1645-4.5863l57.8333 33.3345c3.363 1.9016 6.165 7.159 6.165 11.6335v84.5659c0 4.587-2.802 6.6-6.165 4.698Z"/>
  <path fill="#177C1B" d="M139.131 158.874c-.897 0-1.905-.335-2.914-.895l-57.8336-33.334c-3.6987-2.125-6.6128-7.719-6.6128-12.64V27.4376c0-2.7965 1.0087-4.9219 2.6899-5.8168 1.4571-.783 3.2504-.6711 5.0437.3356l57.8338 33.3345c3.698 2.1253 6.613 7.7184 6.613 12.6402v84.5669c0 2.797-1.009 4.922-2.69 5.817-.673.336-1.345.559-2.13.559ZM76.478 23.1869c-.3363 0-.6725.1119-1.0088.2237-1.0087.5593-1.5691 2.0135-1.5691 4.027v84.5674c0 4.138 2.5779 9.06 5.6041 10.738l57.8338 33.335c.784.447 1.905.895 2.914.335 1.009-.559 1.569-2.013 1.569-4.027V67.8193c0-4.1389-2.578-9.0607-5.604-10.7386L78.3834 23.7462c-.5604-.3356-1.2329-.5593-1.9054-.5593Z"/>
  <path fill="#FDEDCC" d="m136.777 154.064-53.6862-30.873c-1.9054-1.119-3.4745-4.027-3.4745-6.6V40.9727c0-2.5728 1.5691-3.6914 3.4745-2.5728l53.6862 30.8736c1.906 1.1186 3.475 4.0269 3.475 6.5997v75.6178c0 2.573-1.569 3.692-3.475 2.573Z"/>
  <path fill="#177C1B" d="M135.993 151.379c-.561 0-1.121-.224-1.794-.56l-53.6862-30.873c-2.1295-1.231-3.8108-4.475-3.8108-7.271V37.0572c0-1.6779.5605-2.9084 1.5692-3.4677.8966-.5593 2.0174-.4474 3.0262.2237l53.6866 30.8736c2.13 1.2304 3.811 4.4744 3.811 7.2709v75.6173c0 1.678-.561 2.909-1.569 3.468-.337.224-.785.336-1.233.336Zm-1.009-1.902c.448.224 1.009.447 1.457.224.448-.336.785-1.119.785-2.126V71.9577c0-2.2372-1.345-4.9219-3.027-5.9286L80.5128 35.1556c-.4483-.2238-1.0087-.4475-1.457-.2238-.4484.3356-.7846 1.1186-.7846 2.1254v75.6178c0 2.237 1.345 4.922 3.0262 5.928l53.6866 30.874Z"/>
  <path fill="#F6A01D" d="m90.1519 73.4117-5.8282-11.5216c-.7846-1.5661-.6725-3.1321.3362-3.5795 1.0088-.3356 2.4658.6711 3.2504 2.2372l3.0262 6.0404 6.725-5.593c.784-.6712 2.242 0 3.2495 1.4542 1.009 1.4542 1.121 3.244.336 3.9151l-9.4135 7.9421c-.4487.3356-1.2333-.1118-1.6816-.8949Z"/>
  <path fill="#177C1B" d="M90.6001 72.741h-.3362c-.6725-.1118-1.2329-.6712-1.6812-1.4542l-5.8283-11.5216c-.6724-1.2305-.7845-2.5728-.4483-3.4677.2242-.5593.6725-1.0067 1.1208-1.2305 1.345-.5593 3.2504.5593 4.2591 2.5728l2.5779 5.1456 5.9405-5.0337c.448-.3356 1.009-.5593 1.569-.4475 1.009.1119 2.017.8949 2.8016 2.0135 1.233 1.9017 1.345 4.027.224 4.9219l-9.4143 7.9421c-.1121.4475-.4483.5593-.7846.5593Zm-6.2765-16.1079h-.1121s-.1121 0-.2242.2237c-.112.3356-.1121 1.2305.3363 2.1254l5.8282 11.5216c.1121.3356.3363.4474.4483.5593l9.3033-7.8302c.3356-.3356.3356-1.5661-.449-2.7966-.56-.8948-1.345-1.3423-1.681-1.3423-.224 0-.336 0-.336.1119l-7.5097 6.2642-3.4746-6.9354c-.6725-1.2305-1.5691-1.9016-2.1295-1.9016Z"/>
  <path fill="#F6A01D" d="m91.0486 96.903-5.8283-11.5216c-.7845-1.5661-.6724-3.1321.3363-3.5796 1.0087-.3355 2.4658.6712 3.2503 2.2372l3.0266 6.0405 6.725-5.593c.784-.6712 2.2405 0 3.2495 1.4542s1.121 3.2439.336 3.9151l-9.4145 7.9421c-.56.3356-1.3447-.1119-1.6809-.8949Z"/>
  <path fill="#177C1B" d="M91.3847 96.2316h-.3362c-.6725-.1118-1.2328-.6711-1.6812-1.4542L83.539 83.2558c-.6725-1.2305-.7846-2.5728-.4483-3.4677.2241-.5593.6725-1.0067 1.1208-1.2304 1.345-.5593 3.2504.5593 4.2591 2.5728l2.5779 5.1455 5.94-5.0337c.449-.3356 1.009-.5593 1.57-.4474 1.008.1118 2.0165.8949 2.8015 2.0135 1.232 1.9016 1.345 4.0269.224 4.9218l-9.4145 7.9421c-.112.4475-.4481.5593-.7848.5593Zm-.4483-2.2372c.1121.3356.3362.4475.4483.5593l9.3023-7.8302c.336-.3356.336-1.5661-.448-2.7965-.5605-.8949-1.3445-1.3424-1.6805-1.3424-.225 0-.3371 0-.3371.1119l-7.5092 6.2642-3.4745-6.9354c-.6725-1.3423-1.7933-2.0135-2.2416-1.7897 0 0-.1121 0-.2242.2237-.1121.3356-.1121 1.2305.3362 2.1253l5.8283 11.4098Z"/>
  <path fill="#F6A01D" d="M131.397 92.4282 108.198 79.005c-1.009-.5593-1.906-2.2372-1.906-3.5796 0-1.3423.785-2.0135 1.906-1.4542l23.199 13.4233c1.009.5593 1.907 2.2372 1.907 3.5796 0 1.4541-.786 2.1253-1.907 1.4541Z"/>
  <path fill="#177C1B" d="M131.397 90.9743c-.336 0-.784-.1119-1.12-.3356l-23.201-13.4233c-1.233-.783-2.242-2.5728-2.242-4.2507 0-1.0067.336-1.7898 1.009-2.2372.56-.3356 1.345-.3356 2.017.1119l23.201 13.4232c1.233.7831 2.242 2.5728 2.242 4.2507 0 1.0068-.336 1.7898-1.009 2.2373-.336.2237-.56.2237-.897.2237Zm-.336-1.6779c.224.1118.336.1118.449.1118.112 0 .224-.3356.224-.783 0-1.1186-.673-2.4609-1.457-2.9084l-23.201-13.4232c-.224-.1119-.337-.1119-.449-.1119-.112 0-.224.3356-.224.783 0 1.1186.673 2.4609 1.457 2.9084l23.201 13.4233Z"/>
  <path fill="#F6A01D" d="m131.397 114.018-23.199-13.424c-1.009-.559-1.906-2.2369-1.906-3.5793 0-1.3423.785-2.0134 1.906-1.4541l23.199 13.4234c1.009.56 1.907 2.238 1.907 3.58s-.786 2.013-1.907 1.454Z"/>
  <path fill="#177C1B" d="M131.397 112.563c-.336 0-.784-.112-1.12-.336l-23.201-13.4227c-1.233-.783-2.242-2.5728-2.242-4.2507 0-1.0067.336-1.7897 1.009-2.2372.56-.3356 1.345-.3356 2.017.1119l23.201 13.4227c1.233.783 2.242 2.573 2.242 4.251 0 1.007-.336 1.79-1.009 2.237-.336.112-.56.224-.897.224Zm-24.77-18.7924c-.112.1119-.336.3356-.336.783 0 1.1186.673 2.461 1.457 2.9084l23.201 13.423c.224.112.336.112.448.112.112 0 .225-.336.225-.783 0-1.119-.673-2.461-1.457-2.909l-23.201-13.4225c-.112-.1119-.225-.1119-.337-.1119Z"/>
  <path fill="#F6A01D" d="m131.397 135.495-23.199-13.423c-1.009-.559-1.906-2.237-1.906-3.58 0-1.342.785-2.013 1.906-1.454l23.199 13.424c1.009.559 1.907 2.237 1.907 3.579-.112 1.342-.898 2.014-1.907 1.454Z"/>
  <path fill="#177C1B" d="M131.285 133.928c-.336 0-.784-.112-1.12-.335l-23.201-13.424c-1.233-.783-2.242-2.572-2.242-4.25 0-1.007.336-1.79 1.009-2.238.56-.335 1.345-.335 2.017.112l23.201 13.424c1.233.783 2.242 2.572 2.242 4.25 0 1.007-.337 1.79-1.009 2.238-.336.223-.56.223-.897.223Zm-.336-1.678c.224.112.336.112.448.112.112 0 .225-.335.225-.783 0-1.118-.673-2.461-1.457-2.908l-23.201-13.423c-.225-.112-.337-.112-.449-.112-.112 0-.224.335-.224.783 0 1.118.673 2.461 1.457 2.908l23.201 13.423Z"/>
  <path fill="#F6A01D" d="M134.648 51.2638c.672-.5593 1.009-1.566 1.009-2.9084 0-2.7965-1.682-6.1523-3.923-7.3828L94.4115 19.4954c-.897-.5593-2.466-.2237-2.466-.2237s-.3365.2237-.4486.3356l-4.3712 3.0202c-.3362.2237-.3362.6712 0 .8949l4.4833 3.2439c.6725 1.3424 1.6815 2.461 2.6895 3.1321l7.9575 4.5863 7.958 5.7049 17.933 14.6537c.336.3356.897.3356 1.345.1119 1.681-1.1186 5.044-3.5795 5.156-3.6914Z"/>
  <path fill="#FDEDCC" d="M135.881 51.3755c0-2.7965-1.682-6.1523-3.923-7.3828L94.6355 22.4036c-.897-.5593-2.466-.2237-2.466-.2237s-.336.2237-.448.3356l-4.3716 3.0202c-.3363.2237-.3363.6712 0 .8949l4.4836 3.244c.672 1.3423 1.681 2.4609 2.69 3.1321l7.9565 4.5862 26.227 18.0096 7.174-4.027Z"/>
  <path fill="#177C1B" d="M128.932 56.0739c-.449 0-1.009-.2237-1.345-.5593l-17.933-14.6538-7.846-5.593-7.9575-4.5863c-1.121-.6711-2.2415-1.7897-3.0261-3.2439l-4.2591-3.1321c-.4483-.3356-.6725-.783-.6725-1.3423 0-.5594.2242-1.0068.6725-1.3424l4.3712-3.0202c.1121-.1119.4483-.3356.4483-.3356l.3367-.1119c.224 0 1.681-.5593 3.138.3356l37.4345 21.5891c2.466 1.4542 4.371 5.0338 4.371 8.2777 0 1.5661-.448 2.7965-1.345 3.5795-.112.1119-.112.1119-4.259 3.0203l-.896.5593c-.337.4474-.785.5593-1.233.5593ZM88.3586 23.075l4.1469 2.9084.112.2237c.673 1.2305 1.457 2.1254 2.354 2.6847l7.9575 4.5862 8.07 5.8168 17.933 14.7656.896-.5593c1.569-1.1186 3.923-2.7965 4.147-2.9084.449-.3356.673-1.1186.673-2.1253 0-2.461-1.569-5.4812-3.363-6.4879L93.8505 20.3904c-.336-.2238-1.009-.2238-1.457-.1119l-.112.1119-3.9229 2.6846Z"/>
  <path fill="#F6A01D" d="m114.025 55.7383-12.553-7.2709c-3.2506-1.9018-5.8286-6.8236-5.8286-11.1862l24.3216 14.0944c0 4.2507-2.69 6.2643-5.94 4.3627Z"/>
  <path fill="#FDEDCC" d="m118.284 60.6596-12.553-7.2709c-3.251-1.9017-5.8276-6.8235-5.8276-11.1861l24.3206 13.9826c0 4.3626-2.69 6.2642-5.94 4.4744Z"/>
  <path fill="#177C1B" d="M116.378 57.5277c-.896 0-1.905-.3356-2.914-.8949l-12.553-7.1591c-3.5856-2.0135-6.3876-7.3828-6.3876-12.0809V35.603l26.4506 15.213v.5593c0 2.6847-.897 4.6982-2.578 5.5931-.56.3355-1.233.5593-2.018.5593ZM96.8764 39.2944c.673 3.3558 2.69 6.9353 5.1556 8.2777l12.553 7.2709c.785.4474 1.793.783 2.802.3356.785-.4475 1.345-1.6779 1.457-3.244L96.8764 39.2944Z"/>
  <path fill="#F6A01D" d="M126.466 55.0667 89.0311 33.4776c-2.1295-1.2304-3.9228-4.5862-3.9228-7.3828 0-2.7965 1.6812-4.1388 3.9228-2.9083l37.4349 21.5891c2.129 1.2304 3.923 4.5863 3.923 7.3828 0 2.9083-1.794 4.1388-3.923 2.9083Z"/>
  <path fill="#177C1B" d="M128.035 56.6328c-.673 0-1.345-.2237-2.13-.5593L88.5827 34.4844c-2.4658-1.4542-4.3712-5.0337-4.3712-8.2777 0-1.9016.6725-3.3558 1.9054-4.027 1.0087-.5593 2.3537-.5593 3.5866.2237l37.4345 21.5891c2.466 1.4542 4.371 5.0338 4.371 8.2777 0 1.9016-.672 3.3558-1.905 4.027-.56.2237-1.009.3356-1.569.3356ZM87.5739 23.8576c-.112 0-.3362 0-.4483.1119-.5604.3356-.7846 1.1186-.7846 2.2372 0 2.4609 1.5692 5.4812 3.3625 6.4879l37.4345 21.5891c.337.2237 1.009.4474 1.457.2237.561-.3356.785-1.1186.785-2.2372 0-2.4609-1.569-5.4812-3.363-6.4879L88.5827 24.1932c-.2242-.1119-.6725-.3356-1.0088-.3356Z"/>
  <path fill="#177C1B" d="m128.035 46.4536 5.716-3.5796 2.13 5.1456-1.233 3.244-4.596 3.2439v-3.6914l-2.017-4.3625Zm14.795 18.7926 6.052-3.9151.224 87.8099-1.233 3.804-5.716 3.355.449-88.9285.224-2.1253ZM96.0925 182.364l-31.8311-18.345 10.9841-6.265c1.6812-1.006 3.3624-2.125 4.7074-3.243 1.2329-1.007 2.3537-2.126 3.3625-3.133.3362-.335.5604-.671.7845-1.006l1.345-.783h.1121l5.492-3.244c.4483-.336.7845-.783.7845-1.343v-11.186c0-.559-.3362-1.118-.7845-1.342l-3.3625-1.902c.2242-.783.3363-1.678.3363-2.461v-9.284c0-.447 0-1.007-.1121-1.454-.2241-2.126-.8967-4.251-2.0175-6.376-1.2329-2.237-3.0261-4.363-5.2678-6.376-2.3537-2.014-4.9316-3.803-8.1819-5.3692-3.6987-1.7898-7.7337-3.244-12.2169-4.2507-10.3115-2.3491-21.7439-2.3491-32.0554 0-4.4833 1.0067-8.5181 2.4609-12.2168 4.2507-3.1383 1.5662-5.8284 3.3552-8.182 5.3692-2.2416 2.013-4.035 4.139-5.2679 6.376-1.1208 2.013-1.7933 4.25-2.0174 6.376 0 .447-.1121 1.007-.1121 1.454v21.03c0 1.79.3362 3.691 1.0087 5.369.8966 2.349 2.2416 4.586 4.2591 6.712 2.0174 2.237 4.7075 4.25 7.7337 6.04l30.374 17.45c.1121.112.3362.112.4483.112.1121 0 .2242 0 .3363-.112l5.604-3.243 38.2199 22.036v6.6c0 .335.1121.559.4484.671.112.112.2241.112.4483.112.1121 0 .2242 0 .4483-.112l6.0525-3.468c.224-.112.448-.447.448-.671v-13.982c.336-.672.112-.895-.112-1.007Z"/>
  <path fill="#177C1B" fill-rule="evenodd" d="M28.0884 94.6353c10.366-2.3614 21.855-2.3614 32.221.0001 4.5119 1.0132 8.5738 2.477 12.2974 4.2788 3.2831 1.5818 5.8877 3.3898 8.2624 5.4218l.0069.006c2.2641 2.033 4.0874 4.191 5.3456 6.474l.0033.006c1.1359 2.154 1.8236 4.316 2.056 6.486.1169.488.1168 1.071.1168 1.497v9.306c0 .721-.0909 1.532-.2744 2.278l3.1024 1.754c.5817.296.9827.988.9827 1.673v11.186c0 .726-.439 1.271-.9348 1.643l-.0164.012-5.5978 3.307h-.1127l-1.1833.688c-.2103.314-.4436.653-.7832.992l-.0055.005c-1.0052 1.004-2.1367 2.133-3.3836 3.151-1.3656 1.136-3.0643 2.265-4.753 3.276l-.0069.004-10.4159 5.94 31.2561 18.014c.153.078.368.229.449.525.072.263.014.562-.141.897v13.897c0 .218-.1001.431-.2031.586-.104.156-.2569.32-.4419.415l-6.0534 3.469-.0096.005c-.1348.067-.2506.108-.3603.13-.1066.021-.1937.021-.2505.021h-.0416c-.1715.001-.3987.002-.6055-.159-.1971-.079-.3619-.201-.4743-.381-.1218-.194-.1553-.413-.1553-.618v-6.383l-37.8445-21.82-5.3806 3.114c-.2112.184-.4361.184-.5502.183h-.015c-.0557 0-.1655 0-.2805-.019-.0984-.016-.2516-.054-.3825-.161l-30.341-17.432-.0042-.002c-3.0441-1.8-5.7668-3.835-7.818-6.109-2.0496-2.16-3.4196-4.437-4.333-6.829C.3435 143.638 0 141.689 0 139.857v-21.03c0-.245.03-.514.057-.757l.0013-.012c.0287-.257.0538-.486.0538-.685v-.02l.002-.02c.2293-2.173.9163-4.459 2.0625-6.518 1.258-2.283 3.0813-4.44 5.3452-6.473l.0068-.006c2.378-2.035 5.094-3.841 8.2583-5.4197l.004-.0021c3.7236-1.8018 7.7856-3.2656 12.2975-4.2789Zm32.0548.7314c-10.2567-2.3366-21.632-2.3366-31.8886 0l-.0013.0003c-4.4535 1-8.4605 2.4442-12.1335 4.2214-3.1098 1.5516-5.7723 3.3236-8.1003 5.3146-2.2175 1.992-3.9796 4.085-5.1866 6.275l-.0006.001c-1.092 1.962-1.7492 4.143-1.9703 6.214-.0016.239-.0306.5-.057.737l-.0013.011c-.0286.257-.0537.487-.0537.686v21.03c0 1.746.3285 3.6.9818 5.23l.0024.005c.8794 2.304 2.198 4.499 4.1806 6.588l.0067.007c1.983 2.199 4.6379 4.189 7.6436 5.967.0008.001.0014.001.0022.001l30.4131 17.473.0203.02a.143.143 0 0 0 .0356.008c.0495.009.1043.009.1625.009h.0384c.0086 0 .0157 0 .0223-.001.0044 0 .0077 0 .0102-.001.0002 0-.0001.001 0 0l.0351-.035 5.8341-3.377 38.5951 22.253v6.817c0 .13.0226.191.0409.22.0136.022.045.06.1508.095l.084.028.0591.059a.3765.3765 0 0 0 .0529.004c.0348.002.0758.002.134.002.0554 0 .0784-.001.1086-.007.0294-.006.0792-.02.1632-.061l6.052-3.467.009-.005c.035-.018.102-.074.164-.167.029-.042.05-.083.063-.118.012-.031.014-.048.014-.051v-14.071l.04-.079c.152-.303.134-.424.128-.447-.002-.004-.002-.022-.072-.057l-.01-.005-32.408-18.677 11.5452-6.584c.0012-.001.0025-.002.0037-.002 1.6718-1.002 3.3335-2.108 4.6567-3.209l.0026-.002c1.2162-.993 2.3242-2.098 3.3348-3.107.3067-.306.5125-.613.7376-.95l.0482-.072 1.5074-.877h.1107l5.3856-3.181c.3907-.297.6185-.643.6185-1.031v-11.186c0-.43-.2669-.852-.577-1.006l-.0088-.005-3.628-2.052.0813-.284c.2137-.746.3218-1.606.3218-2.358v-9.284c0-.46-.0022-.969-.1008-1.363l-.0064-.026-.0028-.026c-.2185-2.071-.8744-4.15-1.9748-6.237-1.2069-2.189-2.9682-4.281-5.1847-6.272-2.3317-1.994-4.8818-3.764-8.0976-5.3134-3.6736-1.7776-7.682-3.2224-12.1363-4.2226l-.0012-.0003Z" clip-rule="evenodd"/>
  <path fill="#FDEDCC" d="m95.7564 183.035-6.052 3.468.1121 6.823L50.7 171.066l-3.1382-1.79v-13.983l4.5953 2.573 3.1383 1.902 7.5095 4.251 32.9515 19.016Z"/>
  <path fill="#177C1B" d="M90.489 133.705v11.186l-5.6041 3.244-9.9752 5.705-2.69 1.566V144.22l18.2693-10.515Z"/>
  <path fill="#FDEDCC" d="m90.489 133.704-18.2693 10.515-1.5691-.895 4.2591-2.461c1.7933-1.118 3.3624-2.125 4.9315-3.355 1.2329-1.007 2.3537-2.126 3.2504-3.244 1.0087-1.119 1.7933-2.238 2.4658-3.468l1.345.783 3.5866 2.125Z"/>
  <path fill="#F6A01D" d="M87.4629 117.149c0 .447.1121.895.1121 1.342 0 1.678-.3363 3.356-.7846 4.922-.8967 2.461-2.3537 4.81-4.2591 6.712-2.1296 2.349-4.8195 4.251-7.5095 5.817l-30.3741 17.45-30.374-17.45c-2.8021-1.566-5.38-3.468-7.5095-5.817-1.7933-2.014-3.3625-4.251-4.2591-6.712-.5604-1.566-.7846-3.244-.7846-4.922 0-.447 0-.895.112-1.342.2243-2.125.8968-4.139 1.9055-6.04 1.2329-2.35 3.0262-4.363 5.0437-6.153 2.3537-2.125 5.1557-3.803 7.9577-5.2568 3.8108-1.9017 7.8457-3.244 11.9928-4.1389 5.1557-1.2304 10.5356-1.7898 15.9155-1.7898 5.38 0 10.6478.5594 15.9156 1.7898 4.147 1.0068 8.182 2.3491 11.9927 4.1389 2.9142 1.4538 5.6041 3.1318 7.9578 5.2568 2.0175 1.79 3.8108 3.803 5.0437 6.153 1.0087 1.901 1.6812 3.915 1.9054 6.04Zm-14.1223 2.237c.1121-1.342 0-2.573-.4483-3.803-.4483-1.454-1.2329-2.797-2.1296-3.915-1.2329-1.566-2.802-2.909-4.4832-4.027-2.1296-1.342-4.3712-2.461-6.837-3.244-2.9141-1.007-5.8282-1.678-8.8544-2.014-3.0262-.335-6.0524-.447-9.0786-.223-3.0262.223-6.0524.671-8.9666 1.454-2.4658.671-4.8195 1.454-7.0611 2.685-.4483.223-.8966.447-1.345.671-1.345.783-2.5778 1.566-3.6987 2.572-1.1208 1.007-2.1295 2.126-3.0262 3.356-.7845 1.231-1.457 2.685-1.6812 4.139-.1121.783-.1121 1.566-.1121 2.349.1121.671.2242 1.454.4484 2.126.4483 1.454 1.2329 2.796 2.1295 3.915 1.2329 1.566 2.802 2.908 4.4833 4.027 2.1295 1.342 4.3711 2.461 6.8369 3.244 2.9142 1.006 5.8283 1.678 8.8545 2.013a61.535 61.535 0 0 0 9.0786.336c3.0262-.224 6.0524-.671 8.9665-1.454 2.4658-.672 4.8195-1.455 7.0611-2.685 1.7933-.895 3.4746-2.014 5.0437-3.356a21.5652 21.5652 0 0 0 3.0262-3.356c.7846-1.23 1.4571-2.684 1.6812-4.139.1121-.223.1121-.447.1121-.671Z"/>
  <path fill="#177C1B" d="m74.9097 153.839 9.8631-5.705c-.5604.895-1.3449 1.79-2.0174 2.685-1.0088 1.119-2.1296 2.125-3.2504 3.132-1.4571 1.231-3.0262 2.237-4.5953 3.132v-3.244Z"/>
  <path fill="#177C1B" d="M74.9098 153.839v3.132l-12.1048 7.048-7.5095-4.251 15.4672-8.949v3.691l1.4571.895 2.69-1.566Z"/>
  <path fill="#F6A01D" d="M72.2197 144.332v11.186l-1.4571-.895v-11.186l1.4571.895Z"/>
  <path fill="#F6A01D" d="M70.7627 147.017v3.803l-15.4672 8.949-3.1383-1.902v-.112l18.6055-10.738Z"/>
  <path fill="#FDEDCC" d="M87.4629 119.274c0 .448.1121.895.1121 1.343 0 1.678-.3363 3.244-.7846 4.81-.8966 2.461-2.3537 4.698-4.147 6.599-2.1296 2.35-4.7074 4.139-7.3974 5.705l-29.8137 17.227-29.8137-17.227c-2.6899-1.566-5.2678-3.467-7.3973-5.705-1.7933-1.901-3.2504-4.138-4.1471-6.599-.5604-1.566-.7845-3.132-.7845-4.81 0-.448 0-.895.112-1.343.2242-2.125.8967-4.138 1.9054-5.928 1.2329-2.349 3.0262-4.363 4.9316-6.041 2.3537-2.125 5.0437-3.803 7.8457-5.145 3.6987-1.902 7.7337-3.1321 11.7686-4.1388 5.1557-1.1186 10.3115-1.6779 15.5793-1.6779 5.2678 0 10.4236.5593 15.5794 1.6779 4.0349.8949 8.0698 2.2368 11.8806 4.1388 2.802 1.342 5.492 3.02 7.8457 5.145 2.0175 1.678 3.6987 3.692 4.9316 6.041.8966 1.901 1.5691 3.915 1.7933 5.928Z"/>
  <path fill="#177C1B" d="M72.8923 115.583c.3362 1.23.5604 2.573.4483 3.803-.1121-1.118-.4483-2.237-.8966-3.244-.6725-1.454-1.5692-2.684-2.69-3.803-1.345-1.454-2.9141-2.573-4.7074-3.58-2.0175-1.23-4.2591-2.125-6.5008-2.796-3.0262-1.007-6.0524-1.566-9.1906-1.902a44.2253 44.2253 0 0 0-9.4149 0c-3.1383.336-6.2765.895-9.1907 1.79-2.2416.671-4.4832 1.678-6.5007 2.797-1.6812 1.006-3.3624 2.125-4.7074 3.579-1.1208 1.119-2.1296 2.461-2.69 3.915-.4483 1.007-.7845 2.126-.8966 3.356-.1121-.783 0-1.566.1121-2.349.2241-1.454.7845-2.908 1.6812-4.139.7846-1.23 1.7933-2.349 3.0262-3.356 1.1208-1.006 2.3537-1.901 3.6987-2.572l1.3449-.672c2.2417-1.118 4.5954-2.013 7.0612-2.684 2.9141-.783 5.9403-1.231 8.9665-1.454 3.0262-.224 6.0524-.112 9.0786.223 3.0262.336 5.9403 1.007 8.8544 2.014 2.3538.783 4.7075 1.901 6.837 3.244 1.6812 1.118 3.2504 2.461 4.4833 4.027.5604 1.006 1.345 2.349 1.7933 3.803Zm14.6826 11.523v.783c0 .894-.1121 1.677-.3363 2.461-.1121.447-.2241.783-.3362 1.23l-1.345-.783c-.6725 1.23-1.4571 2.349-2.4658 3.468-1.0087 1.118-2.0175 2.125-3.2504 3.244-1.457 1.23-3.0262 2.349-4.9315 3.355v-4.81c2.802-1.566 5.3799-3.467 7.5094-5.816 1.7933-2.014 3.3625-4.251 4.2591-6.712.5604-1.566.7846-3.244.7846-4.922.1121 2.797.1121 5.593.1121 8.502Zm-12.6652 8.947v4.81l-4.1471 2.461v3.692l-18.6055 10.738v.112l-4.5953-2.573v13.983l3.1383 1.79-6.1645 3.468v-21.03l30.3741-17.451Z"/>
  <path fill="#F6A01D" d="M44.5357 153.504v21.03l-30.3741-17.563v-20.918l30.3741 17.451ZM1.6084 139.521v-21.03c0 1.678.3362 3.356.7845 4.922.8967 2.461 2.3537 4.81 4.2591 6.712 2.1297 2.349 4.8195 4.251 7.5095 5.817v21.029c-2.8021-1.566-5.3798-3.579-7.6216-5.928-1.7933-1.902-3.2503-4.027-4.0349-6.488-.5603-1.566-.8966-3.244-.8966-5.034Zm71.62-20.247c0 .224 0 .448-.112.672-.2242 1.454-.7846 2.908-1.6813 4.138-.7845 1.231-1.7933 2.461-3.0262 3.356-1.5691 1.343-3.2503 2.461-5.0436 3.356-2.2417 1.119-4.5954 2.014-7.0612 2.685-2.9141.783-5.9403 1.23-8.9665 1.454-3.0262.224-6.0524.112-9.0786-.336-3.0262-.335-5.9403-1.006-8.8544-2.013-2.3537-.783-4.7075-1.902-6.837-3.244-1.6812-1.119-3.2504-2.461-4.4833-4.027-.8966-1.231-1.6812-2.461-2.1295-3.915-.2242-.671-.3363-1.454-.4483-2.126.112-1.118.4483-2.237.8966-3.355.6725-1.455 1.5691-2.797 2.69-3.916 1.3449-1.454 3.0262-2.572 4.7074-3.579 2.0175-1.231 4.2591-2.125 6.5007-2.797 3.0262-1.006 6.0524-1.566 9.1907-1.789a44.0935 44.0935 0 0 1 9.4148 0c3.1383.335 6.2766.895 9.1907 1.901 2.2417.671 4.4833 1.678 6.5008 2.797 1.6812 1.007 3.2503 2.237 4.7074 3.579 1.1208 1.119 2.0174 2.461 2.6899 3.804.7846 1.118 1.1209 2.237 1.2329 3.355Z"/>
  <path fill="#FDEDCC" d="M69.0814 121.624c0 .224 0 .336-.1121.56-.2241 1.23-.6725 2.461-1.457 3.579-.6725 1.119-1.5692 2.126-2.5779 2.909-1.345 1.118-2.802 2.125-4.3712 2.908-1.9054 1.007-4.0349 1.678-6.0524 2.237-2.4658.671-5.1557 1.007-7.7336 1.231-2.5779.112-5.1558.112-7.8457-.224-2.5779-.336-5.1558-.895-7.6215-1.79-2.0175-.671-4.035-1.678-5.8283-2.796-1.457-1.007-2.802-2.126-3.8108-3.468-.7845-1.007-1.457-2.125-1.9053-3.356-.2242-.559-.3363-1.23-.3363-1.79.1121-1.006.3363-1.901.7846-2.796.5604-1.23 1.345-2.349 2.3537-3.356 1.2329-1.23 2.5779-2.237 4.0349-3.132 1.7933-1.007 3.6987-1.79 5.6041-2.461 2.5779-.783 5.2678-1.342 7.9578-1.566 2.6899-.224 5.3799-.224 8.1819 0 2.69.224 5.3799.783 7.9578 1.566 1.9054.671 3.8108 1.454 5.6041 2.461 1.4571.895 2.802 1.902 4.0349 3.132.8967 1.007 1.7933 2.126 2.3537 3.356.4484.783.6725 1.79.7846 2.796ZM29.965 152.05c-.2242 0-.2242.111-.2242.447v9.732c0 .671.4483 1.454.8967 1.79l5.1557 2.908c.2242 0 .3362-.112.3362-.336v-9.843c0-.671-.4483-1.454-.8966-1.79l-5.2678-2.908s.1121 0 0 0Z"/>
  <path fill="#177C1B" fill-rule="evenodd" d="M47.2079 154.69a.6974.6974 0 0 1 .6959-.007l4.6036 2.577 43.5991 25.169c.217.125.35.356.35.606v2.461h-1.4v-2.057l-32.6014-18.814-10.644-6.15-3.5492-1.987v12.381l2.7878 1.59 39.0044 22.484-.6992 1.213-39.0015-22.482-.0028-.002-3.1355-1.788a.6997.6997 0 0 1-.3532-.608v-13.982c0-.249.1316-.479.346-.604Z" clip-rule="evenodd"/>
  <path fill="#177C1B" d="M95.7565 183.035v13.982l-6.052 3.468v-13.982l6.052-3.468Z"/>
  <path fill="#177C1B" fill-rule="evenodd" d="M96.1074 182.429a.7.7 0 0 1 .349.606v13.982c0 .251-.134.483-.352.608l-6.052 3.467a.6983.6983 0 0 1-.699-.001.7.7 0 0 1-.349-.606v-13.982c0-.251.1343-.483.352-.608l6.052-3.468a.7008.7008 0 0 1 .699.002Zm-5.703 4.479v12.369l4.652-2.665v-12.369l-4.652 2.665Zm-45.1688-33.404v21.03h-1.4v-21.03h1.4ZM2.3083 139.521h-1.4v-.559h1.4v.559Zm80.5675 10.141c.1971-.253.3891-.5.5528-.718l1.1194.841c-.1719.229-.3712.485-.5657.734l-.0022.003c-.1972.253-.3893.5-.553.718a1.199 1.199 0 0 1-.0397.048c-1.0335 1.146-2.1772 2.173-3.2893 3.172l-.0132.012c-.0053.005-.0106.009-.0161.014-1.5016 1.268-3.1105 2.299-4.7002 3.205l-12.2181 6.936-.6911-1.217 12.2155-6.935c.0002 0-.0002 0 0 0 1.5455-.881 3.0725-1.862 4.4825-3.052 1.1147-1.001 2.1974-1.975 3.1697-3.05.1674-.222.3592-.468.5464-.708l.0023-.003Z" clip-rule="evenodd"/>
  <path fill="#177C1B" fill-rule="evenodd" d="M2.3083 139.521c0 1.699.3186 3.301.8607 4.924l.003.009c.743 2.331 2.1302 4.367 3.8759 6.219 2.1945 2.299 4.7167 4.269 7.4551 5.799l.0072.004 30.0818 17.283 5.7601-3.301.6959 1.215-6.0524 3.468a.696.696 0 0 1-.3479.092h-.1121a.6994.6994 0 0 1-.3487-.093L13.82 157.694c-.0012 0-.0024-.001-.0036-.002-2.8636-1.601-5.4954-3.657-7.7828-6.054l-.0028-.003c-1.8392-1.95-3.365-4.163-4.1913-6.751-.5777-1.731-.9311-3.484-.9311-5.363h1.4Zm42.2273-44.9384c-5.3323 0-10.6569.5544-15.753 1.7707l-.0149.0033c-4.0958.8839-8.0726 2.2076-11.8229 4.0784-2.7795 1.443-5.5188 3.088-7.8062 5.154l-.0046.004c-1.9794 1.756-3.708 3.705-4.8883 5.954l-.0015.002c-.9729 1.835-1.6141 3.762-1.8276 5.786a.7033.7033 0 0 1-.0171.097c-.0878.35-.0912.712-.0912 1.172 0 1.617.2163 3.211.743 4.684.8548 2.345 2.3614 4.505 4.1214 6.482 2.0668 2.279 4.5791 4.136 7.3304 5.673l.0072.004 30.0253 17.25 30.022-17.247c.0004-.001.0009-.001.0014-.001 2.6572-1.547 5.2793-3.407 7.3416-5.681a.4306.4306 0 0 1 .0241-.026c1.8236-1.82 3.2235-4.071 4.0875-6.432.4351-1.525.7507-3.126.7507-4.706 0-.172-.0218-.353-.0507-.584l-.002-.016c-.0254-.203-.0562-.449-.0592-.703-.217-2.011-.8565-3.928-1.824-5.752l-.0014-.002c-1.1804-2.249-2.9089-4.198-4.8884-5.954l-.0046-.004c-2.2909-2.069-4.92-3.713-7.7938-5.148-3.7578-1.7639-7.7435-3.0906-11.8497-4.0877-5.2108-1.2169-10.4241-1.7707-15.7535-1.7707Zm-16.0706.4071c5.2132-1.2434 10.6455-1.8071 16.0706-1.8071 5.4294 0 10.7509.5646 16.0748 1.8081l.006.0014c4.1839 1.0157 8.2645 2.3723 12.1251 4.1855l.015.0073c2.9505 1.4721 5.6979 3.1831 8.1119 5.3621 2.0542 1.823 3.9112 3.9 5.1961 6.348.0003 0 .0005.001.0007.001l-.6198.325.6184-.328c.0002.001.0005.001.0007.002 1.0442 1.968 1.7476 4.067 1.9824 6.293a.7055.7055 0 0 1 .0039.074c0 .173.0216.353.0506.584l.0021.016c.0267.214.0593.474.0593.742 0 1.768-.3536 3.515-.8116 5.115a.7773.7773 0 0 1-.0152.047c-.9281 2.547-2.4348 4.98-4.41 6.955.004-.004.0079-.009.0118-.013l-.5186-.47.4945.495.0123-.012c-2.1945 2.417-4.9467 4.356-7.6641 5.938l-.0034.002-30.3742 17.451a.7.7 0 0 1-.6973 0l-30.3669-17.446.3414-.612-.3487.607.0038.003c-2.8505-1.594-5.4921-3.539-7.6831-5.956l-.0042-.005c-1.8251-2.049-3.4557-4.362-4.394-6.937l-.0015-.004c-.5935-1.659-.8254-3.42-.8254-5.158v-.03c0-.416-.0002-.918.121-1.432-.0018.015-.0034.031-.005.046l.696.074-.679-.17a1.844 1.844 0 0 0-.012.05c.2396-2.209.9405-4.292 1.9773-6.247-.0002 0-.0004.001-.0006.001l.6197.325-.6183-.328c-.0002.001-.0006.001-.0008.002 1.285-2.448 3.1419-4.525 5.196-6.348l-.0023.003.4691.519-.4645-.524c-.0008.001-.0015.002-.0023.002 2.4182-2.183 5.2802-3.893 8.1022-5.3571l.0098-.0051v.0001c3.8675-1.93 7.9565-3.2896 12.1503-4.1952Zm0 0-.0074.0018.1624.6809-.1476-.6843a.1607.1607 0 0 1-.0074.0016Z" clip-rule="evenodd"/>
  <path fill="#177C1B" fill-rule="evenodd" d="M50.8471 103.079c-2.9927-.332-5.9749-.441-8.9499-.221-2.9926.221-5.9734.663-8.8353 1.432-2.4219.659-4.7321 1.537-6.9314 2.635l-1.345.671c-1.2764.637-2.4579 1.492-3.5435 2.467a.3644.3644 0 0 1-.025.022c-1.1804.964-2.1376 2.027-2.8787 3.19-.0078.012-.016.024-.0245.036-.8244 1.131-1.3455 2.477-1.5545 3.829-.1139.796-.2062 1.476-.1127 2.139.0139.083.0275.167.0412.25.1011.616.2019 1.23.3792 1.761l.005.015c.4123 1.338 1.1383 2.49 2.0187 3.699 1.1733 1.487 2.6762 2.777 4.3058 3.862 2.0811 1.311 4.381 2.403 6.6773 3.167l.0077.003c2.8675.991 5.7309 1.65 8.703 1.979a.22.22 0 0 1 .0252.004c2.9757.44 5.9502.549 8.9246.33 2.9927-.222 5.9736-.663 8.8356-1.432 2.4218-.66 4.7319-1.538 6.9311-2.636 1.7406-.868 3.3742-1.955 4.9012-3.261a.4824.4824 0 0 1 .0439-.034c1.1381-.827 2.091-1.98 2.8471-3.166.0078-.012.016-.024.0245-.036.8252-1.132 1.3465-2.48 1.5551-3.833a.7002.7002 0 0 1 .066-.207c.0277-.055.0379-.116.0379-.358 0-.021.001-.042.0029-.063.101-1.109-.0993-2.355-.4234-3.545-.4129-1.332-1.1374-2.482-2.0153-3.687-1.1734-1.488-2.6762-2.777-4.3059-3.863-2.081-1.311-4.381-2.403-6.6773-3.167l-.0076-.002c-2.8676-.991-5.731-1.65-8.703-1.98Zm-9.0531-1.617c3.0774-.228 6.1476-.114 9.2074.226 3.079.341 6.0426 1.024 9.0021 2.046 2.4071.801 4.8104 1.944 6.9854 3.315l.0145.009c1.7263 1.149 3.3559 2.539 4.6455 4.177.0053.007.0106.014.0157.021.9095 1.248 1.7496 2.554 2.2328 4.121a.8365.8365 0 0 1 .0063.021c.3437 1.258.589 2.679.4731 4.019.0004.191.0008.508-.1353.841-.248 1.517-.8384 3.035-1.7794 4.333-.8069 1.262-1.8601 2.553-3.1708 3.511-1.6053 1.37-3.3272 2.515-5.1652 3.432-2.2836 1.14-4.6805 2.051-7.1898 2.734l-.0022.001c-2.966.796-6.0372 1.25-9.0966 1.476-3.0738.227-6.1474.114-9.2199-.34-3.0745-.341-6.0341-1.024-8.9896-2.044-2.4071-.802-4.8104-1.944-6.9854-3.315l-.0144-.01c-1.7264-1.148-3.356-2.538-4.6456-4.176-.0053-.007-.0106-.014-.0157-.021-.908-1.246-1.7469-2.55-2.2304-4.114-.2142-.644-.3337-1.376-.4317-1.978-.0139-.084-.0273-.167-.0405-.246l-.0025-.016c-.1263-.882-.002-1.75.1063-2.506l.0069-.049c.2386-1.547.8339-3.102 1.7945-4.426.8236-1.287 1.8757-2.451 3.1492-3.493 1.153-1.034 2.4332-1.965 3.8417-2.668l1.345-.671c2.2836-1.139 4.6805-2.051 7.1898-2.734h.0022c2.966-.797 6.0372-1.25 9.0966-1.476Z" clip-rule="evenodd"/>
  <path fill="#177C1B" d="m85.5575 130.796 4.9316 2.797v11.186l-5.6041 3.244-12.5531 7.27-1.5692-.894v-11.075l4.2591-2.461c1.7933-1.118 3.3625-2.125 4.9316-3.355 1.2329-1.007 2.3537-2.126 3.2504-3.244.8966-1.119 1.6812-2.238 2.3537-3.468Zm0-1.566c-.1121 0-.3363 0-.4483.112-.4484.112-.7846.335-1.0088.783-.5604 1.118-1.345 2.125-2.2416 3.244-.8967 1.118-1.9054 2.013-3.1383 3.02-1.457 1.231-2.9141 2.237-4.7074 3.244l-4.2591 2.461c-.4483.336-.7846.783-.7846 1.342v11.186c0 .56.3363 1.119.7846 1.343l1.5691.895c.2242.111.5604.223.7846.223.2242 0 .5604-.112.7846-.223l12.5531-7.271h.1121l5.492-3.244c.4483-.336.785-.783.785-1.343v-11.186c0-.559-.3367-1.118-.785-1.342l-4.9316-2.797c0-.335-.3362-.447-.5604-.447Z"/>
  <path fill="#177C1B" fill-rule="evenodd" d="M86.875 118.491h1.4v9.285c0 .928-.1133 1.753-.341 2.574-.0125.156-.0473.293-.0678.375l-.0045.017c-.0149.06-.0236.095-.0296.127-.0052.028-.0055.039-.0055.039h-1.4c0-.201.0471-.387.0726-.488a.5914.5914 0 0 0 .0045-.018 2.076 2.076 0 0 0 .0295-.127.2754.2754 0 0 0 .0055-.038c0-.066.0091-.13.0271-.193.2057-.718.3092-1.437.3092-2.268v-9.285Zm-84.5667 21.03h-1.4v-21.03h1.4v21.03Zm69.5452 5.296-1.4571-.895.7327-1.193 1.457.895-.7326 1.193Z" clip-rule="evenodd"/>
  <path fill="#177C1B" fill-rule="evenodd" d="m72.9198 144.624 17.9185-10.313-.6984-1.213-18.2693 10.515a.6984.6984 0 0 0-.3508.606v11.186h1.4v-10.781Zm-45.5264 3.578c.1734-.087.3424-.096.4421-.096h.1864l5.4667 3.134.0342.025c.3289.247.6146.618.8173 1.006.2036.389.3599.865.3599 1.345v9.731c0 .221-.0557.514-.2896.748-.2336.233-.527.288-.7466.288h-.1839l-5.3552-3.021-.0362-.027c-.3289-.246-.6145-.617-.8173-1.005-.2036-.39-.3599-.865-.3599-1.345v-9.744c0-.074 0-.162.0048-.242.0047-.077.0166-.214.0735-.356.0688-.172.1985-.339.4038-.441Zm.9179 1.683v9.1c0 .191.068.443.2006.696.1228.235.2705.414.3863.51l4.4018 2.483v-9.058c0-.192-.0679-.443-.2006-.697-.1234-.236-.2718-.415-.3878-.511l-4.4003-2.523Z" clip-rule="evenodd"/>
</svg>
