<svg xmlns="http://www.w3.org/2000/svg" fill="none" viewBox="0 0 206 220">
  <path fill="#177C1B" d="M177.375 165.506c.561.337.561.897 0 1.234-.561.336-1.57.336-2.131 0-.561-.337-.561-.897 0-1.234.561-.336 1.57-.336 2.131 0Zm5.609-3.252c.561.336.561.897 0 1.233-.561.337-1.571.337-2.131 0-.561-.336-.561-.897 0-1.233.56-.337 1.57-.337 2.131 0Zm5.608-3.14c.561.336.561.897 0 1.233-.561.337-1.57.337-2.131 0-.561-.336-.561-.897 0-1.233.561-.337 1.57-.337 2.131 0Zm-16.713 3.14c.561.336.561.897 0 1.233-.561.337-1.57.337-2.131 0-.561-.336-.561-.897 0-1.233.561-.337 1.458-.337 2.131 0Zm5.609-3.14c.56.336.56.897 0 1.233-.561.337-1.571.337-2.132 0-.56-.336-.56-.897 0-1.233.561-.337 1.459-.337 2.132 0Zm5.496-3.253c.561.337.561.897 0 1.234-.561.336-1.571.336-2.131 0-.561-.337-.561-.897 0-1.234.673-.336 1.57-.336 2.131 0Zm-22.322 6.393c.561.336.561.897 0 1.233-.56.337-1.57.337-2.131 0-.561-.336-.561-.897 0-1.233.673-.337 1.571-.337 2.131 0Zm5.609-3.252c.561.336.561.897 0 1.233-.561.337-1.571.337-2.131 0-.561-.336-.561-.897 0-1.233.673-.337 1.57-.337 2.131 0Zm5.608-3.141c.561.337.561.897 0 1.234-.561.336-1.57.336-2.131 0-.561-.337-.561-.897 0-1.234.561-.336 1.57-.336 2.131 0Zm5.609-3.14c.56.337.56.897 0 1.234-.561.336-1.571.336-2.132 0-.56-.337-.56-.897 0-1.234.561-.336 1.571-.336 2.132 0Zm-22.322 6.281c.561.336.561.897 0 1.233-.561.337-1.57.337-2.131 0-.561-.336-.561-.897 0-1.233.561-.337 1.57-.337 2.131 0Zm5.609-3.141c.561.337.561.897 0 1.234-.561.336-1.571.336-2.131 0-.561-.337-.561-.897 0-1.234.56-.336 1.57-.336 2.131 0Zm5.608-3.14c.561.337.561.897 0 1.234-.561.336-1.57.336-2.131 0-.561-.337-.561-.897 0-1.234.561-.336 1.458-.336 2.131 0Zm5.496-3.252c.561.336.561.897 0 1.234-.561.336-1.57.336-2.131 0-.561-.337-.561-.898 0-1.234.673-.337 1.57-.337 2.131 0Zm-22.209 6.392c.561.337.561.897 0 1.234-.561.336-1.57.336-2.131 0-.561-.337-.561-.897 0-1.234.561-.336 1.458-.336 2.131 0Zm5.496-3.252c.561.337.561.897 0 1.234-.561.336-1.57.336-2.131 0-.561-.337-.561-.897 0-1.234.673-.336 1.57-.336 2.131 0Zm5.609-3.14c.561.336.561.897 0 1.234-.561.336-1.571.336-2.131 0-.561-.337-.561-.898 0-1.234.56-.337 1.57-.337 2.131 0Zm5.608-3.14c.561.336.561.897 0 1.233-.561.337-1.57.337-2.131 0-.561-.336-.561-.897 0-1.233.561-.337 1.57-.337 2.131 0Zm-22.321 6.28c.561.337.561.897 0 1.234-.561.336-1.57.336-2.131 0-.561-.337-.561-.897 0-1.234.561-.336 1.57-.336 2.131 0Zm5.608-3.14c.561.336.561.897 0 1.234-.561.336-1.57.336-2.131 0-.561-.337-.561-.898 0-1.234.561-.337 1.57-.337 2.131 0Zm5.609-3.253c.56.337.56.898 0 1.234-.561.337-1.571.337-2.132 0-.56-.336-.56-.897 0-1.234.561-.336 1.459-.336 2.132 0Zm5.496-3.14c.561.337.561.898 0 1.234-.561.336-1.571.336-2.131 0-.561-.336-.561-.897 0-1.234.673-.336 1.57-.336 2.131 0Zm-89.2847 44.411c.5609.337.5609.898 0 1.234-.5608.337-1.5703.337-2.1311 0-.5609-.336-.5609-.897 0-1.234.5608-.336 1.5703-.336 2.1311 0Zm5.6083-3.14c.5609.337.5609.898 0 1.234-.5608.336-1.5703.336-2.1311 0s-.5608-.897 0-1.234c.5608-.336 1.4581-.336 2.1311 0Zm5.4961-3.252c.5609.336.5609.897 0 1.234-.5608.336-1.5703.336-2.1311 0-.5609-.337-.5609-.898 0-1.234.673-.337 1.5703-.337 2.1311 0Zm5.608-3.14c.561.336.561.897 0 1.233-.56.337-1.57.337-2.131 0-.5606-.336-.5606-.897 0-1.233.673-.337 1.571-.337 2.131 0Zm5.6091-3.14c.561.336.561.897 0 1.233-.561.337-1.571.337-2.131 0-.561-.336-.561-.897 0-1.233.56-.337 1.57-.337 2.131 0Zm5.6079-3.141c.561.337.561.898 0 1.234-.561.337-1.57.337-2.131 0-.561-.336-.561-.897 0-1.234.561-.336 1.57-.336 2.131 0Zm5.6093-3.252c.56.337.56.897 0 1.234-.561.336-1.571.336-2.132 0-.56-.337-.56-.897 0-1.234.561-.336 1.459-.336 2.132 0Zm5.607-3.14c.561.336.561.897 0 1.234-.561.336-1.57.336-2.131 0-.561-.337-.561-.898 0-1.234.561-.337 1.458-.337 2.131 0Zm5.497-3.14c.561.336.561.897 0 1.233-.561.337-1.57.337-2.131 0-.561-.336-.561-.897 0-1.233.673-.337 1.57-.337 2.131 0Zm5.608-3.253c.56.337.56.898 0 1.234-.561.336-1.571.336-2.132 0-.56-.336-.56-.897 0-1.234.561-.336 1.571-.336 2.132 0Zm5.608-3.14c.561.337.561.897 0 1.234-.561.336-1.57.336-2.131 0-.561-.337-.561-.897 0-1.234.561-.336 1.57-.336 2.131 0Zm5.608-3.14c.561.337.561.897 0 1.234-.561.336-1.57.336-2.131 0-.561-.337-.561-.897 0-1.234.561-.336 1.57-.336 2.131 0Zm5.609-3.14c.561.336.561.897 0 1.234-.561.336-1.571.336-2.131 0-.561-.337-.561-.898 0-1.234.56-.337 1.458-.337 2.131 0Zm5.496-3.253c.561.337.561.898 0 1.234-.561.337-1.57.337-2.131 0-.561-.336-.561-.897 0-1.234.673-.336 1.57-.336 2.131 0Zm5.608-3.14c.561.337.561.898 0 1.234-.561.336-1.57.336-2.131 0-.561-.336-.561-.897 0-1.234.673-.336 1.57-.336 2.131 0Zm5.609-3.14c.56.337.56.897 0 1.234-.561.336-1.571.336-2.132 0-.56-.337-.56-.897 0-1.234.561-.336 1.571-.336 2.132 0Zm-94.8932 47.551c.5609.337.5609.898 0 1.234-.5608.337-1.5703.337-2.1311 0-.5609-.336-.5609-.897 0-1.234.5608-.336 1.4581-.336 2.1311 0Zm5.4961-3.252c.5609.336.5609.897 0 1.234-.5608.336-1.5703.336-2.1311 0-.5609-.337-.5609-.898 0-1.234.673-.336 1.5703-.336 2.1311 0Zm5.6084-3.14c.5609.336.5609.897 0 1.234-.5608.336-1.5703.336-2.1311 0-.5609-.337-.5609-.898 0-1.234.5608-.337 1.5703-.337 2.1311 0Zm5.6083-3.14c.5609.336.5609.897 0 1.233-.5608.337-1.5703.337-2.1311 0-.5608-.336-.5608-.897 0-1.233.5608-.337 1.5703-.337 2.1311 0Zm5.6084-3.14c.5609.336.5609.897 0 1.233-.5608.337-1.5703.337-2.1311 0-.5609-.336-.5609-.897 0-1.233.5608-.337 1.5703-.337 2.1311 0Zm5.6088-3.253c.561.337.561.897 0 1.234-.561.336-1.571.336-2.131 0-.5613-.337-.5613-.897 0-1.234.56-.336 1.458-.336 2.131 0Zm5.496-3.14c.561.337.561.897 0 1.234-.561.336-1.571.336-2.131 0-.561-.337-.561-.897 0-1.234.673-.336 1.57-.336 2.131 0Zm5.6079-3.14c.561.336.561.897 0 1.234-.561.336-1.57.336-2.131 0-.561-.337-.561-.898 0-1.234.673-.337 1.57-.337 2.131 0Zm5.6093-3.253c.56.337.56.898 0 1.234-.561.337-1.571.337-2.132 0-.56-.336-.56-.897 0-1.234.561-.336 1.571-.336 2.132 0Zm5.607-3.14c.561.337.561.898 0 1.234-.561.336-1.57.336-2.131 0-.561-.336-.561-.897 0-1.234.561-.336 1.57-.336 2.131 0Zm5.608-3.14c.561.337.561.897 0 1.234-.56.336-1.57.336-2.131 0-.561-.337-.561-.897 0-1.234.561-.336 1.458-.336 2.131 0Zm5.609-3.14c.561.337.561.897 0 1.234-.561.336-1.57.336-2.131 0-.561-.337-.561-.897 0-1.234.561-.336 1.458-.336 2.131 0Zm5.496-3.252c.561.336.561.897 0 1.233-.561.337-1.57.337-2.131 0-.561-.336-.561-.897 0-1.233.673-.337 1.57-.337 2.131 0Zm5.608-3.141c.561.337.561.898 0 1.234-.561.337-1.57.337-2.131 0-.561-.336-.561-.897 0-1.234.561-.336 1.57-.336 2.131 0Zm5.609-3.14c.561.337.561.898 0 1.234-.561.336-1.571.336-2.131 0-.561-.336-.561-.897 0-1.234.56-.336 1.57-.336 2.131 0Zm5.608-3.252c.561.336.561.897 0 1.234-.561.336-1.57.336-2.131 0-.561-.337-.561-.898 0-1.234.561-.337 1.57-.337 2.131 0Zm5.609-3.14c.56.336.56.897 0 1.233-.561.337-1.571.337-2.132 0-.56-.336-.56-.897 0-1.233.561-.337 1.459-.337 2.132 0ZM49.1689 187.375c.5609.337.5609.898 0 1.234-.5608.337-1.5703.337-2.1311 0-.5608-.336-.5608-.897 0-1.234.673-.336 1.5703-.336 2.1311 0Zm5.6084-3.14c.5609.336.5609.897 0 1.234-.5608.336-1.5703.336-2.1311 0-.5608-.337-.5608-.898 0-1.234.5608-.336 1.5703-.336 2.1311 0Zm5.6085-3.14c.5609.336.5609.897 0 1.234-.5608.336-1.5703.336-2.1311 0-.5609-.337-.5609-.898 0-1.234.5608-.337 1.5703-.337 2.1311 0Zm5.6084-3.14c.5609.336.5609.897 0 1.233-.5608.337-1.5703.337-2.1311 0-.5609-.336-.5609-.897 0-1.233.5608-.337 1.4581-.337 2.1311 0Zm5.6084-3.252c.5609.336.5609.897 0 1.233-.5608.337-1.5703.337-2.1311 0-.5609-.336-.5609-.897 0-1.233.5608-.337 1.4581-.337 2.1311 0Zm5.496-3.141c.5609.337.5609.897 0 1.234-.5608.336-1.5703.336-2.1311 0-.5608-.337-.5608-.897 0-1.234.673-.336 1.5703-.336 2.1311 0Zm5.6084-3.14c.5609.337.5609.897 0 1.234-.5608.336-1.5703.336-2.1311 0-.5609-.337-.5609-.897 0-1.234.5608-.336 1.5703-.336 2.1311 0Zm5.6088-3.252c.561.336.561.897 0 1.233-.561.337-1.571.337-2.131 0-.5613-.336-.5613-.897 0-1.233.56-.337 1.57-.337 2.131 0Zm5.6079-3.141c.561.337.561.898 0 1.234-.561.337-1.57.337-2.131 0-.561-.336-.561-.897 0-1.234.561-.336 1.57-.336 2.131 0Zm5.608-3.14c.5603.337.5603.898 0 1.234-.561.336-1.571.336-2.132 0-.56-.336-.56-.897 0-1.234.561-.336 1.459-.336 2.132 0Zm5.4973-3.14c.56.337.56.897 0 1.234-.561.336-1.571.336-2.132 0-.56-.337-.56-.897 0-1.234.673-.336 1.571-.336 2.132 0Zm5.607-3.252c.561.336.561.897 0 1.233-.561.337-1.57.337-2.131 0-.561-.336-.561-.897 0-1.233.673-.337 1.57-.337 2.131 0Zm5.608-3.14c.561.336.561.897 0 1.233-.56.337-1.57.337-2.131 0-.561-.336-.561-.897 0-1.233.561-.337 1.571-.337 2.131 0Zm5.609-3.141c.561.337.561.898 0 1.234-.561.337-1.57.337-2.131 0-.561-.336-.561-.897 0-1.234.561-.336 1.57-.336 2.131 0Zm5.608-3.252c.561.336.561.897 0 1.234-.561.336-1.57.336-2.131 0-.561-.337-.561-.898 0-1.234.561-.336 1.458-.336 2.131 0Zm5.496-3.14c.561.336.561.897 0 1.234-.561.336-1.57.336-2.131 0-.561-.337-.561-.898 0-1.234.673-.337 1.57-.337 2.131 0Zm5.609-3.14c.561.336.561.897 0 1.233-.561.337-1.571.337-2.131 0-.561-.336-.561-.897 0-1.233.673-.337 1.57-.337 2.131 0Zm5.608-3.14c.561.336.561.897 0 1.233-.561.337-1.57.337-2.131 0-.561-.336-.561-.897 0-1.233.561-.337 1.57-.337 2.131 0Z"/>
  <path fill="#177C1B" d="M47.0378 187.375c.5608-.336 1.5703-.336 2.1311 0 .5609.337.5609.898 0 1.234-.5608.337-1.5703.337-2.1311 0-.5608-.336-.5608-.897 0-1.234Zm-3.3649-3.14c.5608.336.5608.897 0 1.234-.5609.336-1.5704.336-2.1312 0-.5608-.337-.5608-.898 0-1.234.5608-.336 1.5703-.336 2.1312 0Zm5.6084-3.14c.5608.336.5608.897 0 1.234-.5609.336-1.5704.336-2.1312 0-.5608-.337-.5608-.898 0-1.234.5608-.337 1.4582-.337 2.1312 0Zm5.496-3.252c.5609.336.5609.897 0 1.233-.5608.337-1.5703.337-2.1311 0-.5608-.336-.5608-.897 0-1.233.673-.337 1.5703-.337 2.1311 0Zm5.6085-3.14c.5609.336.5609.897 0 1.233-.5608.337-1.5703.337-2.1311 0-.5609-.336-.5609-.897 0-1.233.673-.337 1.5703-.337 2.1311 0Zm5.6084-3.141c.5609.337.5609.897 0 1.234-.5608.336-1.5703.336-2.1311 0-.5609-.337-.5609-.897 0-1.234.5608-.336 1.5703-.336 2.1311 0Zm5.6084-3.252c.5609.336.5609.897 0 1.234-.5608.336-1.5703.336-2.1311 0-.5609-.337-.5609-.898 0-1.234.5608-.336 1.5703-.336 2.1311 0Zm11.2168-6.281c.5609.337.5609.898 0 1.234-.5608.337-1.5703.337-2.1311 0-.5609-.336-.5609-.897 0-1.234.5608-.336 1.4581-.336 2.1311 0Zm5.4964-3.14c.561.337.561.898 0 1.234-.561.336-1.571.336-2.131 0-.5613-.336-.5613-.897 0-1.234.673-.336 1.57-.336 2.131 0Zm5.6079-3.252c.561.337.561.897 0 1.234-.561.336-1.57.336-2.131 0-.561-.337-.561-.897 0-1.234.561-.336 1.57-.336 2.131 0Zm5.608-3.14c.5603.336.5603.897 0 1.233-.561.337-1.571.337-2.132 0-.56-.336-.56-.897 0-1.233.561-.337 1.571-.337 2.132 0Zm5.6083-3.14c.561.336.561.897 0 1.233-.561.337-1.57.337-2.131 0-.561-.336-.561-.897 0-1.233.561-.337 1.57-.337 2.131 0Zm5.608-3.253c.561.337.561.898 0 1.234-.56.337-1.57.337-2.131 0-.561-.336-.561-.897 0-1.234.561-.336 1.458-.336 2.131 0Zm5.496-3.14c.561.336.561.897 0 1.234-.56.336-1.57.336-2.131 0-.561-.337-.561-.898 0-1.234.673-.336 1.571-.336 2.131 0Zm5.609-3.14c.561.336.561.897 0 1.234-.561.336-1.57.336-2.131 0-.561-.337-.561-.898 0-1.234.673-.337 1.57-.337 2.131 0Zm5.608-3.14c.561.336.561.897 0 1.233-.561.337-1.57.337-2.131 0-.561-.336-.561-.897 0-1.233.561-.337 1.57-.337 2.131 0Zm5.609-3.253c.56.337.56.898 0 1.234-.561.336-1.571.336-2.132 0-.56-.336-.56-.897 0-1.234.561-.336 1.571-.336 2.132 0Zm5.608-3.14c.561.337.561.897 0 1.234-.561.336-1.57.336-2.131 0-.561-.337-.561-.897 0-1.234.561-.336 1.458-.336 2.131 0Z"/>
  <path fill="#177C1B" d="M41.5417 184.235c.5608-.336 1.5703-.336 2.1312 0 .5608.336.5608.897 0 1.234-.5609.336-1.5704.336-2.1312 0-.5608-.337-.5608-.898 0-1.234Zm-3.4773-3.252c.5609.336.5609.897 0 1.233-.5608.337-1.5703.337-2.1311 0-.5608-.336-.5608-.897 0-1.233.673-.337 1.5703-.337 2.1311 0Zm5.6085-3.14c.5608.336.5608.897 0 1.233-.5609.337-1.5704.337-2.1312 0-.5608-.336-.5608-.897 0-1.233.5608-.337 1.5703-.337 2.1312 0Zm5.6084-3.14c.5608.336.5608.897 0 1.233-.5609.337-1.5704.337-2.1312 0-.5608-.336-.5608-.897 0-1.233.5608-.337 1.5703-.337 2.1312 0Zm5.6084-3.253c.5608.337.5608.897 0 1.234-.5609.336-1.5704.336-2.1312 0-.5608-.337-.5608-.897 0-1.234.5608-.336 1.5703-.336 2.1312 0Zm5.6084-3.14c.5608.336.5608.897 0 1.234-.5609.336-1.5704.336-2.1312 0-.5608-.337-.5608-.898 0-1.234.5608-.336 1.4582-.336 2.1312 0Zm5.4961-3.14c.5609.336.5609.897 0 1.233-.5608.337-1.5703.337-2.1311 0-.5609-.336-.5609-.897 0-1.233.673-.337 1.5703-.337 2.1311 0Zm5.6084-3.141c.5609.337.5609.898 0 1.234-.5608.337-1.5703.337-2.1311 0-.5609-.336-.5609-.897 0-1.234.673-.336 1.5703-.336 2.1311 0Zm5.6084-3.252c.5609.337.5609.897 0 1.234-.5608.336-1.5703.336-2.1311 0-.5609-.337-.5609-.897 0-1.234.5608-.336 1.5703-.336 2.1311 0Zm5.6084-3.14c.5609.337.5609.897 0 1.234-.5608.336-1.5703.336-2.1311 0-.5609-.337-.5609-.897 0-1.234.5608-.336 1.5703-.336 2.1311 0Zm5.6073-3.14c.561.336.561.897 0 1.233-.561.337-1.57.337-2.131 0-.5609-.336-.5609-.897 0-1.233.561-.337 1.458-.337 2.131 0Zm5.497-3.252c.561.336.561.897 0 1.233-.561.337-1.57.337-2.131 0-.561-.336-.561-.897 0-1.233.673-.337 1.57-.337 2.131 0Zm5.608-3.141c.5603.337.5603.898 0 1.234-.561.337-1.571.337-2.132 0-.56-.336-.56-.897 0-1.234.673-.336 1.571-.336 2.132 0Zm5.6083-3.14c.561.336.561.897 0 1.234-.561.336-1.57.336-2.131 0-.561-.337-.561-.898 0-1.234.561-.336 1.57-.336 2.131 0Zm5.608-3.14c.561.336.561.897 0 1.234-.56.336-1.57.336-2.131 0-.561-.337-.561-.898 0-1.234.561-.337 1.571-.337 2.131 0Zm5.609-3.252c.561.336.561.897 0 1.233-.561.337-1.571.337-2.131 0-.561-.336-.561-.897 0-1.233.56-.337 1.57-.337 2.131 0Zm5.608-3.141c.561.337.561.898 0 1.234-.561.336-1.57.336-2.131 0-.561-.336-.561-.897 0-1.234.561-.336 1.458-.336 2.131 0Zm5.496-3.14c.561.337.561.897 0 1.234-.561.336-1.57.336-2.131 0-.561-.337-.561-.897 0-1.234.673-.336 1.57-.336 2.131 0Zm5.609-3.252c.56.336.56.897 0 1.234-.561.336-1.571.336-2.132 0-.56-.337-.56-.898 0-1.234.673-.336 1.571-.336 2.132 0Z"/>
  <path fill="#177C1B" d="M35.9333 180.983c.5608-.337 1.5703-.337 2.1311 0 .5609.336.5609.897 0 1.233-.5608.337-1.5703.337-2.1311 0-.5608-.336-.5608-.897 0-1.233Zm-3.3649-3.14c.5608.336.5608.897 0 1.233-.5609.337-1.5704.337-2.1312 0-.5608-.336-.5608-.897 0-1.233.5608-.337 1.5703-.337 2.1312 0Zm5.6084-3.253c.5608.337.5608.897 0 1.234-.5609.336-1.5704.336-2.1312 0-.5608-.337-.5608-.897 0-1.234.5608-.336 1.4582-.336 2.1312 0Zm5.6084-3.14c.5608.337.5608.897 0 1.234-.5609.336-1.5704.336-2.1312 0-.5608-.337-.5608-.897 0-1.234.5608-.336 1.4582-.336 2.1312 0Zm5.4961-3.14c.5608.336.5608.897 0 1.234-.5609.336-1.5704.336-2.1312 0-.5608-.337-.5608-.898 0-1.234.673-.336 1.5703-.336 2.1312 0Zm5.6084-3.14c.5608.336.5608.897 0 1.233-.5609.337-1.5704.337-2.1312 0-.5608-.336-.5608-.897 0-1.233.5608-.337 1.5703-.337 2.1312 0Zm5.6084-3.253c.5608.337.5608.898 0 1.234-.5609.337-1.5704.337-2.1312 0-.5608-.336-.5608-.897 0-1.234.5608-.336 1.5703-.336 2.1312 0Zm5.6084-3.14c.5608.337.5608.897 0 1.234-.5609.336-1.5704.336-2.1312 0-.5608-.337-.5608-.897 0-1.234.5608-.336 1.5703-.336 2.1312 0Zm5.6083-3.14c.5609.337.5609.897 0 1.234-.5608.336-1.5703.336-2.1311 0-.5608-.337-.5608-.897 0-1.234.5608-.336 1.4581-.336 2.1311 0Zm5.4962-3.252c.5609.336.5609.897 0 1.233-.5608.337-1.5703.337-2.1311 0-.5609-.336-.5609-.897 0-1.233.673-.337 1.5703-.337 2.1311 0Zm5.6084-3.14c.5609.336.5609.897 0 1.233-.5608.337-1.5703.337-2.1311 0-.5609-.336-.5609-.897 0-1.233.673-.337 1.5703-.337 2.1311 0Zm5.6073-3.141c.561.337.561.898 0 1.234-.561.337-1.57.337-2.131 0-.5609-.336-.5609-.897 0-1.234.561-.336 1.57-.336 2.131 0Zm5.608-3.14c.561.336.561.897 0 1.234-.56.336-1.57.336-2.131 0-.561-.337-.561-.898 0-1.234.561-.336 1.571-.336 2.131 0Zm5.609-3.252c.5613.336.5613.897 0 1.233-.561.337-1.57.337-2.131 0-.561-.336-.561-.897 0-1.233.561-.337 1.458-.337 2.131 0Zm5.4963-3.14c.561.336.561.897 0 1.233-.561.337-1.57.337-2.131 0-.561-.336-.561-.897 0-1.233.673-.337 1.57-.337 2.131 0Zm5.608-3.141c.561.337.561.898 0 1.234-.56.336-1.57.336-2.131 0-.561-.336-.561-.897 0-1.234.673-.336 1.571-.336 2.131 0Zm5.609-3.252c.561.337.561.897 0 1.234-.561.336-1.571.336-2.131 0-.561-.337-.561-.897 0-1.234.56-.336 1.57-.336 2.131 0Zm5.608-3.14c.561.336.561.897 0 1.234-.561.336-1.57.336-2.131 0-.561-.337-.561-.898 0-1.234.561-.336 1.57-.336 2.131 0Zm5.609-3.14c.56.336.56.897 0 1.233-.561.337-1.571.337-2.132 0-.56-.336-.56-.897 0-1.233.561-.337 1.571-.337 2.132 0Z"/>
  <path fill="#177C1B" d="M30.4372 177.843c.5608-.337 1.5703-.337 2.1312 0 .5608.336.5608.897 0 1.233-.5609.337-1.5704.337-2.1312 0-.5608-.336-.5608-.897 0-1.233ZM26.96 174.59c.5608.337.5608.897 0 1.234-.5609.336-1.5704.336-2.1312 0-.5608-.337-.5608-.897 0-1.234.673-.336 1.5703-.336 2.1312 0Zm5.6084-3.14c.5608.337.5608.897 0 1.234-.5609.336-1.5704.336-2.1312 0-.5608-.337-.5608-.897 0-1.234.673-.336 1.5703-.336 2.1312 0Zm5.6084-3.14c.5608.336.5608.897 0 1.234-.5609.336-1.5704.336-2.1312 0-.5608-.337-.5608-.898 0-1.234.5608-.336 1.5703-.336 2.1312 0Zm5.6084-3.252c.5608.336.5608.897 0 1.233-.5609.337-1.5704.337-2.1312 0-.5608-.336-.5608-.897 0-1.233.5608-.337 1.5703-.337 2.1312 0Zm5.6084-3.141c.5608.337.5608.898 0 1.234-.5609.337-1.5704.337-2.1312 0-.5608-.336-.5608-.897 0-1.234.5608-.336 1.4582-.336 2.1312 0Zm5.6083-3.14c.5609.337.5609.897 0 1.234-.5608.336-1.5703.336-2.1311 0-.5608-.337-.5608-.897 0-1.234.5608-.336 1.4581-.336 2.1311 0Zm5.4962-3.252c.5608.336.5608.897 0 1.233-.5609.337-1.5704.337-2.1312 0-.5608-.336-.5608-.897 0-1.233.673-.337 1.5703-.337 2.1312 0Zm5.6084-3.14c.5608.336.5608.897 0 1.233-.5609.337-1.5704.337-2.1312 0-.5608-.336-.5608-.897 0-1.233.5608-.337 1.5703-.337 2.1312 0Zm5.6083-3.14c.5609.336.5609.897 0 1.233-.5608.337-1.5703.337-2.1311 0-.5608-.336-.5608-.897 0-1.233.5608-.337 1.5703-.337 2.1311 0Zm5.6075-3.141c.5608.337.5608.898 0 1.234-.5609.337-1.5704.337-2.1312 0-.5608-.336-.5608-.897 0-1.234.5608-.336 1.5703-.336 2.1312 0Zm5.6084-3.252c.5608.336.5608.897 0 1.234-.5609.336-1.5704.336-2.1312 0-.5608-.337-.5608-.898 0-1.234.5608-.336 1.4582-.336 2.1312 0Zm5.496-3.14c.561.336.561.897 0 1.233-.561.337-1.57.337-2.131 0-.5609-.336-.5609-.897 0-1.233.673-.337 1.57-.337 2.131 0Zm5.608-3.14c.561.336.561.897 0 1.233-.56.337-1.57.337-2.131 0-.561-.336-.561-.897 0-1.233.673-.337 1.571-.337 2.131 0Zm5.609-3.253c.5613.337.5613.897 0 1.234-.561.336-1.57.336-2.131 0-.561-.337-.561-.897 0-1.234.561-.336 1.57-.336 2.131 0Zm5.6083-3.14c.561.337.561.897 0 1.234-.561.336-1.57.336-2.131 0-.561-.337-.561-.897 0-1.234.561-.336 1.57-.336 2.131 0Zm5.609-3.14c.56.336.56.897 0 1.234-.561.336-1.571.336-2.132 0-.56-.337-.56-.898 0-1.234.561-.336 1.459-.336 2.132 0Zm5.496-3.14c.561.336.561.897 0 1.233-.561.337-1.571.337-2.131 0-.561-.336-.561-.897 0-1.233.673-.337 1.57-.337 2.131 0Zm5.608-3.253c.561.337.561.898 0 1.234-.561.336-1.57.336-2.131 0-.561-.336-.561-.897 0-1.234.673-.336 1.57-.336 2.131 0Z"/>
  <path fill="#177C1B" d="M24.8288 174.59c.5608-.336 1.5703-.336 2.1312 0 .5608.337.5608.897 0 1.234-.5609.336-1.5704.336-2.1312 0-.5608-.337-.5608-.897 0-1.234Zm-3.3649-3.14c.5608.337.5608.897 0 1.234-.5609.336-1.5704.336-2.1312 0-.5608-.337-.5608-.897 0-1.234.5608-.336 1.5703-.336 2.1312 0Zm5.6084-3.252c.5608.336.5608.897 0 1.233-.5609.337-1.5704.337-2.1312 0-.5608-.336-.5608-.897 0-1.233.5608-.337 1.5703-.337 2.1312 0Zm5.6084-3.14c.5608.336.5608.897 0 1.233-.5609.337-1.5704.337-2.1312 0-.5608-.336-.5608-.897 0-1.233.5608-.337 1.4582-.337 2.1312 0Zm5.4961-3.141c.5608.337.5608.898 0 1.234-.5609.337-1.5704.337-2.1312 0-.5608-.336-.5608-.897 0-1.234.673-.336 1.5703-.336 2.1312 0Zm5.6084-3.14c.5608.337.5608.897 0 1.234-.5609.336-1.5704.336-2.1312 0-.5608-.337-.5608-.897 0-1.234.673-.448 1.5703-.448 2.1312 0Zm5.6084-3.252c.5608.336.5608.897 0 1.233-.5609.337-1.5704.337-2.1312 0-.5608-.336-.5608-.897 0-1.233.5608-.337 1.5703-.337 2.1312 0Zm5.6083-3.14c.5609.336.5609.897 0 1.233-.5608.337-1.5703.337-2.1311 0-.5608-.336-.5608-.897 0-1.233.5608-.337 1.5703-.337 2.1311 0Zm5.6085-3.14c.5608.336.5608.897 0 1.233-.5609.337-1.5704.337-2.1312 0-.5608-.336-.5608-.897 0-1.233.5608-.337 1.4582-.337 2.1312 0Zm5.4961-3.253c.5608.337.5608.897 0 1.234-.5609.336-1.5704.336-2.1312 0-.5608-.337-.5608-.897 0-1.234.673-.336 1.5703-.336 2.1312 0Zm5.6083-3.14c.5609.336.5609.897 0 1.234-.5608.336-1.5703.336-2.1311 0-.5608-.337-.5608-.898 0-1.234.673-.336 1.5703-.336 2.1311 0Zm5.6075-3.14c.5608.336.5608.897 0 1.233-.5609.337-1.5704.337-2.1312 0-.5608-.336-.5608-.897 0-1.233.5608-.337 1.5703-.337 2.1312 0Zm5.6084-3.253c.5608.337.5608.898 0 1.234-.5609.337-1.5704.337-2.1312 0-.5608-.336-.5608-.897 0-1.234.5608-.336 1.5703-.336 2.1312 0Zm5.6081-3.14c.561.337.561.897 0 1.234-.56.336-1.57.336-2.131 0-.5606-.337-.5606-.897 0-1.234.561-.336 1.571-.336 2.131 0Zm5.6089-3.14c.561.337.561.897 0 1.234-.561.336-1.571.336-2.131 0-.561-.337-.561-.897 0-1.234.56-.336 1.458-.336 2.131 0Zm5.496-3.14c.5613.336.5613.897 0 1.234-.561.336-1.57.336-2.131 0-.561-.337-.561-.898 0-1.234.673-.336 1.57-.336 2.131 0Zm5.6083-3.252c.561.336.561.897 0 1.233-.561.337-1.57.337-2.131 0-.561-.336-.561-.897 0-1.233.561-.337 1.57-.337 2.131 0Zm5.609-3.141c.56.337.56.898 0 1.234-.561.336-1.571.336-2.132 0-.56-.336-.56-.897 0-1.234.561-.336 1.571-.336 2.132 0Zm5.608-3.14c.561.337.561.897 0 1.234-.561.336-1.57.336-2.131 0-.561-.337-.561-.897 0-1.234.561-.336 1.57-.336 2.131 0Z"/>
  <path fill="#177C1B" d="M19.3327 171.45c.5608-.336 1.5703-.336 2.1312 0 .5608.337.5608.897 0 1.234-.5609.336-1.5704.336-2.1312 0-.5608-.337-.5608-.897 0-1.234Zm-3.3649-3.252c.5608.336.5608.897 0 1.233-.5609.337-1.5704.337-2.1312 0-.5608-.336-.5608-.897 0-1.233.5608-.337 1.4582-.337 2.1312 0Zm5.4961-3.14c.5608.336.5608.897 0 1.233-.5609.337-1.5704.337-2.1312 0-.5608-.336-.5608-.897 0-1.233.673-.337 1.5703-.337 2.1312 0Zm5.6084-3.141c.5608.337.5608.898 0 1.234-.5609.337-1.5704.337-2.1312 0-.5608-.336-.5608-.897 0-1.234.5608-.336 1.5703-.336 2.1312 0Zm5.6084-3.252c.5608.336.5608.897 0 1.234-.5609.336-1.5704.336-2.1312 0-.5608-.337-.5608-.898 0-1.234.5608-.336 1.5703-.336 2.1312 0Zm5.6084-3.14c.5608.336.5608.897 0 1.233-.5609.337-1.5704.337-2.1312 0-.5608-.336-.5608-.897 0-1.233.5608-.337 1.5703-.337 2.1312 0Zm5.6084-3.14c.5608.336.5608.897 0 1.233-.5609.337-1.5704.337-2.1312 0-.5608-.336-.5608-.897 0-1.233.5608-.337 1.4582-.337 2.1312 0Zm5.4961-3.253c.5608.337.5608.897 0 1.234-.5609.336-1.5704.336-2.1312 0-.5608-.337-.5608-.897 0-1.234.673-.336 1.5703-.336 2.1312 0Zm5.6083-3.14c.5609.337.5609.897 0 1.234-.5608.336-1.5703.336-2.1311 0-.5608-.337-.5608-.897 0-1.234.673-.336 1.5703-.336 2.1311 0Zm5.6085-3.14c.5608.336.5608.897 0 1.234-.5609.336-1.5704.336-2.1312 0-.5608-.337-.5608-.898 0-1.234.5608-.336 1.5703-.336 2.1312 0Zm5.6083-3.14c.5609.336.5609.897 0 1.233-.5608.337-1.5703.337-2.1311 0-.5608-.336-.5608-.897 0-1.233.5608-.449 1.5703-.449 2.1311 0Zm5.6075-3.253c.5608.337.5608.898 0 1.234-.5609.337-1.5704.337-2.1312 0-.5608-.336-.5608-.897 0-1.234.5608-.336 1.4582-.336 2.1312 0Zm5.4961-3.14c.5608.337.5608.897 0 1.234-.5609.336-1.5704.336-2.1312 0-.5608-.337-.5608-.897 0-1.234.673-.336 1.5703-.336 2.1312 0Zm5.6084-3.14c.5608.337.5608.897 0 1.234-.5609.336-1.5704.336-2.1312 0-.5608-.337-.5608-.897 0-1.234.673-.336 1.5703-.336 2.1312 0Zm5.6081-3.252c.561.336.561.897 0 1.233-.56.337-1.57.337-2.131 0-.5606-.336-.5606-.897 0-1.233.561-.337 1.571-.337 2.131 0Zm5.6089-3.14c.561.336.561.897 0 1.233-.561.337-1.571.337-2.131 0-.561-.336-.561-.897 0-1.233.56-.337 1.57-.337 2.131 0Zm5.608-3.141c.5613.337.5613.898 0 1.234-.561.336-1.57.336-2.131 0-.561-.336-.561-.897 0-1.234.561-.336 1.57-.336 2.131 0Zm5.6093-3.14c.56.337.56.897 0 1.234-.561.336-1.571.336-2.132 0-.56-.337-.56-.897 0-1.234.561-.448 1.459-.448 2.132 0Zm5.496-3.252c.56.336.56.897 0 1.233-.561.337-1.571.337-2.132 0-.56-.336-.56-.897 0-1.233.673-.337 1.571-.337 2.132 0Z"/>
  <path fill="#177C1B" d="M13.8368 168.198c.5608-.337 1.5703-.337 2.1311 0 .5609.336.5609.897 0 1.233-.5608.337-1.5703.337-2.1311 0-.673-.336-.673-.897 0-1.233Zm-3.4774-3.14c.5608.336.5608.897 0 1.233-.5609.337-1.5704.337-2.1312 0-.5608-.336-.5608-.897 0-1.233.5608-.337 1.5703-.337 2.1312 0Zm5.6084-3.253c.5608.337.5608.898 0 1.234-.5609.336-1.5704.336-2.1312 0-.5608-.336-.5608-.897 0-1.234.5608-.336 1.5703-.336 2.1312 0Zm5.6084-3.14c.5608.336.5608.897 0 1.234-.5609.336-1.5704.336-2.1312 0-.5608-.337-.5608-.898 0-1.234.5608-.336 1.4582-.336 2.1312 0Zm5.4961-3.14c.5608.336.5608.897 0 1.233-.5609.337-1.5704.337-2.1312 0-.5608-.336-.5608-.897 0-1.233.673-.337 1.5703-.337 2.1312 0Zm5.6084-3.252c.5608.336.5608.897 0 1.233-.5609.337-1.5704.337-2.1312 0-.5608-.336-.5608-.897 0-1.233.673-.337 1.5703-.337 2.1312 0Zm5.6084-3.141c.5608.337.5608.897 0 1.234-.5609.336-1.5704.336-2.1312 0-.5608-.337-.5608-.897 0-1.234.5608-.336 1.5703-.336 2.1312 0Zm5.6084-3.14c.5608.337.5608.897 0 1.234-.5609.336-1.5704.336-2.1312 0-.5608-.337-.5608-.897 0-1.234.5608-.336 1.5703-.336 2.1312 0Zm5.6084-3.14c.5608.336.5608.897 0 1.234-.5609.336-1.5704.336-2.1312 0-.5608-.337-.5608-.898 0-1.234.5608-.336 1.5703-.336 2.1312 0Zm5.6084-3.252c.5608.336.5608.897 0 1.233-.5609.337-1.5704.337-2.1312 0-.5608-.336-.5608-.897 0-1.233.5608-.337 1.4582-.337 2.1312 0Zm5.4961-3.141c.5608.337.5608.898 0 1.234-.5609.337-1.5704.337-2.1312 0-.5608-.336-.5608-.897 0-1.234.673-.336 1.5703-.336 2.1312 0Zm5.6083-3.14c.5609.337.5609.897 0 1.234-.5608.336-1.5703.336-2.1311 0-.5608-.337-.5608-.897 0-1.234.673-.336 1.5703-.336 2.1311 0Zm5.6075-3.252c.5608.336.5608.897 0 1.233-.5609.337-1.5704.337-2.1312 0-.5608-.336-.5608-.897 0-1.233.5608-.337 1.5703-.337 2.1312 0Zm5.6084-3.14c.5608.336.5608.897 0 1.233-.5609.337-1.5704.337-2.1312 0-.5608-.336-.5608-.897 0-1.233.5608-.337 1.5703-.337 2.1312 0Zm5.6084-3.14c.5608.336.5608.897 0 1.233-.5609.337-1.5704.337-2.1312 0-.5608-.336-.5608-.897 0-1.233.5608-.337 1.4582-.337 2.1312 0Zm5.4958-3.141c.561.337.561.898 0 1.234-.56.336-1.57.336-2.131 0-.5606-.336-.5606-.897 0-1.234.673-.336 1.571-.336 2.131 0Zm5.6089-3.252c.561.336.561.897 0 1.234-.561.336-1.571.336-2.131 0-.561-.337-.561-.898 0-1.234.673-.336 1.57-.336 2.131 0Zm5.608-3.14c.5613.336.5613.897 0 1.233-.561.337-1.57.337-2.131 0-.561-.336-.561-.897 0-1.233.561-.337 1.57-.337 2.131 0Zm5.6093-3.14c.56.336.56.897 0 1.233-.561.337-1.571.337-2.132 0-.56-.336-.56-.897 0-1.233.561-.337 1.571-.337 2.132 0Z"/>
  <path fill="#177C1B" d="M8.2282 165.058c.5608-.337 1.5703-.337 2.1312 0 .5608.336.5608.897 0 1.233-.5609.337-1.5704.337-2.1312 0-.5608-.448-.5608-.897 0-1.233Zm2.1312-6.393c.5608.336.5608.897 0 1.234-.5609.336-1.5704.336-2.1312 0-.5608-.337-.5608-.898 0-1.234.673-.336 1.5703-.336 2.1312 0Zm5.6084-3.252c.5608.336.5608.897 0 1.233-.5609.337-1.5704.337-2.1312 0-.5608-.336-.5608-.897 0-1.233.673-.337 1.5703-.337 2.1312 0Zm5.6084-3.14c.5608.336.5608.897 0 1.233-.5609.337-1.5704.337-2.1312 0-.5608-.336-.5608-.897 0-1.233.5608-.337 1.5703-.337 2.1312 0Zm5.6084-3.141c.5608.337.5608.897 0 1.234-.5609.336-1.5704.336-2.1312 0-.5608-.337-.5608-.897 0-1.234.5608-.336 1.5703-.336 2.1312 0Zm5.6084-3.14c.5608.337.5608.897 0 1.234-.5609.336-1.5704.336-2.1312 0-.5608-.337-.5608-.897 0-1.234.5608-.336 1.4582-.336 2.1312 0Zm5.4961-3.252c.5608.336.5608.897 0 1.234-.5609.336-1.5704.336-2.1312 0-.5608-.337-.5608-.898 0-1.234.673-.337 1.5703-.337 2.1312 0Zm5.6084-3.14c.5608.336.5608.897 0 1.233-.5609.337-1.5704.337-2.1312 0-.5608-.336-.5608-.897 0-1.233.673-.337 1.5703-.337 2.1312 0Zm5.6084-3.141c.5608.337.5608.898 0 1.234-.5609.337-1.5704.337-2.1312 0-.5608-.336-.5608-.897 0-1.234.5608-.336 1.5703-.336 2.1312 0Zm5.6084-3.252c.5608.337.5608.897 0 1.234-.5609.336-1.5704.336-2.1312 0-.5608-.337-.5608-.897 0-1.234.5608-.336 1.5703-.336 2.1312 0Zm5.6074-3.14c.5608.336.5608.897 0 1.233-.5608.337-1.5703.337-2.1312 0-.5608-.336-.5608-.897 0-1.233.5609-.337 1.5704-.337 2.1312 0Zm5.6084-3.14c.5608.336.5608.897 0 1.233-.5609.337-1.5704.337-2.1312 0-.5608-.336-.5608-.897 0-1.233.5608-.337 1.4582-.337 2.1312 0Zm5.4961-3.14c.5608.336.5608.897 0 1.233-.5609.337-1.5704.337-2.1312 0-.5608-.336-.5608-.897 0-1.233.673-.337 1.5703-.337 2.1312 0Zm5.6084-3.253c.5608.337.5608.897 0 1.234-.5609.336-1.5704.336-2.1312 0-.5608-.337-.5608-.897 0-1.234.5608-.336 1.5703-.336 2.1312 0Zm5.6084-3.14c.5608.336.5608.897 0 1.234-.5609.336-1.5704.336-2.1312 0-.5608-.337-.5608-.898 0-1.234.5608-.336 1.5703-.336 2.1312 0Zm5.6087-3.14c.56.336.56.897 0 1.233-.561.337-1.571.337-2.131 0-.5613-.336-.5613-.897 0-1.233.56-.337 1.57-.337 2.131 0Zm5.6081-3.253c.561.337.561.898 0 1.234-.561.337-1.57.337-2.131 0-.561-.336-.561-.897 0-1.234.561-.336 1.458-.336 2.131 0Zm5.4959-3.14c.5613.337.5613.897 0 1.234-.561.336-1.57.336-2.131 0-.561-.337-.561-.897 0-1.234.673-.336 1.57-.336 2.131 0Zm-89.284 44.412c.5608.336.5608.897 0 1.233-.5608.337-1.5703.337-2.1312 0-.5608-.336-.5608-.897 0-1.233.561-.337 1.5704-.337 2.1312 0Zm5.6084-3.141c.5608.337.5608.897 0 1.234-.5609.336-1.5703.336-2.1312 0-.5608-.337-.5608-.897 0-1.234.5609-.336 1.4582-.336 2.1312 0Zm5.4961-3.252c.5608.337.5608.897 0 1.234-.5609.336-1.5704.336-2.1312 0-.5608-.337-.5608-.897 0-1.234.673-.336 1.5703-.336 2.1312 0Zm5.6084-3.14c.5608.336.5608.897 0 1.234-.5609.336-1.5704.336-2.1312 0-.5608-.337-.5608-.898 0-1.234.673-.337 1.5703-.337 2.1312 0Zm5.6084-3.14c.5608.336.5608.897 0 1.233-.5609.337-1.5704.337-2.1312 0-.5608-.336-.5608-.897 0-1.233.5608-.337 1.5703-.337 2.1312 0Zm5.6084-3.253c.5608.337.5608.898 0 1.234-.5609.336-1.5704.336-2.1312 0-.5608-.336-.5608-.897 0-1.234.5608-.336 1.5703-.336 2.1312 0Zm5.6084-3.14c.5608.337.5608.897 0 1.234-.5609.336-1.5704.336-2.1312 0-.5608-.337-.5608-.897 0-1.234.5608-.336 1.4582-.336 2.1312 0Zm5.4961-3.14c.5608.336.5608.897 0 1.233-.5609.337-1.5704.337-2.1312 0-.5608-.336-.5608-.897 0-1.233.673-.337 1.5703-.337 2.1312 0Zm5.6084-3.14c.5608.336.5608.897 0 1.233-.5609.337-1.5704.337-2.1312 0-.5608-.336-.5608-.897 0-1.233.673-.337 1.5703-.337 2.1312 0Zm5.6074-3.253c.5608.337.5608.898 0 1.234-.5608.337-1.5703.337-2.1312 0-.5608-.336-.5608-.897 0-1.234.5609-.336 1.5704-.336 2.1312 0Zm5.6084-3.14c.5608.337.5608.897 0 1.234-.5609.336-1.5704.336-2.1312 0-.5608-.337-.5608-.897 0-1.234.5608-.336 1.5703-.336 2.1312 0Zm5.6084-3.14c.5608.336.5608.897 0 1.234-.5609.336-1.5704.336-2.1312 0-.5608-.337-.5608-.898 0-1.234.5608-.336 1.4582-.336 2.1312 0Zm5.6084-3.252c.5608.336.5608.897 0 1.233-.5609.337-1.5704.337-2.1312 0-.5608-.336-.5608-.897 0-1.233.5608-.337 1.4582-.337 2.1312 0Zm5.4961-3.141c.5608.337.5608.898 0 1.234-.5609.337-1.5704.337-2.1312 0-.5608-.336-.5608-.897 0-1.234.673-.336 1.5703-.336 2.1312 0Zm5.6087-3.14c.56.337.56.897 0 1.234-.561.336-1.571.336-2.131 0-.5613-.337-.5613-.897 0-1.234.56-.336 1.57-.336 2.131 0Zm5.6081-3.14c.561.337.561.897 0 1.234-.561.336-1.57.336-2.131 0-.561-.337-.561-.897 0-1.234.561-.336 1.57-.336 2.131 0ZM32.793 133.207c.5608.337.5608.897 0 1.234-.5609.336-1.5704.336-2.1312 0-.5608-.337-.5608-.897 0-1.234.673-.336 1.5703-.336 2.1312 0Zm5.6084-3.14c.5608.336.5608.897 0 1.233-.5609.337-1.5704.337-2.1312 0-.5608-.336-.5608-.897 0-1.233.5608-.337 1.5703-.337 2.1312 0Zm5.6084-3.252c.5608.336.5608.897 0 1.233-.5609.337-1.5704.337-2.1312 0-.5608-.336-.5608-.897 0-1.233.5608-.337 1.5703-.337 2.1312 0Zm5.6074-3.141c.5608.337.5608.898 0 1.234-.5608.337-1.5703.337-2.1312 0-.5608-.336-.5608-.897 0-1.234.5609-.336 1.5704-.336 2.1312 0Zm5.6084-3.14c.5608.337.5608.897 0 1.234-.5608.336-1.5703.336-2.1312 0-.5608-.337-.5608-.897 0-1.234.5609-.336 1.4582-.336 2.1312 0Zm5.4961-3.252c.5608.336.5608.897 0 1.234-.5608.336-1.5703.336-2.1312 0-.5608-.337-.5608-.898 0-1.234.673-.337 1.5704-.337 2.1312 0Zm5.6084-3.14c.5608.336.5608.897 0 1.233-.5609.337-1.5704.337-2.1312 0-.5608-.336-.5608-.897 0-1.233.673-.337 1.5703-.337 2.1312 0Zm5.6084-3.141c.5608.337.5608.898 0 1.234-.5609.337-1.5704.337-2.1312 0-.5608-.336-.5608-.897 0-1.234.5608-.336 1.5703-.336 2.1312 0Zm5.6084-3.14c.5608.337.5608.897 0 1.234-.5609.336-1.5704.336-2.1312 0-.5608-.337-.5608-.897 0-1.234.5608-.336 1.5703-.336 2.1312 0Zm5.6084-3.252c.5608.337.5608.897 0 1.234-.5609.336-1.5704.336-2.1312 0-.5608-.337-.5608-.897 0-1.234.5608-.336 1.4582-.336 2.1312 0Zm5.6084-3.14c.561.336.561.897 0 1.233-.561.337-1.57.337-2.131 0-.561-.336-.561-.897 0-1.233.561-.337 1.458-.337 2.131 0Zm-55.8584 25.346c.5608.336.5608.897 0 1.233-.5609.337-1.5704.337-2.1312 0-.5608-.336-.5608-.897 0-1.233.5608-.337 1.5703-.337 2.1312 0Zm5.6074-3.141c.5608.337.5608.898 0 1.234-.5608.337-1.5703.337-2.1312 0-.5608-.336-.5608-.897 0-1.234.5609-.336 1.4582-.336 2.1312 0Zm5.4971-3.252c.5608.337.5608.897 0 1.234-.5609.336-1.5704.336-2.1312 0-.5608-.337-.5608-.897 0-1.234.673-.336 1.5703-.336 2.1312 0Zm5.6074-3.14c.5608.336.5608.897 0 1.234-.5608.336-1.5703.336-2.1312 0-.5608-.337-.5608-.898 0-1.234.5609-.337 1.5704-.337 2.1312 0Zm5.6084-3.14c.5608.336.5608.897 0 1.233-.5608.337-1.5703.337-2.1312 0-.5608-.336-.5608-.897 0-1.233.5609-.337 1.5704-.337 2.1312 0Zm5.6084-3.141c.5608.337.5608.898 0 1.234-.5608.337-1.5703.337-2.1312 0-.5608-.336-.5608-.897 0-1.234.5609-.336 1.5704-.336 2.1312 0Zm5.6084-3.252c.5608.337.5608.897 0 1.234-.5608.336-1.5703.336-2.1312 0-.5608-.337-.5608-.897 0-1.234.5609-.336 1.4582-.336 2.1312 0Zm5.4961-3.14c.5608.337.5608.897 0 1.234-.5609.336-1.5704.336-2.1312 0-.5608-.337-.5608-.897 0-1.234.673-.336 1.5703-.336 2.1312 0Zm5.6084-3.14c.5608.336.5608.897 0 1.233-.5609.337-1.5704.337-2.1312 0-.5608-.336-.5608-.897 0-1.233.673-.337 1.5703-.337 2.1312 0Zm5.6084-3.2523c.5608.3364.5608.8972 0 1.2336-.5609.3365-1.5704.3365-2.1312 0-.5608-.3364-.5608-.8972 0-1.2336.5608-.3365 1.5703-.3365 2.1312 0ZM27.2969 123.562c.5608.337.5608.897 0 1.234-.5609.336-1.5704.336-2.1312 0-.5608-.337-.5608-.897 0-1.234.673-.336 1.5703-.336 2.1312 0Zm5.6084-3.14c.5608.337.5608.897 0 1.234-.5609.336-1.5704.336-2.1312 0-.5608-.337-.5608-.897 0-1.234.5608-.336 1.5703-.336 2.1312 0Zm5.6074-3.14c.5608.336.5608.897 0 1.234-.5608.336-1.5703.336-2.1312 0-.5608-.337-.5608-.898 0-1.234.5609-.337 1.5704-.337 2.1312 0Zm5.6084-3.14c.5608.336.5608.897 0 1.233-.5608.337-1.5703.337-2.1312 0-.5608-.336-.5608-.897 0-1.233.5609-.337 1.4582-.337 2.1312 0Zm5.6084-3.253c.5608.337.5608.898 0 1.234-.5608.336-1.5703.336-2.1312 0-.5608-.336-.5608-.897 0-1.234.5609-.336 1.4582-.336 2.1312 0Zm5.4961-3.14c.5608.337.5608.897 0 1.234-.5608.336-1.5703.336-2.1312 0-.5608-.337-.5608-.897 0-1.234.673-.336 1.5704-.336 2.1312 0Zm5.6084-3.14c.5608.337.5608.897 0 1.234-.5608.336-1.5703.336-2.1312 0-.5608-.337-.5608-.897 0-1.234.5609-.336 1.5704-.336 2.1312 0Zm5.6084-3.252c.5608.336.5608.897 0 1.233-.5608.337-1.5703.337-2.1312 0-.5608-.336-.5608-.897 0-1.233.5609-.337 1.5704-.337 2.1312 0Zm5.6084-3.1403c.5608.3364.5608.8972 0 1.2336-.5609.3365-1.5703.3365-2.1312 0-.5608-.3364-.5608-.8972 0-1.2336.5609-.3365 1.5703-.3365 2.1312 0Zm5.6084-3.1401c.5608.3364.5608.8971 0 1.2336-.5608.3364-1.5703.3364-2.1312 0-.5608-.3365-.5608-.8972 0-1.2336.5609-.3365 1.4582-.3365 2.1312 0Zm-50.251 22.2054c.5608.336.5608.897 0 1.234-.5608.336-1.5703.336-2.1312 0-.5608-.337-.5608-.898 0-1.234.5609-.337 1.4582-.337 2.1312 0Zm5.4971-3.253c.5608.337.5608.898 0 1.234-.5609.337-1.5704.337-2.1312 0-.5608-.336-.5608-.897 0-1.234.673-.336 1.5703-.336 2.1312 0Zm5.6074-3.14c.5608.337.5608.898 0 1.234-.5608.336-1.5703.336-2.1312 0-.5608-.336-.5608-.897 0-1.234.673-.336 1.5704-.336 2.1312 0Zm5.6084-3.14c.5608.337.5608.897 0 1.234-.5608.336-1.5703.336-2.1312 0-.5608-.337-.5608-.897 0-1.234.5609-.336 1.5704-.336 2.1312 0Zm5.6084-3.252c.5608.336.5608.897 0 1.233-.5608.337-1.5703.337-2.1312 0-.5608-.336-.5608-.897 0-1.233.5609-.337 1.5704-.337 2.1312 0Zm5.6084-3.14c.5608.336.5608.897 0 1.233-.5608.337-1.5703.337-2.1312 0-.5608-.336-.5608-.897 0-1.233.5609-.337 1.4582-.337 2.1312 0Zm5.6084-3.1403c.5608.3364.5608.8972 0 1.2336-.5608.3365-1.5703.3365-2.1312 0-.5608-.3364-.5608-.8972 0-1.2336.5609-.3365 1.4582-.3365 2.1312 0Zm5.4961-3.1401c.5608.3364.5608.8971 0 1.2336-.5608.3364-1.5703.3364-2.1312 0-.5608-.3365-.5608-.8972 0-1.2336.673-.3365 1.5704-.3365 2.1312 0Zm5.6084-3.2525c.5608.3365.5608.8972 0 1.2337-.5609.3364-1.5703.3364-2.1312 0-.5608-.3365-.5608-.8972 0-1.2337.5609-.3364 1.5703-.3364 2.1312 0ZM27.4082 110.889c.5608.337.5608.898 0 1.234-.5608.336-1.5703.336-2.1312 0-.5608-.336-.5608-.897 0-1.234.5609-.336 1.5704-.336 2.1312 0Zm5.6084-3.14c.5608.337.5608.897 0 1.234-.5608.336-1.5703.336-2.1312 0-.5608-.337-.5608-.897 0-1.234.5609-.449 1.5704-.449 2.1312 0Zm5.6084-3.252c.5608.336.5608.897 0 1.233-.5608.337-1.5703.337-2.1312 0-.5608-.336-.5608-.897 0-1.233.5609-.337 1.4582-.337 2.1312 0Zm5.4961-3.14c.5608.336.5608.897 0 1.233-.5608.337-1.5703.337-2.1312 0-.5608-.336-.5608-.897 0-1.233.673-.337 1.5704-.337 2.1312 0Zm5.6084-3.1403c.5608.3364.5608.8972 0 1.2336-.5608.3365-1.5703.3365-2.1312 0-.5608-.3364-.5608-.8972 0-1.2336.673-.3365 1.5704-.3365 2.1312 0Zm5.6084-3.2525c.5608.3365.5608.8972 0 1.2337-.5608.3364-1.5703.3364-2.1312 0-.5608-.3365-.5608-.8972 0-1.2337.5609-.3364 1.5704-.3364 2.1312 0Zm5.6084-3.1401c.5608.3365.5608.8972 0 1.2337-.5608.3364-1.5703.3364-2.1312 0-.5608-.3365-.5608-.8972 0-1.2337.5609-.3364 1.5704-.3364 2.1312 0Zm5.6084-3.1401c.5608.3364.5608.8972 0 1.2336-.5608.3365-1.5703.3365-2.1312 0-.5608-.3364-.5608-.8972 0-1.2336.5609-.3365 1.4582-.3365 2.1312 0Zm122.0373 70.43c.561.336.561.897 0 1.233-.561.337-1.57.337-2.131 0-.561-.336-.561-.897 0-1.233.561-.337 1.57-.337 2.131 0Zm5.609-3.141c.56.337.56.898 0 1.234-.561.336-1.571.336-2.132 0-.56-.336-.56-.897 0-1.234.561-.336 1.459-.336 2.132 0Zm5.496-3.252c.56.337.56.897 0 1.234-.561.336-1.571.336-2.132 0-.56-.337-.56-.897 0-1.234.673-.336 1.571-.336 2.132 0Zm5.608-3.14c.561.336.561.897 0 1.234-.561.336-1.57.336-2.131 0-.561-.337-.561-.898 0-1.234.673-.336 1.57-.336 2.131 0Z"/>
  <path fill="#177C1B" d="M186.461 159.114c.561-.337 1.57-.337 2.131 0 .561.336.561.897 0 1.233-.561.337-1.57.337-2.131 0-.561-.336-.561-.897 0-1.233Zm-3.477-3.253c.561.337.561.897 0 1.234-.561.336-1.571.336-2.131 0-.561-.337-.561-.897 0-1.234.673-.336 1.57-.336 2.131 0Zm5.608-3.14c.561.337.561.897 0 1.234-.561.336-1.57.336-2.131 0-.561-.337-.561-.897 0-1.234.561-.336 1.57-.336 2.131 0Zm5.609-3.14c.56.336.56.897 0 1.234-.561.336-1.571.336-2.132 0-.56-.337-.56-.898 0-1.234.561-.336 1.571-.336 2.132 0Zm5.608-3.14c.561.336.561.897 0 1.233-.561.337-1.57.337-2.131 0-.561-.336-.561-.897 0-1.233.561-.337 1.57-.337 2.131 0Zm5.608-3.253c.561.337.561.898 0 1.234-.561.336-1.57.336-2.131 0-.561-.336-.561-.897 0-1.234.561-.336 1.458-.336 2.131 0Z"/>
  <path fill="#177C1B" d="M180.853 155.861c.56-.336 1.57-.336 2.131 0 .561.337.561.897 0 1.234-.561.336-1.571.336-2.131 0-.561-.337-.561-.897 0-1.234Zm-3.365-3.14c.56.337.56.897 0 1.234-.561.336-1.571.336-2.132 0-.56-.337-.56-.897 0-1.234.561-.336 1.571-.336 2.132 0Zm5.608-3.14c.561.336.561.897 0 1.234-.561.336-1.57.336-2.131 0-.561-.337-.561-.898 0-1.234.561-.336 1.458-.336 2.131 0Zm5.608-3.252c.561.336.561.897 0 1.233-.56.337-1.57.337-2.131 0-.561-.336-.561-.897 0-1.233.561-.337 1.458-.337 2.131 0Zm5.497-3.141c.56.337.56.898 0 1.234-.561.336-1.571.336-2.132 0-.56-.336-.56-.897 0-1.234.673-.336 1.571-.336 2.132 0Z"/>
  <path fill="#177C1B" d="M175.356 152.721c.561-.336 1.571-.336 2.132 0 .56.337.56.897 0 1.234-.561.336-1.571.336-2.132 0-.56-.337-.56-.897 0-1.234Zm-3.477-3.252c.561.336.561.897 0 1.233-.561.337-1.57.337-2.131 0-.561-.336-.561-.897 0-1.233.673-.337 1.57-.337 2.131 0Zm5.609-3.14c.56.336.56.897 0 1.233-.561.337-1.571.337-2.132 0-.56-.336-.56-.897 0-1.233.673-.337 1.571-.337 2.132 0Zm5.608-3.141c.561.337.561.898 0 1.234-.561.336-1.57.336-2.131 0-.561-.336-.561-.897 0-1.234.561-.336 1.57-.336 2.131 0Zm5.608-3.252c.561.336.561.897 0 1.234-.56.336-1.57.336-2.131 0-.561-.337-.561-.898 0-1.234.561-.336 1.571-.336 2.131 0Zm5.609-3.14c.561.336.561.897 0 1.233-.561.337-1.571.337-2.131 0-.561-.336-.561-.897 0-1.233.56-.337 1.458-.337 2.131 0Z"/>
  <path fill="#177C1B" d="M169.748 149.469c.561-.337 1.57-.337 2.131 0 .561.336.561.897 0 1.233-.561.337-1.57.337-2.131 0-.561-.336-.561-.897 0-1.233Zm-3.365-3.14c.561.336.561.897 0 1.233-.561.337-1.57.337-2.131 0-.561-.336-.561-.897 0-1.233.561-.337 1.57-.337 2.131 0Zm5.609-3.253c.56.337.56.898 0 1.234-.561.336-1.571.336-2.132 0-.56-.336-.56-.897 0-1.234.561-.336 1.571-.336 2.132 0Zm5.608-3.14c.561.336.561.897 0 1.234-.561.336-1.57.336-2.131 0-.561-.337-.561-.898 0-1.234.561-.336 1.458-.336 2.131 0Zm5.496-3.14c.561.336.561.897 0 1.233-.561.337-1.57.337-2.131 0-.561-.336-.561-.897 0-1.233.673-.337 1.57-.337 2.131 0Zm5.608-3.14c.561.336.561.897 0 1.233-.56.337-1.57.337-2.131 0-.561-.336-.561-.897 0-1.233.673-.337 1.571-.337 2.131 0Zm5.609-3.253c.561.337.561.897 0 1.234-.561.336-1.571.336-2.131 0-.561-.337-.561-.897 0-1.234.56-.336 1.57-.336 2.131 0Z"/>
  <path fill="#177C1B" d="M164.252 146.329c.561-.337 1.57-.337 2.131 0 .561.336.561.897 0 1.233-.561.337-1.57.337-2.131 0-.561-.336-.561-.897 0-1.233Zm-3.477-3.253c.561.337.561.898 0 1.234-.561.336-1.571.336-2.131 0-.561-.336-.561-.897 0-1.234.673-.336 1.57-.336 2.131 0Zm5.608-3.14c.561.336.561.897 0 1.234-.561.336-1.57.336-2.131 0-.561-.337-.561-.898 0-1.234.673-.336 1.57-.336 2.131 0Zm5.609-3.14c.56.336.56.897 0 1.233-.561.337-1.571.337-2.132 0-.56-.336-.56-.897 0-1.233.561-.337 1.571-.337 2.132 0Zm5.608-3.252c.561.336.561.897 0 1.233-.561.337-1.57.337-2.131 0-.561-.336-.561-.897 0-1.233.561-.337 1.57-.337 2.131 0Zm5.608-3.141c.561.337.561.897 0 1.234-.561.336-1.57.336-2.131 0-.561-.337-.561-.897 0-1.234.561-.336 1.57-.336 2.131 0Zm5.609-3.14c.561.337.561.897 0 1.234-.561.336-1.571.336-2.131 0-.561-.337-.561-.897 0-1.234.56-.336 1.458-.336 2.131 0Z"/>
  <path fill="#177C1B" d="M158.756 143.076c.561-.336 1.57-.336 2.131 0 .561.337.561.898 0 1.234-.561.336-1.57.336-2.131 0-.673-.336-.673-.897 0-1.234Zm-3.477-3.14c.56.336.56.897 0 1.234-.561.336-1.571.336-2.132 0-.56-.337-.56-.898 0-1.234.561-.336 1.571-.336 2.132 0Zm5.608-3.252c.561.336.561.897 0 1.233-.561.337-1.57.337-2.131 0-.561-.336-.561-.897 0-1.233.561-.337 1.57-.337 2.131 0Zm5.608-3.14c.561.336.561.897 0 1.233-.56.337-1.57.337-2.131 0-.561-.336-.561-.897 0-1.233.561-.337 1.458-.337 2.131 0Zm5.497-3.141c.56.337.56.897 0 1.234-.561.336-1.571.336-2.132 0-.56-.337-.56-.897 0-1.234.673-.336 1.571-.336 2.132 0Zm5.608-3.14c.561.336.561.897 0 1.234-.561.336-1.57.336-2.131 0-.561-.337-.561-.898 0-1.234.673-.449 1.57-.449 2.131 0Zm5.608-3.252c.561.336.561.897 0 1.234-.561.336-1.57.336-2.131 0-.561-.337-.561-.898 0-1.234.561-.337 1.57-.337 2.131 0Z"/>
  <path fill="#177C1B" d="M153.147 139.936c.561-.336 1.571-.336 2.132 0 .56.336.56.897 0 1.234-.561.336-1.571.336-2.132 0-.56-.337-.56-.898 0-1.234Zm-3.364-3.252c.56.336.56.897 0 1.233-.561.337-1.571.337-2.132 0-.56-.336-.56-.897 0-1.233.561-.337 1.459-.337 2.132 0Zm5.496-3.14c.56.336.56.897 0 1.233-.561.337-1.571.337-2.132 0-.56-.336-.56-.897 0-1.233.673-.337 1.571-.337 2.132 0Zm5.608-3.141c.561.337.561.897 0 1.234-.561.336-1.57.336-2.131 0-.561-.337-.561-.897 0-1.234.673-.336 1.57-.336 2.131 0Zm5.608-3.252c.561.337.561.897 0 1.234-.56.336-1.57.336-2.131 0-.561-.337-.561-.897 0-1.234.561-.336 1.571-.336 2.131 0Zm5.609-3.14c.561.336.561.897 0 1.234-.561.336-1.571.336-2.131 0-.561-.337-.561-.898 0-1.234.56-.337 1.57-.337 2.131 0Zm5.608-3.14c.561.336.561.897 0 1.233-.561.337-1.57.337-2.131 0-.561-.336-.561-.897 0-1.233.561-.337 1.458-.337 2.131 0Z"/>
  <path fill="#177C1B" d="M147.652 136.684c.56-.337 1.57-.337 2.131 0 .56.336.56.897 0 1.233-.561.337-1.571.337-2.131 0-.673-.336-.673-.897 0-1.233Zm-3.478-3.14c.561.336.561.897 0 1.233-.561.337-1.57.337-2.131 0-.561-.336-.561-.897 0-1.233.561-.337 1.57-.337 2.131 0Zm5.609-3.253c.56.337.56.897 0 1.234-.561.336-1.571.336-2.132 0-.56-.337-.56-.897 0-1.234.561-.336 1.571-.336 2.132 0Zm5.608-3.14c.561.337.561.897 0 1.234-.561.336-1.57.336-2.131 0-.561-.337-.561-.897 0-1.234.561-.336 1.57-.336 2.131 0Zm5.608-3.14c.561.336.561.897 0 1.234-.561.336-1.57.336-2.131 0-.561-.337-.561-.898 0-1.234.561-.337 1.458-.337 2.131 0Zm5.496-3.253c.561.337.561.898 0 1.234-.56.337-1.57.337-2.131 0-.561-.336-.561-.897 0-1.234.673-.336 1.571-.336 2.131 0Zm5.609-3.14c.561.337.561.898 0 1.234-.561.336-1.571.336-2.131 0-.561-.336-.561-.897 0-1.234.56-.336 1.57-.336 2.131 0Zm5.608-3.14c.561.337.561.897 0 1.234-.561.336-1.57.336-2.131 0-.561-.337-.561-.897 0-1.234.561-.336 1.57-.336 2.131 0Z"/>
  <path fill="#177C1B" d="M142.043 133.544c.561-.337 1.57-.337 2.131 0 .561.336.561.897 0 1.233-.561.337-1.57.337-2.131 0-.561-.448-.561-.897 0-1.233Zm-3.365-3.253c.561.337.561.897 0 1.234-.561.336-1.57.336-2.131 0-.561-.337-.561-.897 0-1.234.561-.336 1.458-.336 2.131 0Zm5.496-3.14c.561.337.561.897 0 1.234-.561.336-1.57.336-2.131 0-.561-.337-.561-.897 0-1.234.673-.336 1.57-.336 2.131 0Zm5.609-3.252c.56.336.56.897 0 1.233-.561.337-1.571.337-2.132 0-.56-.336-.56-.897 0-1.233.673-.337 1.571-.337 2.132 0Zm5.608-3.141c.561.337.561.898 0 1.234-.561.337-1.57.337-2.131 0-.561-.336-.561-.897 0-1.234.561-.336 1.57-.336 2.131 0Zm5.608-3.14c.561.337.561.898 0 1.234-.561.336-1.57.336-2.131 0-.561-.336-.561-.897 0-1.234.561-.336 1.57-.336 2.131 0Zm5.609-3.14c.561.337.561.897 0 1.234-.561.336-1.571.336-2.131 0-.561-.337-.561-.897 0-1.234.56-.336 1.57-.336 2.131 0Zm5.608-3.252c.561.336.561.897 0 1.233-.561.337-1.57.337-2.131 0-.561-.336-.561-.897 0-1.233.561-.337 1.458-.337 2.131 0Z"/>
  <path fill="#177C1B" d="M136.547 130.291c.561-.336 1.57-.336 2.131 0 .561.337.561.897 0 1.234-.561.336-1.57.336-2.131 0-.561-.337-.561-.897 0-1.234Zm-3.477-3.252c.56.336.56.897 0 1.233-.561.337-1.571.337-2.132 0-.56-.336-.56-.897 0-1.233.673-.337 1.571-.337 2.132 0Zm5.608-3.14c.561.336.561.897 0 1.233-.561.337-1.57.337-2.131 0-.561-.336-.561-.897 0-1.233.561-.337 1.57-.337 2.131 0Zm5.608-3.141c.561.337.561.898 0 1.234-.56.337-1.57.337-2.131 0-.561-.336-.561-.897 0-1.234.561-.336 1.571-.336 2.131 0Zm5.609-3.14c.561.337.561.898 0 1.234-.561.336-1.57.336-2.131 0-.561-.336-.561-.897 0-1.234.561-.336 1.458-.336 2.131 0Zm5.496-3.252c.561.336.561.897 0 1.234-.561.336-1.57.336-2.131 0-.561-.337-.561-.898 0-1.234.673-.337 1.57-.337 2.131 0Zm5.608-3.14c.561.336.561.897 0 1.233-.561.337-1.57.337-2.131 0-.561-.336-.561-.897 0-1.233.673-.337 1.57-.337 2.131 0Zm5.609-3.14c.561.336.561.897 0 1.233-.561.337-1.571.337-2.131 0-.561-.336-.561-.897 0-1.233.56-.337 1.57-.337 2.131 0Z"/>
  <path fill="#177C1B" d="M130.938 127.039c.561-.337 1.571-.337 2.132 0 .56.336.56.897 0 1.233-.561.337-1.571.337-2.132 0-.56-.336-.56-.897 0-1.233Zm-3.364-3.14c.56.336.56.897 0 1.233-.561.337-1.571.337-2.132 0-.56-.336-.56-.897 0-1.233.561-.337 1.571-.337 2.132 0Zm5.608-3.141c.561.337.561.898 0 1.234-.561.337-1.57.337-2.131 0-.561-.336-.561-.897 0-1.234.561-.336 1.458-.336 2.131 0Zm5.496-3.252c.561.336.561.897 0 1.234-.561.336-1.57.336-2.131 0-.561-.337-.561-.898 0-1.234.673-.336 1.57-.336 2.131 0Zm5.608-3.14c.561.336.561.897 0 1.234-.56.336-1.57.336-2.131 0-.561-.337-.561-.898 0-1.234.561-.337 1.571-.337 2.131 0Zm5.609-3.14c.561.336.561.897 0 1.233-.561.337-1.57.337-2.131 0-.561-.336-.561-.897 0-1.233.561-.337 1.57-.337 2.131 0Zm5.608-3.253c.561.337.561.898 0 1.234-.561.336-1.57.336-2.131 0-.561-.336-.561-.897 0-1.234.561-.336 1.57-.336 2.131 0Zm5.609-3.14c.56.337.56.897 0 1.234-.561.336-1.571.336-2.132 0-.56-.337-.56-.897 0-1.234.561-.336 1.459-.336 2.132 0Z"/>
  <path fill="#177C1B" d="M125.442 123.899c.561-.337 1.571-.337 2.132 0 .56.336.56.897 0 1.233-.561.337-1.571.337-2.132 0-.56-.336-.56-.897 0-1.233Zm-3.477-3.253c.561.337.561.898 0 1.234-.561.336-1.57.336-2.131 0-.561-.336-.561-.897 0-1.234.673-.336 1.57-.336 2.131 0Zm5.609-3.14c.56.336.56.897 0 1.234-.561.336-1.571.336-2.132 0-.56-.337-.56-.898 0-1.234.561-.336 1.571-.336 2.132 0Zm5.608-3.14c.561.336.561.897 0 1.234-.561.336-1.57.336-2.131 0-.561-.337-.561-.898 0-1.234.561-.337 1.57-.337 2.131 0Zm5.608-3.252c.561.336.561.897 0 1.233-.561.337-1.57.337-2.131 0-.561-.336-.561-.897 0-1.233.561-.337 1.458-.337 2.131 0Zm5.609-3.141c.561.337.561.898 0 1.234-.561.336-1.571.336-2.131 0-.561-.336-.561-.897 0-1.234.56-.336 1.458-.336 2.131 0Zm5.496-3.14c.561.337.561.897 0 1.234-.561.336-1.57.336-2.131 0-.561-.337-.561-.897 0-1.234.673-.336 1.57-.336 2.131 0Z"/>
  <path fill="#177C1B" d="M119.834 120.646c.561-.336 1.57-.336 2.131 0 .561.337.561.898 0 1.234-.561.336-1.57.336-2.131 0-.561-.336-.561-.897 0-1.234Zm-3.365-3.14c.561.336.561.897 0 1.234-.561.336-1.57.336-2.131 0-.561-.337-.561-.898 0-1.234.561-.336 1.57-.336 2.131 0Zm5.608-3.252c.561.336.561.897 0 1.233-.56.337-1.57.337-2.131 0-.561-.336-.561-.897 0-1.233.561-.337 1.458-.337 2.131 0Zm5.497-3.14c.56.336.56.897 0 1.233-.561.337-1.571.337-2.132 0-.56-.336-.56-.897 0-1.233.673-.337 1.571-.337 2.132 0Zm5.608-3.141c.561.337.561.898 0 1.234-.561.336-1.57.336-2.131 0-.561-.336-.561-.897 0-1.234.673-.336 1.57-.336 2.131 0Zm5.608-3.14c.561.337.561.897 0 1.234-.561.336-1.57.336-2.131 0-.561-.337-.561-.897 0-1.234.561-.336 1.57-.336 2.131 0Z"/>
  <path fill="#177C1B" d="M114.338 117.506c.561-.336 1.57-.336 2.131 0 .561.336.561.897 0 1.234-.561.336-1.57.336-2.131 0-.561-.337-.561-.898 0-1.234Zm-3.477-3.252c.56.336.56.897 0 1.233-.561.337-1.571.337-2.132 0-.56-.336-.56-.897 0-1.233.673-.337 1.571-.337 2.132 0Zm5.608-3.14c.561.336.561.897 0 1.233-.561.337-1.57.337-2.131 0-.561-.336-.561-.897 0-1.233.561-.337 1.57-.337 2.131 0Zm5.608-3.141c.561.337.561.898 0 1.234-.56.336-1.57.336-2.131 0-.561-.336-.561-.897 0-1.234.561-.336 1.571-.336 2.131 0Zm5.609-3.252c.561.337.561.897 0 1.234-.561.336-1.57.336-2.131 0-.561-.337-.561-.897 0-1.234.561-.336 1.57-.336 2.131 0Z"/>
  <path fill="#177C1B" d="M108.729 114.254c.561-.337 1.571-.337 2.132 0 .56.336.56.897 0 1.233-.561.337-1.571.337-2.132 0-.56-.336-.56-.897 0-1.233Zm-3.364-3.14c.56.336.56.897 0 1.233-.561.337-1.571.337-2.132 0-.56-.336-.56-.897 0-1.233.561-.337 1.571-.337 2.132 0Zm5.608-3.253c.561.337.561.897 0 1.234-.561.336-1.57.336-2.131 0-.561-.337-.561-.897 0-1.234.561-.336 1.458-.336 2.131 0Zm5.608-3.14c.561.337.561.897 0 1.234-.56.336-1.57.336-2.131 0-.561-.337-.561-.897 0-1.234.561-.336 1.458-.336 2.131 0Zm5.496-3.14c.561.336.561.897 0 1.234-.56.336-1.57.336-2.131 0-.561-.337-.561-.898 0-1.234.673-.336 1.571-.336 2.131 0Zm5.609-3.1401c.561.3365.561.8972 0 1.2337-.561.3364-1.57.3364-2.131 0-.561-.3365-.561-.8972 0-1.2337.561-.4486 1.57-.4486 2.131 0Z"/>
  <path fill="#177C1B" d="M103.233 111.114c.561-.337 1.571-.337 2.132 0 .56.336.56.897 0 1.233-.561.337-1.571.337-2.132 0-.56-.336-.56-.897 0-1.233Zm-3.4773-3.253c.5613.337.5613.897 0 1.234-.561.336-1.57.336-2.131 0-.561-.337-.561-.897 0-1.234.673-.336 1.57-.336 2.131 0Zm5.6093-3.14c.56.337.56.897 0 1.234-.561.336-1.571.336-2.132 0-.56-.337-.56-.897 0-1.234.673-.336 1.571-.336 2.132 0Zm5.608-3.14c.561.336.561.897 0 1.234-.561.336-1.57.336-2.131 0-.561-.337-.561-.898 0-1.234.561-.336 1.57-.336 2.131 0Zm5.608-3.2525c.561.3365.561.8972 0 1.2337-.56.3364-1.57.3364-2.131 0-.561-.3365-.561-.8972 0-1.2337.561-.3364 1.571-.3364 2.131 0Zm5.609-3.1397c.561.3365.561.8972 0 1.2337-.561.3364-1.571.3364-2.131 0-.561-.3365-.561-.8972 0-1.2337.56-.3364 1.458-.3364 2.131 0Zm5.608-3.1405c.561.3364.561.8972 0 1.2336-.561.3365-1.57.3365-2.131 0-.561-.3364-.561-.8972 0-1.2336.561-.3365 1.458-.3365 2.131 0Z"/>
  <path fill="#177C1B" d="M97.7367 107.861c.561-.336 1.571-.336 2.132 0 .5603.337.5603.897 0 1.234-.561.336-1.571.336-2.132 0-.673-.337-.673-.897 0-1.234Zm-3.4769-3.14c.561.337.561.897 0 1.234-.561.336-1.57.336-2.131 0-.561-.337-.561-.897 0-1.234.561-.336 1.57-.336 2.131 0Zm5.6079-3.252c.5613.336.5613.897 0 1.233-.56.337-1.57.337-2.131 0-.561-.336-.561-.897 0-1.233.561-.337 1.571-.337 2.131 0Zm5.6093-3.1405c.561.3365.561.8972 0 1.2337-.561.3364-1.57.3364-2.131 0-.561-.3365-.561-.8972 0-1.2337.561-.3364 1.458-.3364 2.131 0Zm5.496-3.1397c.561.3365.561.8972 0 1.2337-.561.3364-1.57.3364-2.131 0-.561-.3365-.561-.8972 0-1.2337.673-.3364 1.57-.3364 2.131 0Zm5.608-3.2528c.561.3364.561.8972 0 1.2336-.56.3365-1.57.3365-2.131 0-.561-.3364-.561-.8972 0-1.2336.673-.3365 1.571-.3365 2.131 0Zm5.609-3.1398c.561.3365.561.8972 0 1.2337-.561.3364-1.571.3364-2.131 0-.561-.3365-.561-.8972 0-1.2337.56-.3364 1.57-.3364 2.131 0Zm5.608-3.1405c.561.3364.561.8972 0 1.2336-.561.3365-1.57.3365-2.131 0-.561-.3364-.561-.8972 0-1.2336.561-.3365 1.57-.3365 2.131 0Z"/>
  <path fill="#177C1B" d="M92.1288 104.721c.561-.336 1.57-.336 2.131 0 .561.337.561.897 0 1.234-.561.336-1.57.336-2.131 0-.561-.449-.561-.897 0-1.234Zm-3.3651-3.252c.561.336.561.897 0 1.233-.561.337-1.57.337-2.131 0-.561-.336-.561-.897 0-1.233.561-.337 1.458-.337 2.131 0Zm5.4961-3.1405c.561.3365.561.8972 0 1.2337-.561.3364-1.57.3364-2.131 0-.561-.3365-.561-.8972 0-1.2337.673-.3364 1.57-.3364 2.131 0Zm5.6079-3.252c.5613.3365.5613.8972 0 1.2337-.56.3364-1.57.3364-2.131 0-.561-.3365-.561-.8972 0-1.2337.561-.3364 1.571-.3364 2.131 0Zm5.6093-3.1405c.561.3364.561.8972 0 1.2336-.561.3365-1.57.3365-2.131 0-.561-.3364-.561-.8972 0-1.2336.561-.3365 1.57-.3365 2.131 0Zm5.608-3.1398c.561.3365.561.8972 0 1.2337-.561.3364-1.57.3364-2.131 0-.561-.3365-.561-.8972 0-1.2337.561-.3364 1.57-.3364 2.131 0Zm5.609-3.1405c.56.3364.56.8972 0 1.2336-.561.3365-1.571.3365-2.131 0-.561-.3364-.561-.8972 0-1.2336.56-.3365 1.458-.3365 2.131 0Zm5.496-3.252c.561.3364.561.8972 0 1.2336-.561.3364-1.571.3364-2.131 0-.561-.3364-.561-.8972 0-1.2336.673-.3365 1.57-.3365 2.131 0Zm5.608-3.1402c.561.3365.561.8972 0 1.2337-.561.3364-1.57.3364-2.131 0-.561-.3365-.561-.8972 0-1.2337.673-.3364 1.57-.3364 2.131 0Z"/>
  <path fill="#177C1B" d="M86.6327 101.469c.561-.337 1.57-.337 2.131 0 .561.336.561.897 0 1.233-.561.337-1.57.337-2.131 0-.673-.336-.673-.897 0-1.233Zm-3.4774-3.2523c.5608.3364.5608.8972 0 1.2336-.5609.3365-1.5704.3365-2.1312 0-.5608-.3364-.5608-.8972 0-1.2336.5608-.3365 1.5703-.3365 2.1312 0Zm5.6084-3.1402c.561.3365.561.8972 0 1.2337-.561.3364-1.57.3364-2.131 0-.561-.3365-.561-.8972 0-1.2337.561-.3364 1.57-.3364 2.131 0Zm5.608-3.1405c.561.3364.561.8972 0 1.2336-.56.3365-1.57.3365-2.131 0-.561-.3364-.561-.8972 0-1.2336.561-.3365 1.458-.3365 2.131 0Zm5.609-3.1398c.5613.3365.5613.8972 0 1.2337-.561.3364-1.571.3364-2.131 0-.561-.3365-.561-.8972 0-1.2337.56-.3364 1.458-.3364 2.131 0Zm5.4963-3.2528c.561.3364.561.8972 0 1.2336-.561.3365-1.57.3365-2.131 0-.561-.3364-.561-.8972 0-1.2336.673-.3365 1.57-.3365 2.131 0Zm5.608-3.1397c.561.3364.561.8972 0 1.2336-.561.3364-1.57.3364-2.131 0-.561-.3364-.561-.8972 0-1.2336.561-.3365 1.57-.3365 2.131 0Zm5.609-3.1402c.56.3365.56.8972 0 1.2337-.561.3364-1.571.3364-2.131 0-.561-.3365-.561-.8972 0-1.2337.56-.3364 1.57-.3364 2.131 0Zm5.608-3.2524c.561.3365.561.8972 0 1.2337-.561.3364-1.57.3364-2.131 0-.561-.3365-.561-.8972 0-1.2337.561-.3364 1.57-.3364 2.131 0Z"/>
  <path fill="#177C1B" d="M81.0241 98.2167c.5608-.3365 1.5703-.3365 2.1312 0 .5608.3364.5608.8972 0 1.2336-.5609.3365-1.5704.3365-2.1312 0-.5608-.3364-.5608-.8972 0-1.2336Zm-3.3649-3.1402c.5608.3365.5608.8972 0 1.2337-.5608.3364-1.5703.3364-2.1312 0-.5608-.3365-.5608-.8972 0-1.2337.5609-.3364 1.4582-.3364 2.1312 0Zm5.4961-3.1405c.5608.3364.5608.8972 0 1.2336-.5609.3365-1.5704.3365-2.1312 0-.5608-.3364-.5608-.8972 0-1.2336.673-.3365 1.5703-.3365 2.1312 0Zm5.6084-3.252c.561.3364.561.8972 0 1.2336-.561.3365-1.57.3365-2.131 0-.561-.3364-.561-.8972 0-1.2336.673-.3365 1.57-.3365 2.131 0Zm5.608-3.1406c.561.3364.561.8972 0 1.2336-.56.3365-1.57.3365-2.131 0-.561-.3364-.561-.8972 0-1.2336.561-.3365 1.571-.3365 2.131 0Zm5.609-3.1397c.5613.3364.5613.8972 0 1.2336-.561.3364-1.571.3364-2.131 0-.561-.3364-.561-.8972 0-1.2336.56-.3365 1.57-.3365 2.131 0Zm5.6083-3.2524c.561.3364.561.8972 0 1.2336-.561.3365-1.57.3365-2.131 0-.561-.3364-.561-.8972 0-1.2336.561-.3365 1.458-.3365 2.131 0Zm5.496-3.1402c.561.3365.561.8972 0 1.2337-.561.3364-1.57.3364-2.131 0-.561-.3365-.561-.8972 0-1.2337.673-.3364 1.57-.3364 2.131 0Zm5.609-3.1406c.56.3365.56.8972 0 1.2337-.561.3364-1.571.3364-2.131 0-.561-.3365-.561-.8972 0-1.2337.673-.3364 1.57-.3364 2.131 0Z"/>
  <path fill="#177C1B" d="M75.5282 95.0765c.5608-.3364 1.5703-.3364 2.1311 0 .5609.3365.5609.8972 0 1.2337-.5608.3364-1.5703.3364-2.1311 0-.673-.3365-.673-.8972 0-1.2337Zm-3.4774-3.2524c.5608.3365.5608.8972 0 1.2337-.5609.3364-1.5703.3364-2.1312 0-.5608-.3365-.5608-.8972 0-1.2337.5609-.3364 1.5703-.3364 2.1312 0Zm5.6084-3.1401c.5608.3364.5608.8972 0 1.2336-.5608.3365-1.5703.3365-2.1312 0-.5608-.3364-.5608-.8972 0-1.2336.5609-.3365 1.5704-.3365 2.1312 0Zm5.6084-3.1406c.5608.3364.5608.8972 0 1.2336-.5608.3365-1.5703.3365-2.1312 0-.5608-.3364-.5608-.8972 0-1.2336.5609-.3365 1.5704-.3365 2.1312 0Zm5.6081-3.252c.561.3364.561.8972 0 1.2336-.561.3365-1.57.3365-2.131 0-.561-.3364-.561-.8972 0-1.2336.561-.3365 1.458-.3365 2.131 0Zm5.496-3.1401c.561.3364.561.8972 0 1.2336-.56.3365-1.57.3365-2.131 0-.561-.3364-.561-.8972 0-1.2336.673-.3365 1.571-.3365 2.131 0Zm5.609-3.1402c.5613.3365.5613.8972 0 1.2337-.561.3364-1.571.3364-2.131 0-.561-.3365-.561-.8972 0-1.2337.673-.3364 1.57-.3364 2.131 0Zm5.6083-3.1406c.561.3365.561.8972 0 1.2337-.561.3364-1.57.3364-2.131 0-.561-.3365-.561-.8972 0-1.2337.561-.3364 1.57-.3364 2.131 0Zm5.609-3.252c.56.3365.56.8972 0 1.2337-.561.3364-1.571.3364-2.132 0-.56-.3365-.56-.8972 0-1.2337.561-.3364 1.571-.3364 2.132 0Zm5.608-3.1401c.561.3365.561.8972 0 1.2337-.561.3364-1.57.3364-2.131 0-.561-.3365-.561-.8972 0-1.2337.561-.3364 1.458-.3364 2.131 0Z"/>
  <path fill="#177C1B" d="M69.9196 91.8241c.5609-.3364 1.5703-.3364 2.1312 0 .5608.3365.5608.8972 0 1.2337-.5609.3364-1.5703.3364-2.1312 0-.5608-.3365-.5608-.8972 0-1.2337Zm-3.3649-3.1401c.5608.3364.5608.8972 0 1.2336-.5608.3365-1.5703.3365-2.1312 0-.5608-.3364-.5608-.8972 0-1.2336.5609-.3365 1.4582-.3365 2.1312 0Zm5.4961-3.2525c.5608.3365.5608.8972 0 1.2337-.5609.3364-1.5703.3364-2.1312 0-.5608-.3365-.5608-.8972 0-1.2337.673-.3364 1.5703-.3364 2.1312 0Zm5.6084-3.1401c.5608.3364.5608.8972 0 1.2336-.5608.3365-1.5703.3365-2.1312 0-.5608-.3364-.5608-.8972 0-1.2336.673-.3365 1.5704-.3365 2.1312 0Zm5.6084-3.1401c.5608.3364.5608.8972 0 1.2336-.5608.3365-1.5703.3365-2.1312 0-.5608-.3364-.5608-.8972 0-1.2336.5609-.3365 1.5704-.3365 2.1312 0Zm5.6081-3.1402c.561.3365.561.8972 0 1.2337-.561.3364-1.57.3364-2.131 0-.561-.3365-.561-.8972 0-1.2337.561-.3364 1.57-.3364 2.131 0Zm5.609-3.2524c.561.3364.561.8972 0 1.2336-.561.3365-1.571.3365-2.131 0-.561-.3364-.561-.8972 0-1.2336.56-.3365 1.57-.3365 2.131 0Zm5.6083-3.1402c.561.3365.561.8972 0 1.2337-.5612.3364-1.5702.3364-2.1312 0-.561-.3365-.561-.8972 0-1.2337.561-.3364 1.458-.3364 2.1312 0Zm5.496-3.1401c.561.3365.561.8972 0 1.2337-.561.3364-1.57.3364-2.131 0-.561-.3365-.561-.8972 0-1.2337.673-.3364 1.57-.3364 2.131 0Zm5.609-3.2524c.56.3364.56.8972 0 1.2336-.561.3365-1.571.3365-2.132 0-.56-.3364-.56-.8972 0-1.2336.561-.3365 1.571-.3365 2.132 0Z"/>
  <path fill="#177C1B" d="M64.4235 88.684c.5609-.3365 1.5704-.3365 2.1312 0 .5608.3364.5608.8972 0 1.2336-.5608.3365-1.5703.3365-2.1312 0-.5608-.3364-.5608-.8972 0-1.2336Zm122.0375 70.43c.561-.337 1.57-.337 2.131 0 .561.336.561.897 0 1.233-.561.337-1.57.337-2.131 0-.561-.336-.561-.897 0-1.233Zm-5.608-3.253c.56-.336 1.57-.336 2.131 0 .561.337.561.897 0 1.234-.561.336-1.571.336-2.131 0-.561-.337-.561-.897 0-1.234Zm-5.497-3.14c.561-.336 1.571-.336 2.132 0 .56.337.56.897 0 1.234-.561.336-1.571.336-2.132 0-.56-.337-.56-.897 0-1.234Zm-5.608-3.252c.561-.337 1.57-.337 2.131 0 .561.336.561.897 0 1.233-.561.337-1.57.337-2.131 0-.561-.336-.561-.897 0-1.233Zm-5.496-3.253c.561-.336 1.57-.336 2.131 0 .561.337.561.898 0 1.234-.561.337-1.57.337-2.131 0-.673-.336-.673-.897 0-1.234Zm-5.608-3.14c.56-.336 1.57-.336 2.131 0 .561.337.561.898 0 1.234-.561.336-1.571.336-2.131 0-.561-.336-.561-.897 0-1.234Zm-5.496-3.252c.56-.337 1.57-.337 2.131 0 .561.336.561.897 0 1.234-.561.336-1.571.336-2.131 0-.673-.337-.673-.898 0-1.234Z"/>
  <path fill="#177C1B" d="M148.324 55.824c-.225-.1122-.449-.2243-.673-.2243l-41.838-24.2243-1.234-.6729c-2.356-1.2337-3.477-1.9066-5.7212-.6729L22.2485 74.6651c-1.2338.6729-2.1312 2.1308-2.5798 3.5888L14.509 106.516 2.0585 119.637l-.1121.112s0 .112-.1122.112c-.8973 1.234-1.346 2.58-1.346 3.926L.376 150.366l45.9883 26.579.8973.561.4487-.224 6.3935-3.365c.4486 1.346 1.1216 2.356 2.019 3.028l6.3935 3.477c.3365.224.673.449 1.1216.561.4487.112 1.0095.224 1.4582.224 1.5703 0 3.1407-.673 4.711-2.019 3.7015-3.252 6.057-9.757 5.6083-14.803l1.0095.56s.1122 0 .1122.113l.4486.448c.5609.337 1.2339.337 1.7947 0l38.1366-22.205v.112l6.169 3.364h.113c.336.225.785.449 1.233.673.449.112 1.01.224 1.459.224 1.57 0 3.14-.672 4.711-2.018 4.038-3.589 6.505-10.767 5.383-16.038 0-.112-.112-.224-.112-.336l.337.112c.112.224.336.337.561.449.56.224 1.121.224 1.794-.225l8.188-4.71c1.459-.785 2.58-2.692 2.58-4.374V57.7305c0-.8972-.336-1.5701-1.009-1.9065Z"/>
  <path fill="#177C1B" fill-rule="evenodd" d="M104.501 30.2378c.082.0436.167.0878.252.1324l.005.003 1.243.6775 41.761 24.1798c.272.0285.522.1541.701.2436l.028.0144c.836.4179 1.217 1.2479 1.217 2.242v62.8035c0 .92-.305 1.883-.795 2.714-.489.829-1.178 1.556-1.977 1.988-.002.001-.003.001-.005.002l-8.168 4.699c-.374.248-.737.384-1.102.419-.367.035-.708-.037-1.03-.165l-.014-.006-.014-.007c-.009-.005-.019-.009-.029-.014-.036-.018-.075-.037-.116-.059.422 2.588.054 5.537-.874 8.283-.997 2.948-2.655 5.701-4.733 7.548l-.005.004c-1.617 1.386-3.271 2.109-4.955 2.109-.498 0-1.096-.122-1.55-.235l-.04-.01-.051-.026c-.399-.199-.821-.41-1.162-.626h-.097l-6.167-3.363-37.8508 22.039c-.0006 0-.0012 0-.0018.001-.6792.406-1.4997.406-2.1787-.001l-.0396-.024-.1638-.164-.0037-.004h-.001l-.0028-.003-.0038-.004-.0019-.002-.0019-.002-.0038-.004-.0039-.004-.0077-.007-.0009-.001-.0068-.007-.001-.001-.001-.001-.0019-.002-.0117-.012-.0904-.09-.0009-.001-.001-.001-.002-.002-.0038-.004-.002-.002-.0009-.001-.001-.001-.1243-.124-.1124-.112-.3637-.202c.0954 2.414-.3927 5.079-1.3144 7.545-1.0106 2.704-2.5547 5.201-4.4642 6.879l-.0035.003c-1.6164 1.385-3.2701 2.109-4.955 2.109-.4971 0-1.0951-.122-1.5491-.235-.5119-.128-.8944-.383-1.2233-.603l-.0015-.001-6.4026-3.481-.0218-.017c-.8745-.655-1.5372-1.595-2.001-2.795l-6.0119 3.164-.0069.003-.6368.319-1.0646-.666-.011-.007L0 150.582l.1131-26.795c0-.001 0 0 0 0 .0002-1.432.4783-2.855 1.4178-4.146l.1123-.155h.0356l.1111-.111 12.3702-13.037 5.1436-28.1733.0065-.0212c.4626-1.5033 1.4019-3.0652 2.7538-3.805l76.6137-44.6376c1.178-.6478 2.1093-.8174 3.0713-.6281.854.168 1.712.619 2.752 1.165ZM117.292 143.19l5.89 3.212h.13l.095.063c.304.203.715.41 1.156.631.435.107.939.203 1.328.203 1.454 0 2.94-.621 4.464-1.926 1.958-1.741 3.553-4.371 4.518-7.225.966-2.856 1.289-5.898.746-8.452l-.009-.038v-.007c-.001-.002-.002-.004-.003-.007-.003-.007-.008-.015-.013-.026l-.002-.005a.9645.9645 0 0 1-.052-.115.6023.6023 0 0 1-.042-.216v-.52l.978.325.069.139c.046.092.141.155.379.274.234.092.449.13.666.11.222-.022.472-.107.767-.304l.011-.007 8.208-4.721c.656-.354 1.256-.972 1.691-1.711.436-.739.691-1.571.691-2.333V57.7305c0-.8003-.292-1.3162-.802-1.5711-.246-.1231-.387-.1848-.505-.1848h-.101l-41.917-24.27-1.228-.67-.003-.0015c-.07-.0367-.139-.0729-.207-.1083-1.087-.5706-1.849-.9702-2.591-1.1161-.747-.147-1.498-.0367-2.5613.5473-.001.0007-.003.0014-.004.0021L22.428 74.9944c-1.1076.6041-1.9584 1.9456-2.3945 3.3488l-5.1757 28.3498-12.5341 13.209-.0433.043a.4816.4816 0 0 1-.1735.211.593.593 0 0 1-.0393.023c-.8081 1.148-1.2045 2.383-1.2045 3.608v.001L.7519 150.15l45.8111 26.477.7189.45.2537-.127.0069-.004 6.7773-3.566.1396.419c.4272 1.281 1.0554 2.214 1.8669 2.83l6.3838 3.472.0141.009c.3407.227.6272.415 1.0046.509.4433.111.9669.213 1.3672.213 1.4552 0 2.9417-.622 4.4654-1.927 1.7912-1.575 3.2748-3.955 4.2548-6.577.9799-2.622 1.444-5.453 1.2256-7.91l-.0626-.705 1.5746.875a.5474.5474 0 0 1 .0948.036.47.47 0 0 1 .1829.161.4512.4512 0 0 1 .0426.079l.0592.06.0038.003.0009.001.0028.003.0038.004.0019.002.0019.002.0077.007.0077.008.001.001.0067.007.001.001.001.001.0019.002.0117.011.0904.091.0009.001.001.001.002.002.0038.003.002.002.0009.001.001.001.1272.128c.434.243.9415.235 1.3711-.022l.0042-.003 38.7004-22.534v.542Z" clip-rule="evenodd"/>
  <path fill="#F6A01D" d="m136.995 128.945-19.293-10.99 21.536-10.767-1.121 14.58-1.122 7.177Z"/>
  <path fill="#177C1B" d="m136.547 129.394-20.303-11.439 23.78-11.888-1.234 15.701-1.01 7.177c-.112.449-.673.785-1.233.449Zm-17.386-11.327 17.386 9.869.897-6.281 1.122-13.345-19.405 9.757Z"/>
  <path fill="#F6A01D" d="M126.227 121.656c-1.683-.673-3.702-.225-5.833 1.57-3.926 3.476-6.169 10.318-5.159 15.476.448 2.131 1.346 3.477 2.579 4.262l6.73 3.589 8.525-21.196-6.842-3.701Z"/>
  <path fill="#177C1B" d="M125.554 145.768c-.337.897-1.458 1.346-2.356.897l-6.169-3.364v-.113c-1.234-.897-2.019-2.467-2.355-4.373-1.122-5.271 1.346-12.449 5.384-16.038 1.907-1.682 4.038-2.355 5.832-1.906v-.113l.673.337 6.506 3.477c.449.224.673.785.449 1.233l-7.964 19.963Zm-6.954-3.14 5.608 3.028 7.964-19.963-6.169-3.364c-1.459-.673-3.253-.113-5.048 1.458-3.701 3.252-5.945 9.869-4.935 14.803.336 1.795 1.121 3.14 2.243 3.813l.337.225Z"/>
  <path fill="#177C1B" d="M136.097 129.394c-.561-2.692-1.907-4.598-3.813-5.159-1.907-.673-4.151 0-6.17 1.794-4.038 3.589-6.505 10.767-5.384 16.038.561 2.691 1.907 4.598 3.814 5.159.449.112 1.01.224 1.458.224 1.571 0 3.141-.673 4.711-2.019 4.038-3.476 6.394-10.654 5.384-16.037Z"/>
  <path fill="#F6A01D" d="m77.5465 164.721-19.2926-10.879 21.5359-10.878-1.1216 14.579-1.1217 7.178Z"/>
  <path fill="#177C1B" d="m76.425 164.945-19.6291-11.103 23.7793-11.887-1.2339 15.701-.8973 6.392c-.2243.785-1.2338 1.346-2.019.897ZM59.6 153.842l17.3858 9.87.8974-6.281 1.1216-13.346L59.6 153.842Z"/>
  <path fill="#F6A01D" d="M65.4327 155.413c-1.6825-.673-3.7015-.225-5.8327 1.57-3.9258 3.476-6.1691 10.317-5.1596 15.476.4487 2.131 1.346 3.477 2.5798 4.262l6.73 3.589 8.4125-21.309-6.73-3.588Z"/>
  <path fill="#177C1B" d="M64.6474 179.637c-.3365.785-1.346 1.234-2.1312.785l-6.3935-3.477c-1.2338-.897-2.019-2.579-2.3555-4.486-1.1216-5.271 1.346-12.448 5.384-16.037 1.9068-1.682 4.038-2.355 5.8327-1.907v-.112l.673.337 6.0569 3.252c.673.336 1.0095 1.234.673 2.019l-7.7394 19.626Zm-6.9544-3.365 5.6084 3.028 7.9638-19.962-6.1692-3.365c-1.4581-.673-3.2528-.112-5.0475 1.458-3.7015 3.253-5.9448 9.869-4.9353 14.804.3365 1.794 1.1217 3.14 2.2433 3.813l.3365.224Z"/>
  <path fill="#177C1B" d="M75.1907 163.151c-.5609-2.692-1.9069-4.598-3.8137-5.159-1.9068-.673-4.1502 0-6.1692 1.794-4.0379 3.589-6.5056 10.767-5.3839 16.038.5608 2.691 1.9068 4.598 3.8136 5.159.4487.112 1.0095.224 1.4582.224 1.5703 0 3.1406-.673 4.711-2.019 4.038-3.588 6.5056-10.766 5.384-16.037Z"/>
  <path fill="#F6A01D" d="m99.0827 99.4501 48.3443-43.1775-42.063-24.2243-1.234-.6729c-2.243-1.2337-3.14-1.6823-4.9353-.6729L22.6972 75.338c-1.0095.5607-1.9069 1.7944-2.1312 3.028l-5.1596 28.598L2.5072 120.31c-.8973 1.121 1.1217 3.028 1.1217 4.261l1.2338 14.131 1.2338 4.711-1.5703 1.458.2243 2.018 6.057-2.131.1122-4.149c.4487-3.253 1.5703-9.421 6.3935-12.449 8.749-5.495 9.1976 7.963 9.422 10.654.1121.785.673 1.122 1.4581.673l10.095-5.607 1.1217 1.346 21.8724-1.57 34.6593-31.29 3.141-1.795v-1.1209Z"/>
  <path fill="#FDEDCC" d="m99.3058 102.478 46.3252-42.0561-41.95-24.3365-1.234-.6729c-2.243-1.2336-3.1412-1.6822-4.9352-.6729L26.0616 76.5714c-1.0095.5608-1.7947 1.7944-2.1312 3.028l-5.1597 28.5986-16.0398 15.028c-.8973 1.121 1.1217 3.028 1.1217 4.261l1.346 14.243 1.2338 4.711-1.5703 1.458.2243 2.018 6.057-2.131.1122-4.149c.4487-3.253 1.5703-9.421 6.3935-12.449 8.749-5.495 9.1976 7.963 9.422 10.654.1121.785.673 1.122 1.4581.673l10.095-5.607 1.1217 1.346 21.7603-1.683 34.6596-31.289 3.14-1.795v-1.009Z"/>
  <path fill="#177C1B" d="m4.0773 147.899-.3365-3.365 1.5703-1.458-1.1217-4.262-1.346-14.355c0-.336-.3365-.897-.5608-1.345-.5608-1.01-1.2338-2.356-.4487-3.365l12.6748-13.121 5.1597-28.3739c.3365-1.5701 1.346-2.9159 2.5798-3.5888l76.6095-44.7476c2.1313-1.1215 3.3653-.5608 5.7213.6729l1.234.6729 42.959 24.8972-48.7923 43.6261v1.2332l-3.589 2.019-34.7721 31.289-22.5454 1.683-1.0095-1.122-9.5342 5.383c-.5608.337-1.2338.449-1.7946.113-.4487-.225-.7852-.785-.8974-1.458l-.1121-.673c-.2244-2.468-.673-8.86-3.5893-10.318-1.1217-.561-2.692-.336-4.5989.897-4.2623 2.692-5.4961 7.738-6.057 11.888v4.598l-7.4029 2.58Zm1.2338-2.804.1122.673 4.5988-1.57v-3.589c.3365-2.692 1.346-9.757 6.73-13.122 2.3555-1.458 4.3745-1.794 6.057-.897 3.7014 1.907 4.2623 8.636 4.4866 11.552v.672c0 .113.1122.225.1122.225s.1121 0 .2243-.112l10.6558-5.944 1.346 1.458 21.3116-1.57 34.4351-31.066 2.916-1.682v-1.0091L146.08 56.4971l-42.286-24.4486c-2.132-1.2336-2.692-1.4579-4.1513-.6729L23.0334 76.0111c-.7852.4486-1.5703 1.5701-1.7947 2.5795l-5.2718 28.8224-12.899 13.458c-.2245.224.2242 1.009.5607 1.682.3365.673.673 1.346.673 2.018l1.346 14.131 1.346 4.935-1.6825 1.458Z"/>
  <path fill="#F6A01D" d="m1.1611 149.917 46.1004 26.58 14.2451-43.066-11.2166-6.392-34.7716-20.187-12.899 13.233c-.8975 1.122-1.4583 2.468-1.4583 3.701v26.131Z"/>
  <path fill="#FDEDCC" d="m3.4043 151.488 43.6327 25.121 12.0018-40.822-43.6327-25.122-10.5437 11.103c-.8973 1.121-1.4581 2.467-1.4581 3.701v26.019Z"/>
  <path fill="#177C1B" d="M46.7008 177.058.376 150.366l.1122-26.58c0-1.345.5608-2.915 1.5703-4.149l13.2357-13.794 35.3324 20.523 11.7775 6.617-15.7033 44.075ZM1.8342 149.469l44.8666 25.906 13.7965-41.607-10.6559-6.056-34.3229-19.851-12.3383 12.785c-.673.898-1.2338 2.131-1.2338 3.14l-.1122 25.683Z"/>
  <path fill="#F6A01D" d="M61.5071 90.3661 40.1955 78.0297c-1.1217-.6729-1.0096-1.7944.3364-2.4673l7.7396-4.486c1.346-.7851 3.2528-.7851 4.3745-.2243l21.3116 12.3364c1.1217.6729 1.0094 1.7944-.3366 2.4673l-7.7395 4.486c-1.2338.7851-3.2527.7851-4.3744.2243Z"/>
  <path fill="#177C1B" d="M63.4139 91.4878c-.8973 0-1.6825-.2243-2.2433-.5607L39.8589 78.5906c-.673-.4486-1.1216-1.0093-1.1216-1.7944 0-.785.5608-1.5701 1.4581-2.1308l7.7395-4.486c1.5704-.8972 3.8137-1.0093 5.1597-.2243l21.3116 12.3365c.673.4486 1.1217 1.0093 1.1217 1.7944 0 .785-.5609 1.5701-1.4582 2.1308l-7.7395 4.486c-.8973.5607-1.9068.785-2.9163.785Zm-1.4582-1.7944c.8974.4486 2.5799.4486 3.5894-.2243l7.7394-4.4859c.4487-.2243.673-.5608.673-.7851 0-.2243-.2243-.3364-.3365-.4486L52.3094 71.4131c-.8973-.5608-2.5798-.4486-3.5893.2243l-7.7395 4.4859c-.4487.3365-.673.5608-.673.7851 0 .2243.2243.3364.3365.4486l21.3116 12.3364Z"/>
  <path fill="#FDEDCC" d="m55.8981 84.6464-5.0474-2.9159c-.2244-.1122-.2244-.4486.1121-.5607l1.7947-1.0094c.3365-.2243.7851-.2243 1.0095 0l5.0475 2.9159c.2243.1121.2243.4486-.1122.5607l-1.7947 1.0094c-.3365.1121-.7851.1121-1.0095 0Z"/>
  <path fill="#177C1B" d="M55.5615 83.6373c-.3365 0-.5608-.1122-.7851-.2243l-5.0475-2.9159c-.3365-.2243-.5609-.4486-.5609-.785 0-.3365.2244-.6729.5609-.8972l1.7946-1.0094c.5609-.3364 1.2339-.3364 1.6825 0l5.0475 2.9159c.3365.2243.5609.4486.5609.7851 0 .3364-.2244.6728-.5609.8971l-1.7946 1.0094c-.2244.1121-.5609.2243-.8974.2243Zm-.1121-1.3458h.3365l1.346-.785-4.4867-2.5795h-.3365l-1.346.7851 4.4867 2.5794Z"/>
  <path fill="#F6A01D" d="m42.7744 153.282-3.4771-2.019c-.3365-.112-.5609-.224-.7852 0-.2243.112-.4486.449-.4486.897v6.505c0 .673.4486 1.458.8973 1.794l3.4771 2.019c.1122.112.3365.112.4487.112.1122 0 .2243 0 .3365-.112.2243-.112.4487-.449.4487-.897v-6.505c0-.785-.4487-1.57-.8974-1.794Z"/>
  <path fill="#177C1B" d="M42.8868 163.151c-.2244 0-.5609-.112-.7852-.224l-3.4772-2.019c-.7851-.449-1.2338-1.458-1.2338-2.355v-6.505c0-.673.2243-1.234.7852-1.458.4486-.224 1.0095-.224 1.4581 0l3.4772 2.019c.7851.448 1.2338 1.458 1.2338 2.355v6.505c0 .673-.2243 1.233-.7851 1.458-.2244.224-.4487.224-.673.224Zm-3.9259-11.327c-.1121 0-.1121.112-.1121.224v6.505c0 .448.3365 1.009.5608 1.233l3.4772 2.019c.1121 0 .2243-.112.2243-.224v-6.505c0-.448-.3365-1.009-.5608-1.234l-3.5894-2.018Z"/>
  <path fill="#F6A01D" d="m43.1109 166.067-4.1501-2.355c-.2243-.113-.4487-.113-.5608 0-.2244.112-.3365.336-.3365.56v.785c0 .449.2243.898.5608 1.122l4.1501 2.355c.1122.112.2244.112.3365.112.1122 0 .2244 0 .2244-.112.2243-.112.3365-.336.3365-.561v-.785c0-.448-.2244-.897-.5609-1.121Z"/>
  <path fill="#177C1B" d="M43.1111 169.319c-.2243 0-.4487-.112-.673-.224l-4.1502-2.355c-.5608-.337-.8973-1.01-.8973-1.683v-.785c0-.56.2243-1.009.673-1.233.3365-.225.7852-.225 1.2338 0l4.1502 2.355c.5608.336.8973 1.009.8973 1.682v.785c0 .561-.2243 1.009-.673 1.234-.1121.224-.3365.224-.5608.224Zm-4.4867-5.047.1122.785c0 .225.1122.449.2243.561l4.1502 2.355-.1122-.785c0-.224-.1121-.448-.2243-.561l-4.1502-2.355Z"/>
  <path fill="#F6A01D" d="m8.4512 133.768-3.4772-2.019c-.3365-.112-.5608-.224-.785 0-.2245.112-.4488.449-.4488.897v6.505c0 .673.4487 1.458.8973 1.794l3.4772 2.019c.1122.112.3365.112.4487.112.1121 0 .2243 0 .3365-.112.2243-.112.4486-.448.4486-.897v-6.617c.1122-.673-.3365-1.458-.8973-1.682Z"/>
  <path fill="#177C1B" d="M8.6758 143.637c-.2243 0-.5608-.112-.7851-.224l-3.4772-2.019c-.7852-.449-1.2338-1.458-1.2338-2.355v-6.505c0-.673.2243-1.233.785-1.458.4488-.224 1.0096-.224 1.4583 0l3.477 2.019c.7853.449 1.234 1.458 1.234 2.355v6.505c0 .673-.2244 1.233-.7852 1.458-.2243.224-.4487.224-.673.224Zm-4.038-11.327c-.1121 0-.1121.112-.1121.224v6.505c0 .448.3365 1.009.5608 1.234l3.477 2.018c.1123 0 .2245-.112.2245-.224v-6.617c0-.449-.3365-1.009-.561-1.234l-3.5892-1.906s.1122 0 0 0Z"/>
  <path fill="#F6A01D" d="m8.7877 146.553-4.1502-2.355c-.2243-.112-.4486-.112-.5608 0-.2243.112-.3365.336-.3365.56v.785c0 .449.2243.898.5608 1.122l4.1502 2.355c.1122.112.2243.112.3365.112.1122 0 .2243 0 .2243-.112.2244-.112.3365-.336.3365-.561v-.785c.1122-.448-.2243-1.009-.5608-1.121Z"/>
  <path fill="#177C1B" d="M8.9 149.805c-.2242 0-.4485-.112-.673-.224l-4.15-2.355c-.5608-.337-.8973-1.01-.8973-1.683v-.785c0-.56.2243-1.009.673-1.233.3365-.225.785-.225 1.2338 0l4.15 2.355c.561.336.8975 1.009.8975 1.682v.785c0 .561-.2244 1.009-.673 1.234-.2244.112-.3365.224-.561.224Zm-4.4865-5.047.1122.785c0 .225.112.449.2243.561l4.15 2.355-.112-.785c0-.224-.1122-.448-.2244-.56l-4.1501-2.356Z"/>
  <path fill="#F6A01D" d="m34.2501 147.899-20.5265-11.888c-.3365-.224-.7851-.224-1.0095-.112-.3365.224-.5608.673-.5608 1.121v11.888c0 .897.5608 1.907 1.2338 2.355l20.4143 11.776c.2244.112.4487.224.5609.224.1121 0 .3365 0 .4486-.112.3365-.224.5609-.673.5609-1.122v-11.775c.1121-1.01-.4487-2.019-1.1217-2.355Z"/>
  <path fill="#FDEDCC" d="m27.0709 153.506-4.711-2.692h-.2243c-.1122 0-.1122.113-.1122.225v2.691c0 .225.1122.449.3365.561l4.711 2.692h.2243c.1122 0 .1122-.112.1122-.225v-2.691c-.1122-.224-.2243-.449-.3365-.561Z"/>
  <path fill="#177C1B" d="M25.8375 155.525c-.1122 0-.3365 0-.4487-.112l-4.7109-2.692c-.3365-.224-.673-.673-.673-1.122v-2.691c0-.337.1121-.673.4486-.897.3365-.112.673-.112.8974 0l4.7109 2.691c.3365.225.673.673.673 1.122v2.691c0 .337-.2243.673-.4486.898l-.1122.112h-.3365Zm-4.4866-5.944v2.018l3.9258 2.243v-1.906l-3.9258-2.355Z"/>
  <path fill="#177C1B" d="M34.4748 163.824c-.3365 0-.673-.112-.8973-.225l-20.4143-11.775c-.8974-.561-1.5704-1.795-1.5704-2.916v-11.776c0-.785.3365-1.458.8974-1.682.5608-.337 1.1216-.224 1.6825 0l20.4143 11.776c.8973.56 1.5703 1.794 1.5703 2.916v11.775c0 .785-.3365 1.458-.8973 1.682-.2244.225-.5609.225-.7852.225Zm-21.3116-27.253h-.1122c-.1122.113-.2243.337-.2243.561v11.776c0 .673.4486 1.458.8973 1.794l20.4143 11.776c.1122.112.2243.112.2243.112.2244-.112.3365-.336.3365-.561v-11.775c0-.673-.4486-1.458-.8973-1.795l-20.4143-11.775c0-.113-.1122-.113-.2243-.113ZM148.324 55.8243c-.673-.3365-1.458-.3365-2.244.1121L68.4611 101.244c-1.2338.673-2.1311 2.131-2.5798 3.589l-5.1597 28.374-12.6748 13.122c-1.0095 1.233-1.5703 2.803-1.5703 4.149l-.1122 26.467.8974.561.4486-.224 9.7585-5.047c.673-.336 1.1217-1.121 1.1217-1.794l.4486-3.028c.4487-3.141 2.4677-9.197 7.0665-12.113 2.3555-1.457 4.4867-1.794 6.1692-.785 2.8041 1.683 4.1501 6.729 4.038 8.972v.337c0 .673.3365 1.233.8973 1.57.5608.336 1.2338.336 1.7947 0l39.4832-22.879c.448-.336.785-.785.897-1.345l.112-2.131v-1.122c-.112-4.598 1.346-13.345 7.291-16.71 2.355-1.346 4.262-1.682 5.608-1.009 2.468 1.233 3.141 5.383 3.477 7.402.113.336.113.672.113.897.112.56.448 1.009.897 1.233.561.225 1.122.225 1.795-.224l8.188-4.71c1.458-.785 2.579-2.692 2.579-4.374V57.7308c-.112-.8972-.448-1.5701-1.121-1.9065Z"/>
  <path fill="#F6A01D" d="M39.5221 94.1794 25.277 85.9925c-.4487-.2243-.8973-.2243-1.346-.1122-.4487.2243-.7852.5608-.7852 1.0093l-2.692 14.6914c-.2243 1.009.3365 2.019 1.2339 2.579l13.6843 7.963c.2243.112.5608.224.7851.224.2244 0 .4486 0 .6729-.112.4487-.224.7853-.673.8975-1.121l2.9163-14.5795c.1122-1.0093-.3365-1.9065-1.1217-2.3551Z"/>
  <path fill="#177C1B" d="M36.1567 113.02c-.4487 0-.7852-.112-1.1217-.336l-13.6843-7.963c-1.1216-.673-1.7946-2.019-1.4581-3.252l2.6919-14.6918c.1122-.6729.5609-1.2337 1.2339-1.5701.673-.3365 1.346-.2243 1.9068.1121l14.2451 8.187c1.1217.6729 1.6825 1.9065 1.4582 3.028l-2.9163 14.5798c-.1122.785-.673 1.345-1.346 1.682-.4487.224-.7852.224-1.0095.224ZM24.6035 86.4407c-.1121 0-.2243 0-.3365.1122-.2243.1121-.4486.3364-.4486.5607l-2.692 14.6914c-.1122.785.2243 1.458.8973 1.907l13.6843 7.962c.2244.113.5609.225.8974 0 .2243-.112.4486-.336.5608-.673l2.9163-14.579c.1122-.6728-.2243-1.3457-.7851-1.6822l-14.2452-8.1869c-.2243-.1122-.3365-.1122-.4487-.1122Z"/>
  <path fill="#F6A01D" d="m60.4976 106.403-14.2451-8.1869c-.4487-.2243-.8974-.2243-1.346-.1121-.4487.2243-.7852.5607-.7852 1.0093l-2.692 14.6917c-.2243 1.009.3365 2.019 1.2339 2.579l13.6843 7.963c.2243.112.5608.224.7851.224.2244 0 .4487 0 .673-.112.4487-.224.7852-.673.8974-1.121l2.9163-14.58c.1121-.897-.3365-1.906-1.1217-2.355Z"/>
  <path fill="#177C1B" d="M57.1324 125.244c-.4487 0-.7852-.112-1.1217-.336l-13.6843-7.963c-1.1217-.673-1.7947-2.018-1.4582-3.252l2.692-14.6913c.1122-.6729.5609-1.2336 1.2339-1.5701.673-.3364 1.346-.2243 1.9068.1122L60.946 105.73c1.1217.673 1.6825 1.907 1.4582 3.028l-2.9163 14.58c-.1122.785-.5609 1.346-1.346 1.682-.3365.224-.673.224-1.0095.224ZM45.5792 98.6653c-.1121 0-.2243 0-.3365.1121-.2243.1122-.4486.3365-.4486.5608l-2.692 14.6908c-.1122.785.2243 1.458.8973 1.907l13.6843 7.963c.2243.112.5608.224.8973 0 .3365-.113.4487-.337.5609-.673l2.9163-14.58c.1122-.673-.2243-1.346-.7852-1.682l-14.2451-8.1866c-.2243 0-.3365-.1121-.4487-.1121Z"/>
  <path fill="#F6A01D" d="M68.7972 130.74c-.3365 0-.673-.113-1.0095-.337-.673-.561-.8974-1.57-.5609-2.691l3.7015-19.29c.3365-1.458 1.346-2.804 2.4677-3.477l2.5799-1.57c.673-.336 1.3459-.448 1.9067-.112.5609.336.7852.897.7852 1.682v16.935c0 2.019-1.346 4.374-3.1406 5.383l-5.6084 3.14c-.3365.224-.7851.337-1.1216.337Zm3.365-22.094-3.7015 19.29c-.2244.785-.1121 1.234.1122 1.346.1122.112.4486.112.7851-.112l5.4962-3.253c1.346-.785 2.4676-2.691 2.4676-4.261v-16.823c0-.224-.1121-.449-.1121-.449-.1122 0-.2244 0-.4487.113l-2.5798 1.57c-1.0095.448-1.7947 1.57-2.019 2.579Zm11.8897 46.206c-.3365 0-.7852-.112-1.1217-.337-.673-.448-1.1216-1.121-1.1216-1.906v-49.682c0-1.234.673-2.355 1.7946-3.0283l11.5535-6.5047c.561-.3365 1.234-.3365 1.794 0 .561.3364.898.8972.898 1.5701v50.2429c0 1.346-.673 2.467-1.795 3.14l-10.8801 6.281c-.3365.112-.673.224-1.1217.224Zm12.0018-60.4487c-.112 0-.112 0-.224.1122L84.2762 101.02c-.673.337-1.1216 1.122-1.1216 1.795v49.794c0 .336.1121.673.4486.785.3365.112.673.112.8974 0l10.8801-6.28c.673-.449 1.122-1.122 1.122-2.019V94.9641c0-.2243-.225-.4486-.225-.4486s-.112-.1122-.224-.1122Z"/>
  <path fill="#F6A01D" d="M85.7349 131.973c-.2244 0-.4487 0-.5609-.112-.4486-.224-.673-.673-.673-1.346v-1.794c0-.897.5609-1.907 1.2339-2.355l4.7109-2.804c.449-.224.897-.224 1.234 0 .449.224.673.785.673 1.346v1.794c0 .897-.561 1.907-1.234 2.355l-4.711 2.804c-.112 0-.4486.112-.6729.112Zm5.3839-7.289-4.711 2.691c-.224.112-.5608.673-.5608 1.234v2.018l4.7108-2.803c.225-.112.561-.673.561-1.234v-1.906c.112.112.112.112 0 0Zm-24.9016 51.813c-.3365 0-.673 0-.8973-.112-1.2338-.449-2.019-1.57-2.3555-3.141-.673-3.14.7852-7.289 3.1407-9.42 1.2338-1.122 2.5798-1.458 3.8136-1.122 1.2338.449 2.019 1.57 2.3555 3.141.673 3.14-.7852 7.289-3.1406 9.42-1.0095.785-2.0191 1.234-2.9164 1.234Zm2.692-12.785c-.5608 0-1.346.336-2.019.897-2.019 1.794-3.2528 5.495-2.8041 8.187.2243 1.121.7851 1.906 1.4581 2.131.7852.224 1.5704 0 2.4677-.785 2.019-1.795 3.2528-5.496 2.8041-8.187-.2243-1.122-.7851-1.907-1.4581-2.243-.1122.112-.2244 0-.4487 0Zm58.2158-20.86c-.337 0-.673 0-.898-.112-1.233-.449-2.019-1.57-2.355-3.141-.673-3.14.785-7.289 3.141-9.42 1.233-1.122 2.579-1.458 3.813-1.122 1.234.449 2.019 1.57 2.356 3.141.673 3.14-.785 7.289-3.141 9.42-1.009.785-2.019 1.234-2.916 1.234Zm2.692-12.785c-.561 0-1.346.336-2.019.897-2.019 1.794-3.253 5.495-2.804 8.187.224 1.121.785 1.906 1.458 2.243.785.224 1.57 0 2.467-.785 2.019-1.795 3.253-5.496 2.805-8.187-.225-1.122-.786-1.907-1.459-2.243 0 0-.224-.112-.448-.112Z"/>
  <path fill="#FDEDCC" d="m199.024 107.973-28.603-16.5975-28.602 16.5975v32.972l28.602 16.486v-32.859l28.603-16.599Z"/>
  <path fill="#F6A01D" d="m141.819 140.833 28.602 16.486v-32.86l-28.602-16.598v32.972Z"/>
  <path fill="#177C1B" d="m199.585 107.637-29.164-16.8221-29.051 16.8221h-.112v33.645l28.603 16.486.56.336.561-.336 28.266-16.374.337-.112v-33.645Zm-29.164-15.5885 13.46 7.7384-27.48 15.8131-13.46-7.739 27.48-15.8125Zm-.56 64.3735-27.481-15.813v-31.738l27.481 15.813v31.738Zm12.226-39.365-11.666 6.729-13.46-7.738 27.481-15.813 13.46 7.738-15.815 9.084Z"/>
  <path fill="#177C1B" fill-rule="evenodd" d="m170.421 90.6704 29.289 16.8946v33.807l-.41.137-28.254 16.366-.001.001-.624.374-.623-.374-.002-.001-28.663-16.521v-33.842h.204l29.084-16.8416Zm0 .2888-29.017 16.8028h-.021v33.448l28.542 16.451.496.297.497-.297.002-.001 28.276-16.381.264-.087v-33.483l-29.039-16.7498Zm0 .9451 13.711 7.8824-27.731 15.9573-13.711-7.883 27.731-15.9567Zm0 .2884-27.23 15.6683 13.21 7.594 27.23-15.6682-13.21-7.5941Zm14.021 7.8983 13.711 7.882-16.004 9.193-11.728 6.765-13.71-7.883 27.731-15.957Zm0 .288-27.23 15.669 13.209 7.594 11.603-6.693 15.627-8.976-13.209-7.594Zm-42.187 8.275 27.731 15.957v32.027l-27.731-15.957v-32.027Zm.25.433v31.45l27.231 15.669v-31.45l-27.231-15.669Z" clip-rule="evenodd"/>
  <path fill="#177C1B" d="m159.092 124.459-5.272-3.028c-.56-.336-1.233-.336-1.682-.112-.561.337-.897 1.01-.897 1.907 0 1.458.897 3.028 2.019 3.701l5.271 3.028c.337.224.673.224 1.01.224.224 0 .449-.112.673-.224.561-.337.897-1.01.897-1.907-.112-1.346-.897-2.916-2.019-3.589Zm.449 4.599c-.112.112-.449 0-.561-.113l-5.272-3.028c-.785-.448-1.346-1.682-1.346-2.691 0-.561.112-.785.337-.897.112-.113.448 0 .561.112l.336.224c.112 1.234.897 2.579 1.795 3.028l4.486 2.579c0 .449-.112.673-.336.786Z"/>
</svg>
